M48
; DRILL file {KiCad (5.1.5)-3} date 1/24/2020 1:47:41 PM
; FORMAT={-:-/ absolute / metric / decimal}
; #@! TF.CreationDate,2020-01-24T13:47:41-08:00
; #@! TF.GenerationSoftware,Kicad,Pcbnew,(5.1.5)-3
; #@! TF.FileFunction,Plated,1,2,PTH
FMAT,2
METRIC
T1C0.400
T2C0.900
T3C0.950
T4C1.300
%
G90
G05
T1
X84.836Y-71.958
X84.836Y-78.867
X84.836Y-85.877
X84.836Y-92.837
X84.836Y-99.847
X84.836Y-106.807
X84.836Y-113.817
X84.836Y-120.777
X84.836Y-127.787
X84.836Y-134.747
X130.302Y-70.104
X130.302Y-77.089
X130.302Y-84.074
X130.302Y-91.059
X130.302Y-98.044
X130.302Y-105.029
X130.302Y-112.014
X130.302Y-118.999
X130.302Y-125.984
X130.302Y-132.969
T2
X100.33Y-65.786
X100.33Y-68.326
X100.33Y-70.866
X100.33Y-73.406
X100.33Y-75.946
X100.33Y-78.486
X100.33Y-81.026
X100.33Y-83.566
X100.33Y-86.106
X100.33Y-88.646
X100.33Y-91.186
X100.33Y-93.726
X100.33Y-96.266
X100.33Y-98.806
X100.33Y-101.346
X115.57Y-65.786
X115.57Y-68.326
X115.57Y-70.866
X115.57Y-73.406
X115.57Y-75.946
X115.57Y-78.486
X115.57Y-81.026
X115.57Y-83.566
X115.57Y-86.106
X115.57Y-88.646
X115.57Y-91.186
X115.57Y-93.726
X115.57Y-96.266
X115.57Y-98.806
X115.57Y-101.346
X119.38Y-98.806
X119.38Y-101.346
X119.425Y-103.886
T3
X133.627Y-78.232
X136.127Y-78.232
X138.627Y-78.232
X141.127Y-78.232
X73.962Y-70.612
X76.462Y-70.612
X78.962Y-70.612
X81.462Y-70.612
X74.042Y-91.567
X76.542Y-91.567
X79.042Y-91.567
X81.542Y-91.567
X133.547Y-127.127
X136.047Y-127.127
X138.547Y-127.127
X141.047Y-127.127
X133.587Y-134.112
X136.087Y-134.112
X138.587Y-134.112
X141.087Y-134.112
X133.587Y-120.142
X136.087Y-120.142
X138.587Y-120.142
X141.087Y-120.142
X74.002Y-126.492
X76.502Y-126.492
X79.002Y-126.492
X81.502Y-126.492
X133.627Y-92.202
X136.127Y-92.202
X138.627Y-92.202
X141.127Y-92.202
X133.547Y-113.157
X136.047Y-113.157
X138.547Y-113.157
X141.047Y-113.157
X73.962Y-77.597
X76.462Y-77.597
X78.962Y-77.597
X81.462Y-77.597
X133.587Y-106.172
X136.087Y-106.172
X138.587Y-106.172
X141.087Y-106.172
X133.597Y-71.247
X136.097Y-71.247
X138.597Y-71.247
X141.097Y-71.247
X73.962Y-112.522
X76.462Y-112.522
X78.962Y-112.522
X81.462Y-112.522
X133.587Y-99.187
X136.087Y-99.187
X138.587Y-99.187
X141.087Y-99.187
X73.962Y-119.507
X76.462Y-119.507
X78.962Y-119.507
X81.462Y-119.507
X74.002Y-133.477
X76.502Y-133.477
X79.002Y-133.477
X81.502Y-133.477
X133.627Y-85.217
X136.127Y-85.217
X138.627Y-85.217
X141.127Y-85.217
X74.042Y-98.552
X76.542Y-98.552
X79.042Y-98.552
X81.542Y-98.552
X74.042Y-84.582
X76.542Y-84.582
X79.042Y-84.582
X81.542Y-84.582
X74.002Y-105.537
X76.502Y-105.537
X79.002Y-105.537
X81.502Y-105.537
T4
X104.775Y-133.604
X109.855Y-133.604
T0
M30
