G04 #@! TF.GenerationSoftware,KiCad,Pcbnew,(5.1.5)-3*
G04 #@! TF.CreationDate,2020-03-12T19:37:12-07:00*
G04 #@! TF.ProjectId,siplace_feeder_controller,7369706c-6163-4655-9f66-65656465725f,rev?*
G04 #@! TF.SameCoordinates,Original*
G04 #@! TF.FileFunction,Soldermask,Top*
G04 #@! TF.FilePolarity,Negative*
%FSLAX46Y46*%
G04 Gerber Fmt 4.6, Leading zero omitted, Abs format (unit mm)*
G04 Created by KiCad (PCBNEW (5.1.5)-3) date 2020-03-12 19:37:12*
%MOMM*%
%LPD*%
G04 APERTURE LIST*
%ADD10C,0.100000*%
G04 APERTURE END LIST*
D10*
G36*
X145875256Y-138891298D02*
G01*
X145981579Y-138912447D01*
X146282042Y-139036903D01*
X146552451Y-139217585D01*
X146782415Y-139447549D01*
X146963097Y-139717958D01*
X147087553Y-140018421D01*
X147151000Y-140337391D01*
X147151000Y-140662609D01*
X147087553Y-140981579D01*
X146963097Y-141282042D01*
X146782415Y-141552451D01*
X146552451Y-141782415D01*
X146282042Y-141963097D01*
X145981579Y-142087553D01*
X145875256Y-142108702D01*
X145662611Y-142151000D01*
X145337389Y-142151000D01*
X145124744Y-142108702D01*
X145018421Y-142087553D01*
X144717958Y-141963097D01*
X144447549Y-141782415D01*
X144217585Y-141552451D01*
X144036903Y-141282042D01*
X143912447Y-140981579D01*
X143849000Y-140662609D01*
X143849000Y-140337391D01*
X143912447Y-140018421D01*
X144036903Y-139717958D01*
X144217585Y-139447549D01*
X144447549Y-139217585D01*
X144717958Y-139036903D01*
X145018421Y-138912447D01*
X145124744Y-138891298D01*
X145337389Y-138849000D01*
X145662611Y-138849000D01*
X145875256Y-138891298D01*
G37*
G36*
X69875256Y-138891298D02*
G01*
X69981579Y-138912447D01*
X70282042Y-139036903D01*
X70552451Y-139217585D01*
X70782415Y-139447549D01*
X70963097Y-139717958D01*
X71087553Y-140018421D01*
X71151000Y-140337391D01*
X71151000Y-140662609D01*
X71087553Y-140981579D01*
X70963097Y-141282042D01*
X70782415Y-141552451D01*
X70552451Y-141782415D01*
X70282042Y-141963097D01*
X69981579Y-142087553D01*
X69875256Y-142108702D01*
X69662611Y-142151000D01*
X69337389Y-142151000D01*
X69124744Y-142108702D01*
X69018421Y-142087553D01*
X68717958Y-141963097D01*
X68447549Y-141782415D01*
X68217585Y-141552451D01*
X68036903Y-141282042D01*
X67912447Y-140981579D01*
X67849000Y-140662609D01*
X67849000Y-140337391D01*
X67912447Y-140018421D01*
X68036903Y-139717958D01*
X68217585Y-139447549D01*
X68447549Y-139217585D01*
X68717958Y-139036903D01*
X69018421Y-138912447D01*
X69124744Y-138891298D01*
X69337389Y-138849000D01*
X69662611Y-138849000D01*
X69875256Y-138891298D01*
G37*
G36*
X136263627Y-133099037D02*
G01*
X136433466Y-133150557D01*
X136589991Y-133234222D01*
X136625729Y-133263552D01*
X136727186Y-133346814D01*
X136810448Y-133448271D01*
X136839778Y-133484009D01*
X136923443Y-133640534D01*
X136974963Y-133810374D01*
X136988000Y-133942743D01*
X136988000Y-134281258D01*
X136974963Y-134413627D01*
X136923443Y-134583466D01*
X136839778Y-134739991D01*
X136810448Y-134775729D01*
X136727186Y-134877186D01*
X136589989Y-134989779D01*
X136433467Y-135073442D01*
X136433465Y-135073443D01*
X136263626Y-135124963D01*
X136087000Y-135142359D01*
X135910373Y-135124963D01*
X135740534Y-135073443D01*
X135584009Y-134989778D01*
X135541632Y-134955000D01*
X135446814Y-134877186D01*
X135334221Y-134739989D01*
X135250558Y-134583467D01*
X135227471Y-134507359D01*
X135199037Y-134413626D01*
X135186000Y-134281257D01*
X135186000Y-133942742D01*
X135199037Y-133810373D01*
X135250557Y-133640534D01*
X135334222Y-133484009D01*
X135446815Y-133346815D01*
X135584010Y-133234222D01*
X135740535Y-133150557D01*
X135910374Y-133099037D01*
X136087000Y-133081641D01*
X136263627Y-133099037D01*
G37*
G36*
X133763627Y-133099037D02*
G01*
X133933466Y-133150557D01*
X134089991Y-133234222D01*
X134125729Y-133263552D01*
X134227186Y-133346814D01*
X134310448Y-133448271D01*
X134339778Y-133484009D01*
X134423443Y-133640534D01*
X134474963Y-133810374D01*
X134488000Y-133942743D01*
X134488000Y-134281258D01*
X134474963Y-134413627D01*
X134423443Y-134583466D01*
X134339778Y-134739991D01*
X134310448Y-134775729D01*
X134227186Y-134877186D01*
X134089989Y-134989779D01*
X133933467Y-135073442D01*
X133933465Y-135073443D01*
X133763626Y-135124963D01*
X133587000Y-135142359D01*
X133410373Y-135124963D01*
X133240534Y-135073443D01*
X133084009Y-134989778D01*
X133041632Y-134955000D01*
X132946814Y-134877186D01*
X132834221Y-134739989D01*
X132750558Y-134583467D01*
X132727471Y-134507359D01*
X132699037Y-134413626D01*
X132686000Y-134281257D01*
X132686000Y-133942742D01*
X132699037Y-133810373D01*
X132750557Y-133640534D01*
X132834222Y-133484009D01*
X132946815Y-133346815D01*
X133084010Y-133234222D01*
X133240535Y-133150557D01*
X133410374Y-133099037D01*
X133587000Y-133081641D01*
X133763627Y-133099037D01*
G37*
G36*
X138763627Y-133099037D02*
G01*
X138933466Y-133150557D01*
X139089991Y-133234222D01*
X139125729Y-133263552D01*
X139227186Y-133346814D01*
X139310448Y-133448271D01*
X139339778Y-133484009D01*
X139423443Y-133640534D01*
X139474963Y-133810374D01*
X139488000Y-133942743D01*
X139488000Y-134281258D01*
X139474963Y-134413627D01*
X139423443Y-134583466D01*
X139339778Y-134739991D01*
X139310448Y-134775729D01*
X139227186Y-134877186D01*
X139089989Y-134989779D01*
X138933467Y-135073442D01*
X138933465Y-135073443D01*
X138763626Y-135124963D01*
X138587000Y-135142359D01*
X138410373Y-135124963D01*
X138240534Y-135073443D01*
X138084009Y-134989778D01*
X138041632Y-134955000D01*
X137946814Y-134877186D01*
X137834221Y-134739989D01*
X137750558Y-134583467D01*
X137727471Y-134507359D01*
X137699037Y-134413626D01*
X137686000Y-134281257D01*
X137686000Y-133942742D01*
X137699037Y-133810373D01*
X137750557Y-133640534D01*
X137834222Y-133484009D01*
X137946815Y-133346815D01*
X138084010Y-133234222D01*
X138240535Y-133150557D01*
X138410374Y-133099037D01*
X138587000Y-133081641D01*
X138763627Y-133099037D01*
G37*
G36*
X141845600Y-133089989D02*
G01*
X141878652Y-133100015D01*
X141909103Y-133116292D01*
X141935799Y-133138201D01*
X141957708Y-133164897D01*
X141973985Y-133195348D01*
X141984011Y-133228400D01*
X141988000Y-133268903D01*
X141988000Y-134955097D01*
X141984011Y-134995600D01*
X141973985Y-135028652D01*
X141957708Y-135059103D01*
X141935799Y-135085799D01*
X141909103Y-135107708D01*
X141878652Y-135123985D01*
X141845600Y-135134011D01*
X141805097Y-135138000D01*
X140368903Y-135138000D01*
X140328400Y-135134011D01*
X140295348Y-135123985D01*
X140264897Y-135107708D01*
X140238201Y-135085799D01*
X140216292Y-135059103D01*
X140200015Y-135028652D01*
X140189989Y-134995600D01*
X140186000Y-134955097D01*
X140186000Y-133268903D01*
X140189989Y-133228400D01*
X140200015Y-133195348D01*
X140216292Y-133164897D01*
X140238201Y-133138201D01*
X140264897Y-133116292D01*
X140295348Y-133100015D01*
X140328400Y-133089989D01*
X140368903Y-133086000D01*
X141805097Y-133086000D01*
X141845600Y-133089989D01*
G37*
G36*
X106126000Y-134955000D02*
G01*
X103424000Y-134955000D01*
X103424000Y-132253000D01*
X106126000Y-132253000D01*
X106126000Y-134955000D01*
G37*
G36*
X110249072Y-132304918D02*
G01*
X110494939Y-132406759D01*
X110554626Y-132446641D01*
X110716211Y-132554609D01*
X110904391Y-132742789D01*
X111052242Y-132964063D01*
X111154082Y-133209928D01*
X111206000Y-133470937D01*
X111206000Y-133737063D01*
X111191417Y-133810375D01*
X111154082Y-133998072D01*
X111052241Y-134243939D01*
X111021665Y-134289699D01*
X110908983Y-134458339D01*
X110904390Y-134465212D01*
X110716212Y-134653390D01*
X110494939Y-134801241D01*
X110494938Y-134801242D01*
X110494937Y-134801242D01*
X110249072Y-134903082D01*
X109988063Y-134955000D01*
X109721937Y-134955000D01*
X109460928Y-134903082D01*
X109215063Y-134801242D01*
X109215062Y-134801242D01*
X109215061Y-134801241D01*
X108993788Y-134653390D01*
X108805610Y-134465212D01*
X108801018Y-134458339D01*
X108688335Y-134289699D01*
X108657759Y-134243939D01*
X108555918Y-133998072D01*
X108518583Y-133810375D01*
X108504000Y-133737063D01*
X108504000Y-133470937D01*
X108555918Y-133209928D01*
X108657758Y-132964063D01*
X108805609Y-132742789D01*
X108993789Y-132554609D01*
X109155374Y-132446641D01*
X109215061Y-132406759D01*
X109460928Y-132304918D01*
X109721937Y-132253000D01*
X109988063Y-132253000D01*
X110249072Y-132304918D01*
G37*
G36*
X81678626Y-132464037D02*
G01*
X81848465Y-132515557D01*
X81848467Y-132515558D01*
X82004989Y-132599221D01*
X82142186Y-132711814D01*
X82225448Y-132813271D01*
X82254778Y-132849009D01*
X82338443Y-133005534D01*
X82389963Y-133175373D01*
X82403000Y-133307742D01*
X82403000Y-133646257D01*
X82389963Y-133778626D01*
X82338443Y-133948466D01*
X82254778Y-134104991D01*
X82225448Y-134140729D01*
X82142186Y-134242186D01*
X82047250Y-134320097D01*
X82004991Y-134354778D01*
X81848466Y-134438443D01*
X81678627Y-134489963D01*
X81502000Y-134507359D01*
X81325374Y-134489963D01*
X81155535Y-134438443D01*
X80999010Y-134354778D01*
X80861815Y-134242185D01*
X80749222Y-134104991D01*
X80665557Y-133948466D01*
X80614037Y-133778627D01*
X80601000Y-133646258D01*
X80601000Y-133307743D01*
X80614037Y-133175374D01*
X80665557Y-133005535D01*
X80749222Y-132849010D01*
X80749223Y-132849009D01*
X80861814Y-132711814D01*
X80963271Y-132628552D01*
X80999009Y-132599222D01*
X81155534Y-132515557D01*
X81325373Y-132464037D01*
X81502000Y-132446641D01*
X81678626Y-132464037D01*
G37*
G36*
X76678626Y-132464037D02*
G01*
X76848465Y-132515557D01*
X76848467Y-132515558D01*
X77004989Y-132599221D01*
X77142186Y-132711814D01*
X77225448Y-132813271D01*
X77254778Y-132849009D01*
X77338443Y-133005534D01*
X77389963Y-133175373D01*
X77403000Y-133307742D01*
X77403000Y-133646257D01*
X77389963Y-133778626D01*
X77338443Y-133948466D01*
X77254778Y-134104991D01*
X77225448Y-134140729D01*
X77142186Y-134242186D01*
X77047250Y-134320097D01*
X77004991Y-134354778D01*
X76848466Y-134438443D01*
X76678627Y-134489963D01*
X76502000Y-134507359D01*
X76325374Y-134489963D01*
X76155535Y-134438443D01*
X75999010Y-134354778D01*
X75861815Y-134242185D01*
X75749222Y-134104991D01*
X75665557Y-133948466D01*
X75614037Y-133778627D01*
X75601000Y-133646258D01*
X75601000Y-133307743D01*
X75614037Y-133175374D01*
X75665557Y-133005535D01*
X75749222Y-132849010D01*
X75749223Y-132849009D01*
X75861814Y-132711814D01*
X75963271Y-132628552D01*
X75999009Y-132599222D01*
X76155534Y-132515557D01*
X76325373Y-132464037D01*
X76502000Y-132446641D01*
X76678626Y-132464037D01*
G37*
G36*
X79178626Y-132464037D02*
G01*
X79348465Y-132515557D01*
X79348467Y-132515558D01*
X79504989Y-132599221D01*
X79642186Y-132711814D01*
X79725448Y-132813271D01*
X79754778Y-132849009D01*
X79838443Y-133005534D01*
X79889963Y-133175373D01*
X79903000Y-133307742D01*
X79903000Y-133646257D01*
X79889963Y-133778626D01*
X79838443Y-133948466D01*
X79754778Y-134104991D01*
X79725448Y-134140729D01*
X79642186Y-134242186D01*
X79547250Y-134320097D01*
X79504991Y-134354778D01*
X79348466Y-134438443D01*
X79178627Y-134489963D01*
X79002000Y-134507359D01*
X78825374Y-134489963D01*
X78655535Y-134438443D01*
X78499010Y-134354778D01*
X78361815Y-134242185D01*
X78249222Y-134104991D01*
X78165557Y-133948466D01*
X78114037Y-133778627D01*
X78101000Y-133646258D01*
X78101000Y-133307743D01*
X78114037Y-133175374D01*
X78165557Y-133005535D01*
X78249222Y-132849010D01*
X78249223Y-132849009D01*
X78361814Y-132711814D01*
X78463271Y-132628552D01*
X78499009Y-132599222D01*
X78655534Y-132515557D01*
X78825373Y-132464037D01*
X79002000Y-132446641D01*
X79178626Y-132464037D01*
G37*
G36*
X74760600Y-132454989D02*
G01*
X74793652Y-132465015D01*
X74824103Y-132481292D01*
X74850799Y-132503201D01*
X74872708Y-132529897D01*
X74888985Y-132560348D01*
X74899011Y-132593400D01*
X74903000Y-132633903D01*
X74903000Y-134320097D01*
X74899011Y-134360600D01*
X74888985Y-134393652D01*
X74872708Y-134424103D01*
X74850799Y-134450799D01*
X74824103Y-134472708D01*
X74793652Y-134488985D01*
X74760600Y-134499011D01*
X74720097Y-134503000D01*
X73283903Y-134503000D01*
X73243400Y-134499011D01*
X73210348Y-134488985D01*
X73179897Y-134472708D01*
X73153201Y-134450799D01*
X73131292Y-134424103D01*
X73115015Y-134393652D01*
X73104989Y-134360600D01*
X73101000Y-134320097D01*
X73101000Y-132633903D01*
X73104989Y-132593400D01*
X73115015Y-132560348D01*
X73131292Y-132529897D01*
X73153201Y-132503201D01*
X73179897Y-132481292D01*
X73210348Y-132465015D01*
X73243400Y-132454989D01*
X73283903Y-132451000D01*
X74720097Y-132451000D01*
X74760600Y-132454989D01*
G37*
G36*
X136223627Y-126114037D02*
G01*
X136393466Y-126165557D01*
X136549991Y-126249222D01*
X136585729Y-126278552D01*
X136687186Y-126361814D01*
X136770448Y-126463271D01*
X136799778Y-126499009D01*
X136883443Y-126655534D01*
X136934963Y-126825374D01*
X136948000Y-126957743D01*
X136948000Y-127296258D01*
X136934963Y-127428627D01*
X136883443Y-127598466D01*
X136799778Y-127754991D01*
X136770448Y-127790729D01*
X136687186Y-127892186D01*
X136549989Y-128004779D01*
X136393467Y-128088442D01*
X136393465Y-128088443D01*
X136223626Y-128139963D01*
X136047000Y-128157359D01*
X135870373Y-128139963D01*
X135700534Y-128088443D01*
X135544009Y-128004778D01*
X135501750Y-127970097D01*
X135406814Y-127892186D01*
X135294221Y-127754989D01*
X135210558Y-127598467D01*
X135187471Y-127522359D01*
X135159037Y-127428626D01*
X135146000Y-127296257D01*
X135146000Y-126957742D01*
X135159037Y-126825373D01*
X135210557Y-126655534D01*
X135294222Y-126499009D01*
X135406815Y-126361815D01*
X135544010Y-126249222D01*
X135700535Y-126165557D01*
X135870374Y-126114037D01*
X136047000Y-126096641D01*
X136223627Y-126114037D01*
G37*
G36*
X133723627Y-126114037D02*
G01*
X133893466Y-126165557D01*
X134049991Y-126249222D01*
X134085729Y-126278552D01*
X134187186Y-126361814D01*
X134270448Y-126463271D01*
X134299778Y-126499009D01*
X134383443Y-126655534D01*
X134434963Y-126825374D01*
X134448000Y-126957743D01*
X134448000Y-127296258D01*
X134434963Y-127428627D01*
X134383443Y-127598466D01*
X134299778Y-127754991D01*
X134270448Y-127790729D01*
X134187186Y-127892186D01*
X134049989Y-128004779D01*
X133893467Y-128088442D01*
X133893465Y-128088443D01*
X133723626Y-128139963D01*
X133547000Y-128157359D01*
X133370373Y-128139963D01*
X133200534Y-128088443D01*
X133044009Y-128004778D01*
X133001750Y-127970097D01*
X132906814Y-127892186D01*
X132794221Y-127754989D01*
X132710558Y-127598467D01*
X132687471Y-127522359D01*
X132659037Y-127428626D01*
X132646000Y-127296257D01*
X132646000Y-126957742D01*
X132659037Y-126825373D01*
X132710557Y-126655534D01*
X132794222Y-126499009D01*
X132906815Y-126361815D01*
X133044010Y-126249222D01*
X133200535Y-126165557D01*
X133370374Y-126114037D01*
X133547000Y-126096641D01*
X133723627Y-126114037D01*
G37*
G36*
X138723627Y-126114037D02*
G01*
X138893466Y-126165557D01*
X139049991Y-126249222D01*
X139085729Y-126278552D01*
X139187186Y-126361814D01*
X139270448Y-126463271D01*
X139299778Y-126499009D01*
X139383443Y-126655534D01*
X139434963Y-126825374D01*
X139448000Y-126957743D01*
X139448000Y-127296258D01*
X139434963Y-127428627D01*
X139383443Y-127598466D01*
X139299778Y-127754991D01*
X139270448Y-127790729D01*
X139187186Y-127892186D01*
X139049989Y-128004779D01*
X138893467Y-128088442D01*
X138893465Y-128088443D01*
X138723626Y-128139963D01*
X138547000Y-128157359D01*
X138370373Y-128139963D01*
X138200534Y-128088443D01*
X138044009Y-128004778D01*
X138001750Y-127970097D01*
X137906814Y-127892186D01*
X137794221Y-127754989D01*
X137710558Y-127598467D01*
X137687471Y-127522359D01*
X137659037Y-127428626D01*
X137646000Y-127296257D01*
X137646000Y-126957742D01*
X137659037Y-126825373D01*
X137710557Y-126655534D01*
X137794222Y-126499009D01*
X137906815Y-126361815D01*
X138044010Y-126249222D01*
X138200535Y-126165557D01*
X138370374Y-126114037D01*
X138547000Y-126096641D01*
X138723627Y-126114037D01*
G37*
G36*
X141805600Y-126104989D02*
G01*
X141838652Y-126115015D01*
X141869103Y-126131292D01*
X141895799Y-126153201D01*
X141917708Y-126179897D01*
X141933985Y-126210348D01*
X141944011Y-126243400D01*
X141948000Y-126283903D01*
X141948000Y-127970097D01*
X141944011Y-128010600D01*
X141933985Y-128043652D01*
X141917708Y-128074103D01*
X141895799Y-128100799D01*
X141869103Y-128122708D01*
X141838652Y-128138985D01*
X141805600Y-128149011D01*
X141765097Y-128153000D01*
X140328903Y-128153000D01*
X140288400Y-128149011D01*
X140255348Y-128138985D01*
X140224897Y-128122708D01*
X140198201Y-128100799D01*
X140176292Y-128074103D01*
X140160015Y-128043652D01*
X140149989Y-128010600D01*
X140146000Y-127970097D01*
X140146000Y-126283903D01*
X140149989Y-126243400D01*
X140160015Y-126210348D01*
X140176292Y-126179897D01*
X140198201Y-126153201D01*
X140224897Y-126131292D01*
X140255348Y-126115015D01*
X140288400Y-126104989D01*
X140328903Y-126101000D01*
X141765097Y-126101000D01*
X141805600Y-126104989D01*
G37*
G36*
X76678626Y-125479037D02*
G01*
X76848465Y-125530557D01*
X76848467Y-125530558D01*
X77004989Y-125614221D01*
X77142186Y-125726814D01*
X77225448Y-125828271D01*
X77254778Y-125864009D01*
X77338443Y-126020534D01*
X77389963Y-126190373D01*
X77403000Y-126322742D01*
X77403000Y-126661257D01*
X77389963Y-126793626D01*
X77338443Y-126963466D01*
X77254778Y-127119991D01*
X77225448Y-127155729D01*
X77142186Y-127257186D01*
X77047250Y-127335097D01*
X77004991Y-127369778D01*
X76848466Y-127453443D01*
X76678627Y-127504963D01*
X76502000Y-127522359D01*
X76325374Y-127504963D01*
X76155535Y-127453443D01*
X75999010Y-127369778D01*
X75861815Y-127257185D01*
X75749222Y-127119991D01*
X75665557Y-126963466D01*
X75614037Y-126793627D01*
X75601000Y-126661258D01*
X75601000Y-126322743D01*
X75614037Y-126190374D01*
X75665557Y-126020535D01*
X75749222Y-125864010D01*
X75749223Y-125864009D01*
X75861814Y-125726814D01*
X75963271Y-125643552D01*
X75999009Y-125614222D01*
X76155534Y-125530557D01*
X76325373Y-125479037D01*
X76502000Y-125461641D01*
X76678626Y-125479037D01*
G37*
G36*
X81678626Y-125479037D02*
G01*
X81848465Y-125530557D01*
X81848467Y-125530558D01*
X82004989Y-125614221D01*
X82142186Y-125726814D01*
X82225448Y-125828271D01*
X82254778Y-125864009D01*
X82338443Y-126020534D01*
X82389963Y-126190373D01*
X82403000Y-126322742D01*
X82403000Y-126661257D01*
X82389963Y-126793626D01*
X82338443Y-126963466D01*
X82254778Y-127119991D01*
X82225448Y-127155729D01*
X82142186Y-127257186D01*
X82047250Y-127335097D01*
X82004991Y-127369778D01*
X81848466Y-127453443D01*
X81678627Y-127504963D01*
X81502000Y-127522359D01*
X81325374Y-127504963D01*
X81155535Y-127453443D01*
X80999010Y-127369778D01*
X80861815Y-127257185D01*
X80749222Y-127119991D01*
X80665557Y-126963466D01*
X80614037Y-126793627D01*
X80601000Y-126661258D01*
X80601000Y-126322743D01*
X80614037Y-126190374D01*
X80665557Y-126020535D01*
X80749222Y-125864010D01*
X80749223Y-125864009D01*
X80861814Y-125726814D01*
X80963271Y-125643552D01*
X80999009Y-125614222D01*
X81155534Y-125530557D01*
X81325373Y-125479037D01*
X81502000Y-125461641D01*
X81678626Y-125479037D01*
G37*
G36*
X79178626Y-125479037D02*
G01*
X79348465Y-125530557D01*
X79348467Y-125530558D01*
X79504989Y-125614221D01*
X79642186Y-125726814D01*
X79725448Y-125828271D01*
X79754778Y-125864009D01*
X79838443Y-126020534D01*
X79889963Y-126190373D01*
X79903000Y-126322742D01*
X79903000Y-126661257D01*
X79889963Y-126793626D01*
X79838443Y-126963466D01*
X79754778Y-127119991D01*
X79725448Y-127155729D01*
X79642186Y-127257186D01*
X79547250Y-127335097D01*
X79504991Y-127369778D01*
X79348466Y-127453443D01*
X79178627Y-127504963D01*
X79002000Y-127522359D01*
X78825374Y-127504963D01*
X78655535Y-127453443D01*
X78499010Y-127369778D01*
X78361815Y-127257185D01*
X78249222Y-127119991D01*
X78165557Y-126963466D01*
X78114037Y-126793627D01*
X78101000Y-126661258D01*
X78101000Y-126322743D01*
X78114037Y-126190374D01*
X78165557Y-126020535D01*
X78249222Y-125864010D01*
X78249223Y-125864009D01*
X78361814Y-125726814D01*
X78463271Y-125643552D01*
X78499009Y-125614222D01*
X78655534Y-125530557D01*
X78825373Y-125479037D01*
X79002000Y-125461641D01*
X79178626Y-125479037D01*
G37*
G36*
X74760600Y-125469989D02*
G01*
X74793652Y-125480015D01*
X74824103Y-125496292D01*
X74850799Y-125518201D01*
X74872708Y-125544897D01*
X74888985Y-125575348D01*
X74899011Y-125608400D01*
X74903000Y-125648903D01*
X74903000Y-127335097D01*
X74899011Y-127375600D01*
X74888985Y-127408652D01*
X74872708Y-127439103D01*
X74850799Y-127465799D01*
X74824103Y-127487708D01*
X74793652Y-127503985D01*
X74760600Y-127514011D01*
X74720097Y-127518000D01*
X73283903Y-127518000D01*
X73243400Y-127514011D01*
X73210348Y-127503985D01*
X73179897Y-127487708D01*
X73153201Y-127465799D01*
X73131292Y-127439103D01*
X73115015Y-127408652D01*
X73104989Y-127375600D01*
X73101000Y-127335097D01*
X73101000Y-125648903D01*
X73104989Y-125608400D01*
X73115015Y-125575348D01*
X73131292Y-125544897D01*
X73153201Y-125518201D01*
X73179897Y-125496292D01*
X73210348Y-125480015D01*
X73243400Y-125469989D01*
X73283903Y-125466000D01*
X74720097Y-125466000D01*
X74760600Y-125469989D01*
G37*
G36*
X138763627Y-119129037D02*
G01*
X138933466Y-119180557D01*
X139089991Y-119264222D01*
X139125729Y-119293552D01*
X139227186Y-119376814D01*
X139310448Y-119478271D01*
X139339778Y-119514009D01*
X139423443Y-119670534D01*
X139474963Y-119840374D01*
X139488000Y-119972743D01*
X139488000Y-120311258D01*
X139474963Y-120443627D01*
X139423443Y-120613466D01*
X139339778Y-120769991D01*
X139310448Y-120805729D01*
X139227186Y-120907186D01*
X139089989Y-121019779D01*
X138933467Y-121103442D01*
X138933465Y-121103443D01*
X138763626Y-121154963D01*
X138587000Y-121172359D01*
X138410373Y-121154963D01*
X138240534Y-121103443D01*
X138084009Y-121019778D01*
X138041750Y-120985097D01*
X137946814Y-120907186D01*
X137834221Y-120769989D01*
X137750558Y-120613467D01*
X137727471Y-120537359D01*
X137699037Y-120443626D01*
X137686000Y-120311257D01*
X137686000Y-119972742D01*
X137699037Y-119840373D01*
X137750557Y-119670534D01*
X137834222Y-119514009D01*
X137946815Y-119376815D01*
X138084010Y-119264222D01*
X138240535Y-119180557D01*
X138410374Y-119129037D01*
X138587000Y-119111641D01*
X138763627Y-119129037D01*
G37*
G36*
X133763627Y-119129037D02*
G01*
X133933466Y-119180557D01*
X134089991Y-119264222D01*
X134125729Y-119293552D01*
X134227186Y-119376814D01*
X134310448Y-119478271D01*
X134339778Y-119514009D01*
X134423443Y-119670534D01*
X134474963Y-119840374D01*
X134488000Y-119972743D01*
X134488000Y-120311258D01*
X134474963Y-120443627D01*
X134423443Y-120613466D01*
X134339778Y-120769991D01*
X134310448Y-120805729D01*
X134227186Y-120907186D01*
X134089989Y-121019779D01*
X133933467Y-121103442D01*
X133933465Y-121103443D01*
X133763626Y-121154963D01*
X133587000Y-121172359D01*
X133410373Y-121154963D01*
X133240534Y-121103443D01*
X133084009Y-121019778D01*
X133041750Y-120985097D01*
X132946814Y-120907186D01*
X132834221Y-120769989D01*
X132750558Y-120613467D01*
X132727471Y-120537359D01*
X132699037Y-120443626D01*
X132686000Y-120311257D01*
X132686000Y-119972742D01*
X132699037Y-119840373D01*
X132750557Y-119670534D01*
X132834222Y-119514009D01*
X132946815Y-119376815D01*
X133084010Y-119264222D01*
X133240535Y-119180557D01*
X133410374Y-119129037D01*
X133587000Y-119111641D01*
X133763627Y-119129037D01*
G37*
G36*
X136263627Y-119129037D02*
G01*
X136433466Y-119180557D01*
X136589991Y-119264222D01*
X136625729Y-119293552D01*
X136727186Y-119376814D01*
X136810448Y-119478271D01*
X136839778Y-119514009D01*
X136923443Y-119670534D01*
X136974963Y-119840374D01*
X136988000Y-119972743D01*
X136988000Y-120311258D01*
X136974963Y-120443627D01*
X136923443Y-120613466D01*
X136839778Y-120769991D01*
X136810448Y-120805729D01*
X136727186Y-120907186D01*
X136589989Y-121019779D01*
X136433467Y-121103442D01*
X136433465Y-121103443D01*
X136263626Y-121154963D01*
X136087000Y-121172359D01*
X135910373Y-121154963D01*
X135740534Y-121103443D01*
X135584009Y-121019778D01*
X135541750Y-120985097D01*
X135446814Y-120907186D01*
X135334221Y-120769989D01*
X135250558Y-120613467D01*
X135227471Y-120537359D01*
X135199037Y-120443626D01*
X135186000Y-120311257D01*
X135186000Y-119972742D01*
X135199037Y-119840373D01*
X135250557Y-119670534D01*
X135334222Y-119514009D01*
X135446815Y-119376815D01*
X135584010Y-119264222D01*
X135740535Y-119180557D01*
X135910374Y-119129037D01*
X136087000Y-119111641D01*
X136263627Y-119129037D01*
G37*
G36*
X141845600Y-119119989D02*
G01*
X141878652Y-119130015D01*
X141909103Y-119146292D01*
X141935799Y-119168201D01*
X141957708Y-119194897D01*
X141973985Y-119225348D01*
X141984011Y-119258400D01*
X141988000Y-119298903D01*
X141988000Y-120985097D01*
X141984011Y-121025600D01*
X141973985Y-121058652D01*
X141957708Y-121089103D01*
X141935799Y-121115799D01*
X141909103Y-121137708D01*
X141878652Y-121153985D01*
X141845600Y-121164011D01*
X141805097Y-121168000D01*
X140368903Y-121168000D01*
X140328400Y-121164011D01*
X140295348Y-121153985D01*
X140264897Y-121137708D01*
X140238201Y-121115799D01*
X140216292Y-121089103D01*
X140200015Y-121058652D01*
X140189989Y-121025600D01*
X140186000Y-120985097D01*
X140186000Y-119298903D01*
X140189989Y-119258400D01*
X140200015Y-119225348D01*
X140216292Y-119194897D01*
X140238201Y-119168201D01*
X140264897Y-119146292D01*
X140295348Y-119130015D01*
X140328400Y-119119989D01*
X140368903Y-119116000D01*
X141805097Y-119116000D01*
X141845600Y-119119989D01*
G37*
G36*
X81638626Y-118494037D02*
G01*
X81808465Y-118545557D01*
X81808467Y-118545558D01*
X81964989Y-118629221D01*
X82102186Y-118741814D01*
X82185448Y-118843271D01*
X82214778Y-118879009D01*
X82298443Y-119035534D01*
X82349963Y-119205373D01*
X82363000Y-119337742D01*
X82363000Y-119676257D01*
X82349963Y-119808626D01*
X82298443Y-119978466D01*
X82214778Y-120134991D01*
X82185448Y-120170729D01*
X82102186Y-120272186D01*
X82007250Y-120350097D01*
X81964991Y-120384778D01*
X81808466Y-120468443D01*
X81638627Y-120519963D01*
X81462000Y-120537359D01*
X81285374Y-120519963D01*
X81115535Y-120468443D01*
X80959010Y-120384778D01*
X80821815Y-120272185D01*
X80709222Y-120134991D01*
X80625557Y-119978466D01*
X80574037Y-119808627D01*
X80561000Y-119676258D01*
X80561000Y-119337743D01*
X80574037Y-119205374D01*
X80625557Y-119035535D01*
X80709222Y-118879010D01*
X80709223Y-118879009D01*
X80821814Y-118741814D01*
X80923271Y-118658552D01*
X80959009Y-118629222D01*
X81115534Y-118545557D01*
X81285373Y-118494037D01*
X81462000Y-118476641D01*
X81638626Y-118494037D01*
G37*
G36*
X79138626Y-118494037D02*
G01*
X79308465Y-118545557D01*
X79308467Y-118545558D01*
X79464989Y-118629221D01*
X79602186Y-118741814D01*
X79685448Y-118843271D01*
X79714778Y-118879009D01*
X79798443Y-119035534D01*
X79849963Y-119205373D01*
X79863000Y-119337742D01*
X79863000Y-119676257D01*
X79849963Y-119808626D01*
X79798443Y-119978466D01*
X79714778Y-120134991D01*
X79685448Y-120170729D01*
X79602186Y-120272186D01*
X79507250Y-120350097D01*
X79464991Y-120384778D01*
X79308466Y-120468443D01*
X79138627Y-120519963D01*
X78962000Y-120537359D01*
X78785374Y-120519963D01*
X78615535Y-120468443D01*
X78459010Y-120384778D01*
X78321815Y-120272185D01*
X78209222Y-120134991D01*
X78125557Y-119978466D01*
X78074037Y-119808627D01*
X78061000Y-119676258D01*
X78061000Y-119337743D01*
X78074037Y-119205374D01*
X78125557Y-119035535D01*
X78209222Y-118879010D01*
X78209223Y-118879009D01*
X78321814Y-118741814D01*
X78423271Y-118658552D01*
X78459009Y-118629222D01*
X78615534Y-118545557D01*
X78785373Y-118494037D01*
X78962000Y-118476641D01*
X79138626Y-118494037D01*
G37*
G36*
X76638626Y-118494037D02*
G01*
X76808465Y-118545557D01*
X76808467Y-118545558D01*
X76964989Y-118629221D01*
X77102186Y-118741814D01*
X77185448Y-118843271D01*
X77214778Y-118879009D01*
X77298443Y-119035534D01*
X77349963Y-119205373D01*
X77363000Y-119337742D01*
X77363000Y-119676257D01*
X77349963Y-119808626D01*
X77298443Y-119978466D01*
X77214778Y-120134991D01*
X77185448Y-120170729D01*
X77102186Y-120272186D01*
X77007250Y-120350097D01*
X76964991Y-120384778D01*
X76808466Y-120468443D01*
X76638627Y-120519963D01*
X76462000Y-120537359D01*
X76285374Y-120519963D01*
X76115535Y-120468443D01*
X75959010Y-120384778D01*
X75821815Y-120272185D01*
X75709222Y-120134991D01*
X75625557Y-119978466D01*
X75574037Y-119808627D01*
X75561000Y-119676258D01*
X75561000Y-119337743D01*
X75574037Y-119205374D01*
X75625557Y-119035535D01*
X75709222Y-118879010D01*
X75709223Y-118879009D01*
X75821814Y-118741814D01*
X75923271Y-118658552D01*
X75959009Y-118629222D01*
X76115534Y-118545557D01*
X76285373Y-118494037D01*
X76462000Y-118476641D01*
X76638626Y-118494037D01*
G37*
G36*
X74720600Y-118484989D02*
G01*
X74753652Y-118495015D01*
X74784103Y-118511292D01*
X74810799Y-118533201D01*
X74832708Y-118559897D01*
X74848985Y-118590348D01*
X74859011Y-118623400D01*
X74863000Y-118663903D01*
X74863000Y-120350097D01*
X74859011Y-120390600D01*
X74848985Y-120423652D01*
X74832708Y-120454103D01*
X74810799Y-120480799D01*
X74784103Y-120502708D01*
X74753652Y-120518985D01*
X74720600Y-120529011D01*
X74680097Y-120533000D01*
X73243903Y-120533000D01*
X73203400Y-120529011D01*
X73170348Y-120518985D01*
X73139897Y-120502708D01*
X73113201Y-120480799D01*
X73091292Y-120454103D01*
X73075015Y-120423652D01*
X73064989Y-120390600D01*
X73061000Y-120350097D01*
X73061000Y-118663903D01*
X73064989Y-118623400D01*
X73075015Y-118590348D01*
X73091292Y-118559897D01*
X73113201Y-118533201D01*
X73139897Y-118511292D01*
X73170348Y-118495015D01*
X73203400Y-118484989D01*
X73243903Y-118481000D01*
X74680097Y-118481000D01*
X74720600Y-118484989D01*
G37*
G36*
X133723627Y-112144037D02*
G01*
X133893466Y-112195557D01*
X134049991Y-112279222D01*
X134085729Y-112308552D01*
X134187186Y-112391814D01*
X134270448Y-112493271D01*
X134299778Y-112529009D01*
X134383443Y-112685534D01*
X134434963Y-112855374D01*
X134448000Y-112987743D01*
X134448000Y-113326258D01*
X134434963Y-113458627D01*
X134383443Y-113628466D01*
X134299778Y-113784991D01*
X134270448Y-113820729D01*
X134187186Y-113922186D01*
X134049989Y-114034779D01*
X133893467Y-114118442D01*
X133893465Y-114118443D01*
X133723626Y-114169963D01*
X133547000Y-114187359D01*
X133370373Y-114169963D01*
X133200534Y-114118443D01*
X133044009Y-114034778D01*
X133001750Y-114000097D01*
X132906814Y-113922186D01*
X132794221Y-113784989D01*
X132710558Y-113628467D01*
X132687471Y-113552359D01*
X132659037Y-113458626D01*
X132646000Y-113326257D01*
X132646000Y-112987742D01*
X132659037Y-112855373D01*
X132710557Y-112685534D01*
X132794222Y-112529009D01*
X132906815Y-112391815D01*
X133044010Y-112279222D01*
X133200535Y-112195557D01*
X133370374Y-112144037D01*
X133547000Y-112126641D01*
X133723627Y-112144037D01*
G37*
G36*
X138723627Y-112144037D02*
G01*
X138893466Y-112195557D01*
X139049991Y-112279222D01*
X139085729Y-112308552D01*
X139187186Y-112391814D01*
X139270448Y-112493271D01*
X139299778Y-112529009D01*
X139383443Y-112685534D01*
X139434963Y-112855374D01*
X139448000Y-112987743D01*
X139448000Y-113326258D01*
X139434963Y-113458627D01*
X139383443Y-113628466D01*
X139299778Y-113784991D01*
X139270448Y-113820729D01*
X139187186Y-113922186D01*
X139049989Y-114034779D01*
X138893467Y-114118442D01*
X138893465Y-114118443D01*
X138723626Y-114169963D01*
X138547000Y-114187359D01*
X138370373Y-114169963D01*
X138200534Y-114118443D01*
X138044009Y-114034778D01*
X138001750Y-114000097D01*
X137906814Y-113922186D01*
X137794221Y-113784989D01*
X137710558Y-113628467D01*
X137687471Y-113552359D01*
X137659037Y-113458626D01*
X137646000Y-113326257D01*
X137646000Y-112987742D01*
X137659037Y-112855373D01*
X137710557Y-112685534D01*
X137794222Y-112529009D01*
X137906815Y-112391815D01*
X138044010Y-112279222D01*
X138200535Y-112195557D01*
X138370374Y-112144037D01*
X138547000Y-112126641D01*
X138723627Y-112144037D01*
G37*
G36*
X136223627Y-112144037D02*
G01*
X136393466Y-112195557D01*
X136549991Y-112279222D01*
X136585729Y-112308552D01*
X136687186Y-112391814D01*
X136770448Y-112493271D01*
X136799778Y-112529009D01*
X136883443Y-112685534D01*
X136934963Y-112855374D01*
X136948000Y-112987743D01*
X136948000Y-113326258D01*
X136934963Y-113458627D01*
X136883443Y-113628466D01*
X136799778Y-113784991D01*
X136770448Y-113820729D01*
X136687186Y-113922186D01*
X136549989Y-114034779D01*
X136393467Y-114118442D01*
X136393465Y-114118443D01*
X136223626Y-114169963D01*
X136047000Y-114187359D01*
X135870373Y-114169963D01*
X135700534Y-114118443D01*
X135544009Y-114034778D01*
X135501750Y-114000097D01*
X135406814Y-113922186D01*
X135294221Y-113784989D01*
X135210558Y-113628467D01*
X135187471Y-113552359D01*
X135159037Y-113458626D01*
X135146000Y-113326257D01*
X135146000Y-112987742D01*
X135159037Y-112855373D01*
X135210557Y-112685534D01*
X135294222Y-112529009D01*
X135406815Y-112391815D01*
X135544010Y-112279222D01*
X135700535Y-112195557D01*
X135870374Y-112144037D01*
X136047000Y-112126641D01*
X136223627Y-112144037D01*
G37*
G36*
X141805600Y-112134989D02*
G01*
X141838652Y-112145015D01*
X141869103Y-112161292D01*
X141895799Y-112183201D01*
X141917708Y-112209897D01*
X141933985Y-112240348D01*
X141944011Y-112273400D01*
X141948000Y-112313903D01*
X141948000Y-114000097D01*
X141944011Y-114040600D01*
X141933985Y-114073652D01*
X141917708Y-114104103D01*
X141895799Y-114130799D01*
X141869103Y-114152708D01*
X141838652Y-114168985D01*
X141805600Y-114179011D01*
X141765097Y-114183000D01*
X140328903Y-114183000D01*
X140288400Y-114179011D01*
X140255348Y-114168985D01*
X140224897Y-114152708D01*
X140198201Y-114130799D01*
X140176292Y-114104103D01*
X140160015Y-114073652D01*
X140149989Y-114040600D01*
X140146000Y-114000097D01*
X140146000Y-112313903D01*
X140149989Y-112273400D01*
X140160015Y-112240348D01*
X140176292Y-112209897D01*
X140198201Y-112183201D01*
X140224897Y-112161292D01*
X140255348Y-112145015D01*
X140288400Y-112134989D01*
X140328903Y-112131000D01*
X141765097Y-112131000D01*
X141805600Y-112134989D01*
G37*
G36*
X79138626Y-111509037D02*
G01*
X79308465Y-111560557D01*
X79308467Y-111560558D01*
X79464989Y-111644221D01*
X79602186Y-111756814D01*
X79685448Y-111858271D01*
X79714778Y-111894009D01*
X79798443Y-112050534D01*
X79849963Y-112220373D01*
X79863000Y-112352742D01*
X79863000Y-112691257D01*
X79849963Y-112823626D01*
X79798443Y-112993466D01*
X79714778Y-113149991D01*
X79685448Y-113185729D01*
X79602186Y-113287186D01*
X79507250Y-113365097D01*
X79464991Y-113399778D01*
X79308466Y-113483443D01*
X79138627Y-113534963D01*
X78962000Y-113552359D01*
X78785374Y-113534963D01*
X78615535Y-113483443D01*
X78459010Y-113399778D01*
X78321815Y-113287185D01*
X78209222Y-113149991D01*
X78125557Y-112993466D01*
X78074037Y-112823627D01*
X78061000Y-112691258D01*
X78061000Y-112352743D01*
X78074037Y-112220374D01*
X78125557Y-112050535D01*
X78209222Y-111894010D01*
X78209223Y-111894009D01*
X78321814Y-111756814D01*
X78423271Y-111673552D01*
X78459009Y-111644222D01*
X78615534Y-111560557D01*
X78785373Y-111509037D01*
X78962000Y-111491641D01*
X79138626Y-111509037D01*
G37*
G36*
X76638626Y-111509037D02*
G01*
X76808465Y-111560557D01*
X76808467Y-111560558D01*
X76964989Y-111644221D01*
X77102186Y-111756814D01*
X77185448Y-111858271D01*
X77214778Y-111894009D01*
X77298443Y-112050534D01*
X77349963Y-112220373D01*
X77363000Y-112352742D01*
X77363000Y-112691257D01*
X77349963Y-112823626D01*
X77298443Y-112993466D01*
X77214778Y-113149991D01*
X77185448Y-113185729D01*
X77102186Y-113287186D01*
X77007250Y-113365097D01*
X76964991Y-113399778D01*
X76808466Y-113483443D01*
X76638627Y-113534963D01*
X76462000Y-113552359D01*
X76285374Y-113534963D01*
X76115535Y-113483443D01*
X75959010Y-113399778D01*
X75821815Y-113287185D01*
X75709222Y-113149991D01*
X75625557Y-112993466D01*
X75574037Y-112823627D01*
X75561000Y-112691258D01*
X75561000Y-112352743D01*
X75574037Y-112220374D01*
X75625557Y-112050535D01*
X75709222Y-111894010D01*
X75709223Y-111894009D01*
X75821814Y-111756814D01*
X75923271Y-111673552D01*
X75959009Y-111644222D01*
X76115534Y-111560557D01*
X76285373Y-111509037D01*
X76462000Y-111491641D01*
X76638626Y-111509037D01*
G37*
G36*
X81638626Y-111509037D02*
G01*
X81808465Y-111560557D01*
X81808467Y-111560558D01*
X81964989Y-111644221D01*
X82102186Y-111756814D01*
X82185448Y-111858271D01*
X82214778Y-111894009D01*
X82298443Y-112050534D01*
X82349963Y-112220373D01*
X82363000Y-112352742D01*
X82363000Y-112691257D01*
X82349963Y-112823626D01*
X82298443Y-112993466D01*
X82214778Y-113149991D01*
X82185448Y-113185729D01*
X82102186Y-113287186D01*
X82007250Y-113365097D01*
X81964991Y-113399778D01*
X81808466Y-113483443D01*
X81638627Y-113534963D01*
X81462000Y-113552359D01*
X81285374Y-113534963D01*
X81115535Y-113483443D01*
X80959010Y-113399778D01*
X80821815Y-113287185D01*
X80709222Y-113149991D01*
X80625557Y-112993466D01*
X80574037Y-112823627D01*
X80561000Y-112691258D01*
X80561000Y-112352743D01*
X80574037Y-112220374D01*
X80625557Y-112050535D01*
X80709222Y-111894010D01*
X80709223Y-111894009D01*
X80821814Y-111756814D01*
X80923271Y-111673552D01*
X80959009Y-111644222D01*
X81115534Y-111560557D01*
X81285373Y-111509037D01*
X81462000Y-111491641D01*
X81638626Y-111509037D01*
G37*
G36*
X74720600Y-111499989D02*
G01*
X74753652Y-111510015D01*
X74784103Y-111526292D01*
X74810799Y-111548201D01*
X74832708Y-111574897D01*
X74848985Y-111605348D01*
X74859011Y-111638400D01*
X74863000Y-111678903D01*
X74863000Y-113365097D01*
X74859011Y-113405600D01*
X74848985Y-113438652D01*
X74832708Y-113469103D01*
X74810799Y-113495799D01*
X74784103Y-113517708D01*
X74753652Y-113533985D01*
X74720600Y-113544011D01*
X74680097Y-113548000D01*
X73243903Y-113548000D01*
X73203400Y-113544011D01*
X73170348Y-113533985D01*
X73139897Y-113517708D01*
X73113201Y-113495799D01*
X73091292Y-113469103D01*
X73075015Y-113438652D01*
X73064989Y-113405600D01*
X73061000Y-113365097D01*
X73061000Y-111678903D01*
X73064989Y-111638400D01*
X73075015Y-111605348D01*
X73091292Y-111574897D01*
X73113201Y-111548201D01*
X73139897Y-111526292D01*
X73170348Y-111510015D01*
X73203400Y-111499989D01*
X73243903Y-111496000D01*
X74680097Y-111496000D01*
X74720600Y-111499989D01*
G37*
G36*
X133763627Y-105159037D02*
G01*
X133933466Y-105210557D01*
X134089991Y-105294222D01*
X134125729Y-105323552D01*
X134227186Y-105406814D01*
X134310448Y-105508271D01*
X134339778Y-105544009D01*
X134423443Y-105700534D01*
X134474963Y-105870374D01*
X134488000Y-106002743D01*
X134488000Y-106341258D01*
X134474963Y-106473627D01*
X134423443Y-106643466D01*
X134339778Y-106799991D01*
X134310448Y-106835729D01*
X134227186Y-106937186D01*
X134089989Y-107049779D01*
X133933467Y-107133442D01*
X133933465Y-107133443D01*
X133763626Y-107184963D01*
X133587000Y-107202359D01*
X133410373Y-107184963D01*
X133240534Y-107133443D01*
X133084009Y-107049778D01*
X133041750Y-107015097D01*
X132946814Y-106937186D01*
X132834221Y-106799989D01*
X132750558Y-106643467D01*
X132727471Y-106567359D01*
X132699037Y-106473626D01*
X132686000Y-106341257D01*
X132686000Y-106002742D01*
X132699037Y-105870373D01*
X132750557Y-105700534D01*
X132834222Y-105544009D01*
X132946815Y-105406815D01*
X133084010Y-105294222D01*
X133240535Y-105210557D01*
X133410374Y-105159037D01*
X133587000Y-105141641D01*
X133763627Y-105159037D01*
G37*
G36*
X136263627Y-105159037D02*
G01*
X136433466Y-105210557D01*
X136589991Y-105294222D01*
X136625729Y-105323552D01*
X136727186Y-105406814D01*
X136810448Y-105508271D01*
X136839778Y-105544009D01*
X136923443Y-105700534D01*
X136974963Y-105870374D01*
X136988000Y-106002743D01*
X136988000Y-106341258D01*
X136974963Y-106473627D01*
X136923443Y-106643466D01*
X136839778Y-106799991D01*
X136810448Y-106835729D01*
X136727186Y-106937186D01*
X136589989Y-107049779D01*
X136433467Y-107133442D01*
X136433465Y-107133443D01*
X136263626Y-107184963D01*
X136087000Y-107202359D01*
X135910373Y-107184963D01*
X135740534Y-107133443D01*
X135584009Y-107049778D01*
X135541750Y-107015097D01*
X135446814Y-106937186D01*
X135334221Y-106799989D01*
X135250558Y-106643467D01*
X135227471Y-106567359D01*
X135199037Y-106473626D01*
X135186000Y-106341257D01*
X135186000Y-106002742D01*
X135199037Y-105870373D01*
X135250557Y-105700534D01*
X135334222Y-105544009D01*
X135446815Y-105406815D01*
X135584010Y-105294222D01*
X135740535Y-105210557D01*
X135910374Y-105159037D01*
X136087000Y-105141641D01*
X136263627Y-105159037D01*
G37*
G36*
X138763627Y-105159037D02*
G01*
X138933466Y-105210557D01*
X139089991Y-105294222D01*
X139125729Y-105323552D01*
X139227186Y-105406814D01*
X139310448Y-105508271D01*
X139339778Y-105544009D01*
X139423443Y-105700534D01*
X139474963Y-105870374D01*
X139488000Y-106002743D01*
X139488000Y-106341258D01*
X139474963Y-106473627D01*
X139423443Y-106643466D01*
X139339778Y-106799991D01*
X139310448Y-106835729D01*
X139227186Y-106937186D01*
X139089989Y-107049779D01*
X138933467Y-107133442D01*
X138933465Y-107133443D01*
X138763626Y-107184963D01*
X138587000Y-107202359D01*
X138410373Y-107184963D01*
X138240534Y-107133443D01*
X138084009Y-107049778D01*
X138041750Y-107015097D01*
X137946814Y-106937186D01*
X137834221Y-106799989D01*
X137750558Y-106643467D01*
X137727471Y-106567359D01*
X137699037Y-106473626D01*
X137686000Y-106341257D01*
X137686000Y-106002742D01*
X137699037Y-105870373D01*
X137750557Y-105700534D01*
X137834222Y-105544009D01*
X137946815Y-105406815D01*
X138084010Y-105294222D01*
X138240535Y-105210557D01*
X138410374Y-105159037D01*
X138587000Y-105141641D01*
X138763627Y-105159037D01*
G37*
G36*
X141845600Y-105149989D02*
G01*
X141878652Y-105160015D01*
X141909103Y-105176292D01*
X141935799Y-105198201D01*
X141957708Y-105224897D01*
X141973985Y-105255348D01*
X141984011Y-105288400D01*
X141988000Y-105328903D01*
X141988000Y-107015097D01*
X141984011Y-107055600D01*
X141973985Y-107088652D01*
X141957708Y-107119103D01*
X141935799Y-107145799D01*
X141909103Y-107167708D01*
X141878652Y-107183985D01*
X141845600Y-107194011D01*
X141805097Y-107198000D01*
X140368903Y-107198000D01*
X140328400Y-107194011D01*
X140295348Y-107183985D01*
X140264897Y-107167708D01*
X140238201Y-107145799D01*
X140216292Y-107119103D01*
X140200015Y-107088652D01*
X140189989Y-107055600D01*
X140186000Y-107015097D01*
X140186000Y-105328903D01*
X140189989Y-105288400D01*
X140200015Y-105255348D01*
X140216292Y-105224897D01*
X140238201Y-105198201D01*
X140264897Y-105176292D01*
X140295348Y-105160015D01*
X140328400Y-105149989D01*
X140368903Y-105146000D01*
X141805097Y-105146000D01*
X141845600Y-105149989D01*
G37*
G36*
X81678626Y-104524037D02*
G01*
X81848465Y-104575557D01*
X81848467Y-104575558D01*
X82004989Y-104659221D01*
X82142186Y-104771814D01*
X82225448Y-104873271D01*
X82254778Y-104909009D01*
X82338443Y-105065534D01*
X82389963Y-105235373D01*
X82403000Y-105367742D01*
X82403000Y-105706257D01*
X82389963Y-105838626D01*
X82338443Y-106008466D01*
X82254778Y-106164991D01*
X82225448Y-106200729D01*
X82142186Y-106302186D01*
X82047250Y-106380097D01*
X82004991Y-106414778D01*
X81848466Y-106498443D01*
X81678627Y-106549963D01*
X81502000Y-106567359D01*
X81325374Y-106549963D01*
X81155535Y-106498443D01*
X80999010Y-106414778D01*
X80861815Y-106302185D01*
X80749222Y-106164991D01*
X80665557Y-106008466D01*
X80614037Y-105838627D01*
X80601000Y-105706258D01*
X80601000Y-105367743D01*
X80614037Y-105235374D01*
X80665557Y-105065535D01*
X80749222Y-104909010D01*
X80749223Y-104909009D01*
X80861814Y-104771814D01*
X80963271Y-104688552D01*
X80999009Y-104659222D01*
X81155534Y-104575557D01*
X81325373Y-104524037D01*
X81502000Y-104506641D01*
X81678626Y-104524037D01*
G37*
G36*
X76678626Y-104524037D02*
G01*
X76848465Y-104575557D01*
X76848467Y-104575558D01*
X77004989Y-104659221D01*
X77142186Y-104771814D01*
X77225448Y-104873271D01*
X77254778Y-104909009D01*
X77338443Y-105065534D01*
X77389963Y-105235373D01*
X77403000Y-105367742D01*
X77403000Y-105706257D01*
X77389963Y-105838626D01*
X77338443Y-106008466D01*
X77254778Y-106164991D01*
X77225448Y-106200729D01*
X77142186Y-106302186D01*
X77047250Y-106380097D01*
X77004991Y-106414778D01*
X76848466Y-106498443D01*
X76678627Y-106549963D01*
X76502000Y-106567359D01*
X76325374Y-106549963D01*
X76155535Y-106498443D01*
X75999010Y-106414778D01*
X75861815Y-106302185D01*
X75749222Y-106164991D01*
X75665557Y-106008466D01*
X75614037Y-105838627D01*
X75601000Y-105706258D01*
X75601000Y-105367743D01*
X75614037Y-105235374D01*
X75665557Y-105065535D01*
X75749222Y-104909010D01*
X75749223Y-104909009D01*
X75861814Y-104771814D01*
X75963271Y-104688552D01*
X75999009Y-104659222D01*
X76155534Y-104575557D01*
X76325373Y-104524037D01*
X76502000Y-104506641D01*
X76678626Y-104524037D01*
G37*
G36*
X79178626Y-104524037D02*
G01*
X79348465Y-104575557D01*
X79348467Y-104575558D01*
X79504989Y-104659221D01*
X79642186Y-104771814D01*
X79725448Y-104873271D01*
X79754778Y-104909009D01*
X79838443Y-105065534D01*
X79889963Y-105235373D01*
X79903000Y-105367742D01*
X79903000Y-105706257D01*
X79889963Y-105838626D01*
X79838443Y-106008466D01*
X79754778Y-106164991D01*
X79725448Y-106200729D01*
X79642186Y-106302186D01*
X79547250Y-106380097D01*
X79504991Y-106414778D01*
X79348466Y-106498443D01*
X79178627Y-106549963D01*
X79002000Y-106567359D01*
X78825374Y-106549963D01*
X78655535Y-106498443D01*
X78499010Y-106414778D01*
X78361815Y-106302185D01*
X78249222Y-106164991D01*
X78165557Y-106008466D01*
X78114037Y-105838627D01*
X78101000Y-105706258D01*
X78101000Y-105367743D01*
X78114037Y-105235374D01*
X78165557Y-105065535D01*
X78249222Y-104909010D01*
X78249223Y-104909009D01*
X78361814Y-104771814D01*
X78463271Y-104688552D01*
X78499009Y-104659222D01*
X78655534Y-104575557D01*
X78825373Y-104524037D01*
X79002000Y-104506641D01*
X79178626Y-104524037D01*
G37*
G36*
X74760600Y-104514989D02*
G01*
X74793652Y-104525015D01*
X74824103Y-104541292D01*
X74850799Y-104563201D01*
X74872708Y-104589897D01*
X74888985Y-104620348D01*
X74899011Y-104653400D01*
X74903000Y-104693903D01*
X74903000Y-106380097D01*
X74899011Y-106420600D01*
X74888985Y-106453652D01*
X74872708Y-106484103D01*
X74850799Y-106510799D01*
X74824103Y-106532708D01*
X74793652Y-106548985D01*
X74760600Y-106559011D01*
X74720097Y-106563000D01*
X73283903Y-106563000D01*
X73243400Y-106559011D01*
X73210348Y-106548985D01*
X73179897Y-106532708D01*
X73153201Y-106510799D01*
X73131292Y-106484103D01*
X73115015Y-106453652D01*
X73104989Y-106420600D01*
X73101000Y-106380097D01*
X73101000Y-104693903D01*
X73104989Y-104653400D01*
X73115015Y-104620348D01*
X73131292Y-104589897D01*
X73153201Y-104563201D01*
X73179897Y-104541292D01*
X73210348Y-104525015D01*
X73243400Y-104514989D01*
X73283903Y-104511000D01*
X74720097Y-104511000D01*
X74760600Y-104514989D01*
G37*
G36*
X100480443Y-100435519D02*
G01*
X100546627Y-100442037D01*
X100716466Y-100493557D01*
X100872991Y-100577222D01*
X100908729Y-100606552D01*
X101010186Y-100689814D01*
X101093448Y-100791271D01*
X101122778Y-100827009D01*
X101206443Y-100983534D01*
X101257963Y-101153373D01*
X101275359Y-101330000D01*
X101257963Y-101506627D01*
X101206443Y-101676466D01*
X101122778Y-101832991D01*
X101093448Y-101868729D01*
X101010186Y-101970186D01*
X100908729Y-102053448D01*
X100872991Y-102082778D01*
X100716466Y-102166443D01*
X100546627Y-102217963D01*
X100480442Y-102224482D01*
X100414260Y-102231000D01*
X99025740Y-102231000D01*
X98959558Y-102224482D01*
X98893373Y-102217963D01*
X98723534Y-102166443D01*
X98567009Y-102082778D01*
X98531271Y-102053448D01*
X98429814Y-101970186D01*
X98346552Y-101868729D01*
X98317222Y-101832991D01*
X98233557Y-101676466D01*
X98182037Y-101506627D01*
X98164641Y-101330000D01*
X98182037Y-101153373D01*
X98233557Y-100983534D01*
X98317222Y-100827009D01*
X98346552Y-100791271D01*
X98429814Y-100689814D01*
X98531271Y-100606552D01*
X98567009Y-100577222D01*
X98723534Y-100493557D01*
X98893373Y-100442037D01*
X98959558Y-100435518D01*
X99025740Y-100429000D01*
X100414260Y-100429000D01*
X100480443Y-100435519D01*
G37*
G36*
X116990443Y-100435519D02*
G01*
X117056627Y-100442037D01*
X117226466Y-100493557D01*
X117382991Y-100577222D01*
X117418729Y-100606552D01*
X117520186Y-100689814D01*
X117603448Y-100791271D01*
X117632778Y-100827009D01*
X117716443Y-100983534D01*
X117767963Y-101153373D01*
X117785359Y-101330000D01*
X117767963Y-101506627D01*
X117716443Y-101676466D01*
X117632778Y-101832991D01*
X117603448Y-101868729D01*
X117520186Y-101970186D01*
X117418729Y-102053448D01*
X117382991Y-102082778D01*
X117226466Y-102166443D01*
X117056627Y-102217963D01*
X116990442Y-102224482D01*
X116924260Y-102231000D01*
X115535740Y-102231000D01*
X115469558Y-102224482D01*
X115403373Y-102217963D01*
X115233534Y-102166443D01*
X115077009Y-102082778D01*
X115041271Y-102053448D01*
X114939814Y-101970186D01*
X114856552Y-101868729D01*
X114827222Y-101832991D01*
X114743557Y-101676466D01*
X114692037Y-101506627D01*
X114674641Y-101330000D01*
X114692037Y-101153373D01*
X114743557Y-100983534D01*
X114827222Y-100827009D01*
X114856552Y-100791271D01*
X114939814Y-100689814D01*
X115041271Y-100606552D01*
X115077009Y-100577222D01*
X115233534Y-100493557D01*
X115403373Y-100442037D01*
X115469558Y-100435518D01*
X115535740Y-100429000D01*
X116924260Y-100429000D01*
X116990443Y-100435519D01*
G37*
G36*
X138763627Y-98174037D02*
G01*
X138933466Y-98225557D01*
X139089991Y-98309222D01*
X139125729Y-98338552D01*
X139227186Y-98421814D01*
X139310448Y-98523271D01*
X139339778Y-98559009D01*
X139423443Y-98715534D01*
X139474963Y-98885374D01*
X139488000Y-99017743D01*
X139488000Y-99356258D01*
X139474963Y-99488627D01*
X139423443Y-99658466D01*
X139339778Y-99814991D01*
X139310448Y-99850729D01*
X139227186Y-99952186D01*
X139089989Y-100064779D01*
X138933467Y-100148442D01*
X138933465Y-100148443D01*
X138763626Y-100199963D01*
X138587000Y-100217359D01*
X138410373Y-100199963D01*
X138240534Y-100148443D01*
X138084009Y-100064778D01*
X138041750Y-100030097D01*
X137946814Y-99952186D01*
X137834221Y-99814989D01*
X137750558Y-99658467D01*
X137750557Y-99658465D01*
X137699037Y-99488626D01*
X137686000Y-99356257D01*
X137686000Y-99017742D01*
X137691035Y-98966625D01*
X137699037Y-98885375D01*
X137699037Y-98885373D01*
X137750557Y-98715534D01*
X137834222Y-98559009D01*
X137946815Y-98421815D01*
X138084010Y-98309222D01*
X138240535Y-98225557D01*
X138410374Y-98174037D01*
X138587000Y-98156641D01*
X138763627Y-98174037D01*
G37*
G36*
X133763627Y-98174037D02*
G01*
X133933466Y-98225557D01*
X134089991Y-98309222D01*
X134125729Y-98338552D01*
X134227186Y-98421814D01*
X134310448Y-98523271D01*
X134339778Y-98559009D01*
X134423443Y-98715534D01*
X134474963Y-98885374D01*
X134488000Y-99017743D01*
X134488000Y-99356258D01*
X134474963Y-99488627D01*
X134423443Y-99658466D01*
X134339778Y-99814991D01*
X134310448Y-99850729D01*
X134227186Y-99952186D01*
X134089989Y-100064779D01*
X133933467Y-100148442D01*
X133933465Y-100148443D01*
X133763626Y-100199963D01*
X133587000Y-100217359D01*
X133410373Y-100199963D01*
X133240534Y-100148443D01*
X133084009Y-100064778D01*
X133041750Y-100030097D01*
X132946814Y-99952186D01*
X132834221Y-99814989D01*
X132750558Y-99658467D01*
X132750557Y-99658465D01*
X132699037Y-99488626D01*
X132686000Y-99356257D01*
X132686000Y-99017742D01*
X132691035Y-98966625D01*
X132699037Y-98885375D01*
X132699037Y-98885373D01*
X132750557Y-98715534D01*
X132834222Y-98559009D01*
X132946815Y-98421815D01*
X133084010Y-98309222D01*
X133240535Y-98225557D01*
X133410374Y-98174037D01*
X133587000Y-98156641D01*
X133763627Y-98174037D01*
G37*
G36*
X136263627Y-98174037D02*
G01*
X136433466Y-98225557D01*
X136589991Y-98309222D01*
X136625729Y-98338552D01*
X136727186Y-98421814D01*
X136810448Y-98523271D01*
X136839778Y-98559009D01*
X136923443Y-98715534D01*
X136974963Y-98885374D01*
X136988000Y-99017743D01*
X136988000Y-99356258D01*
X136974963Y-99488627D01*
X136923443Y-99658466D01*
X136839778Y-99814991D01*
X136810448Y-99850729D01*
X136727186Y-99952186D01*
X136589989Y-100064779D01*
X136433467Y-100148442D01*
X136433465Y-100148443D01*
X136263626Y-100199963D01*
X136087000Y-100217359D01*
X135910373Y-100199963D01*
X135740534Y-100148443D01*
X135584009Y-100064778D01*
X135541750Y-100030097D01*
X135446814Y-99952186D01*
X135334221Y-99814989D01*
X135250558Y-99658467D01*
X135250557Y-99658465D01*
X135199037Y-99488626D01*
X135186000Y-99356257D01*
X135186000Y-99017742D01*
X135191035Y-98966625D01*
X135199037Y-98885375D01*
X135199037Y-98885373D01*
X135250557Y-98715534D01*
X135334222Y-98559009D01*
X135446815Y-98421815D01*
X135584010Y-98309222D01*
X135740535Y-98225557D01*
X135910374Y-98174037D01*
X136087000Y-98156641D01*
X136263627Y-98174037D01*
G37*
G36*
X141845600Y-98164989D02*
G01*
X141878652Y-98175015D01*
X141909103Y-98191292D01*
X141935799Y-98213201D01*
X141957708Y-98239897D01*
X141973985Y-98270348D01*
X141984011Y-98303400D01*
X141988000Y-98343903D01*
X141988000Y-100030097D01*
X141984011Y-100070600D01*
X141973985Y-100103652D01*
X141957708Y-100134103D01*
X141935799Y-100160799D01*
X141909103Y-100182708D01*
X141878652Y-100198985D01*
X141845600Y-100209011D01*
X141805097Y-100213000D01*
X140368903Y-100213000D01*
X140328400Y-100209011D01*
X140295348Y-100198985D01*
X140264897Y-100182708D01*
X140238201Y-100160799D01*
X140216292Y-100134103D01*
X140200015Y-100103652D01*
X140189989Y-100070600D01*
X140186000Y-100030097D01*
X140186000Y-98343903D01*
X140189989Y-98303400D01*
X140200015Y-98270348D01*
X140216292Y-98239897D01*
X140238201Y-98213201D01*
X140264897Y-98191292D01*
X140295348Y-98175015D01*
X140328400Y-98164989D01*
X140368903Y-98161000D01*
X141805097Y-98161000D01*
X141845600Y-98164989D01*
G37*
G36*
X100480442Y-97895518D02*
G01*
X100546627Y-97902037D01*
X100716466Y-97953557D01*
X100872991Y-98037222D01*
X100908729Y-98066552D01*
X101010186Y-98149814D01*
X101084114Y-98239897D01*
X101122778Y-98287009D01*
X101206443Y-98443534D01*
X101257963Y-98613373D01*
X101275359Y-98790000D01*
X101257963Y-98966627D01*
X101206443Y-99136466D01*
X101122778Y-99292991D01*
X101093448Y-99328729D01*
X101010186Y-99430186D01*
X100938974Y-99488627D01*
X100872991Y-99542778D01*
X100716466Y-99626443D01*
X100546627Y-99677963D01*
X100480443Y-99684481D01*
X100414260Y-99691000D01*
X99025740Y-99691000D01*
X98959557Y-99684481D01*
X98893373Y-99677963D01*
X98723534Y-99626443D01*
X98567009Y-99542778D01*
X98501026Y-99488627D01*
X98429814Y-99430186D01*
X98346552Y-99328729D01*
X98317222Y-99292991D01*
X98233557Y-99136466D01*
X98182037Y-98966627D01*
X98164641Y-98790000D01*
X98182037Y-98613373D01*
X98233557Y-98443534D01*
X98317222Y-98287009D01*
X98355886Y-98239897D01*
X98429814Y-98149814D01*
X98531271Y-98066552D01*
X98567009Y-98037222D01*
X98723534Y-97953557D01*
X98893373Y-97902037D01*
X98959558Y-97895518D01*
X99025740Y-97889000D01*
X100414260Y-97889000D01*
X100480442Y-97895518D01*
G37*
G36*
X116990442Y-97895518D02*
G01*
X117056627Y-97902037D01*
X117226466Y-97953557D01*
X117382991Y-98037222D01*
X117418729Y-98066552D01*
X117520186Y-98149814D01*
X117594114Y-98239897D01*
X117632778Y-98287009D01*
X117716443Y-98443534D01*
X117767963Y-98613373D01*
X117785359Y-98790000D01*
X117767963Y-98966627D01*
X117716443Y-99136466D01*
X117632778Y-99292991D01*
X117603448Y-99328729D01*
X117520186Y-99430186D01*
X117448974Y-99488627D01*
X117382991Y-99542778D01*
X117226466Y-99626443D01*
X117056627Y-99677963D01*
X116990443Y-99684481D01*
X116924260Y-99691000D01*
X115535740Y-99691000D01*
X115469557Y-99684481D01*
X115403373Y-99677963D01*
X115233534Y-99626443D01*
X115077009Y-99542778D01*
X115011026Y-99488627D01*
X114939814Y-99430186D01*
X114856552Y-99328729D01*
X114827222Y-99292991D01*
X114743557Y-99136466D01*
X114692037Y-98966627D01*
X114674641Y-98790000D01*
X114692037Y-98613373D01*
X114743557Y-98443534D01*
X114827222Y-98287009D01*
X114865886Y-98239897D01*
X114939814Y-98149814D01*
X115041271Y-98066552D01*
X115077009Y-98037222D01*
X115233534Y-97953557D01*
X115403373Y-97902037D01*
X115469558Y-97895518D01*
X115535740Y-97889000D01*
X116924260Y-97889000D01*
X116990442Y-97895518D01*
G37*
G36*
X76718626Y-97539037D02*
G01*
X76888465Y-97590557D01*
X76888467Y-97590558D01*
X77044989Y-97674221D01*
X77182186Y-97786814D01*
X77265448Y-97888271D01*
X77294778Y-97924009D01*
X77378443Y-98080534D01*
X77429963Y-98250373D01*
X77443000Y-98382742D01*
X77443000Y-98721257D01*
X77429963Y-98853626D01*
X77378443Y-99023466D01*
X77294778Y-99179991D01*
X77265448Y-99215729D01*
X77182186Y-99317186D01*
X77087250Y-99395097D01*
X77044991Y-99429778D01*
X76888466Y-99513443D01*
X76718627Y-99564963D01*
X76542000Y-99582359D01*
X76365374Y-99564963D01*
X76195535Y-99513443D01*
X76039010Y-99429778D01*
X75901815Y-99317185D01*
X75789222Y-99179991D01*
X75705557Y-99023466D01*
X75654037Y-98853627D01*
X75641000Y-98721258D01*
X75641000Y-98382743D01*
X75654037Y-98250374D01*
X75705557Y-98080535D01*
X75773428Y-97953558D01*
X75789221Y-97924011D01*
X75901814Y-97786814D01*
X76003271Y-97703552D01*
X76039009Y-97674222D01*
X76195534Y-97590557D01*
X76365373Y-97539037D01*
X76542000Y-97521641D01*
X76718626Y-97539037D01*
G37*
G36*
X79218626Y-97539037D02*
G01*
X79388465Y-97590557D01*
X79388467Y-97590558D01*
X79544989Y-97674221D01*
X79682186Y-97786814D01*
X79765448Y-97888271D01*
X79794778Y-97924009D01*
X79878443Y-98080534D01*
X79929963Y-98250373D01*
X79943000Y-98382742D01*
X79943000Y-98721257D01*
X79929963Y-98853626D01*
X79878443Y-99023466D01*
X79794778Y-99179991D01*
X79765448Y-99215729D01*
X79682186Y-99317186D01*
X79587250Y-99395097D01*
X79544991Y-99429778D01*
X79388466Y-99513443D01*
X79218627Y-99564963D01*
X79042000Y-99582359D01*
X78865374Y-99564963D01*
X78695535Y-99513443D01*
X78539010Y-99429778D01*
X78401815Y-99317185D01*
X78289222Y-99179991D01*
X78205557Y-99023466D01*
X78154037Y-98853627D01*
X78141000Y-98721258D01*
X78141000Y-98382743D01*
X78154037Y-98250374D01*
X78205557Y-98080535D01*
X78273428Y-97953558D01*
X78289221Y-97924011D01*
X78401814Y-97786814D01*
X78503271Y-97703552D01*
X78539009Y-97674222D01*
X78695534Y-97590557D01*
X78865373Y-97539037D01*
X79042000Y-97521641D01*
X79218626Y-97539037D01*
G37*
G36*
X81718626Y-97539037D02*
G01*
X81888465Y-97590557D01*
X81888467Y-97590558D01*
X82044989Y-97674221D01*
X82182186Y-97786814D01*
X82265448Y-97888271D01*
X82294778Y-97924009D01*
X82378443Y-98080534D01*
X82429963Y-98250373D01*
X82443000Y-98382742D01*
X82443000Y-98721257D01*
X82429963Y-98853626D01*
X82378443Y-99023466D01*
X82294778Y-99179991D01*
X82265448Y-99215729D01*
X82182186Y-99317186D01*
X82087250Y-99395097D01*
X82044991Y-99429778D01*
X81888466Y-99513443D01*
X81718627Y-99564963D01*
X81542000Y-99582359D01*
X81365374Y-99564963D01*
X81195535Y-99513443D01*
X81039010Y-99429778D01*
X80901815Y-99317185D01*
X80789222Y-99179991D01*
X80705557Y-99023466D01*
X80654037Y-98853627D01*
X80641000Y-98721258D01*
X80641000Y-98382743D01*
X80654037Y-98250374D01*
X80705557Y-98080535D01*
X80773428Y-97953558D01*
X80789221Y-97924011D01*
X80901814Y-97786814D01*
X81003271Y-97703552D01*
X81039009Y-97674222D01*
X81195534Y-97590557D01*
X81365373Y-97539037D01*
X81542000Y-97521641D01*
X81718626Y-97539037D01*
G37*
G36*
X74800600Y-97529989D02*
G01*
X74833652Y-97540015D01*
X74864103Y-97556292D01*
X74890799Y-97578201D01*
X74912708Y-97604897D01*
X74928985Y-97635348D01*
X74939011Y-97668400D01*
X74943000Y-97708903D01*
X74943000Y-99395097D01*
X74939011Y-99435600D01*
X74928985Y-99468652D01*
X74912708Y-99499103D01*
X74890799Y-99525799D01*
X74864103Y-99547708D01*
X74833652Y-99563985D01*
X74800600Y-99574011D01*
X74760097Y-99578000D01*
X73323903Y-99578000D01*
X73283400Y-99574011D01*
X73250348Y-99563985D01*
X73219897Y-99547708D01*
X73193201Y-99525799D01*
X73171292Y-99499103D01*
X73155015Y-99468652D01*
X73144989Y-99435600D01*
X73141000Y-99395097D01*
X73141000Y-97708903D01*
X73144989Y-97668400D01*
X73155015Y-97635348D01*
X73171292Y-97604897D01*
X73193201Y-97578201D01*
X73219897Y-97556292D01*
X73250348Y-97540015D01*
X73283400Y-97529989D01*
X73323903Y-97526000D01*
X74760097Y-97526000D01*
X74800600Y-97529989D01*
G37*
G36*
X116990442Y-95355518D02*
G01*
X117056627Y-95362037D01*
X117226466Y-95413557D01*
X117382991Y-95497222D01*
X117418729Y-95526552D01*
X117520186Y-95609814D01*
X117603448Y-95711271D01*
X117632778Y-95747009D01*
X117716443Y-95903534D01*
X117767963Y-96073373D01*
X117785359Y-96250000D01*
X117767963Y-96426627D01*
X117716443Y-96596466D01*
X117632778Y-96752991D01*
X117603448Y-96788729D01*
X117520186Y-96890186D01*
X117418729Y-96973448D01*
X117382991Y-97002778D01*
X117226466Y-97086443D01*
X117056627Y-97137963D01*
X116990443Y-97144481D01*
X116924260Y-97151000D01*
X115535740Y-97151000D01*
X115469558Y-97144482D01*
X115403373Y-97137963D01*
X115233534Y-97086443D01*
X115077009Y-97002778D01*
X115041271Y-96973448D01*
X114939814Y-96890186D01*
X114856552Y-96788729D01*
X114827222Y-96752991D01*
X114743557Y-96596466D01*
X114692037Y-96426627D01*
X114674641Y-96250000D01*
X114692037Y-96073373D01*
X114743557Y-95903534D01*
X114827222Y-95747009D01*
X114856552Y-95711271D01*
X114939814Y-95609814D01*
X115041271Y-95526552D01*
X115077009Y-95497222D01*
X115233534Y-95413557D01*
X115403373Y-95362037D01*
X115469558Y-95355518D01*
X115535740Y-95349000D01*
X116924260Y-95349000D01*
X116990442Y-95355518D01*
G37*
G36*
X100480442Y-95355518D02*
G01*
X100546627Y-95362037D01*
X100716466Y-95413557D01*
X100872991Y-95497222D01*
X100908729Y-95526552D01*
X101010186Y-95609814D01*
X101093448Y-95711271D01*
X101122778Y-95747009D01*
X101206443Y-95903534D01*
X101257963Y-96073373D01*
X101275359Y-96250000D01*
X101257963Y-96426627D01*
X101206443Y-96596466D01*
X101122778Y-96752991D01*
X101093448Y-96788729D01*
X101010186Y-96890186D01*
X100908729Y-96973448D01*
X100872991Y-97002778D01*
X100716466Y-97086443D01*
X100546627Y-97137963D01*
X100480443Y-97144481D01*
X100414260Y-97151000D01*
X99025740Y-97151000D01*
X98959558Y-97144482D01*
X98893373Y-97137963D01*
X98723534Y-97086443D01*
X98567009Y-97002778D01*
X98531271Y-96973448D01*
X98429814Y-96890186D01*
X98346552Y-96788729D01*
X98317222Y-96752991D01*
X98233557Y-96596466D01*
X98182037Y-96426627D01*
X98164641Y-96250000D01*
X98182037Y-96073373D01*
X98233557Y-95903534D01*
X98317222Y-95747009D01*
X98346552Y-95711271D01*
X98429814Y-95609814D01*
X98531271Y-95526552D01*
X98567009Y-95497222D01*
X98723534Y-95413557D01*
X98893373Y-95362037D01*
X98959558Y-95355518D01*
X99025740Y-95349000D01*
X100414260Y-95349000D01*
X100480442Y-95355518D01*
G37*
G36*
X116990443Y-92815519D02*
G01*
X117056627Y-92822037D01*
X117226466Y-92873557D01*
X117382991Y-92957222D01*
X117395132Y-92967186D01*
X117520186Y-93069814D01*
X117586306Y-93150383D01*
X117632778Y-93207009D01*
X117716443Y-93363534D01*
X117767963Y-93533373D01*
X117785359Y-93710000D01*
X117767963Y-93886627D01*
X117716443Y-94056466D01*
X117632778Y-94212991D01*
X117603448Y-94248729D01*
X117520186Y-94350186D01*
X117418729Y-94433448D01*
X117382991Y-94462778D01*
X117226466Y-94546443D01*
X117056627Y-94597963D01*
X116990442Y-94604482D01*
X116924260Y-94611000D01*
X115535740Y-94611000D01*
X115469558Y-94604482D01*
X115403373Y-94597963D01*
X115233534Y-94546443D01*
X115077009Y-94462778D01*
X115041271Y-94433448D01*
X114939814Y-94350186D01*
X114856552Y-94248729D01*
X114827222Y-94212991D01*
X114743557Y-94056466D01*
X114692037Y-93886627D01*
X114674641Y-93710000D01*
X114692037Y-93533373D01*
X114743557Y-93363534D01*
X114827222Y-93207009D01*
X114873694Y-93150383D01*
X114939814Y-93069814D01*
X115064868Y-92967186D01*
X115077009Y-92957222D01*
X115233534Y-92873557D01*
X115403373Y-92822037D01*
X115469557Y-92815519D01*
X115535740Y-92809000D01*
X116924260Y-92809000D01*
X116990443Y-92815519D01*
G37*
G36*
X100480443Y-92815519D02*
G01*
X100546627Y-92822037D01*
X100716466Y-92873557D01*
X100872991Y-92957222D01*
X100885132Y-92967186D01*
X101010186Y-93069814D01*
X101076306Y-93150383D01*
X101122778Y-93207009D01*
X101206443Y-93363534D01*
X101257963Y-93533373D01*
X101275359Y-93710000D01*
X101257963Y-93886627D01*
X101206443Y-94056466D01*
X101122778Y-94212991D01*
X101093448Y-94248729D01*
X101010186Y-94350186D01*
X100908729Y-94433448D01*
X100872991Y-94462778D01*
X100716466Y-94546443D01*
X100546627Y-94597963D01*
X100480442Y-94604482D01*
X100414260Y-94611000D01*
X99025740Y-94611000D01*
X98959558Y-94604482D01*
X98893373Y-94597963D01*
X98723534Y-94546443D01*
X98567009Y-94462778D01*
X98531271Y-94433448D01*
X98429814Y-94350186D01*
X98346552Y-94248729D01*
X98317222Y-94212991D01*
X98233557Y-94056466D01*
X98182037Y-93886627D01*
X98164641Y-93710000D01*
X98182037Y-93533373D01*
X98233557Y-93363534D01*
X98317222Y-93207009D01*
X98363694Y-93150383D01*
X98429814Y-93069814D01*
X98554868Y-92967186D01*
X98567009Y-92957222D01*
X98723534Y-92873557D01*
X98893373Y-92822037D01*
X98959557Y-92815519D01*
X99025740Y-92809000D01*
X100414260Y-92809000D01*
X100480443Y-92815519D01*
G37*
G36*
X138803627Y-91189037D02*
G01*
X138973466Y-91240557D01*
X139129991Y-91324222D01*
X139157289Y-91346625D01*
X139267186Y-91436814D01*
X139332555Y-91516468D01*
X139379778Y-91574009D01*
X139463443Y-91730534D01*
X139514963Y-91900374D01*
X139528000Y-92032743D01*
X139528000Y-92371258D01*
X139514963Y-92503627D01*
X139463443Y-92673466D01*
X139379778Y-92829991D01*
X139350448Y-92865729D01*
X139267186Y-92967186D01*
X139129989Y-93079779D01*
X138973467Y-93163442D01*
X138973465Y-93163443D01*
X138803626Y-93214963D01*
X138627000Y-93232359D01*
X138450373Y-93214963D01*
X138280534Y-93163443D01*
X138124009Y-93079778D01*
X138081750Y-93045097D01*
X137986814Y-92967186D01*
X137874221Y-92829989D01*
X137790558Y-92673467D01*
X137767471Y-92597359D01*
X137739037Y-92503626D01*
X137726000Y-92371257D01*
X137726000Y-92032742D01*
X137739037Y-91900373D01*
X137790557Y-91730534D01*
X137874222Y-91574009D01*
X137986815Y-91436815D01*
X138124010Y-91324222D01*
X138280535Y-91240557D01*
X138450374Y-91189037D01*
X138627000Y-91171641D01*
X138803627Y-91189037D01*
G37*
G36*
X133803627Y-91189037D02*
G01*
X133973466Y-91240557D01*
X134129991Y-91324222D01*
X134157289Y-91346625D01*
X134267186Y-91436814D01*
X134332555Y-91516468D01*
X134379778Y-91574009D01*
X134463443Y-91730534D01*
X134514963Y-91900374D01*
X134528000Y-92032743D01*
X134528000Y-92371258D01*
X134514963Y-92503627D01*
X134463443Y-92673466D01*
X134379778Y-92829991D01*
X134350448Y-92865729D01*
X134267186Y-92967186D01*
X134129989Y-93079779D01*
X133973467Y-93163442D01*
X133973465Y-93163443D01*
X133803626Y-93214963D01*
X133627000Y-93232359D01*
X133450373Y-93214963D01*
X133280534Y-93163443D01*
X133124009Y-93079778D01*
X133081750Y-93045097D01*
X132986814Y-92967186D01*
X132874221Y-92829989D01*
X132790558Y-92673467D01*
X132767471Y-92597359D01*
X132739037Y-92503626D01*
X132726000Y-92371257D01*
X132726000Y-92032742D01*
X132739037Y-91900373D01*
X132790557Y-91730534D01*
X132874222Y-91574009D01*
X132986815Y-91436815D01*
X133124010Y-91324222D01*
X133280535Y-91240557D01*
X133450374Y-91189037D01*
X133627000Y-91171641D01*
X133803627Y-91189037D01*
G37*
G36*
X136303627Y-91189037D02*
G01*
X136473466Y-91240557D01*
X136629991Y-91324222D01*
X136657289Y-91346625D01*
X136767186Y-91436814D01*
X136832555Y-91516468D01*
X136879778Y-91574009D01*
X136963443Y-91730534D01*
X137014963Y-91900374D01*
X137028000Y-92032743D01*
X137028000Y-92371258D01*
X137014963Y-92503627D01*
X136963443Y-92673466D01*
X136879778Y-92829991D01*
X136850448Y-92865729D01*
X136767186Y-92967186D01*
X136629989Y-93079779D01*
X136473467Y-93163442D01*
X136473465Y-93163443D01*
X136303626Y-93214963D01*
X136127000Y-93232359D01*
X135950373Y-93214963D01*
X135780534Y-93163443D01*
X135624009Y-93079778D01*
X135581750Y-93045097D01*
X135486814Y-92967186D01*
X135374221Y-92829989D01*
X135290558Y-92673467D01*
X135267471Y-92597359D01*
X135239037Y-92503626D01*
X135226000Y-92371257D01*
X135226000Y-92032742D01*
X135239037Y-91900373D01*
X135290557Y-91730534D01*
X135374222Y-91574009D01*
X135486815Y-91436815D01*
X135624010Y-91324222D01*
X135780535Y-91240557D01*
X135950374Y-91189037D01*
X136127000Y-91171641D01*
X136303627Y-91189037D01*
G37*
G36*
X141885600Y-91179989D02*
G01*
X141918652Y-91190015D01*
X141949103Y-91206292D01*
X141975799Y-91228201D01*
X141997708Y-91254897D01*
X142013985Y-91285348D01*
X142024011Y-91318400D01*
X142028000Y-91358903D01*
X142028000Y-93045097D01*
X142024011Y-93085600D01*
X142013985Y-93118652D01*
X141997708Y-93149103D01*
X141975799Y-93175799D01*
X141949103Y-93197708D01*
X141918652Y-93213985D01*
X141885600Y-93224011D01*
X141845097Y-93228000D01*
X140408903Y-93228000D01*
X140368400Y-93224011D01*
X140335348Y-93213985D01*
X140304897Y-93197708D01*
X140278201Y-93175799D01*
X140256292Y-93149103D01*
X140240015Y-93118652D01*
X140229989Y-93085600D01*
X140226000Y-93045097D01*
X140226000Y-91358903D01*
X140229989Y-91318400D01*
X140240015Y-91285348D01*
X140256292Y-91254897D01*
X140278201Y-91228201D01*
X140304897Y-91206292D01*
X140335348Y-91190015D01*
X140368400Y-91179989D01*
X140408903Y-91176000D01*
X141845097Y-91176000D01*
X141885600Y-91179989D01*
G37*
G36*
X76718626Y-90554037D02*
G01*
X76888465Y-90605557D01*
X76888467Y-90605558D01*
X77044989Y-90689221D01*
X77182186Y-90801814D01*
X77265448Y-90903271D01*
X77294778Y-90939009D01*
X77378443Y-91095534D01*
X77429963Y-91265373D01*
X77429963Y-91265375D01*
X77437966Y-91346625D01*
X77443000Y-91397742D01*
X77443000Y-91736257D01*
X77429963Y-91868626D01*
X77378443Y-92038466D01*
X77294778Y-92194991D01*
X77265448Y-92230729D01*
X77182186Y-92332186D01*
X77087250Y-92410097D01*
X77044991Y-92444778D01*
X76888466Y-92528443D01*
X76718627Y-92579963D01*
X76542000Y-92597359D01*
X76365374Y-92579963D01*
X76195535Y-92528443D01*
X76039010Y-92444778D01*
X75901815Y-92332185D01*
X75789222Y-92194991D01*
X75705557Y-92038466D01*
X75654037Y-91868627D01*
X75641000Y-91736258D01*
X75641000Y-91397743D01*
X75654037Y-91265374D01*
X75705557Y-91095535D01*
X75789222Y-90939010D01*
X75789223Y-90939009D01*
X75901814Y-90801814D01*
X76003271Y-90718552D01*
X76039009Y-90689222D01*
X76195534Y-90605557D01*
X76365373Y-90554037D01*
X76542000Y-90536641D01*
X76718626Y-90554037D01*
G37*
G36*
X79218626Y-90554037D02*
G01*
X79388465Y-90605557D01*
X79388467Y-90605558D01*
X79544989Y-90689221D01*
X79682186Y-90801814D01*
X79765448Y-90903271D01*
X79794778Y-90939009D01*
X79878443Y-91095534D01*
X79929963Y-91265373D01*
X79929963Y-91265375D01*
X79937966Y-91346625D01*
X79943000Y-91397742D01*
X79943000Y-91736257D01*
X79929963Y-91868626D01*
X79878443Y-92038466D01*
X79794778Y-92194991D01*
X79765448Y-92230729D01*
X79682186Y-92332186D01*
X79587250Y-92410097D01*
X79544991Y-92444778D01*
X79388466Y-92528443D01*
X79218627Y-92579963D01*
X79042000Y-92597359D01*
X78865374Y-92579963D01*
X78695535Y-92528443D01*
X78539010Y-92444778D01*
X78401815Y-92332185D01*
X78289222Y-92194991D01*
X78205557Y-92038466D01*
X78154037Y-91868627D01*
X78141000Y-91736258D01*
X78141000Y-91397743D01*
X78154037Y-91265374D01*
X78205557Y-91095535D01*
X78289222Y-90939010D01*
X78289223Y-90939009D01*
X78401814Y-90801814D01*
X78503271Y-90718552D01*
X78539009Y-90689222D01*
X78695534Y-90605557D01*
X78865373Y-90554037D01*
X79042000Y-90536641D01*
X79218626Y-90554037D01*
G37*
G36*
X81718626Y-90554037D02*
G01*
X81888465Y-90605557D01*
X81888467Y-90605558D01*
X82044989Y-90689221D01*
X82182186Y-90801814D01*
X82265448Y-90903271D01*
X82294778Y-90939009D01*
X82378443Y-91095534D01*
X82429963Y-91265373D01*
X82429963Y-91265375D01*
X82437966Y-91346625D01*
X82443000Y-91397742D01*
X82443000Y-91736257D01*
X82429963Y-91868626D01*
X82378443Y-92038466D01*
X82294778Y-92194991D01*
X82265448Y-92230729D01*
X82182186Y-92332186D01*
X82087250Y-92410097D01*
X82044991Y-92444778D01*
X81888466Y-92528443D01*
X81718627Y-92579963D01*
X81542000Y-92597359D01*
X81365374Y-92579963D01*
X81195535Y-92528443D01*
X81039010Y-92444778D01*
X80901815Y-92332185D01*
X80789222Y-92194991D01*
X80705557Y-92038466D01*
X80654037Y-91868627D01*
X80641000Y-91736258D01*
X80641000Y-91397743D01*
X80654037Y-91265374D01*
X80705557Y-91095535D01*
X80789222Y-90939010D01*
X80789223Y-90939009D01*
X80901814Y-90801814D01*
X81003271Y-90718552D01*
X81039009Y-90689222D01*
X81195534Y-90605557D01*
X81365373Y-90554037D01*
X81542000Y-90536641D01*
X81718626Y-90554037D01*
G37*
G36*
X74800600Y-90544989D02*
G01*
X74833652Y-90555015D01*
X74864103Y-90571292D01*
X74890799Y-90593201D01*
X74912708Y-90619897D01*
X74928985Y-90650348D01*
X74939011Y-90683400D01*
X74943000Y-90723903D01*
X74943000Y-92410097D01*
X74939011Y-92450600D01*
X74928985Y-92483652D01*
X74912708Y-92514103D01*
X74890799Y-92540799D01*
X74864103Y-92562708D01*
X74833652Y-92578985D01*
X74800600Y-92589011D01*
X74760097Y-92593000D01*
X73323903Y-92593000D01*
X73283400Y-92589011D01*
X73250348Y-92578985D01*
X73219897Y-92562708D01*
X73193201Y-92540799D01*
X73171292Y-92514103D01*
X73155015Y-92483652D01*
X73144989Y-92450600D01*
X73141000Y-92410097D01*
X73141000Y-90723903D01*
X73144989Y-90683400D01*
X73155015Y-90650348D01*
X73171292Y-90619897D01*
X73193201Y-90593201D01*
X73219897Y-90571292D01*
X73250348Y-90555015D01*
X73283400Y-90544989D01*
X73323903Y-90541000D01*
X74760097Y-90541000D01*
X74800600Y-90544989D01*
G37*
G36*
X100480442Y-90275518D02*
G01*
X100546627Y-90282037D01*
X100716466Y-90333557D01*
X100872991Y-90417222D01*
X100908729Y-90446552D01*
X101010186Y-90529814D01*
X101084114Y-90619897D01*
X101122778Y-90667009D01*
X101206443Y-90823534D01*
X101257963Y-90993373D01*
X101275359Y-91170000D01*
X101257963Y-91346627D01*
X101206443Y-91516466D01*
X101122778Y-91672991D01*
X101093448Y-91708729D01*
X101010186Y-91810186D01*
X100938974Y-91868627D01*
X100872991Y-91922778D01*
X100716466Y-92006443D01*
X100546627Y-92057963D01*
X100480443Y-92064481D01*
X100414260Y-92071000D01*
X99025740Y-92071000D01*
X98959557Y-92064481D01*
X98893373Y-92057963D01*
X98723534Y-92006443D01*
X98567009Y-91922778D01*
X98501026Y-91868627D01*
X98429814Y-91810186D01*
X98346552Y-91708729D01*
X98317222Y-91672991D01*
X98233557Y-91516466D01*
X98182037Y-91346627D01*
X98164641Y-91170000D01*
X98182037Y-90993373D01*
X98233557Y-90823534D01*
X98317222Y-90667009D01*
X98355886Y-90619897D01*
X98429814Y-90529814D01*
X98531271Y-90446552D01*
X98567009Y-90417222D01*
X98723534Y-90333557D01*
X98893373Y-90282037D01*
X98959558Y-90275518D01*
X99025740Y-90269000D01*
X100414260Y-90269000D01*
X100480442Y-90275518D01*
G37*
G36*
X116990442Y-90275518D02*
G01*
X117056627Y-90282037D01*
X117226466Y-90333557D01*
X117382991Y-90417222D01*
X117418729Y-90446552D01*
X117520186Y-90529814D01*
X117594114Y-90619897D01*
X117632778Y-90667009D01*
X117716443Y-90823534D01*
X117767963Y-90993373D01*
X117785359Y-91170000D01*
X117767963Y-91346627D01*
X117716443Y-91516466D01*
X117632778Y-91672991D01*
X117603448Y-91708729D01*
X117520186Y-91810186D01*
X117448974Y-91868627D01*
X117382991Y-91922778D01*
X117226466Y-92006443D01*
X117056627Y-92057963D01*
X116990443Y-92064481D01*
X116924260Y-92071000D01*
X115535740Y-92071000D01*
X115469557Y-92064481D01*
X115403373Y-92057963D01*
X115233534Y-92006443D01*
X115077009Y-91922778D01*
X115011026Y-91868627D01*
X114939814Y-91810186D01*
X114856552Y-91708729D01*
X114827222Y-91672991D01*
X114743557Y-91516466D01*
X114692037Y-91346627D01*
X114674641Y-91170000D01*
X114692037Y-90993373D01*
X114743557Y-90823534D01*
X114827222Y-90667009D01*
X114865886Y-90619897D01*
X114939814Y-90529814D01*
X115041271Y-90446552D01*
X115077009Y-90417222D01*
X115233534Y-90333557D01*
X115403373Y-90282037D01*
X115469558Y-90275518D01*
X115535740Y-90269000D01*
X116924260Y-90269000D01*
X116990442Y-90275518D01*
G37*
G36*
X100480442Y-87735518D02*
G01*
X100546627Y-87742037D01*
X100716466Y-87793557D01*
X100872991Y-87877222D01*
X100908729Y-87906552D01*
X101010186Y-87989814D01*
X101093448Y-88091271D01*
X101122778Y-88127009D01*
X101206443Y-88283534D01*
X101257963Y-88453373D01*
X101275359Y-88630000D01*
X101257963Y-88806627D01*
X101206443Y-88976466D01*
X101122778Y-89132991D01*
X101093448Y-89168729D01*
X101010186Y-89270186D01*
X100908729Y-89353448D01*
X100872991Y-89382778D01*
X100716466Y-89466443D01*
X100546627Y-89517963D01*
X100480442Y-89524482D01*
X100414260Y-89531000D01*
X99025740Y-89531000D01*
X98959558Y-89524482D01*
X98893373Y-89517963D01*
X98723534Y-89466443D01*
X98567009Y-89382778D01*
X98531271Y-89353448D01*
X98429814Y-89270186D01*
X98346552Y-89168729D01*
X98317222Y-89132991D01*
X98233557Y-88976466D01*
X98182037Y-88806627D01*
X98164641Y-88630000D01*
X98182037Y-88453373D01*
X98233557Y-88283534D01*
X98317222Y-88127009D01*
X98346552Y-88091271D01*
X98429814Y-87989814D01*
X98531271Y-87906552D01*
X98567009Y-87877222D01*
X98723534Y-87793557D01*
X98893373Y-87742037D01*
X98959558Y-87735518D01*
X99025740Y-87729000D01*
X100414260Y-87729000D01*
X100480442Y-87735518D01*
G37*
G36*
X116990442Y-87735518D02*
G01*
X117056627Y-87742037D01*
X117226466Y-87793557D01*
X117382991Y-87877222D01*
X117418729Y-87906552D01*
X117520186Y-87989814D01*
X117603448Y-88091271D01*
X117632778Y-88127009D01*
X117716443Y-88283534D01*
X117767963Y-88453373D01*
X117785359Y-88630000D01*
X117767963Y-88806627D01*
X117716443Y-88976466D01*
X117632778Y-89132991D01*
X117603448Y-89168729D01*
X117520186Y-89270186D01*
X117418729Y-89353448D01*
X117382991Y-89382778D01*
X117226466Y-89466443D01*
X117056627Y-89517963D01*
X116990442Y-89524482D01*
X116924260Y-89531000D01*
X115535740Y-89531000D01*
X115469558Y-89524482D01*
X115403373Y-89517963D01*
X115233534Y-89466443D01*
X115077009Y-89382778D01*
X115041271Y-89353448D01*
X114939814Y-89270186D01*
X114856552Y-89168729D01*
X114827222Y-89132991D01*
X114743557Y-88976466D01*
X114692037Y-88806627D01*
X114674641Y-88630000D01*
X114692037Y-88453373D01*
X114743557Y-88283534D01*
X114827222Y-88127009D01*
X114856552Y-88091271D01*
X114939814Y-87989814D01*
X115041271Y-87906552D01*
X115077009Y-87877222D01*
X115233534Y-87793557D01*
X115403373Y-87742037D01*
X115469558Y-87735518D01*
X115535740Y-87729000D01*
X116924260Y-87729000D01*
X116990442Y-87735518D01*
G37*
G36*
X116990442Y-85195518D02*
G01*
X117056627Y-85202037D01*
X117226466Y-85253557D01*
X117382991Y-85337222D01*
X117395132Y-85347186D01*
X117520186Y-85449814D01*
X117586306Y-85530383D01*
X117632778Y-85587009D01*
X117716443Y-85743534D01*
X117767963Y-85913373D01*
X117785359Y-86090000D01*
X117767963Y-86266627D01*
X117716443Y-86436466D01*
X117632778Y-86592991D01*
X117603448Y-86628729D01*
X117520186Y-86730186D01*
X117418729Y-86813448D01*
X117382991Y-86842778D01*
X117226466Y-86926443D01*
X117056627Y-86977963D01*
X116990442Y-86984482D01*
X116924260Y-86991000D01*
X115535740Y-86991000D01*
X115469558Y-86984482D01*
X115403373Y-86977963D01*
X115233534Y-86926443D01*
X115077009Y-86842778D01*
X115041271Y-86813448D01*
X114939814Y-86730186D01*
X114856552Y-86628729D01*
X114827222Y-86592991D01*
X114743557Y-86436466D01*
X114692037Y-86266627D01*
X114674641Y-86090000D01*
X114692037Y-85913373D01*
X114743557Y-85743534D01*
X114827222Y-85587009D01*
X114873694Y-85530383D01*
X114939814Y-85449814D01*
X115064868Y-85347186D01*
X115077009Y-85337222D01*
X115233534Y-85253557D01*
X115403373Y-85202037D01*
X115469558Y-85195518D01*
X115535740Y-85189000D01*
X116924260Y-85189000D01*
X116990442Y-85195518D01*
G37*
G36*
X100480442Y-85195518D02*
G01*
X100546627Y-85202037D01*
X100716466Y-85253557D01*
X100872991Y-85337222D01*
X100885132Y-85347186D01*
X101010186Y-85449814D01*
X101076306Y-85530383D01*
X101122778Y-85587009D01*
X101206443Y-85743534D01*
X101257963Y-85913373D01*
X101275359Y-86090000D01*
X101257963Y-86266627D01*
X101206443Y-86436466D01*
X101122778Y-86592991D01*
X101093448Y-86628729D01*
X101010186Y-86730186D01*
X100908729Y-86813448D01*
X100872991Y-86842778D01*
X100716466Y-86926443D01*
X100546627Y-86977963D01*
X100480442Y-86984482D01*
X100414260Y-86991000D01*
X99025740Y-86991000D01*
X98959558Y-86984482D01*
X98893373Y-86977963D01*
X98723534Y-86926443D01*
X98567009Y-86842778D01*
X98531271Y-86813448D01*
X98429814Y-86730186D01*
X98346552Y-86628729D01*
X98317222Y-86592991D01*
X98233557Y-86436466D01*
X98182037Y-86266627D01*
X98164641Y-86090000D01*
X98182037Y-85913373D01*
X98233557Y-85743534D01*
X98317222Y-85587009D01*
X98363694Y-85530383D01*
X98429814Y-85449814D01*
X98554868Y-85347186D01*
X98567009Y-85337222D01*
X98723534Y-85253557D01*
X98893373Y-85202037D01*
X98959558Y-85195518D01*
X99025740Y-85189000D01*
X100414260Y-85189000D01*
X100480442Y-85195518D01*
G37*
G36*
X136303627Y-84204037D02*
G01*
X136473466Y-84255557D01*
X136629991Y-84339222D01*
X136665729Y-84368552D01*
X136767186Y-84451814D01*
X136850448Y-84553271D01*
X136879778Y-84589009D01*
X136963443Y-84745534D01*
X137014963Y-84915374D01*
X137028000Y-85047743D01*
X137028000Y-85386258D01*
X137014963Y-85518627D01*
X136963443Y-85688466D01*
X136879778Y-85844991D01*
X136850448Y-85880729D01*
X136767186Y-85982186D01*
X136629989Y-86094779D01*
X136473467Y-86178442D01*
X136473465Y-86178443D01*
X136303626Y-86229963D01*
X136127000Y-86247359D01*
X135950373Y-86229963D01*
X135780534Y-86178443D01*
X135624009Y-86094778D01*
X135581750Y-86060097D01*
X135486814Y-85982186D01*
X135374221Y-85844989D01*
X135290558Y-85688467D01*
X135267471Y-85612359D01*
X135239037Y-85518626D01*
X135226000Y-85386257D01*
X135226000Y-85047742D01*
X135239037Y-84915373D01*
X135290557Y-84745534D01*
X135374222Y-84589009D01*
X135486815Y-84451815D01*
X135624010Y-84339222D01*
X135780535Y-84255557D01*
X135950374Y-84204037D01*
X136127000Y-84186641D01*
X136303627Y-84204037D01*
G37*
G36*
X138803627Y-84204037D02*
G01*
X138973466Y-84255557D01*
X139129991Y-84339222D01*
X139165729Y-84368552D01*
X139267186Y-84451814D01*
X139350448Y-84553271D01*
X139379778Y-84589009D01*
X139463443Y-84745534D01*
X139514963Y-84915374D01*
X139528000Y-85047743D01*
X139528000Y-85386258D01*
X139514963Y-85518627D01*
X139463443Y-85688466D01*
X139379778Y-85844991D01*
X139350448Y-85880729D01*
X139267186Y-85982186D01*
X139129989Y-86094779D01*
X138973467Y-86178442D01*
X138973465Y-86178443D01*
X138803626Y-86229963D01*
X138627000Y-86247359D01*
X138450373Y-86229963D01*
X138280534Y-86178443D01*
X138124009Y-86094778D01*
X138081750Y-86060097D01*
X137986814Y-85982186D01*
X137874221Y-85844989D01*
X137790558Y-85688467D01*
X137767471Y-85612359D01*
X137739037Y-85518626D01*
X137726000Y-85386257D01*
X137726000Y-85047742D01*
X137739037Y-84915373D01*
X137790557Y-84745534D01*
X137874222Y-84589009D01*
X137986815Y-84451815D01*
X138124010Y-84339222D01*
X138280535Y-84255557D01*
X138450374Y-84204037D01*
X138627000Y-84186641D01*
X138803627Y-84204037D01*
G37*
G36*
X133803627Y-84204037D02*
G01*
X133973466Y-84255557D01*
X134129991Y-84339222D01*
X134165729Y-84368552D01*
X134267186Y-84451814D01*
X134350448Y-84553271D01*
X134379778Y-84589009D01*
X134463443Y-84745534D01*
X134514963Y-84915374D01*
X134528000Y-85047743D01*
X134528000Y-85386258D01*
X134514963Y-85518627D01*
X134463443Y-85688466D01*
X134379778Y-85844991D01*
X134350448Y-85880729D01*
X134267186Y-85982186D01*
X134129989Y-86094779D01*
X133973467Y-86178442D01*
X133973465Y-86178443D01*
X133803626Y-86229963D01*
X133627000Y-86247359D01*
X133450373Y-86229963D01*
X133280534Y-86178443D01*
X133124009Y-86094778D01*
X133081750Y-86060097D01*
X132986814Y-85982186D01*
X132874221Y-85844989D01*
X132790558Y-85688467D01*
X132767471Y-85612359D01*
X132739037Y-85518626D01*
X132726000Y-85386257D01*
X132726000Y-85047742D01*
X132739037Y-84915373D01*
X132790557Y-84745534D01*
X132874222Y-84589009D01*
X132986815Y-84451815D01*
X133124010Y-84339222D01*
X133280535Y-84255557D01*
X133450374Y-84204037D01*
X133627000Y-84186641D01*
X133803627Y-84204037D01*
G37*
G36*
X141885600Y-84194989D02*
G01*
X141918652Y-84205015D01*
X141949103Y-84221292D01*
X141975799Y-84243201D01*
X141997708Y-84269897D01*
X142013985Y-84300348D01*
X142024011Y-84333400D01*
X142028000Y-84373903D01*
X142028000Y-86060097D01*
X142024011Y-86100600D01*
X142013985Y-86133652D01*
X141997708Y-86164103D01*
X141975799Y-86190799D01*
X141949103Y-86212708D01*
X141918652Y-86228985D01*
X141885600Y-86239011D01*
X141845097Y-86243000D01*
X140408903Y-86243000D01*
X140368400Y-86239011D01*
X140335348Y-86228985D01*
X140304897Y-86212708D01*
X140278201Y-86190799D01*
X140256292Y-86164103D01*
X140240015Y-86133652D01*
X140229989Y-86100600D01*
X140226000Y-86060097D01*
X140226000Y-84373903D01*
X140229989Y-84333400D01*
X140240015Y-84300348D01*
X140256292Y-84269897D01*
X140278201Y-84243201D01*
X140304897Y-84221292D01*
X140335348Y-84205015D01*
X140368400Y-84194989D01*
X140408903Y-84191000D01*
X141845097Y-84191000D01*
X141885600Y-84194989D01*
G37*
G36*
X81718626Y-83569037D02*
G01*
X81888465Y-83620557D01*
X81888467Y-83620558D01*
X82044989Y-83704221D01*
X82182186Y-83816814D01*
X82247555Y-83896468D01*
X82294778Y-83954009D01*
X82378443Y-84110534D01*
X82429963Y-84280373D01*
X82443000Y-84412742D01*
X82443000Y-84751257D01*
X82429963Y-84883626D01*
X82378443Y-85053466D01*
X82294778Y-85209991D01*
X82265448Y-85245729D01*
X82182186Y-85347186D01*
X82087250Y-85425097D01*
X82044991Y-85459778D01*
X81888466Y-85543443D01*
X81718627Y-85594963D01*
X81542000Y-85612359D01*
X81365374Y-85594963D01*
X81195535Y-85543443D01*
X81039010Y-85459778D01*
X80901815Y-85347185D01*
X80789222Y-85209991D01*
X80705557Y-85053466D01*
X80654037Y-84883627D01*
X80641000Y-84751258D01*
X80641000Y-84412743D01*
X80654037Y-84280374D01*
X80705557Y-84110535D01*
X80789222Y-83954010D01*
X80836445Y-83896468D01*
X80901814Y-83816814D01*
X81011711Y-83726625D01*
X81039009Y-83704222D01*
X81195534Y-83620557D01*
X81365373Y-83569037D01*
X81542000Y-83551641D01*
X81718626Y-83569037D01*
G37*
G36*
X79218626Y-83569037D02*
G01*
X79388465Y-83620557D01*
X79388467Y-83620558D01*
X79544989Y-83704221D01*
X79682186Y-83816814D01*
X79747555Y-83896468D01*
X79794778Y-83954009D01*
X79878443Y-84110534D01*
X79929963Y-84280373D01*
X79943000Y-84412742D01*
X79943000Y-84751257D01*
X79929963Y-84883626D01*
X79878443Y-85053466D01*
X79794778Y-85209991D01*
X79765448Y-85245729D01*
X79682186Y-85347186D01*
X79587250Y-85425097D01*
X79544991Y-85459778D01*
X79388466Y-85543443D01*
X79218627Y-85594963D01*
X79042000Y-85612359D01*
X78865374Y-85594963D01*
X78695535Y-85543443D01*
X78539010Y-85459778D01*
X78401815Y-85347185D01*
X78289222Y-85209991D01*
X78205557Y-85053466D01*
X78154037Y-84883627D01*
X78141000Y-84751258D01*
X78141000Y-84412743D01*
X78154037Y-84280374D01*
X78205557Y-84110535D01*
X78289222Y-83954010D01*
X78336445Y-83896468D01*
X78401814Y-83816814D01*
X78511711Y-83726625D01*
X78539009Y-83704222D01*
X78695534Y-83620557D01*
X78865373Y-83569037D01*
X79042000Y-83551641D01*
X79218626Y-83569037D01*
G37*
G36*
X76718626Y-83569037D02*
G01*
X76888465Y-83620557D01*
X76888467Y-83620558D01*
X77044989Y-83704221D01*
X77182186Y-83816814D01*
X77247555Y-83896468D01*
X77294778Y-83954009D01*
X77378443Y-84110534D01*
X77429963Y-84280373D01*
X77443000Y-84412742D01*
X77443000Y-84751257D01*
X77429963Y-84883626D01*
X77378443Y-85053466D01*
X77294778Y-85209991D01*
X77265448Y-85245729D01*
X77182186Y-85347186D01*
X77087250Y-85425097D01*
X77044991Y-85459778D01*
X76888466Y-85543443D01*
X76718627Y-85594963D01*
X76542000Y-85612359D01*
X76365374Y-85594963D01*
X76195535Y-85543443D01*
X76039010Y-85459778D01*
X75901815Y-85347185D01*
X75789222Y-85209991D01*
X75705557Y-85053466D01*
X75654037Y-84883627D01*
X75641000Y-84751258D01*
X75641000Y-84412743D01*
X75654037Y-84280374D01*
X75705557Y-84110535D01*
X75789222Y-83954010D01*
X75836445Y-83896468D01*
X75901814Y-83816814D01*
X76011711Y-83726625D01*
X76039009Y-83704222D01*
X76195534Y-83620557D01*
X76365373Y-83569037D01*
X76542000Y-83551641D01*
X76718626Y-83569037D01*
G37*
G36*
X74800600Y-83559989D02*
G01*
X74833652Y-83570015D01*
X74864103Y-83586292D01*
X74890799Y-83608201D01*
X74912708Y-83634897D01*
X74928985Y-83665348D01*
X74939011Y-83698400D01*
X74943000Y-83738903D01*
X74943000Y-85425097D01*
X74939011Y-85465600D01*
X74928985Y-85498652D01*
X74912708Y-85529103D01*
X74890799Y-85555799D01*
X74864103Y-85577708D01*
X74833652Y-85593985D01*
X74800600Y-85604011D01*
X74760097Y-85608000D01*
X73323903Y-85608000D01*
X73283400Y-85604011D01*
X73250348Y-85593985D01*
X73219897Y-85577708D01*
X73193201Y-85555799D01*
X73171292Y-85529103D01*
X73155015Y-85498652D01*
X73144989Y-85465600D01*
X73141000Y-85425097D01*
X73141000Y-83738903D01*
X73144989Y-83698400D01*
X73155015Y-83665348D01*
X73171292Y-83634897D01*
X73193201Y-83608201D01*
X73219897Y-83586292D01*
X73250348Y-83570015D01*
X73283400Y-83559989D01*
X73323903Y-83556000D01*
X74760097Y-83556000D01*
X74800600Y-83559989D01*
G37*
G36*
X116990443Y-82655519D02*
G01*
X117056627Y-82662037D01*
X117226466Y-82713557D01*
X117382991Y-82797222D01*
X117418729Y-82826552D01*
X117520186Y-82909814D01*
X117603448Y-83011271D01*
X117632778Y-83047009D01*
X117716443Y-83203534D01*
X117767963Y-83373373D01*
X117785359Y-83550000D01*
X117767963Y-83726627D01*
X117716443Y-83896466D01*
X117632778Y-84052991D01*
X117603448Y-84088729D01*
X117520186Y-84190186D01*
X117424616Y-84268617D01*
X117382991Y-84302778D01*
X117226466Y-84386443D01*
X117056627Y-84437963D01*
X116990442Y-84444482D01*
X116924260Y-84451000D01*
X115535740Y-84451000D01*
X115469558Y-84444482D01*
X115403373Y-84437963D01*
X115233534Y-84386443D01*
X115077009Y-84302778D01*
X115035384Y-84268617D01*
X114939814Y-84190186D01*
X114856552Y-84088729D01*
X114827222Y-84052991D01*
X114743557Y-83896466D01*
X114692037Y-83726627D01*
X114674641Y-83550000D01*
X114692037Y-83373373D01*
X114743557Y-83203534D01*
X114827222Y-83047009D01*
X114856552Y-83011271D01*
X114939814Y-82909814D01*
X115041271Y-82826552D01*
X115077009Y-82797222D01*
X115233534Y-82713557D01*
X115403373Y-82662037D01*
X115469557Y-82655519D01*
X115535740Y-82649000D01*
X116924260Y-82649000D01*
X116990443Y-82655519D01*
G37*
G36*
X100480443Y-82655519D02*
G01*
X100546627Y-82662037D01*
X100716466Y-82713557D01*
X100872991Y-82797222D01*
X100908729Y-82826552D01*
X101010186Y-82909814D01*
X101093448Y-83011271D01*
X101122778Y-83047009D01*
X101206443Y-83203534D01*
X101257963Y-83373373D01*
X101275359Y-83550000D01*
X101257963Y-83726627D01*
X101206443Y-83896466D01*
X101122778Y-84052991D01*
X101093448Y-84088729D01*
X101010186Y-84190186D01*
X100914616Y-84268617D01*
X100872991Y-84302778D01*
X100716466Y-84386443D01*
X100546627Y-84437963D01*
X100480442Y-84444482D01*
X100414260Y-84451000D01*
X99025740Y-84451000D01*
X98959558Y-84444482D01*
X98893373Y-84437963D01*
X98723534Y-84386443D01*
X98567009Y-84302778D01*
X98525384Y-84268617D01*
X98429814Y-84190186D01*
X98346552Y-84088729D01*
X98317222Y-84052991D01*
X98233557Y-83896466D01*
X98182037Y-83726627D01*
X98164641Y-83550000D01*
X98182037Y-83373373D01*
X98233557Y-83203534D01*
X98317222Y-83047009D01*
X98346552Y-83011271D01*
X98429814Y-82909814D01*
X98531271Y-82826552D01*
X98567009Y-82797222D01*
X98723534Y-82713557D01*
X98893373Y-82662037D01*
X98959557Y-82655519D01*
X99025740Y-82649000D01*
X100414260Y-82649000D01*
X100480443Y-82655519D01*
G37*
G36*
X116990442Y-80115518D02*
G01*
X117056627Y-80122037D01*
X117226466Y-80173557D01*
X117382991Y-80257222D01*
X117418729Y-80286552D01*
X117520186Y-80369814D01*
X117603448Y-80471271D01*
X117632778Y-80507009D01*
X117716443Y-80663534D01*
X117767963Y-80833373D01*
X117785359Y-81010000D01*
X117767963Y-81186627D01*
X117716443Y-81356466D01*
X117632778Y-81512991D01*
X117603448Y-81548729D01*
X117520186Y-81650186D01*
X117418729Y-81733448D01*
X117382991Y-81762778D01*
X117226466Y-81846443D01*
X117056627Y-81897963D01*
X116990443Y-81904481D01*
X116924260Y-81911000D01*
X115535740Y-81911000D01*
X115469557Y-81904481D01*
X115403373Y-81897963D01*
X115233534Y-81846443D01*
X115077009Y-81762778D01*
X115041271Y-81733448D01*
X114939814Y-81650186D01*
X114856552Y-81548729D01*
X114827222Y-81512991D01*
X114743557Y-81356466D01*
X114692037Y-81186627D01*
X114674641Y-81010000D01*
X114692037Y-80833373D01*
X114743557Y-80663534D01*
X114827222Y-80507009D01*
X114856552Y-80471271D01*
X114939814Y-80369814D01*
X115041271Y-80286552D01*
X115077009Y-80257222D01*
X115233534Y-80173557D01*
X115403373Y-80122037D01*
X115469558Y-80115518D01*
X115535740Y-80109000D01*
X116924260Y-80109000D01*
X116990442Y-80115518D01*
G37*
G36*
X100480442Y-80115518D02*
G01*
X100546627Y-80122037D01*
X100716466Y-80173557D01*
X100872991Y-80257222D01*
X100908729Y-80286552D01*
X101010186Y-80369814D01*
X101093448Y-80471271D01*
X101122778Y-80507009D01*
X101206443Y-80663534D01*
X101257963Y-80833373D01*
X101275359Y-81010000D01*
X101257963Y-81186627D01*
X101206443Y-81356466D01*
X101122778Y-81512991D01*
X101093448Y-81548729D01*
X101010186Y-81650186D01*
X100908729Y-81733448D01*
X100872991Y-81762778D01*
X100716466Y-81846443D01*
X100546627Y-81897963D01*
X100480443Y-81904481D01*
X100414260Y-81911000D01*
X99025740Y-81911000D01*
X98959557Y-81904481D01*
X98893373Y-81897963D01*
X98723534Y-81846443D01*
X98567009Y-81762778D01*
X98531271Y-81733448D01*
X98429814Y-81650186D01*
X98346552Y-81548729D01*
X98317222Y-81512991D01*
X98233557Y-81356466D01*
X98182037Y-81186627D01*
X98164641Y-81010000D01*
X98182037Y-80833373D01*
X98233557Y-80663534D01*
X98317222Y-80507009D01*
X98346552Y-80471271D01*
X98429814Y-80369814D01*
X98531271Y-80286552D01*
X98567009Y-80257222D01*
X98723534Y-80173557D01*
X98893373Y-80122037D01*
X98959558Y-80115518D01*
X99025740Y-80109000D01*
X100414260Y-80109000D01*
X100480442Y-80115518D01*
G37*
G36*
X116990443Y-77575519D02*
G01*
X117056627Y-77582037D01*
X117226466Y-77633557D01*
X117382991Y-77717222D01*
X117418729Y-77746552D01*
X117520186Y-77829814D01*
X117602711Y-77930373D01*
X117632778Y-77967009D01*
X117716443Y-78123534D01*
X117767963Y-78293373D01*
X117785359Y-78470000D01*
X117767963Y-78646627D01*
X117716443Y-78816466D01*
X117632778Y-78972991D01*
X117603448Y-79008729D01*
X117520186Y-79110186D01*
X117436209Y-79179103D01*
X117382991Y-79222778D01*
X117226466Y-79306443D01*
X117056627Y-79357963D01*
X116990442Y-79364482D01*
X116924260Y-79371000D01*
X115535740Y-79371000D01*
X115469558Y-79364482D01*
X115403373Y-79357963D01*
X115233534Y-79306443D01*
X115077009Y-79222778D01*
X115023791Y-79179103D01*
X114939814Y-79110186D01*
X114856552Y-79008729D01*
X114827222Y-78972991D01*
X114743557Y-78816466D01*
X114692037Y-78646627D01*
X114674641Y-78470000D01*
X114692037Y-78293373D01*
X114743557Y-78123534D01*
X114827222Y-77967009D01*
X114857289Y-77930373D01*
X114939814Y-77829814D01*
X115041271Y-77746552D01*
X115077009Y-77717222D01*
X115233534Y-77633557D01*
X115403373Y-77582037D01*
X115469557Y-77575519D01*
X115535740Y-77569000D01*
X116924260Y-77569000D01*
X116990443Y-77575519D01*
G37*
G36*
X100480443Y-77575519D02*
G01*
X100546627Y-77582037D01*
X100716466Y-77633557D01*
X100872991Y-77717222D01*
X100908729Y-77746552D01*
X101010186Y-77829814D01*
X101092711Y-77930373D01*
X101122778Y-77967009D01*
X101206443Y-78123534D01*
X101257963Y-78293373D01*
X101275359Y-78470000D01*
X101257963Y-78646627D01*
X101206443Y-78816466D01*
X101122778Y-78972991D01*
X101093448Y-79008729D01*
X101010186Y-79110186D01*
X100926209Y-79179103D01*
X100872991Y-79222778D01*
X100716466Y-79306443D01*
X100546627Y-79357963D01*
X100480442Y-79364482D01*
X100414260Y-79371000D01*
X99025740Y-79371000D01*
X98959558Y-79364482D01*
X98893373Y-79357963D01*
X98723534Y-79306443D01*
X98567009Y-79222778D01*
X98513791Y-79179103D01*
X98429814Y-79110186D01*
X98346552Y-79008729D01*
X98317222Y-78972991D01*
X98233557Y-78816466D01*
X98182037Y-78646627D01*
X98164641Y-78470000D01*
X98182037Y-78293373D01*
X98233557Y-78123534D01*
X98317222Y-77967009D01*
X98347289Y-77930373D01*
X98429814Y-77829814D01*
X98531271Y-77746552D01*
X98567009Y-77717222D01*
X98723534Y-77633557D01*
X98893373Y-77582037D01*
X98959557Y-77575519D01*
X99025740Y-77569000D01*
X100414260Y-77569000D01*
X100480443Y-77575519D01*
G37*
G36*
X133803627Y-77219037D02*
G01*
X133973466Y-77270557D01*
X134129991Y-77354222D01*
X134165729Y-77383552D01*
X134267186Y-77466814D01*
X134350448Y-77568271D01*
X134379778Y-77604009D01*
X134463443Y-77760534D01*
X134514963Y-77930374D01*
X134528000Y-78062743D01*
X134528000Y-78401258D01*
X134514963Y-78533627D01*
X134463443Y-78703466D01*
X134379778Y-78859991D01*
X134350448Y-78895729D01*
X134267186Y-78997186D01*
X134129989Y-79109779D01*
X133973467Y-79193442D01*
X133973465Y-79193443D01*
X133803626Y-79244963D01*
X133627000Y-79262359D01*
X133450373Y-79244963D01*
X133280534Y-79193443D01*
X133124009Y-79109778D01*
X133081750Y-79075097D01*
X132986814Y-78997186D01*
X132874221Y-78859989D01*
X132790558Y-78703467D01*
X132790557Y-78703465D01*
X132739037Y-78533626D01*
X132726000Y-78401257D01*
X132726000Y-78062742D01*
X132739037Y-77930373D01*
X132790557Y-77760534D01*
X132874222Y-77604009D01*
X132986815Y-77466815D01*
X133124010Y-77354222D01*
X133280535Y-77270557D01*
X133450374Y-77219037D01*
X133627000Y-77201641D01*
X133803627Y-77219037D01*
G37*
G36*
X136303627Y-77219037D02*
G01*
X136473466Y-77270557D01*
X136629991Y-77354222D01*
X136665729Y-77383552D01*
X136767186Y-77466814D01*
X136850448Y-77568271D01*
X136879778Y-77604009D01*
X136963443Y-77760534D01*
X137014963Y-77930374D01*
X137028000Y-78062743D01*
X137028000Y-78401258D01*
X137014963Y-78533627D01*
X136963443Y-78703466D01*
X136879778Y-78859991D01*
X136850448Y-78895729D01*
X136767186Y-78997186D01*
X136629989Y-79109779D01*
X136473467Y-79193442D01*
X136473465Y-79193443D01*
X136303626Y-79244963D01*
X136127000Y-79262359D01*
X135950373Y-79244963D01*
X135780534Y-79193443D01*
X135624009Y-79109778D01*
X135581750Y-79075097D01*
X135486814Y-78997186D01*
X135374221Y-78859989D01*
X135290558Y-78703467D01*
X135290557Y-78703465D01*
X135239037Y-78533626D01*
X135226000Y-78401257D01*
X135226000Y-78062742D01*
X135239037Y-77930373D01*
X135290557Y-77760534D01*
X135374222Y-77604009D01*
X135486815Y-77466815D01*
X135624010Y-77354222D01*
X135780535Y-77270557D01*
X135950374Y-77219037D01*
X136127000Y-77201641D01*
X136303627Y-77219037D01*
G37*
G36*
X138803627Y-77219037D02*
G01*
X138973466Y-77270557D01*
X139129991Y-77354222D01*
X139165729Y-77383552D01*
X139267186Y-77466814D01*
X139350448Y-77568271D01*
X139379778Y-77604009D01*
X139463443Y-77760534D01*
X139514963Y-77930374D01*
X139528000Y-78062743D01*
X139528000Y-78401258D01*
X139514963Y-78533627D01*
X139463443Y-78703466D01*
X139379778Y-78859991D01*
X139350448Y-78895729D01*
X139267186Y-78997186D01*
X139129989Y-79109779D01*
X138973467Y-79193442D01*
X138973465Y-79193443D01*
X138803626Y-79244963D01*
X138627000Y-79262359D01*
X138450373Y-79244963D01*
X138280534Y-79193443D01*
X138124009Y-79109778D01*
X138081750Y-79075097D01*
X137986814Y-78997186D01*
X137874221Y-78859989D01*
X137790558Y-78703467D01*
X137790557Y-78703465D01*
X137739037Y-78533626D01*
X137726000Y-78401257D01*
X137726000Y-78062742D01*
X137739037Y-77930373D01*
X137790557Y-77760534D01*
X137874222Y-77604009D01*
X137986815Y-77466815D01*
X138124010Y-77354222D01*
X138280535Y-77270557D01*
X138450374Y-77219037D01*
X138627000Y-77201641D01*
X138803627Y-77219037D01*
G37*
G36*
X141885600Y-77209989D02*
G01*
X141918652Y-77220015D01*
X141949103Y-77236292D01*
X141975799Y-77258201D01*
X141997708Y-77284897D01*
X142013985Y-77315348D01*
X142024011Y-77348400D01*
X142028000Y-77388903D01*
X142028000Y-79075097D01*
X142024011Y-79115600D01*
X142013985Y-79148652D01*
X141997708Y-79179103D01*
X141975799Y-79205799D01*
X141949103Y-79227708D01*
X141918652Y-79243985D01*
X141885600Y-79254011D01*
X141845097Y-79258000D01*
X140408903Y-79258000D01*
X140368400Y-79254011D01*
X140335348Y-79243985D01*
X140304897Y-79227708D01*
X140278201Y-79205799D01*
X140256292Y-79179103D01*
X140240015Y-79148652D01*
X140229989Y-79115600D01*
X140226000Y-79075097D01*
X140226000Y-77388903D01*
X140229989Y-77348400D01*
X140240015Y-77315348D01*
X140256292Y-77284897D01*
X140278201Y-77258201D01*
X140304897Y-77236292D01*
X140335348Y-77220015D01*
X140368400Y-77209989D01*
X140408903Y-77206000D01*
X141845097Y-77206000D01*
X141885600Y-77209989D01*
G37*
G36*
X76638626Y-76584037D02*
G01*
X76808465Y-76635557D01*
X76808467Y-76635558D01*
X76964989Y-76719221D01*
X77102186Y-76831814D01*
X77185448Y-76933271D01*
X77214778Y-76969009D01*
X77298443Y-77125534D01*
X77349963Y-77295373D01*
X77363000Y-77427742D01*
X77363000Y-77766257D01*
X77349963Y-77898626D01*
X77298443Y-78068466D01*
X77214778Y-78224991D01*
X77185448Y-78260729D01*
X77102186Y-78362186D01*
X77007250Y-78440097D01*
X76964991Y-78474778D01*
X76808466Y-78558443D01*
X76638627Y-78609963D01*
X76462000Y-78627359D01*
X76285374Y-78609963D01*
X76115535Y-78558443D01*
X75959010Y-78474778D01*
X75821815Y-78362185D01*
X75709222Y-78224991D01*
X75625557Y-78068466D01*
X75574037Y-77898627D01*
X75561000Y-77766258D01*
X75561000Y-77427743D01*
X75574037Y-77295374D01*
X75625557Y-77125535D01*
X75709222Y-76969010D01*
X75709223Y-76969009D01*
X75821814Y-76831814D01*
X75923271Y-76748552D01*
X75959009Y-76719222D01*
X76115534Y-76635557D01*
X76285373Y-76584037D01*
X76462000Y-76566641D01*
X76638626Y-76584037D01*
G37*
G36*
X81638626Y-76584037D02*
G01*
X81808465Y-76635557D01*
X81808467Y-76635558D01*
X81964989Y-76719221D01*
X82102186Y-76831814D01*
X82185448Y-76933271D01*
X82214778Y-76969009D01*
X82298443Y-77125534D01*
X82349963Y-77295373D01*
X82363000Y-77427742D01*
X82363000Y-77766257D01*
X82349963Y-77898626D01*
X82298443Y-78068466D01*
X82214778Y-78224991D01*
X82185448Y-78260729D01*
X82102186Y-78362186D01*
X82007250Y-78440097D01*
X81964991Y-78474778D01*
X81808466Y-78558443D01*
X81638627Y-78609963D01*
X81462000Y-78627359D01*
X81285374Y-78609963D01*
X81115535Y-78558443D01*
X80959010Y-78474778D01*
X80821815Y-78362185D01*
X80709222Y-78224991D01*
X80625557Y-78068466D01*
X80574037Y-77898627D01*
X80561000Y-77766258D01*
X80561000Y-77427743D01*
X80574037Y-77295374D01*
X80625557Y-77125535D01*
X80709222Y-76969010D01*
X80709223Y-76969009D01*
X80821814Y-76831814D01*
X80923271Y-76748552D01*
X80959009Y-76719222D01*
X81115534Y-76635557D01*
X81285373Y-76584037D01*
X81462000Y-76566641D01*
X81638626Y-76584037D01*
G37*
G36*
X79138626Y-76584037D02*
G01*
X79308465Y-76635557D01*
X79308467Y-76635558D01*
X79464989Y-76719221D01*
X79602186Y-76831814D01*
X79685448Y-76933271D01*
X79714778Y-76969009D01*
X79798443Y-77125534D01*
X79849963Y-77295373D01*
X79863000Y-77427742D01*
X79863000Y-77766257D01*
X79849963Y-77898626D01*
X79798443Y-78068466D01*
X79714778Y-78224991D01*
X79685448Y-78260729D01*
X79602186Y-78362186D01*
X79507250Y-78440097D01*
X79464991Y-78474778D01*
X79308466Y-78558443D01*
X79138627Y-78609963D01*
X78962000Y-78627359D01*
X78785374Y-78609963D01*
X78615535Y-78558443D01*
X78459010Y-78474778D01*
X78321815Y-78362185D01*
X78209222Y-78224991D01*
X78125557Y-78068466D01*
X78074037Y-77898627D01*
X78061000Y-77766258D01*
X78061000Y-77427743D01*
X78074037Y-77295374D01*
X78125557Y-77125535D01*
X78209222Y-76969010D01*
X78209223Y-76969009D01*
X78321814Y-76831814D01*
X78423271Y-76748552D01*
X78459009Y-76719222D01*
X78615534Y-76635557D01*
X78785373Y-76584037D01*
X78962000Y-76566641D01*
X79138626Y-76584037D01*
G37*
G36*
X74720600Y-76574989D02*
G01*
X74753652Y-76585015D01*
X74784103Y-76601292D01*
X74810799Y-76623201D01*
X74832708Y-76649897D01*
X74848985Y-76680348D01*
X74859011Y-76713400D01*
X74863000Y-76753903D01*
X74863000Y-78440097D01*
X74859011Y-78480600D01*
X74848985Y-78513652D01*
X74832708Y-78544103D01*
X74810799Y-78570799D01*
X74784103Y-78592708D01*
X74753652Y-78608985D01*
X74720600Y-78619011D01*
X74680097Y-78623000D01*
X73243903Y-78623000D01*
X73203400Y-78619011D01*
X73170348Y-78608985D01*
X73139897Y-78592708D01*
X73113201Y-78570799D01*
X73091292Y-78544103D01*
X73075015Y-78513652D01*
X73064989Y-78480600D01*
X73061000Y-78440097D01*
X73061000Y-76753903D01*
X73064989Y-76713400D01*
X73075015Y-76680348D01*
X73091292Y-76649897D01*
X73113201Y-76623201D01*
X73139897Y-76601292D01*
X73170348Y-76585015D01*
X73203400Y-76574989D01*
X73243903Y-76571000D01*
X74680097Y-76571000D01*
X74720600Y-76574989D01*
G37*
G36*
X100480442Y-75035518D02*
G01*
X100546627Y-75042037D01*
X100716466Y-75093557D01*
X100872991Y-75177222D01*
X100908729Y-75206552D01*
X101010186Y-75289814D01*
X101093448Y-75391271D01*
X101122778Y-75427009D01*
X101206443Y-75583534D01*
X101257963Y-75753373D01*
X101275359Y-75930000D01*
X101257963Y-76106627D01*
X101206443Y-76276466D01*
X101122778Y-76432991D01*
X101093448Y-76468729D01*
X101010186Y-76570186D01*
X100914616Y-76648617D01*
X100872991Y-76682778D01*
X100716466Y-76766443D01*
X100546627Y-76817963D01*
X100480442Y-76824482D01*
X100414260Y-76831000D01*
X99025740Y-76831000D01*
X98959558Y-76824482D01*
X98893373Y-76817963D01*
X98723534Y-76766443D01*
X98567009Y-76682778D01*
X98525384Y-76648617D01*
X98429814Y-76570186D01*
X98346552Y-76468729D01*
X98317222Y-76432991D01*
X98233557Y-76276466D01*
X98182037Y-76106627D01*
X98164641Y-75930000D01*
X98182037Y-75753373D01*
X98233557Y-75583534D01*
X98317222Y-75427009D01*
X98346552Y-75391271D01*
X98429814Y-75289814D01*
X98531271Y-75206552D01*
X98567009Y-75177222D01*
X98723534Y-75093557D01*
X98893373Y-75042037D01*
X98959558Y-75035518D01*
X99025740Y-75029000D01*
X100414260Y-75029000D01*
X100480442Y-75035518D01*
G37*
G36*
X116990442Y-75035518D02*
G01*
X117056627Y-75042037D01*
X117226466Y-75093557D01*
X117382991Y-75177222D01*
X117418729Y-75206552D01*
X117520186Y-75289814D01*
X117603448Y-75391271D01*
X117632778Y-75427009D01*
X117716443Y-75583534D01*
X117767963Y-75753373D01*
X117785359Y-75930000D01*
X117767963Y-76106627D01*
X117716443Y-76276466D01*
X117632778Y-76432991D01*
X117603448Y-76468729D01*
X117520186Y-76570186D01*
X117424616Y-76648617D01*
X117382991Y-76682778D01*
X117226466Y-76766443D01*
X117056627Y-76817963D01*
X116990442Y-76824482D01*
X116924260Y-76831000D01*
X115535740Y-76831000D01*
X115469558Y-76824482D01*
X115403373Y-76817963D01*
X115233534Y-76766443D01*
X115077009Y-76682778D01*
X115035384Y-76648617D01*
X114939814Y-76570186D01*
X114856552Y-76468729D01*
X114827222Y-76432991D01*
X114743557Y-76276466D01*
X114692037Y-76106627D01*
X114674641Y-75930000D01*
X114692037Y-75753373D01*
X114743557Y-75583534D01*
X114827222Y-75427009D01*
X114856552Y-75391271D01*
X114939814Y-75289814D01*
X115041271Y-75206552D01*
X115077009Y-75177222D01*
X115233534Y-75093557D01*
X115403373Y-75042037D01*
X115469558Y-75035518D01*
X115535740Y-75029000D01*
X116924260Y-75029000D01*
X116990442Y-75035518D01*
G37*
G36*
X100480442Y-72495518D02*
G01*
X100546627Y-72502037D01*
X100716466Y-72553557D01*
X100872991Y-72637222D01*
X100908729Y-72666552D01*
X101010186Y-72749814D01*
X101093448Y-72851271D01*
X101122778Y-72887009D01*
X101206443Y-73043534D01*
X101257963Y-73213373D01*
X101275359Y-73390000D01*
X101257963Y-73566627D01*
X101206443Y-73736466D01*
X101122778Y-73892991D01*
X101093448Y-73928729D01*
X101010186Y-74030186D01*
X100908729Y-74113448D01*
X100872991Y-74142778D01*
X100716466Y-74226443D01*
X100546627Y-74277963D01*
X100480443Y-74284481D01*
X100414260Y-74291000D01*
X99025740Y-74291000D01*
X98959557Y-74284481D01*
X98893373Y-74277963D01*
X98723534Y-74226443D01*
X98567009Y-74142778D01*
X98531271Y-74113448D01*
X98429814Y-74030186D01*
X98346552Y-73928729D01*
X98317222Y-73892991D01*
X98233557Y-73736466D01*
X98182037Y-73566627D01*
X98164641Y-73390000D01*
X98182037Y-73213373D01*
X98233557Y-73043534D01*
X98317222Y-72887009D01*
X98346552Y-72851271D01*
X98429814Y-72749814D01*
X98531271Y-72666552D01*
X98567009Y-72637222D01*
X98723534Y-72553557D01*
X98893373Y-72502037D01*
X98959558Y-72495518D01*
X99025740Y-72489000D01*
X100414260Y-72489000D01*
X100480442Y-72495518D01*
G37*
G36*
X116990442Y-72495518D02*
G01*
X117056627Y-72502037D01*
X117226466Y-72553557D01*
X117382991Y-72637222D01*
X117418729Y-72666552D01*
X117520186Y-72749814D01*
X117603448Y-72851271D01*
X117632778Y-72887009D01*
X117716443Y-73043534D01*
X117767963Y-73213373D01*
X117785359Y-73390000D01*
X117767963Y-73566627D01*
X117716443Y-73736466D01*
X117632778Y-73892991D01*
X117603448Y-73928729D01*
X117520186Y-74030186D01*
X117418729Y-74113448D01*
X117382991Y-74142778D01*
X117226466Y-74226443D01*
X117056627Y-74277963D01*
X116990443Y-74284481D01*
X116924260Y-74291000D01*
X115535740Y-74291000D01*
X115469557Y-74284481D01*
X115403373Y-74277963D01*
X115233534Y-74226443D01*
X115077009Y-74142778D01*
X115041271Y-74113448D01*
X114939814Y-74030186D01*
X114856552Y-73928729D01*
X114827222Y-73892991D01*
X114743557Y-73736466D01*
X114692037Y-73566627D01*
X114674641Y-73390000D01*
X114692037Y-73213373D01*
X114743557Y-73043534D01*
X114827222Y-72887009D01*
X114856552Y-72851271D01*
X114939814Y-72749814D01*
X115041271Y-72666552D01*
X115077009Y-72637222D01*
X115233534Y-72553557D01*
X115403373Y-72502037D01*
X115469558Y-72495518D01*
X115535740Y-72489000D01*
X116924260Y-72489000D01*
X116990442Y-72495518D01*
G37*
G36*
X138773627Y-70234037D02*
G01*
X138943466Y-70285557D01*
X139099991Y-70369222D01*
X139135729Y-70398552D01*
X139237186Y-70481814D01*
X139320448Y-70583271D01*
X139349778Y-70619009D01*
X139433443Y-70775534D01*
X139484963Y-70945374D01*
X139498000Y-71077743D01*
X139498000Y-71416258D01*
X139484963Y-71548627D01*
X139433443Y-71718466D01*
X139349778Y-71874991D01*
X139320448Y-71910729D01*
X139237186Y-72012186D01*
X139099989Y-72124779D01*
X138943467Y-72208442D01*
X138943465Y-72208443D01*
X138773626Y-72259963D01*
X138597000Y-72277359D01*
X138420373Y-72259963D01*
X138250534Y-72208443D01*
X138094009Y-72124778D01*
X138051750Y-72090097D01*
X137956814Y-72012186D01*
X137844221Y-71874989D01*
X137760558Y-71718467D01*
X137760557Y-71718465D01*
X137709037Y-71548626D01*
X137696000Y-71416257D01*
X137696000Y-71077742D01*
X137701035Y-71026625D01*
X137709037Y-70945375D01*
X137709037Y-70945373D01*
X137760557Y-70775534D01*
X137844222Y-70619009D01*
X137956815Y-70481815D01*
X138094010Y-70369222D01*
X138250535Y-70285557D01*
X138420374Y-70234037D01*
X138597000Y-70216641D01*
X138773627Y-70234037D01*
G37*
G36*
X136273627Y-70234037D02*
G01*
X136443466Y-70285557D01*
X136599991Y-70369222D01*
X136635729Y-70398552D01*
X136737186Y-70481814D01*
X136820448Y-70583271D01*
X136849778Y-70619009D01*
X136933443Y-70775534D01*
X136984963Y-70945374D01*
X136998000Y-71077743D01*
X136998000Y-71416258D01*
X136984963Y-71548627D01*
X136933443Y-71718466D01*
X136849778Y-71874991D01*
X136820448Y-71910729D01*
X136737186Y-72012186D01*
X136599989Y-72124779D01*
X136443467Y-72208442D01*
X136443465Y-72208443D01*
X136273626Y-72259963D01*
X136097000Y-72277359D01*
X135920373Y-72259963D01*
X135750534Y-72208443D01*
X135594009Y-72124778D01*
X135551750Y-72090097D01*
X135456814Y-72012186D01*
X135344221Y-71874989D01*
X135260558Y-71718467D01*
X135260557Y-71718465D01*
X135209037Y-71548626D01*
X135196000Y-71416257D01*
X135196000Y-71077742D01*
X135201035Y-71026625D01*
X135209037Y-70945375D01*
X135209037Y-70945373D01*
X135260557Y-70775534D01*
X135344222Y-70619009D01*
X135456815Y-70481815D01*
X135594010Y-70369222D01*
X135750535Y-70285557D01*
X135920374Y-70234037D01*
X136097000Y-70216641D01*
X136273627Y-70234037D01*
G37*
G36*
X133773627Y-70234037D02*
G01*
X133943466Y-70285557D01*
X134099991Y-70369222D01*
X134135729Y-70398552D01*
X134237186Y-70481814D01*
X134320448Y-70583271D01*
X134349778Y-70619009D01*
X134433443Y-70775534D01*
X134484963Y-70945374D01*
X134498000Y-71077743D01*
X134498000Y-71416258D01*
X134484963Y-71548627D01*
X134433443Y-71718466D01*
X134349778Y-71874991D01*
X134320448Y-71910729D01*
X134237186Y-72012186D01*
X134099989Y-72124779D01*
X133943467Y-72208442D01*
X133943465Y-72208443D01*
X133773626Y-72259963D01*
X133597000Y-72277359D01*
X133420373Y-72259963D01*
X133250534Y-72208443D01*
X133094009Y-72124778D01*
X133051750Y-72090097D01*
X132956814Y-72012186D01*
X132844221Y-71874989D01*
X132760558Y-71718467D01*
X132760557Y-71718465D01*
X132709037Y-71548626D01*
X132696000Y-71416257D01*
X132696000Y-71077742D01*
X132701035Y-71026625D01*
X132709037Y-70945375D01*
X132709037Y-70945373D01*
X132760557Y-70775534D01*
X132844222Y-70619009D01*
X132956815Y-70481815D01*
X133094010Y-70369222D01*
X133250535Y-70285557D01*
X133420374Y-70234037D01*
X133597000Y-70216641D01*
X133773627Y-70234037D01*
G37*
G36*
X141855600Y-70224989D02*
G01*
X141888652Y-70235015D01*
X141919103Y-70251292D01*
X141945799Y-70273201D01*
X141967708Y-70299897D01*
X141983985Y-70330348D01*
X141994011Y-70363400D01*
X141998000Y-70403903D01*
X141998000Y-72090097D01*
X141994011Y-72130600D01*
X141983985Y-72163652D01*
X141967708Y-72194103D01*
X141945799Y-72220799D01*
X141919103Y-72242708D01*
X141888652Y-72258985D01*
X141855600Y-72269011D01*
X141815097Y-72273000D01*
X140378903Y-72273000D01*
X140338400Y-72269011D01*
X140305348Y-72258985D01*
X140274897Y-72242708D01*
X140248201Y-72220799D01*
X140226292Y-72194103D01*
X140210015Y-72163652D01*
X140199989Y-72130600D01*
X140196000Y-72090097D01*
X140196000Y-70403903D01*
X140199989Y-70363400D01*
X140210015Y-70330348D01*
X140226292Y-70299897D01*
X140248201Y-70273201D01*
X140274897Y-70251292D01*
X140305348Y-70235015D01*
X140338400Y-70224989D01*
X140378903Y-70221000D01*
X141815097Y-70221000D01*
X141855600Y-70224989D01*
G37*
G36*
X100480443Y-69955519D02*
G01*
X100546627Y-69962037D01*
X100716466Y-70013557D01*
X100872991Y-70097222D01*
X100908729Y-70126552D01*
X101010186Y-70209814D01*
X101084114Y-70299897D01*
X101122778Y-70347009D01*
X101206443Y-70503534D01*
X101257963Y-70673373D01*
X101275359Y-70850000D01*
X101257963Y-71026627D01*
X101206443Y-71196466D01*
X101122778Y-71352991D01*
X101093448Y-71388729D01*
X101010186Y-71490186D01*
X100938974Y-71548627D01*
X100872991Y-71602778D01*
X100716466Y-71686443D01*
X100546627Y-71737963D01*
X100480443Y-71744481D01*
X100414260Y-71751000D01*
X99025740Y-71751000D01*
X98959557Y-71744481D01*
X98893373Y-71737963D01*
X98723534Y-71686443D01*
X98567009Y-71602778D01*
X98501026Y-71548627D01*
X98429814Y-71490186D01*
X98346552Y-71388729D01*
X98317222Y-71352991D01*
X98233557Y-71196466D01*
X98182037Y-71026627D01*
X98164641Y-70850000D01*
X98182037Y-70673373D01*
X98233557Y-70503534D01*
X98317222Y-70347009D01*
X98355886Y-70299897D01*
X98429814Y-70209814D01*
X98531271Y-70126552D01*
X98567009Y-70097222D01*
X98723534Y-70013557D01*
X98893373Y-69962037D01*
X98959557Y-69955519D01*
X99025740Y-69949000D01*
X100414260Y-69949000D01*
X100480443Y-69955519D01*
G37*
G36*
X116990443Y-69955519D02*
G01*
X117056627Y-69962037D01*
X117226466Y-70013557D01*
X117382991Y-70097222D01*
X117418729Y-70126552D01*
X117520186Y-70209814D01*
X117594114Y-70299897D01*
X117632778Y-70347009D01*
X117716443Y-70503534D01*
X117767963Y-70673373D01*
X117785359Y-70850000D01*
X117767963Y-71026627D01*
X117716443Y-71196466D01*
X117632778Y-71352991D01*
X117603448Y-71388729D01*
X117520186Y-71490186D01*
X117448974Y-71548627D01*
X117382991Y-71602778D01*
X117226466Y-71686443D01*
X117056627Y-71737963D01*
X116990443Y-71744481D01*
X116924260Y-71751000D01*
X115535740Y-71751000D01*
X115469557Y-71744481D01*
X115403373Y-71737963D01*
X115233534Y-71686443D01*
X115077009Y-71602778D01*
X115011026Y-71548627D01*
X114939814Y-71490186D01*
X114856552Y-71388729D01*
X114827222Y-71352991D01*
X114743557Y-71196466D01*
X114692037Y-71026627D01*
X114674641Y-70850000D01*
X114692037Y-70673373D01*
X114743557Y-70503534D01*
X114827222Y-70347009D01*
X114865886Y-70299897D01*
X114939814Y-70209814D01*
X115041271Y-70126552D01*
X115077009Y-70097222D01*
X115233534Y-70013557D01*
X115403373Y-69962037D01*
X115469557Y-69955519D01*
X115535740Y-69949000D01*
X116924260Y-69949000D01*
X116990443Y-69955519D01*
G37*
G36*
X76638626Y-69599037D02*
G01*
X76808465Y-69650557D01*
X76808467Y-69650558D01*
X76964989Y-69734221D01*
X77102186Y-69846814D01*
X77185448Y-69948271D01*
X77214778Y-69984009D01*
X77298443Y-70140534D01*
X77349963Y-70310373D01*
X77363000Y-70442742D01*
X77363000Y-70781257D01*
X77349963Y-70913626D01*
X77298443Y-71083466D01*
X77214778Y-71239991D01*
X77185448Y-71275729D01*
X77102186Y-71377186D01*
X77007250Y-71455097D01*
X76964991Y-71489778D01*
X76808466Y-71573443D01*
X76638627Y-71624963D01*
X76462000Y-71642359D01*
X76285374Y-71624963D01*
X76115535Y-71573443D01*
X75959010Y-71489778D01*
X75821815Y-71377185D01*
X75709222Y-71239991D01*
X75625557Y-71083466D01*
X75574037Y-70913627D01*
X75561000Y-70781258D01*
X75561000Y-70442743D01*
X75574037Y-70310374D01*
X75625557Y-70140535D01*
X75693428Y-70013558D01*
X75709221Y-69984011D01*
X75821814Y-69846814D01*
X75923271Y-69763552D01*
X75959009Y-69734222D01*
X76115534Y-69650557D01*
X76285373Y-69599037D01*
X76462000Y-69581641D01*
X76638626Y-69599037D01*
G37*
G36*
X79138626Y-69599037D02*
G01*
X79308465Y-69650557D01*
X79308467Y-69650558D01*
X79464989Y-69734221D01*
X79602186Y-69846814D01*
X79685448Y-69948271D01*
X79714778Y-69984009D01*
X79798443Y-70140534D01*
X79849963Y-70310373D01*
X79863000Y-70442742D01*
X79863000Y-70781257D01*
X79849963Y-70913626D01*
X79798443Y-71083466D01*
X79714778Y-71239991D01*
X79685448Y-71275729D01*
X79602186Y-71377186D01*
X79507250Y-71455097D01*
X79464991Y-71489778D01*
X79308466Y-71573443D01*
X79138627Y-71624963D01*
X78962000Y-71642359D01*
X78785374Y-71624963D01*
X78615535Y-71573443D01*
X78459010Y-71489778D01*
X78321815Y-71377185D01*
X78209222Y-71239991D01*
X78125557Y-71083466D01*
X78074037Y-70913627D01*
X78061000Y-70781258D01*
X78061000Y-70442743D01*
X78074037Y-70310374D01*
X78125557Y-70140535D01*
X78193428Y-70013558D01*
X78209221Y-69984011D01*
X78321814Y-69846814D01*
X78423271Y-69763552D01*
X78459009Y-69734222D01*
X78615534Y-69650557D01*
X78785373Y-69599037D01*
X78962000Y-69581641D01*
X79138626Y-69599037D01*
G37*
G36*
X81638626Y-69599037D02*
G01*
X81808465Y-69650557D01*
X81808467Y-69650558D01*
X81964989Y-69734221D01*
X82102186Y-69846814D01*
X82185448Y-69948271D01*
X82214778Y-69984009D01*
X82298443Y-70140534D01*
X82349963Y-70310373D01*
X82363000Y-70442742D01*
X82363000Y-70781257D01*
X82349963Y-70913626D01*
X82298443Y-71083466D01*
X82214778Y-71239991D01*
X82185448Y-71275729D01*
X82102186Y-71377186D01*
X82007250Y-71455097D01*
X81964991Y-71489778D01*
X81808466Y-71573443D01*
X81638627Y-71624963D01*
X81462000Y-71642359D01*
X81285374Y-71624963D01*
X81115535Y-71573443D01*
X80959010Y-71489778D01*
X80821815Y-71377185D01*
X80709222Y-71239991D01*
X80625557Y-71083466D01*
X80574037Y-70913627D01*
X80561000Y-70781258D01*
X80561000Y-70442743D01*
X80574037Y-70310374D01*
X80625557Y-70140535D01*
X80693428Y-70013558D01*
X80709221Y-69984011D01*
X80821814Y-69846814D01*
X80923271Y-69763552D01*
X80959009Y-69734222D01*
X81115534Y-69650557D01*
X81285373Y-69599037D01*
X81462000Y-69581641D01*
X81638626Y-69599037D01*
G37*
G36*
X74720600Y-69589989D02*
G01*
X74753652Y-69600015D01*
X74784103Y-69616292D01*
X74810799Y-69638201D01*
X74832708Y-69664897D01*
X74848985Y-69695348D01*
X74859011Y-69728400D01*
X74863000Y-69768903D01*
X74863000Y-71455097D01*
X74859011Y-71495600D01*
X74848985Y-71528652D01*
X74832708Y-71559103D01*
X74810799Y-71585799D01*
X74784103Y-71607708D01*
X74753652Y-71623985D01*
X74720600Y-71634011D01*
X74680097Y-71638000D01*
X73243903Y-71638000D01*
X73203400Y-71634011D01*
X73170348Y-71623985D01*
X73139897Y-71607708D01*
X73113201Y-71585799D01*
X73091292Y-71559103D01*
X73075015Y-71528652D01*
X73064989Y-71495600D01*
X73061000Y-71455097D01*
X73061000Y-69768903D01*
X73064989Y-69728400D01*
X73075015Y-69695348D01*
X73091292Y-69664897D01*
X73113201Y-69638201D01*
X73139897Y-69616292D01*
X73170348Y-69600015D01*
X73203400Y-69589989D01*
X73243903Y-69586000D01*
X74680097Y-69586000D01*
X74720600Y-69589989D01*
G37*
G36*
X116990443Y-67415519D02*
G01*
X117056627Y-67422037D01*
X117226466Y-67473557D01*
X117382991Y-67557222D01*
X117418729Y-67586552D01*
X117520186Y-67669814D01*
X117603448Y-67771271D01*
X117632778Y-67807009D01*
X117716443Y-67963534D01*
X117767963Y-68133373D01*
X117785359Y-68310000D01*
X117767963Y-68486627D01*
X117716443Y-68656466D01*
X117632778Y-68812991D01*
X117603448Y-68848729D01*
X117520186Y-68950186D01*
X117418729Y-69033448D01*
X117382991Y-69062778D01*
X117226466Y-69146443D01*
X117056627Y-69197963D01*
X116990442Y-69204482D01*
X116924260Y-69211000D01*
X115535740Y-69211000D01*
X115469558Y-69204482D01*
X115403373Y-69197963D01*
X115233534Y-69146443D01*
X115077009Y-69062778D01*
X115041271Y-69033448D01*
X114939814Y-68950186D01*
X114856552Y-68848729D01*
X114827222Y-68812991D01*
X114743557Y-68656466D01*
X114692037Y-68486627D01*
X114674641Y-68310000D01*
X114692037Y-68133373D01*
X114743557Y-67963534D01*
X114827222Y-67807009D01*
X114856552Y-67771271D01*
X114939814Y-67669814D01*
X115041271Y-67586552D01*
X115077009Y-67557222D01*
X115233534Y-67473557D01*
X115403373Y-67422037D01*
X115469557Y-67415519D01*
X115535740Y-67409000D01*
X116924260Y-67409000D01*
X116990443Y-67415519D01*
G37*
G36*
X100480443Y-67415519D02*
G01*
X100546627Y-67422037D01*
X100716466Y-67473557D01*
X100872991Y-67557222D01*
X100908729Y-67586552D01*
X101010186Y-67669814D01*
X101093448Y-67771271D01*
X101122778Y-67807009D01*
X101206443Y-67963534D01*
X101257963Y-68133373D01*
X101275359Y-68310000D01*
X101257963Y-68486627D01*
X101206443Y-68656466D01*
X101122778Y-68812991D01*
X101093448Y-68848729D01*
X101010186Y-68950186D01*
X100908729Y-69033448D01*
X100872991Y-69062778D01*
X100716466Y-69146443D01*
X100546627Y-69197963D01*
X100480442Y-69204482D01*
X100414260Y-69211000D01*
X99025740Y-69211000D01*
X98959558Y-69204482D01*
X98893373Y-69197963D01*
X98723534Y-69146443D01*
X98567009Y-69062778D01*
X98531271Y-69033448D01*
X98429814Y-68950186D01*
X98346552Y-68848729D01*
X98317222Y-68812991D01*
X98233557Y-68656466D01*
X98182037Y-68486627D01*
X98164641Y-68310000D01*
X98182037Y-68133373D01*
X98233557Y-67963534D01*
X98317222Y-67807009D01*
X98346552Y-67771271D01*
X98429814Y-67669814D01*
X98531271Y-67586552D01*
X98567009Y-67557222D01*
X98723534Y-67473557D01*
X98893373Y-67422037D01*
X98959557Y-67415519D01*
X99025740Y-67409000D01*
X100414260Y-67409000D01*
X100480443Y-67415519D01*
G37*
G36*
X100480443Y-64875519D02*
G01*
X100546627Y-64882037D01*
X100716466Y-64933557D01*
X100872991Y-65017222D01*
X100908729Y-65046552D01*
X101010186Y-65129814D01*
X101093448Y-65231271D01*
X101122778Y-65267009D01*
X101206443Y-65423534D01*
X101257963Y-65593373D01*
X101275359Y-65770000D01*
X101257963Y-65946627D01*
X101206443Y-66116466D01*
X101122778Y-66272991D01*
X101093448Y-66308729D01*
X101010186Y-66410186D01*
X100908729Y-66493448D01*
X100872991Y-66522778D01*
X100716466Y-66606443D01*
X100546627Y-66657963D01*
X100480443Y-66664481D01*
X100414260Y-66671000D01*
X99025740Y-66671000D01*
X98959557Y-66664481D01*
X98893373Y-66657963D01*
X98723534Y-66606443D01*
X98567009Y-66522778D01*
X98531271Y-66493448D01*
X98429814Y-66410186D01*
X98346552Y-66308729D01*
X98317222Y-66272991D01*
X98233557Y-66116466D01*
X98182037Y-65946627D01*
X98164641Y-65770000D01*
X98182037Y-65593373D01*
X98233557Y-65423534D01*
X98317222Y-65267009D01*
X98346552Y-65231271D01*
X98429814Y-65129814D01*
X98531271Y-65046552D01*
X98567009Y-65017222D01*
X98723534Y-64933557D01*
X98893373Y-64882037D01*
X98959557Y-64875519D01*
X99025740Y-64869000D01*
X100414260Y-64869000D01*
X100480443Y-64875519D01*
G37*
G36*
X116990443Y-64875519D02*
G01*
X117056627Y-64882037D01*
X117226466Y-64933557D01*
X117382991Y-65017222D01*
X117418729Y-65046552D01*
X117520186Y-65129814D01*
X117603448Y-65231271D01*
X117632778Y-65267009D01*
X117716443Y-65423534D01*
X117767963Y-65593373D01*
X117785359Y-65770000D01*
X117767963Y-65946627D01*
X117716443Y-66116466D01*
X117632778Y-66272991D01*
X117603448Y-66308729D01*
X117520186Y-66410186D01*
X117418729Y-66493448D01*
X117382991Y-66522778D01*
X117226466Y-66606443D01*
X117056627Y-66657963D01*
X116990443Y-66664481D01*
X116924260Y-66671000D01*
X115535740Y-66671000D01*
X115469557Y-66664481D01*
X115403373Y-66657963D01*
X115233534Y-66606443D01*
X115077009Y-66522778D01*
X115041271Y-66493448D01*
X114939814Y-66410186D01*
X114856552Y-66308729D01*
X114827222Y-66272991D01*
X114743557Y-66116466D01*
X114692037Y-65946627D01*
X114674641Y-65770000D01*
X114692037Y-65593373D01*
X114743557Y-65423534D01*
X114827222Y-65267009D01*
X114856552Y-65231271D01*
X114939814Y-65129814D01*
X115041271Y-65046552D01*
X115077009Y-65017222D01*
X115233534Y-64933557D01*
X115403373Y-64882037D01*
X115469557Y-64875519D01*
X115535740Y-64869000D01*
X116924260Y-64869000D01*
X116990443Y-64875519D01*
G37*
G36*
X69875256Y-62891298D02*
G01*
X69981579Y-62912447D01*
X70282042Y-63036903D01*
X70552451Y-63217585D01*
X70782415Y-63447549D01*
X70963097Y-63717958D01*
X71087553Y-64018421D01*
X71151000Y-64337391D01*
X71151000Y-64662609D01*
X71087553Y-64981579D01*
X70963097Y-65282042D01*
X70782415Y-65552451D01*
X70552451Y-65782415D01*
X70282042Y-65963097D01*
X69981579Y-66087553D01*
X69875256Y-66108702D01*
X69662611Y-66151000D01*
X69337389Y-66151000D01*
X69124744Y-66108702D01*
X69018421Y-66087553D01*
X68717958Y-65963097D01*
X68447549Y-65782415D01*
X68217585Y-65552451D01*
X68036903Y-65282042D01*
X67912447Y-64981579D01*
X67849000Y-64662609D01*
X67849000Y-64337391D01*
X67912447Y-64018421D01*
X68036903Y-63717958D01*
X68217585Y-63447549D01*
X68447549Y-63217585D01*
X68717958Y-63036903D01*
X69018421Y-62912447D01*
X69124744Y-62891298D01*
X69337389Y-62849000D01*
X69662611Y-62849000D01*
X69875256Y-62891298D01*
G37*
G36*
X145875256Y-62891298D02*
G01*
X145981579Y-62912447D01*
X146282042Y-63036903D01*
X146552451Y-63217585D01*
X146782415Y-63447549D01*
X146963097Y-63717958D01*
X147087553Y-64018421D01*
X147151000Y-64337391D01*
X147151000Y-64662609D01*
X147087553Y-64981579D01*
X146963097Y-65282042D01*
X146782415Y-65552451D01*
X146552451Y-65782415D01*
X146282042Y-65963097D01*
X145981579Y-66087553D01*
X145875256Y-66108702D01*
X145662611Y-66151000D01*
X145337389Y-66151000D01*
X145124744Y-66108702D01*
X145018421Y-66087553D01*
X144717958Y-65963097D01*
X144447549Y-65782415D01*
X144217585Y-65552451D01*
X144036903Y-65282042D01*
X143912447Y-64981579D01*
X143849000Y-64662609D01*
X143849000Y-64337391D01*
X143912447Y-64018421D01*
X144036903Y-63717958D01*
X144217585Y-63447549D01*
X144447549Y-63217585D01*
X144717958Y-63036903D01*
X145018421Y-62912447D01*
X145124744Y-62891298D01*
X145337389Y-62849000D01*
X145662611Y-62849000D01*
X145875256Y-62891298D01*
G37*
M02*
