G04 #@! TF.GenerationSoftware,KiCad,Pcbnew,(5.1.5)-3*
G04 #@! TF.CreationDate,2020-01-24T13:47:52-08:00*
G04 #@! TF.ProjectId,siplace_feeder_controller,7369706c-6163-4655-9f66-65656465725f,rev?*
G04 #@! TF.SameCoordinates,Original*
G04 #@! TF.FileFunction,Legend,Top*
G04 #@! TF.FilePolarity,Positive*
%FSLAX46Y46*%
G04 Gerber Fmt 4.6, Leading zero omitted, Abs format (unit mm)*
G04 Created by KiCad (PCBNEW (5.1.5)-3) date 2020-01-24 13:47:52*
%MOMM*%
%LPD*%
G04 APERTURE LIST*
%ADD10C,0.150000*%
%ADD11C,0.120000*%
%ADD12O,3.102000X1.802000*%
%ADD13O,1.802000X2.052000*%
%ADD14C,0.100000*%
%ADD15C,3.302000*%
%ADD16C,2.702000*%
%ADD17R,2.702000X2.702000*%
G04 APERTURE END LIST*
D10*
X100267380Y-139874761D02*
X101505476Y-139874761D01*
X100838809Y-140636666D01*
X101124523Y-140636666D01*
X101315000Y-140731904D01*
X101410238Y-140827142D01*
X101505476Y-141017619D01*
X101505476Y-141493809D01*
X101410238Y-141684285D01*
X101315000Y-141779523D01*
X101124523Y-141874761D01*
X100553095Y-141874761D01*
X100362619Y-141779523D01*
X100267380Y-141684285D01*
X102743571Y-139874761D02*
X102934047Y-139874761D01*
X103124523Y-139970000D01*
X103219761Y-140065238D01*
X103315000Y-140255714D01*
X103410238Y-140636666D01*
X103410238Y-141112857D01*
X103315000Y-141493809D01*
X103219761Y-141684285D01*
X103124523Y-141779523D01*
X102934047Y-141874761D01*
X102743571Y-141874761D01*
X102553095Y-141779523D01*
X102457857Y-141684285D01*
X102362619Y-141493809D01*
X102267380Y-141112857D01*
X102267380Y-140636666D01*
X102362619Y-140255714D01*
X102457857Y-140065238D01*
X102553095Y-139970000D01*
X102743571Y-139874761D01*
X103981666Y-139874761D02*
X104648333Y-141874761D01*
X105315000Y-139874761D01*
X110076904Y-139970000D02*
X109886428Y-139874761D01*
X109600714Y-139874761D01*
X109315000Y-139970000D01*
X109124523Y-140160476D01*
X109029285Y-140350952D01*
X108934047Y-140731904D01*
X108934047Y-141017619D01*
X109029285Y-141398571D01*
X109124523Y-141589047D01*
X109315000Y-141779523D01*
X109600714Y-141874761D01*
X109791190Y-141874761D01*
X110076904Y-141779523D01*
X110172142Y-141684285D01*
X110172142Y-141017619D01*
X109791190Y-141017619D01*
X111029285Y-141874761D02*
X111029285Y-139874761D01*
X112172142Y-141874761D01*
X112172142Y-139874761D01*
X113124523Y-141874761D02*
X113124523Y-139874761D01*
X113600714Y-139874761D01*
X113886428Y-139970000D01*
X114076904Y-140160476D01*
X114172142Y-140350952D01*
X114267380Y-140731904D01*
X114267380Y-141017619D01*
X114172142Y-141398571D01*
X114076904Y-141589047D01*
X113886428Y-141779523D01*
X113600714Y-141874761D01*
X113124523Y-141874761D01*
D11*
X71192000Y-88817000D02*
X71192000Y-90067000D01*
X72442000Y-88817000D02*
X71192000Y-88817000D01*
X83342000Y-94317000D02*
X77792000Y-94317000D01*
X83342000Y-91367000D02*
X83342000Y-94317000D01*
X84092000Y-91367000D02*
X83342000Y-91367000D01*
X72242000Y-94317000D02*
X77792000Y-94317000D01*
X72242000Y-91367000D02*
X72242000Y-94317000D01*
X71492000Y-91367000D02*
X72242000Y-91367000D01*
X84092000Y-89117000D02*
X82292000Y-89117000D01*
X84092000Y-89867000D02*
X84092000Y-89117000D01*
X82292000Y-89867000D02*
X84092000Y-89867000D01*
X82292000Y-89117000D02*
X82292000Y-89867000D01*
X73292000Y-89117000D02*
X71492000Y-89117000D01*
X73292000Y-89867000D02*
X73292000Y-89117000D01*
X71492000Y-89867000D02*
X73292000Y-89867000D01*
X71492000Y-89117000D02*
X71492000Y-89867000D01*
X80792000Y-89117000D02*
X74792000Y-89117000D01*
X80792000Y-89867000D02*
X80792000Y-89117000D01*
X74792000Y-89867000D02*
X80792000Y-89867000D01*
X74792000Y-89117000D02*
X74792000Y-89867000D01*
X84102000Y-89107000D02*
X71482000Y-89107000D01*
X84102000Y-95077000D02*
X84102000Y-89107000D01*
X71482000Y-95077000D02*
X84102000Y-95077000D01*
X71482000Y-89107000D02*
X71482000Y-95077000D01*
X143947000Y-73997000D02*
X143947000Y-72747000D01*
X142697000Y-73997000D02*
X143947000Y-73997000D01*
X131797000Y-68497000D02*
X137347000Y-68497000D01*
X131797000Y-71447000D02*
X131797000Y-68497000D01*
X131047000Y-71447000D02*
X131797000Y-71447000D01*
X142897000Y-68497000D02*
X137347000Y-68497000D01*
X142897000Y-71447000D02*
X142897000Y-68497000D01*
X143647000Y-71447000D02*
X142897000Y-71447000D01*
X131047000Y-73697000D02*
X132847000Y-73697000D01*
X131047000Y-72947000D02*
X131047000Y-73697000D01*
X132847000Y-72947000D02*
X131047000Y-72947000D01*
X132847000Y-73697000D02*
X132847000Y-72947000D01*
X141847000Y-73697000D02*
X143647000Y-73697000D01*
X141847000Y-72947000D02*
X141847000Y-73697000D01*
X143647000Y-72947000D02*
X141847000Y-72947000D01*
X143647000Y-73697000D02*
X143647000Y-72947000D01*
X134347000Y-73697000D02*
X140347000Y-73697000D01*
X134347000Y-72947000D02*
X134347000Y-73697000D01*
X140347000Y-72947000D02*
X134347000Y-72947000D01*
X140347000Y-73697000D02*
X140347000Y-72947000D01*
X131037000Y-73707000D02*
X143657000Y-73707000D01*
X131037000Y-67737000D02*
X131037000Y-73707000D01*
X143657000Y-67737000D02*
X131037000Y-67737000D01*
X143657000Y-73707000D02*
X143657000Y-67737000D01*
X71112000Y-67862000D02*
X71112000Y-69112000D01*
X72362000Y-67862000D02*
X71112000Y-67862000D01*
X83262000Y-73362000D02*
X77712000Y-73362000D01*
X83262000Y-70412000D02*
X83262000Y-73362000D01*
X84012000Y-70412000D02*
X83262000Y-70412000D01*
X72162000Y-73362000D02*
X77712000Y-73362000D01*
X72162000Y-70412000D02*
X72162000Y-73362000D01*
X71412000Y-70412000D02*
X72162000Y-70412000D01*
X84012000Y-68162000D02*
X82212000Y-68162000D01*
X84012000Y-68912000D02*
X84012000Y-68162000D01*
X82212000Y-68912000D02*
X84012000Y-68912000D01*
X82212000Y-68162000D02*
X82212000Y-68912000D01*
X73212000Y-68162000D02*
X71412000Y-68162000D01*
X73212000Y-68912000D02*
X73212000Y-68162000D01*
X71412000Y-68912000D02*
X73212000Y-68912000D01*
X71412000Y-68162000D02*
X71412000Y-68912000D01*
X80712000Y-68162000D02*
X74712000Y-68162000D01*
X80712000Y-68912000D02*
X80712000Y-68162000D01*
X74712000Y-68912000D02*
X80712000Y-68912000D01*
X74712000Y-68162000D02*
X74712000Y-68912000D01*
X84022000Y-68152000D02*
X71402000Y-68152000D01*
X84022000Y-74122000D02*
X84022000Y-68152000D01*
X71402000Y-74122000D02*
X84022000Y-74122000D01*
X71402000Y-68152000D02*
X71402000Y-74122000D01*
X71112000Y-74847000D02*
X71112000Y-76097000D01*
X72362000Y-74847000D02*
X71112000Y-74847000D01*
X83262000Y-80347000D02*
X77712000Y-80347000D01*
X83262000Y-77397000D02*
X83262000Y-80347000D01*
X84012000Y-77397000D02*
X83262000Y-77397000D01*
X72162000Y-80347000D02*
X77712000Y-80347000D01*
X72162000Y-77397000D02*
X72162000Y-80347000D01*
X71412000Y-77397000D02*
X72162000Y-77397000D01*
X84012000Y-75147000D02*
X82212000Y-75147000D01*
X84012000Y-75897000D02*
X84012000Y-75147000D01*
X82212000Y-75897000D02*
X84012000Y-75897000D01*
X82212000Y-75147000D02*
X82212000Y-75897000D01*
X73212000Y-75147000D02*
X71412000Y-75147000D01*
X73212000Y-75897000D02*
X73212000Y-75147000D01*
X71412000Y-75897000D02*
X73212000Y-75897000D01*
X71412000Y-75147000D02*
X71412000Y-75897000D01*
X80712000Y-75147000D02*
X74712000Y-75147000D01*
X80712000Y-75897000D02*
X80712000Y-75147000D01*
X74712000Y-75897000D02*
X80712000Y-75897000D01*
X74712000Y-75147000D02*
X74712000Y-75897000D01*
X84022000Y-75137000D02*
X71402000Y-75137000D01*
X84022000Y-81107000D02*
X84022000Y-75137000D01*
X71402000Y-81107000D02*
X84022000Y-81107000D01*
X71402000Y-75137000D02*
X71402000Y-81107000D01*
X71192000Y-81832000D02*
X71192000Y-83082000D01*
X72442000Y-81832000D02*
X71192000Y-81832000D01*
X83342000Y-87332000D02*
X77792000Y-87332000D01*
X83342000Y-84382000D02*
X83342000Y-87332000D01*
X84092000Y-84382000D02*
X83342000Y-84382000D01*
X72242000Y-87332000D02*
X77792000Y-87332000D01*
X72242000Y-84382000D02*
X72242000Y-87332000D01*
X71492000Y-84382000D02*
X72242000Y-84382000D01*
X84092000Y-82132000D02*
X82292000Y-82132000D01*
X84092000Y-82882000D02*
X84092000Y-82132000D01*
X82292000Y-82882000D02*
X84092000Y-82882000D01*
X82292000Y-82132000D02*
X82292000Y-82882000D01*
X73292000Y-82132000D02*
X71492000Y-82132000D01*
X73292000Y-82882000D02*
X73292000Y-82132000D01*
X71492000Y-82882000D02*
X73292000Y-82882000D01*
X71492000Y-82132000D02*
X71492000Y-82882000D01*
X80792000Y-82132000D02*
X74792000Y-82132000D01*
X80792000Y-82882000D02*
X80792000Y-82132000D01*
X74792000Y-82882000D02*
X80792000Y-82882000D01*
X74792000Y-82132000D02*
X74792000Y-82882000D01*
X84102000Y-82122000D02*
X71482000Y-82122000D01*
X84102000Y-88092000D02*
X84102000Y-82122000D01*
X71482000Y-88092000D02*
X84102000Y-88092000D01*
X71482000Y-82122000D02*
X71482000Y-88092000D01*
X71192000Y-95802000D02*
X71192000Y-97052000D01*
X72442000Y-95802000D02*
X71192000Y-95802000D01*
X83342000Y-101302000D02*
X77792000Y-101302000D01*
X83342000Y-98352000D02*
X83342000Y-101302000D01*
X84092000Y-98352000D02*
X83342000Y-98352000D01*
X72242000Y-101302000D02*
X77792000Y-101302000D01*
X72242000Y-98352000D02*
X72242000Y-101302000D01*
X71492000Y-98352000D02*
X72242000Y-98352000D01*
X84092000Y-96102000D02*
X82292000Y-96102000D01*
X84092000Y-96852000D02*
X84092000Y-96102000D01*
X82292000Y-96852000D02*
X84092000Y-96852000D01*
X82292000Y-96102000D02*
X82292000Y-96852000D01*
X73292000Y-96102000D02*
X71492000Y-96102000D01*
X73292000Y-96852000D02*
X73292000Y-96102000D01*
X71492000Y-96852000D02*
X73292000Y-96852000D01*
X71492000Y-96102000D02*
X71492000Y-96852000D01*
X80792000Y-96102000D02*
X74792000Y-96102000D01*
X80792000Y-96852000D02*
X80792000Y-96102000D01*
X74792000Y-96852000D02*
X80792000Y-96852000D01*
X74792000Y-96102000D02*
X74792000Y-96852000D01*
X84102000Y-96092000D02*
X71482000Y-96092000D01*
X84102000Y-102062000D02*
X84102000Y-96092000D01*
X71482000Y-102062000D02*
X84102000Y-102062000D01*
X71482000Y-96092000D02*
X71482000Y-102062000D01*
X71152000Y-102787000D02*
X71152000Y-104037000D01*
X72402000Y-102787000D02*
X71152000Y-102787000D01*
X83302000Y-108287000D02*
X77752000Y-108287000D01*
X83302000Y-105337000D02*
X83302000Y-108287000D01*
X84052000Y-105337000D02*
X83302000Y-105337000D01*
X72202000Y-108287000D02*
X77752000Y-108287000D01*
X72202000Y-105337000D02*
X72202000Y-108287000D01*
X71452000Y-105337000D02*
X72202000Y-105337000D01*
X84052000Y-103087000D02*
X82252000Y-103087000D01*
X84052000Y-103837000D02*
X84052000Y-103087000D01*
X82252000Y-103837000D02*
X84052000Y-103837000D01*
X82252000Y-103087000D02*
X82252000Y-103837000D01*
X73252000Y-103087000D02*
X71452000Y-103087000D01*
X73252000Y-103837000D02*
X73252000Y-103087000D01*
X71452000Y-103837000D02*
X73252000Y-103837000D01*
X71452000Y-103087000D02*
X71452000Y-103837000D01*
X80752000Y-103087000D02*
X74752000Y-103087000D01*
X80752000Y-103837000D02*
X80752000Y-103087000D01*
X74752000Y-103837000D02*
X80752000Y-103837000D01*
X74752000Y-103087000D02*
X74752000Y-103837000D01*
X84062000Y-103077000D02*
X71442000Y-103077000D01*
X84062000Y-109047000D02*
X84062000Y-103077000D01*
X71442000Y-109047000D02*
X84062000Y-109047000D01*
X71442000Y-103077000D02*
X71442000Y-109047000D01*
X71112000Y-109772000D02*
X71112000Y-111022000D01*
X72362000Y-109772000D02*
X71112000Y-109772000D01*
X83262000Y-115272000D02*
X77712000Y-115272000D01*
X83262000Y-112322000D02*
X83262000Y-115272000D01*
X84012000Y-112322000D02*
X83262000Y-112322000D01*
X72162000Y-115272000D02*
X77712000Y-115272000D01*
X72162000Y-112322000D02*
X72162000Y-115272000D01*
X71412000Y-112322000D02*
X72162000Y-112322000D01*
X84012000Y-110072000D02*
X82212000Y-110072000D01*
X84012000Y-110822000D02*
X84012000Y-110072000D01*
X82212000Y-110822000D02*
X84012000Y-110822000D01*
X82212000Y-110072000D02*
X82212000Y-110822000D01*
X73212000Y-110072000D02*
X71412000Y-110072000D01*
X73212000Y-110822000D02*
X73212000Y-110072000D01*
X71412000Y-110822000D02*
X73212000Y-110822000D01*
X71412000Y-110072000D02*
X71412000Y-110822000D01*
X80712000Y-110072000D02*
X74712000Y-110072000D01*
X80712000Y-110822000D02*
X80712000Y-110072000D01*
X74712000Y-110822000D02*
X80712000Y-110822000D01*
X74712000Y-110072000D02*
X74712000Y-110822000D01*
X84022000Y-110062000D02*
X71402000Y-110062000D01*
X84022000Y-116032000D02*
X84022000Y-110062000D01*
X71402000Y-116032000D02*
X84022000Y-116032000D01*
X71402000Y-110062000D02*
X71402000Y-116032000D01*
X71112000Y-116757000D02*
X71112000Y-118007000D01*
X72362000Y-116757000D02*
X71112000Y-116757000D01*
X83262000Y-122257000D02*
X77712000Y-122257000D01*
X83262000Y-119307000D02*
X83262000Y-122257000D01*
X84012000Y-119307000D02*
X83262000Y-119307000D01*
X72162000Y-122257000D02*
X77712000Y-122257000D01*
X72162000Y-119307000D02*
X72162000Y-122257000D01*
X71412000Y-119307000D02*
X72162000Y-119307000D01*
X84012000Y-117057000D02*
X82212000Y-117057000D01*
X84012000Y-117807000D02*
X84012000Y-117057000D01*
X82212000Y-117807000D02*
X84012000Y-117807000D01*
X82212000Y-117057000D02*
X82212000Y-117807000D01*
X73212000Y-117057000D02*
X71412000Y-117057000D01*
X73212000Y-117807000D02*
X73212000Y-117057000D01*
X71412000Y-117807000D02*
X73212000Y-117807000D01*
X71412000Y-117057000D02*
X71412000Y-117807000D01*
X80712000Y-117057000D02*
X74712000Y-117057000D01*
X80712000Y-117807000D02*
X80712000Y-117057000D01*
X74712000Y-117807000D02*
X80712000Y-117807000D01*
X74712000Y-117057000D02*
X74712000Y-117807000D01*
X84022000Y-117047000D02*
X71402000Y-117047000D01*
X84022000Y-123017000D02*
X84022000Y-117047000D01*
X71402000Y-123017000D02*
X84022000Y-123017000D01*
X71402000Y-117047000D02*
X71402000Y-123017000D01*
X71152000Y-123742000D02*
X71152000Y-124992000D01*
X72402000Y-123742000D02*
X71152000Y-123742000D01*
X83302000Y-129242000D02*
X77752000Y-129242000D01*
X83302000Y-126292000D02*
X83302000Y-129242000D01*
X84052000Y-126292000D02*
X83302000Y-126292000D01*
X72202000Y-129242000D02*
X77752000Y-129242000D01*
X72202000Y-126292000D02*
X72202000Y-129242000D01*
X71452000Y-126292000D02*
X72202000Y-126292000D01*
X84052000Y-124042000D02*
X82252000Y-124042000D01*
X84052000Y-124792000D02*
X84052000Y-124042000D01*
X82252000Y-124792000D02*
X84052000Y-124792000D01*
X82252000Y-124042000D02*
X82252000Y-124792000D01*
X73252000Y-124042000D02*
X71452000Y-124042000D01*
X73252000Y-124792000D02*
X73252000Y-124042000D01*
X71452000Y-124792000D02*
X73252000Y-124792000D01*
X71452000Y-124042000D02*
X71452000Y-124792000D01*
X80752000Y-124042000D02*
X74752000Y-124042000D01*
X80752000Y-124792000D02*
X80752000Y-124042000D01*
X74752000Y-124792000D02*
X80752000Y-124792000D01*
X74752000Y-124042000D02*
X74752000Y-124792000D01*
X84062000Y-124032000D02*
X71442000Y-124032000D01*
X84062000Y-130002000D02*
X84062000Y-124032000D01*
X71442000Y-130002000D02*
X84062000Y-130002000D01*
X71442000Y-124032000D02*
X71442000Y-130002000D01*
X71152000Y-130727000D02*
X71152000Y-131977000D01*
X72402000Y-130727000D02*
X71152000Y-130727000D01*
X83302000Y-136227000D02*
X77752000Y-136227000D01*
X83302000Y-133277000D02*
X83302000Y-136227000D01*
X84052000Y-133277000D02*
X83302000Y-133277000D01*
X72202000Y-136227000D02*
X77752000Y-136227000D01*
X72202000Y-133277000D02*
X72202000Y-136227000D01*
X71452000Y-133277000D02*
X72202000Y-133277000D01*
X84052000Y-131027000D02*
X82252000Y-131027000D01*
X84052000Y-131777000D02*
X84052000Y-131027000D01*
X82252000Y-131777000D02*
X84052000Y-131777000D01*
X82252000Y-131027000D02*
X82252000Y-131777000D01*
X73252000Y-131027000D02*
X71452000Y-131027000D01*
X73252000Y-131777000D02*
X73252000Y-131027000D01*
X71452000Y-131777000D02*
X73252000Y-131777000D01*
X71452000Y-131027000D02*
X71452000Y-131777000D01*
X80752000Y-131027000D02*
X74752000Y-131027000D01*
X80752000Y-131777000D02*
X80752000Y-131027000D01*
X74752000Y-131777000D02*
X80752000Y-131777000D01*
X74752000Y-131027000D02*
X74752000Y-131777000D01*
X84062000Y-131017000D02*
X71442000Y-131017000D01*
X84062000Y-136987000D02*
X84062000Y-131017000D01*
X71442000Y-136987000D02*
X84062000Y-136987000D01*
X71442000Y-131017000D02*
X71442000Y-136987000D01*
X143977000Y-80982000D02*
X143977000Y-79732000D01*
X142727000Y-80982000D02*
X143977000Y-80982000D01*
X131827000Y-75482000D02*
X137377000Y-75482000D01*
X131827000Y-78432000D02*
X131827000Y-75482000D01*
X131077000Y-78432000D02*
X131827000Y-78432000D01*
X142927000Y-75482000D02*
X137377000Y-75482000D01*
X142927000Y-78432000D02*
X142927000Y-75482000D01*
X143677000Y-78432000D02*
X142927000Y-78432000D01*
X131077000Y-80682000D02*
X132877000Y-80682000D01*
X131077000Y-79932000D02*
X131077000Y-80682000D01*
X132877000Y-79932000D02*
X131077000Y-79932000D01*
X132877000Y-80682000D02*
X132877000Y-79932000D01*
X141877000Y-80682000D02*
X143677000Y-80682000D01*
X141877000Y-79932000D02*
X141877000Y-80682000D01*
X143677000Y-79932000D02*
X141877000Y-79932000D01*
X143677000Y-80682000D02*
X143677000Y-79932000D01*
X134377000Y-80682000D02*
X140377000Y-80682000D01*
X134377000Y-79932000D02*
X134377000Y-80682000D01*
X140377000Y-79932000D02*
X134377000Y-79932000D01*
X140377000Y-80682000D02*
X140377000Y-79932000D01*
X131067000Y-80692000D02*
X143687000Y-80692000D01*
X131067000Y-74722000D02*
X131067000Y-80692000D01*
X143687000Y-74722000D02*
X131067000Y-74722000D01*
X143687000Y-80692000D02*
X143687000Y-74722000D01*
X143977000Y-87967000D02*
X143977000Y-86717000D01*
X142727000Y-87967000D02*
X143977000Y-87967000D01*
X131827000Y-82467000D02*
X137377000Y-82467000D01*
X131827000Y-85417000D02*
X131827000Y-82467000D01*
X131077000Y-85417000D02*
X131827000Y-85417000D01*
X142927000Y-82467000D02*
X137377000Y-82467000D01*
X142927000Y-85417000D02*
X142927000Y-82467000D01*
X143677000Y-85417000D02*
X142927000Y-85417000D01*
X131077000Y-87667000D02*
X132877000Y-87667000D01*
X131077000Y-86917000D02*
X131077000Y-87667000D01*
X132877000Y-86917000D02*
X131077000Y-86917000D01*
X132877000Y-87667000D02*
X132877000Y-86917000D01*
X141877000Y-87667000D02*
X143677000Y-87667000D01*
X141877000Y-86917000D02*
X141877000Y-87667000D01*
X143677000Y-86917000D02*
X141877000Y-86917000D01*
X143677000Y-87667000D02*
X143677000Y-86917000D01*
X134377000Y-87667000D02*
X140377000Y-87667000D01*
X134377000Y-86917000D02*
X134377000Y-87667000D01*
X140377000Y-86917000D02*
X134377000Y-86917000D01*
X140377000Y-87667000D02*
X140377000Y-86917000D01*
X131067000Y-87677000D02*
X143687000Y-87677000D01*
X131067000Y-81707000D02*
X131067000Y-87677000D01*
X143687000Y-81707000D02*
X131067000Y-81707000D01*
X143687000Y-87677000D02*
X143687000Y-81707000D01*
X143977000Y-94952000D02*
X143977000Y-93702000D01*
X142727000Y-94952000D02*
X143977000Y-94952000D01*
X131827000Y-89452000D02*
X137377000Y-89452000D01*
X131827000Y-92402000D02*
X131827000Y-89452000D01*
X131077000Y-92402000D02*
X131827000Y-92402000D01*
X142927000Y-89452000D02*
X137377000Y-89452000D01*
X142927000Y-92402000D02*
X142927000Y-89452000D01*
X143677000Y-92402000D02*
X142927000Y-92402000D01*
X131077000Y-94652000D02*
X132877000Y-94652000D01*
X131077000Y-93902000D02*
X131077000Y-94652000D01*
X132877000Y-93902000D02*
X131077000Y-93902000D01*
X132877000Y-94652000D02*
X132877000Y-93902000D01*
X141877000Y-94652000D02*
X143677000Y-94652000D01*
X141877000Y-93902000D02*
X141877000Y-94652000D01*
X143677000Y-93902000D02*
X141877000Y-93902000D01*
X143677000Y-94652000D02*
X143677000Y-93902000D01*
X134377000Y-94652000D02*
X140377000Y-94652000D01*
X134377000Y-93902000D02*
X134377000Y-94652000D01*
X140377000Y-93902000D02*
X134377000Y-93902000D01*
X140377000Y-94652000D02*
X140377000Y-93902000D01*
X131067000Y-94662000D02*
X143687000Y-94662000D01*
X131067000Y-88692000D02*
X131067000Y-94662000D01*
X143687000Y-88692000D02*
X131067000Y-88692000D01*
X143687000Y-94662000D02*
X143687000Y-88692000D01*
X143937000Y-101937000D02*
X143937000Y-100687000D01*
X142687000Y-101937000D02*
X143937000Y-101937000D01*
X131787000Y-96437000D02*
X137337000Y-96437000D01*
X131787000Y-99387000D02*
X131787000Y-96437000D01*
X131037000Y-99387000D02*
X131787000Y-99387000D01*
X142887000Y-96437000D02*
X137337000Y-96437000D01*
X142887000Y-99387000D02*
X142887000Y-96437000D01*
X143637000Y-99387000D02*
X142887000Y-99387000D01*
X131037000Y-101637000D02*
X132837000Y-101637000D01*
X131037000Y-100887000D02*
X131037000Y-101637000D01*
X132837000Y-100887000D02*
X131037000Y-100887000D01*
X132837000Y-101637000D02*
X132837000Y-100887000D01*
X141837000Y-101637000D02*
X143637000Y-101637000D01*
X141837000Y-100887000D02*
X141837000Y-101637000D01*
X143637000Y-100887000D02*
X141837000Y-100887000D01*
X143637000Y-101637000D02*
X143637000Y-100887000D01*
X134337000Y-101637000D02*
X140337000Y-101637000D01*
X134337000Y-100887000D02*
X134337000Y-101637000D01*
X140337000Y-100887000D02*
X134337000Y-100887000D01*
X140337000Y-101637000D02*
X140337000Y-100887000D01*
X131027000Y-101647000D02*
X143647000Y-101647000D01*
X131027000Y-95677000D02*
X131027000Y-101647000D01*
X143647000Y-95677000D02*
X131027000Y-95677000D01*
X143647000Y-101647000D02*
X143647000Y-95677000D01*
X143937000Y-108922000D02*
X143937000Y-107672000D01*
X142687000Y-108922000D02*
X143937000Y-108922000D01*
X131787000Y-103422000D02*
X137337000Y-103422000D01*
X131787000Y-106372000D02*
X131787000Y-103422000D01*
X131037000Y-106372000D02*
X131787000Y-106372000D01*
X142887000Y-103422000D02*
X137337000Y-103422000D01*
X142887000Y-106372000D02*
X142887000Y-103422000D01*
X143637000Y-106372000D02*
X142887000Y-106372000D01*
X131037000Y-108622000D02*
X132837000Y-108622000D01*
X131037000Y-107872000D02*
X131037000Y-108622000D01*
X132837000Y-107872000D02*
X131037000Y-107872000D01*
X132837000Y-108622000D02*
X132837000Y-107872000D01*
X141837000Y-108622000D02*
X143637000Y-108622000D01*
X141837000Y-107872000D02*
X141837000Y-108622000D01*
X143637000Y-107872000D02*
X141837000Y-107872000D01*
X143637000Y-108622000D02*
X143637000Y-107872000D01*
X134337000Y-108622000D02*
X140337000Y-108622000D01*
X134337000Y-107872000D02*
X134337000Y-108622000D01*
X140337000Y-107872000D02*
X134337000Y-107872000D01*
X140337000Y-108622000D02*
X140337000Y-107872000D01*
X131027000Y-108632000D02*
X143647000Y-108632000D01*
X131027000Y-102662000D02*
X131027000Y-108632000D01*
X143647000Y-102662000D02*
X131027000Y-102662000D01*
X143647000Y-108632000D02*
X143647000Y-102662000D01*
X143897000Y-115907000D02*
X143897000Y-114657000D01*
X142647000Y-115907000D02*
X143897000Y-115907000D01*
X131747000Y-110407000D02*
X137297000Y-110407000D01*
X131747000Y-113357000D02*
X131747000Y-110407000D01*
X130997000Y-113357000D02*
X131747000Y-113357000D01*
X142847000Y-110407000D02*
X137297000Y-110407000D01*
X142847000Y-113357000D02*
X142847000Y-110407000D01*
X143597000Y-113357000D02*
X142847000Y-113357000D01*
X130997000Y-115607000D02*
X132797000Y-115607000D01*
X130997000Y-114857000D02*
X130997000Y-115607000D01*
X132797000Y-114857000D02*
X130997000Y-114857000D01*
X132797000Y-115607000D02*
X132797000Y-114857000D01*
X141797000Y-115607000D02*
X143597000Y-115607000D01*
X141797000Y-114857000D02*
X141797000Y-115607000D01*
X143597000Y-114857000D02*
X141797000Y-114857000D01*
X143597000Y-115607000D02*
X143597000Y-114857000D01*
X134297000Y-115607000D02*
X140297000Y-115607000D01*
X134297000Y-114857000D02*
X134297000Y-115607000D01*
X140297000Y-114857000D02*
X134297000Y-114857000D01*
X140297000Y-115607000D02*
X140297000Y-114857000D01*
X130987000Y-115617000D02*
X143607000Y-115617000D01*
X130987000Y-109647000D02*
X130987000Y-115617000D01*
X143607000Y-109647000D02*
X130987000Y-109647000D01*
X143607000Y-115617000D02*
X143607000Y-109647000D01*
X143937000Y-122892000D02*
X143937000Y-121642000D01*
X142687000Y-122892000D02*
X143937000Y-122892000D01*
X131787000Y-117392000D02*
X137337000Y-117392000D01*
X131787000Y-120342000D02*
X131787000Y-117392000D01*
X131037000Y-120342000D02*
X131787000Y-120342000D01*
X142887000Y-117392000D02*
X137337000Y-117392000D01*
X142887000Y-120342000D02*
X142887000Y-117392000D01*
X143637000Y-120342000D02*
X142887000Y-120342000D01*
X131037000Y-122592000D02*
X132837000Y-122592000D01*
X131037000Y-121842000D02*
X131037000Y-122592000D01*
X132837000Y-121842000D02*
X131037000Y-121842000D01*
X132837000Y-122592000D02*
X132837000Y-121842000D01*
X141837000Y-122592000D02*
X143637000Y-122592000D01*
X141837000Y-121842000D02*
X141837000Y-122592000D01*
X143637000Y-121842000D02*
X141837000Y-121842000D01*
X143637000Y-122592000D02*
X143637000Y-121842000D01*
X134337000Y-122592000D02*
X140337000Y-122592000D01*
X134337000Y-121842000D02*
X134337000Y-122592000D01*
X140337000Y-121842000D02*
X134337000Y-121842000D01*
X140337000Y-122592000D02*
X140337000Y-121842000D01*
X131027000Y-122602000D02*
X143647000Y-122602000D01*
X131027000Y-116632000D02*
X131027000Y-122602000D01*
X143647000Y-116632000D02*
X131027000Y-116632000D01*
X143647000Y-122602000D02*
X143647000Y-116632000D01*
X143897000Y-129877000D02*
X143897000Y-128627000D01*
X142647000Y-129877000D02*
X143897000Y-129877000D01*
X131747000Y-124377000D02*
X137297000Y-124377000D01*
X131747000Y-127327000D02*
X131747000Y-124377000D01*
X130997000Y-127327000D02*
X131747000Y-127327000D01*
X142847000Y-124377000D02*
X137297000Y-124377000D01*
X142847000Y-127327000D02*
X142847000Y-124377000D01*
X143597000Y-127327000D02*
X142847000Y-127327000D01*
X130997000Y-129577000D02*
X132797000Y-129577000D01*
X130997000Y-128827000D02*
X130997000Y-129577000D01*
X132797000Y-128827000D02*
X130997000Y-128827000D01*
X132797000Y-129577000D02*
X132797000Y-128827000D01*
X141797000Y-129577000D02*
X143597000Y-129577000D01*
X141797000Y-128827000D02*
X141797000Y-129577000D01*
X143597000Y-128827000D02*
X141797000Y-128827000D01*
X143597000Y-129577000D02*
X143597000Y-128827000D01*
X134297000Y-129577000D02*
X140297000Y-129577000D01*
X134297000Y-128827000D02*
X134297000Y-129577000D01*
X140297000Y-128827000D02*
X134297000Y-128827000D01*
X140297000Y-129577000D02*
X140297000Y-128827000D01*
X130987000Y-129587000D02*
X143607000Y-129587000D01*
X130987000Y-123617000D02*
X130987000Y-129587000D01*
X143607000Y-123617000D02*
X130987000Y-123617000D01*
X143607000Y-129587000D02*
X143607000Y-123617000D01*
X143937000Y-136862000D02*
X143937000Y-135612000D01*
X142687000Y-136862000D02*
X143937000Y-136862000D01*
X131787000Y-131362000D02*
X137337000Y-131362000D01*
X131787000Y-134312000D02*
X131787000Y-131362000D01*
X131037000Y-134312000D02*
X131787000Y-134312000D01*
X142887000Y-131362000D02*
X137337000Y-131362000D01*
X142887000Y-134312000D02*
X142887000Y-131362000D01*
X143637000Y-134312000D02*
X142887000Y-134312000D01*
X131037000Y-136562000D02*
X132837000Y-136562000D01*
X131037000Y-135812000D02*
X131037000Y-136562000D01*
X132837000Y-135812000D02*
X131037000Y-135812000D01*
X132837000Y-136562000D02*
X132837000Y-135812000D01*
X141837000Y-136562000D02*
X143637000Y-136562000D01*
X141837000Y-135812000D02*
X141837000Y-136562000D01*
X143637000Y-135812000D02*
X141837000Y-135812000D01*
X143637000Y-136562000D02*
X143637000Y-135812000D01*
X134337000Y-136562000D02*
X140337000Y-136562000D01*
X134337000Y-135812000D02*
X134337000Y-136562000D01*
X140337000Y-135812000D02*
X134337000Y-135812000D01*
X140337000Y-136562000D02*
X140337000Y-135812000D01*
X131027000Y-136572000D02*
X143647000Y-136572000D01*
X131027000Y-130602000D02*
X131027000Y-136572000D01*
X143647000Y-130602000D02*
X131027000Y-130602000D01*
X143647000Y-136572000D02*
X143647000Y-130602000D01*
X101935000Y-138504000D02*
X102435000Y-138504000D01*
X101935000Y-137764000D02*
X101935000Y-138504000D01*
X108628000Y-134627000D02*
X108581000Y-134673000D01*
X110925000Y-132329000D02*
X110890000Y-132365000D01*
X108821000Y-134843000D02*
X108786000Y-134878000D01*
X111130000Y-132535000D02*
X111083000Y-132581000D01*
X112455000Y-128343000D02*
X112455000Y-138264000D01*
X102175000Y-128343000D02*
X102175000Y-138264000D01*
X102175000Y-138264000D02*
X112455000Y-138264000D01*
X102175000Y-128343000D02*
X112455000Y-128343000D01*
X102175000Y-131303000D02*
X112455000Y-131303000D01*
X102175000Y-136204000D02*
X112455000Y-136204000D01*
X102175000Y-137704000D02*
X112455000Y-137704000D01*
X111535000Y-133604000D02*
G75*
G03X111535000Y-133604000I-1680000J0D01*
G01*
X104803805Y-135284253D02*
G75*
G02X104091000Y-135139000I-28805J1680253D01*
G01*
X103239574Y-134287042D02*
G75*
G02X103240000Y-132920000I1535426J683042D01*
G01*
X104091958Y-132068574D02*
G75*
G02X105459000Y-132069000I683042J-1535426D01*
G01*
X106310426Y-132920958D02*
G75*
G02X106310000Y-134288000I-1535426J-683042D01*
G01*
X105458318Y-135138756D02*
G75*
G02X104775000Y-135284000I-683318J1534756D01*
G01*
D10*
X68190476Y-91452380D02*
X68190476Y-92166666D01*
X68142857Y-92309523D01*
X68047619Y-92404761D01*
X67904761Y-92452380D01*
X67809523Y-92452380D01*
X69190476Y-92452380D02*
X68619047Y-92452380D01*
X68904761Y-92452380D02*
X68904761Y-91452380D01*
X68809523Y-91595238D01*
X68714285Y-91690476D01*
X68619047Y-91738095D01*
X69523809Y-91452380D02*
X70190476Y-91452380D01*
X69761904Y-92452380D01*
X145160476Y-70452380D02*
X145160476Y-71166666D01*
X145112857Y-71309523D01*
X145017619Y-71404761D01*
X144874761Y-71452380D01*
X144779523Y-71452380D01*
X146160476Y-71452380D02*
X145589047Y-71452380D01*
X145874761Y-71452380D02*
X145874761Y-70452380D01*
X145779523Y-70595238D01*
X145684285Y-70690476D01*
X145589047Y-70738095D01*
X146779523Y-70452380D02*
X146874761Y-70452380D01*
X146970000Y-70500000D01*
X147017619Y-70547619D01*
X147065238Y-70642857D01*
X147112857Y-70833333D01*
X147112857Y-71071428D01*
X147065238Y-71261904D01*
X147017619Y-71357142D01*
X146970000Y-71404761D01*
X146874761Y-71452380D01*
X146779523Y-71452380D01*
X146684285Y-71404761D01*
X146636666Y-71357142D01*
X146589047Y-71261904D01*
X146541428Y-71071428D01*
X146541428Y-70833333D01*
X146589047Y-70642857D01*
X146636666Y-70547619D01*
X146684285Y-70500000D01*
X146779523Y-70452380D01*
X68190476Y-70452380D02*
X68190476Y-71166666D01*
X68142857Y-71309523D01*
X68047619Y-71404761D01*
X67904761Y-71452380D01*
X67809523Y-71452380D01*
X68619047Y-70547619D02*
X68666666Y-70500000D01*
X68761904Y-70452380D01*
X69000000Y-70452380D01*
X69095238Y-70500000D01*
X69142857Y-70547619D01*
X69190476Y-70642857D01*
X69190476Y-70738095D01*
X69142857Y-70880952D01*
X68571428Y-71452380D01*
X69190476Y-71452380D01*
X69809523Y-70452380D02*
X69904761Y-70452380D01*
X70000000Y-70500000D01*
X70047619Y-70547619D01*
X70095238Y-70642857D01*
X70142857Y-70833333D01*
X70142857Y-71071428D01*
X70095238Y-71261904D01*
X70047619Y-71357142D01*
X70000000Y-71404761D01*
X69904761Y-71452380D01*
X69809523Y-71452380D01*
X69714285Y-71404761D01*
X69666666Y-71357142D01*
X69619047Y-71261904D01*
X69571428Y-71071428D01*
X69571428Y-70833333D01*
X69619047Y-70642857D01*
X69666666Y-70547619D01*
X69714285Y-70500000D01*
X69809523Y-70452380D01*
X68190476Y-77452380D02*
X68190476Y-78166666D01*
X68142857Y-78309523D01*
X68047619Y-78404761D01*
X67904761Y-78452380D01*
X67809523Y-78452380D01*
X69190476Y-78452380D02*
X68619047Y-78452380D01*
X68904761Y-78452380D02*
X68904761Y-77452380D01*
X68809523Y-77595238D01*
X68714285Y-77690476D01*
X68619047Y-77738095D01*
X69666666Y-78452380D02*
X69857142Y-78452380D01*
X69952380Y-78404761D01*
X70000000Y-78357142D01*
X70095238Y-78214285D01*
X70142857Y-78023809D01*
X70142857Y-77642857D01*
X70095238Y-77547619D01*
X70047619Y-77500000D01*
X69952380Y-77452380D01*
X69761904Y-77452380D01*
X69666666Y-77500000D01*
X69619047Y-77547619D01*
X69571428Y-77642857D01*
X69571428Y-77880952D01*
X69619047Y-77976190D01*
X69666666Y-78023809D01*
X69761904Y-78071428D01*
X69952380Y-78071428D01*
X70047619Y-78023809D01*
X70095238Y-77976190D01*
X70142857Y-77880952D01*
X68190476Y-84452380D02*
X68190476Y-85166666D01*
X68142857Y-85309523D01*
X68047619Y-85404761D01*
X67904761Y-85452380D01*
X67809523Y-85452380D01*
X69190476Y-85452380D02*
X68619047Y-85452380D01*
X68904761Y-85452380D02*
X68904761Y-84452380D01*
X68809523Y-84595238D01*
X68714285Y-84690476D01*
X68619047Y-84738095D01*
X69761904Y-84880952D02*
X69666666Y-84833333D01*
X69619047Y-84785714D01*
X69571428Y-84690476D01*
X69571428Y-84642857D01*
X69619047Y-84547619D01*
X69666666Y-84500000D01*
X69761904Y-84452380D01*
X69952380Y-84452380D01*
X70047619Y-84500000D01*
X70095238Y-84547619D01*
X70142857Y-84642857D01*
X70142857Y-84690476D01*
X70095238Y-84785714D01*
X70047619Y-84833333D01*
X69952380Y-84880952D01*
X69761904Y-84880952D01*
X69666666Y-84928571D01*
X69619047Y-84976190D01*
X69571428Y-85071428D01*
X69571428Y-85261904D01*
X69619047Y-85357142D01*
X69666666Y-85404761D01*
X69761904Y-85452380D01*
X69952380Y-85452380D01*
X70047619Y-85404761D01*
X70095238Y-85357142D01*
X70142857Y-85261904D01*
X70142857Y-85071428D01*
X70095238Y-84976190D01*
X70047619Y-84928571D01*
X69952380Y-84880952D01*
X68190476Y-98452380D02*
X68190476Y-99166666D01*
X68142857Y-99309523D01*
X68047619Y-99404761D01*
X67904761Y-99452380D01*
X67809523Y-99452380D01*
X69190476Y-99452380D02*
X68619047Y-99452380D01*
X68904761Y-99452380D02*
X68904761Y-98452380D01*
X68809523Y-98595238D01*
X68714285Y-98690476D01*
X68619047Y-98738095D01*
X70047619Y-98452380D02*
X69857142Y-98452380D01*
X69761904Y-98500000D01*
X69714285Y-98547619D01*
X69619047Y-98690476D01*
X69571428Y-98880952D01*
X69571428Y-99261904D01*
X69619047Y-99357142D01*
X69666666Y-99404761D01*
X69761904Y-99452380D01*
X69952380Y-99452380D01*
X70047619Y-99404761D01*
X70095238Y-99357142D01*
X70142857Y-99261904D01*
X70142857Y-99023809D01*
X70095238Y-98928571D01*
X70047619Y-98880952D01*
X69952380Y-98833333D01*
X69761904Y-98833333D01*
X69666666Y-98880952D01*
X69619047Y-98928571D01*
X69571428Y-99023809D01*
X68190476Y-105452380D02*
X68190476Y-106166666D01*
X68142857Y-106309523D01*
X68047619Y-106404761D01*
X67904761Y-106452380D01*
X67809523Y-106452380D01*
X69190476Y-106452380D02*
X68619047Y-106452380D01*
X68904761Y-106452380D02*
X68904761Y-105452380D01*
X68809523Y-105595238D01*
X68714285Y-105690476D01*
X68619047Y-105738095D01*
X70095238Y-105452380D02*
X69619047Y-105452380D01*
X69571428Y-105928571D01*
X69619047Y-105880952D01*
X69714285Y-105833333D01*
X69952380Y-105833333D01*
X70047619Y-105880952D01*
X70095238Y-105928571D01*
X70142857Y-106023809D01*
X70142857Y-106261904D01*
X70095238Y-106357142D01*
X70047619Y-106404761D01*
X69952380Y-106452380D01*
X69714285Y-106452380D01*
X69619047Y-106404761D01*
X69571428Y-106357142D01*
X68190476Y-112452380D02*
X68190476Y-113166666D01*
X68142857Y-113309523D01*
X68047619Y-113404761D01*
X67904761Y-113452380D01*
X67809523Y-113452380D01*
X69190476Y-113452380D02*
X68619047Y-113452380D01*
X68904761Y-113452380D02*
X68904761Y-112452380D01*
X68809523Y-112595238D01*
X68714285Y-112690476D01*
X68619047Y-112738095D01*
X70047619Y-112785714D02*
X70047619Y-113452380D01*
X69809523Y-112404761D02*
X69571428Y-113119047D01*
X70190476Y-113119047D01*
X68190476Y-119452380D02*
X68190476Y-120166666D01*
X68142857Y-120309523D01*
X68047619Y-120404761D01*
X67904761Y-120452380D01*
X67809523Y-120452380D01*
X69190476Y-120452380D02*
X68619047Y-120452380D01*
X68904761Y-120452380D02*
X68904761Y-119452380D01*
X68809523Y-119595238D01*
X68714285Y-119690476D01*
X68619047Y-119738095D01*
X69523809Y-119452380D02*
X70142857Y-119452380D01*
X69809523Y-119833333D01*
X69952380Y-119833333D01*
X70047619Y-119880952D01*
X70095238Y-119928571D01*
X70142857Y-120023809D01*
X70142857Y-120261904D01*
X70095238Y-120357142D01*
X70047619Y-120404761D01*
X69952380Y-120452380D01*
X69666666Y-120452380D01*
X69571428Y-120404761D01*
X69523809Y-120357142D01*
X68190476Y-126452380D02*
X68190476Y-127166666D01*
X68142857Y-127309523D01*
X68047619Y-127404761D01*
X67904761Y-127452380D01*
X67809523Y-127452380D01*
X69190476Y-127452380D02*
X68619047Y-127452380D01*
X68904761Y-127452380D02*
X68904761Y-126452380D01*
X68809523Y-126595238D01*
X68714285Y-126690476D01*
X68619047Y-126738095D01*
X69571428Y-126547619D02*
X69619047Y-126500000D01*
X69714285Y-126452380D01*
X69952380Y-126452380D01*
X70047619Y-126500000D01*
X70095238Y-126547619D01*
X70142857Y-126642857D01*
X70142857Y-126738095D01*
X70095238Y-126880952D01*
X69523809Y-127452380D01*
X70142857Y-127452380D01*
X68190476Y-133452380D02*
X68190476Y-134166666D01*
X68142857Y-134309523D01*
X68047619Y-134404761D01*
X67904761Y-134452380D01*
X67809523Y-134452380D01*
X69190476Y-134452380D02*
X68619047Y-134452380D01*
X68904761Y-134452380D02*
X68904761Y-133452380D01*
X68809523Y-133595238D01*
X68714285Y-133690476D01*
X68619047Y-133738095D01*
X70142857Y-134452380D02*
X69571428Y-134452380D01*
X69857142Y-134452380D02*
X69857142Y-133452380D01*
X69761904Y-133595238D01*
X69666666Y-133690476D01*
X69571428Y-133738095D01*
X145666666Y-77452380D02*
X145666666Y-78166666D01*
X145619047Y-78309523D01*
X145523809Y-78404761D01*
X145380952Y-78452380D01*
X145285714Y-78452380D01*
X146190476Y-78452380D02*
X146380952Y-78452380D01*
X146476190Y-78404761D01*
X146523809Y-78357142D01*
X146619047Y-78214285D01*
X146666666Y-78023809D01*
X146666666Y-77642857D01*
X146619047Y-77547619D01*
X146571428Y-77500000D01*
X146476190Y-77452380D01*
X146285714Y-77452380D01*
X146190476Y-77500000D01*
X146142857Y-77547619D01*
X146095238Y-77642857D01*
X146095238Y-77880952D01*
X146142857Y-77976190D01*
X146190476Y-78023809D01*
X146285714Y-78071428D01*
X146476190Y-78071428D01*
X146571428Y-78023809D01*
X146619047Y-77976190D01*
X146666666Y-77880952D01*
X145666666Y-84452380D02*
X145666666Y-85166666D01*
X145619047Y-85309523D01*
X145523809Y-85404761D01*
X145380952Y-85452380D01*
X145285714Y-85452380D01*
X146285714Y-84880952D02*
X146190476Y-84833333D01*
X146142857Y-84785714D01*
X146095238Y-84690476D01*
X146095238Y-84642857D01*
X146142857Y-84547619D01*
X146190476Y-84500000D01*
X146285714Y-84452380D01*
X146476190Y-84452380D01*
X146571428Y-84500000D01*
X146619047Y-84547619D01*
X146666666Y-84642857D01*
X146666666Y-84690476D01*
X146619047Y-84785714D01*
X146571428Y-84833333D01*
X146476190Y-84880952D01*
X146285714Y-84880952D01*
X146190476Y-84928571D01*
X146142857Y-84976190D01*
X146095238Y-85071428D01*
X146095238Y-85261904D01*
X146142857Y-85357142D01*
X146190476Y-85404761D01*
X146285714Y-85452380D01*
X146476190Y-85452380D01*
X146571428Y-85404761D01*
X146619047Y-85357142D01*
X146666666Y-85261904D01*
X146666666Y-85071428D01*
X146619047Y-84976190D01*
X146571428Y-84928571D01*
X146476190Y-84880952D01*
X145666666Y-91452380D02*
X145666666Y-92166666D01*
X145619047Y-92309523D01*
X145523809Y-92404761D01*
X145380952Y-92452380D01*
X145285714Y-92452380D01*
X146047619Y-91452380D02*
X146714285Y-91452380D01*
X146285714Y-92452380D01*
X145666666Y-97452380D02*
X145666666Y-98166666D01*
X145619047Y-98309523D01*
X145523809Y-98404761D01*
X145380952Y-98452380D01*
X145285714Y-98452380D01*
X146571428Y-97452380D02*
X146380952Y-97452380D01*
X146285714Y-97500000D01*
X146238095Y-97547619D01*
X146142857Y-97690476D01*
X146095238Y-97880952D01*
X146095238Y-98261904D01*
X146142857Y-98357142D01*
X146190476Y-98404761D01*
X146285714Y-98452380D01*
X146476190Y-98452380D01*
X146571428Y-98404761D01*
X146619047Y-98357142D01*
X146666666Y-98261904D01*
X146666666Y-98023809D01*
X146619047Y-97928571D01*
X146571428Y-97880952D01*
X146476190Y-97833333D01*
X146285714Y-97833333D01*
X146190476Y-97880952D01*
X146142857Y-97928571D01*
X146095238Y-98023809D01*
X145666666Y-104452380D02*
X145666666Y-105166666D01*
X145619047Y-105309523D01*
X145523809Y-105404761D01*
X145380952Y-105452380D01*
X145285714Y-105452380D01*
X146619047Y-104452380D02*
X146142857Y-104452380D01*
X146095238Y-104928571D01*
X146142857Y-104880952D01*
X146238095Y-104833333D01*
X146476190Y-104833333D01*
X146571428Y-104880952D01*
X146619047Y-104928571D01*
X146666666Y-105023809D01*
X146666666Y-105261904D01*
X146619047Y-105357142D01*
X146571428Y-105404761D01*
X146476190Y-105452380D01*
X146238095Y-105452380D01*
X146142857Y-105404761D01*
X146095238Y-105357142D01*
X145666666Y-111452380D02*
X145666666Y-112166666D01*
X145619047Y-112309523D01*
X145523809Y-112404761D01*
X145380952Y-112452380D01*
X145285714Y-112452380D01*
X146571428Y-111785714D02*
X146571428Y-112452380D01*
X146333333Y-111404761D02*
X146095238Y-112119047D01*
X146714285Y-112119047D01*
X145666666Y-118452380D02*
X145666666Y-119166666D01*
X145619047Y-119309523D01*
X145523809Y-119404761D01*
X145380952Y-119452380D01*
X145285714Y-119452380D01*
X146047619Y-118452380D02*
X146666666Y-118452380D01*
X146333333Y-118833333D01*
X146476190Y-118833333D01*
X146571428Y-118880952D01*
X146619047Y-118928571D01*
X146666666Y-119023809D01*
X146666666Y-119261904D01*
X146619047Y-119357142D01*
X146571428Y-119404761D01*
X146476190Y-119452380D01*
X146190476Y-119452380D01*
X146095238Y-119404761D01*
X146047619Y-119357142D01*
X145666666Y-125452380D02*
X145666666Y-126166666D01*
X145619047Y-126309523D01*
X145523809Y-126404761D01*
X145380952Y-126452380D01*
X145285714Y-126452380D01*
X146095238Y-125547619D02*
X146142857Y-125500000D01*
X146238095Y-125452380D01*
X146476190Y-125452380D01*
X146571428Y-125500000D01*
X146619047Y-125547619D01*
X146666666Y-125642857D01*
X146666666Y-125738095D01*
X146619047Y-125880952D01*
X146047619Y-126452380D01*
X146666666Y-126452380D01*
X145666666Y-132452380D02*
X145666666Y-133166666D01*
X145619047Y-133309523D01*
X145523809Y-133404761D01*
X145380952Y-133452380D01*
X145285714Y-133452380D01*
X146666666Y-133452380D02*
X146095238Y-133452380D01*
X146380952Y-133452380D02*
X146380952Y-132452380D01*
X146285714Y-132595238D01*
X146190476Y-132690476D01*
X146095238Y-132738095D01*
X68738095Y-140952380D02*
X68738095Y-139952380D01*
X68738095Y-140428571D02*
X69309523Y-140428571D01*
X69309523Y-140952380D02*
X69309523Y-139952380D01*
X70214285Y-140285714D02*
X70214285Y-140952380D01*
X69976190Y-139904761D02*
X69738095Y-140619047D01*
X70357142Y-140619047D01*
X144738095Y-140952380D02*
X144738095Y-139952380D01*
X144738095Y-140428571D02*
X145309523Y-140428571D01*
X145309523Y-140952380D02*
X145309523Y-139952380D01*
X145690476Y-139952380D02*
X146309523Y-139952380D01*
X145976190Y-140333333D01*
X146119047Y-140333333D01*
X146214285Y-140380952D01*
X146261904Y-140428571D01*
X146309523Y-140523809D01*
X146309523Y-140761904D01*
X146261904Y-140857142D01*
X146214285Y-140904761D01*
X146119047Y-140952380D01*
X145833333Y-140952380D01*
X145738095Y-140904761D01*
X145690476Y-140857142D01*
X144772095Y-64849380D02*
X144772095Y-63849380D01*
X144772095Y-64325571D02*
X145343523Y-64325571D01*
X145343523Y-64849380D02*
X145343523Y-63849380D01*
X145772095Y-63944619D02*
X145819714Y-63897000D01*
X145914952Y-63849380D01*
X146153047Y-63849380D01*
X146248285Y-63897000D01*
X146295904Y-63944619D01*
X146343523Y-64039857D01*
X146343523Y-64135095D01*
X146295904Y-64277952D01*
X145724476Y-64849380D01*
X146343523Y-64849380D01*
X68738095Y-64952380D02*
X68738095Y-63952380D01*
X68738095Y-64428571D02*
X69309523Y-64428571D01*
X69309523Y-64952380D02*
X69309523Y-63952380D01*
X70309523Y-64952380D02*
X69738095Y-64952380D01*
X70023809Y-64952380D02*
X70023809Y-63952380D01*
X69928571Y-64095238D01*
X69833333Y-64190476D01*
X69738095Y-64238095D01*
X106505476Y-125452380D02*
X106505476Y-126166666D01*
X106457857Y-126309523D01*
X106362619Y-126404761D01*
X106219761Y-126452380D01*
X106124523Y-126452380D01*
X106934047Y-125547619D02*
X106981666Y-125500000D01*
X107076904Y-125452380D01*
X107315000Y-125452380D01*
X107410238Y-125500000D01*
X107457857Y-125547619D01*
X107505476Y-125642857D01*
X107505476Y-125738095D01*
X107457857Y-125880952D01*
X106886428Y-126452380D01*
X107505476Y-126452380D01*
X108457857Y-126452380D02*
X107886428Y-126452380D01*
X108172142Y-126452380D02*
X108172142Y-125452380D01*
X108076904Y-125595238D01*
X107981666Y-125690476D01*
X107886428Y-125738095D01*
%LPC*%
D12*
X99695000Y-65786000D03*
X99695000Y-68326000D03*
X99695000Y-70866000D03*
X99695000Y-73406000D03*
X99695000Y-75946000D03*
X99695000Y-78486000D03*
X99695000Y-81026000D03*
X99695000Y-83566000D03*
X99695000Y-86106000D03*
X99695000Y-88646000D03*
X99695000Y-91186000D03*
X99695000Y-93726000D03*
X99695000Y-96266000D03*
X99695000Y-98806000D03*
X99695000Y-101346000D03*
X116205000Y-98806000D03*
X116205000Y-65786000D03*
X116205000Y-83566000D03*
X116205000Y-88646000D03*
X116205000Y-86106000D03*
X116205000Y-81026000D03*
X116205000Y-78486000D03*
X116205000Y-93726000D03*
X116205000Y-68326000D03*
X116205000Y-101346000D03*
X116205000Y-73406000D03*
X116205000Y-70866000D03*
X116205000Y-91186000D03*
X116205000Y-96266000D03*
X116205000Y-75946000D03*
D13*
X81542000Y-91567000D03*
X79042000Y-91567000D03*
X76542000Y-91567000D03*
D14*
G36*
X74703975Y-90542276D02*
G01*
X74729699Y-90546092D01*
X74754925Y-90552411D01*
X74779411Y-90561172D01*
X74802920Y-90572291D01*
X74825226Y-90585661D01*
X74846114Y-90601152D01*
X74865383Y-90618617D01*
X74882848Y-90637886D01*
X74898339Y-90658774D01*
X74911709Y-90681080D01*
X74922828Y-90704589D01*
X74931589Y-90729075D01*
X74937908Y-90754301D01*
X74941724Y-90780025D01*
X74943000Y-90806000D01*
X74943000Y-92328000D01*
X74941724Y-92353975D01*
X74937908Y-92379699D01*
X74931589Y-92404925D01*
X74922828Y-92429411D01*
X74911709Y-92452920D01*
X74898339Y-92475226D01*
X74882848Y-92496114D01*
X74865383Y-92515383D01*
X74846114Y-92532848D01*
X74825226Y-92548339D01*
X74802920Y-92561709D01*
X74779411Y-92572828D01*
X74754925Y-92581589D01*
X74729699Y-92587908D01*
X74703975Y-92591724D01*
X74678000Y-92593000D01*
X73406000Y-92593000D01*
X73380025Y-92591724D01*
X73354301Y-92587908D01*
X73329075Y-92581589D01*
X73304589Y-92572828D01*
X73281080Y-92561709D01*
X73258774Y-92548339D01*
X73237886Y-92532848D01*
X73218617Y-92515383D01*
X73201152Y-92496114D01*
X73185661Y-92475226D01*
X73172291Y-92452920D01*
X73161172Y-92429411D01*
X73152411Y-92404925D01*
X73146092Y-92379699D01*
X73142276Y-92353975D01*
X73141000Y-92328000D01*
X73141000Y-90806000D01*
X73142276Y-90780025D01*
X73146092Y-90754301D01*
X73152411Y-90729075D01*
X73161172Y-90704589D01*
X73172291Y-90681080D01*
X73185661Y-90658774D01*
X73201152Y-90637886D01*
X73218617Y-90618617D01*
X73237886Y-90601152D01*
X73258774Y-90585661D01*
X73281080Y-90572291D01*
X73304589Y-90561172D01*
X73329075Y-90552411D01*
X73354301Y-90546092D01*
X73380025Y-90542276D01*
X73406000Y-90541000D01*
X74678000Y-90541000D01*
X74703975Y-90542276D01*
G37*
D13*
X133597000Y-71247000D03*
X136097000Y-71247000D03*
X138597000Y-71247000D03*
D14*
G36*
X141758975Y-70222276D02*
G01*
X141784699Y-70226092D01*
X141809925Y-70232411D01*
X141834411Y-70241172D01*
X141857920Y-70252291D01*
X141880226Y-70265661D01*
X141901114Y-70281152D01*
X141920383Y-70298617D01*
X141937848Y-70317886D01*
X141953339Y-70338774D01*
X141966709Y-70361080D01*
X141977828Y-70384589D01*
X141986589Y-70409075D01*
X141992908Y-70434301D01*
X141996724Y-70460025D01*
X141998000Y-70486000D01*
X141998000Y-72008000D01*
X141996724Y-72033975D01*
X141992908Y-72059699D01*
X141986589Y-72084925D01*
X141977828Y-72109411D01*
X141966709Y-72132920D01*
X141953339Y-72155226D01*
X141937848Y-72176114D01*
X141920383Y-72195383D01*
X141901114Y-72212848D01*
X141880226Y-72228339D01*
X141857920Y-72241709D01*
X141834411Y-72252828D01*
X141809925Y-72261589D01*
X141784699Y-72267908D01*
X141758975Y-72271724D01*
X141733000Y-72273000D01*
X140461000Y-72273000D01*
X140435025Y-72271724D01*
X140409301Y-72267908D01*
X140384075Y-72261589D01*
X140359589Y-72252828D01*
X140336080Y-72241709D01*
X140313774Y-72228339D01*
X140292886Y-72212848D01*
X140273617Y-72195383D01*
X140256152Y-72176114D01*
X140240661Y-72155226D01*
X140227291Y-72132920D01*
X140216172Y-72109411D01*
X140207411Y-72084925D01*
X140201092Y-72059699D01*
X140197276Y-72033975D01*
X140196000Y-72008000D01*
X140196000Y-70486000D01*
X140197276Y-70460025D01*
X140201092Y-70434301D01*
X140207411Y-70409075D01*
X140216172Y-70384589D01*
X140227291Y-70361080D01*
X140240661Y-70338774D01*
X140256152Y-70317886D01*
X140273617Y-70298617D01*
X140292886Y-70281152D01*
X140313774Y-70265661D01*
X140336080Y-70252291D01*
X140359589Y-70241172D01*
X140384075Y-70232411D01*
X140409301Y-70226092D01*
X140435025Y-70222276D01*
X140461000Y-70221000D01*
X141733000Y-70221000D01*
X141758975Y-70222276D01*
G37*
D13*
X81462000Y-70612000D03*
X78962000Y-70612000D03*
X76462000Y-70612000D03*
D14*
G36*
X74623975Y-69587276D02*
G01*
X74649699Y-69591092D01*
X74674925Y-69597411D01*
X74699411Y-69606172D01*
X74722920Y-69617291D01*
X74745226Y-69630661D01*
X74766114Y-69646152D01*
X74785383Y-69663617D01*
X74802848Y-69682886D01*
X74818339Y-69703774D01*
X74831709Y-69726080D01*
X74842828Y-69749589D01*
X74851589Y-69774075D01*
X74857908Y-69799301D01*
X74861724Y-69825025D01*
X74863000Y-69851000D01*
X74863000Y-71373000D01*
X74861724Y-71398975D01*
X74857908Y-71424699D01*
X74851589Y-71449925D01*
X74842828Y-71474411D01*
X74831709Y-71497920D01*
X74818339Y-71520226D01*
X74802848Y-71541114D01*
X74785383Y-71560383D01*
X74766114Y-71577848D01*
X74745226Y-71593339D01*
X74722920Y-71606709D01*
X74699411Y-71617828D01*
X74674925Y-71626589D01*
X74649699Y-71632908D01*
X74623975Y-71636724D01*
X74598000Y-71638000D01*
X73326000Y-71638000D01*
X73300025Y-71636724D01*
X73274301Y-71632908D01*
X73249075Y-71626589D01*
X73224589Y-71617828D01*
X73201080Y-71606709D01*
X73178774Y-71593339D01*
X73157886Y-71577848D01*
X73138617Y-71560383D01*
X73121152Y-71541114D01*
X73105661Y-71520226D01*
X73092291Y-71497920D01*
X73081172Y-71474411D01*
X73072411Y-71449925D01*
X73066092Y-71424699D01*
X73062276Y-71398975D01*
X73061000Y-71373000D01*
X73061000Y-69851000D01*
X73062276Y-69825025D01*
X73066092Y-69799301D01*
X73072411Y-69774075D01*
X73081172Y-69749589D01*
X73092291Y-69726080D01*
X73105661Y-69703774D01*
X73121152Y-69682886D01*
X73138617Y-69663617D01*
X73157886Y-69646152D01*
X73178774Y-69630661D01*
X73201080Y-69617291D01*
X73224589Y-69606172D01*
X73249075Y-69597411D01*
X73274301Y-69591092D01*
X73300025Y-69587276D01*
X73326000Y-69586000D01*
X74598000Y-69586000D01*
X74623975Y-69587276D01*
G37*
D13*
X81462000Y-77597000D03*
X78962000Y-77597000D03*
X76462000Y-77597000D03*
D14*
G36*
X74623975Y-76572276D02*
G01*
X74649699Y-76576092D01*
X74674925Y-76582411D01*
X74699411Y-76591172D01*
X74722920Y-76602291D01*
X74745226Y-76615661D01*
X74766114Y-76631152D01*
X74785383Y-76648617D01*
X74802848Y-76667886D01*
X74818339Y-76688774D01*
X74831709Y-76711080D01*
X74842828Y-76734589D01*
X74851589Y-76759075D01*
X74857908Y-76784301D01*
X74861724Y-76810025D01*
X74863000Y-76836000D01*
X74863000Y-78358000D01*
X74861724Y-78383975D01*
X74857908Y-78409699D01*
X74851589Y-78434925D01*
X74842828Y-78459411D01*
X74831709Y-78482920D01*
X74818339Y-78505226D01*
X74802848Y-78526114D01*
X74785383Y-78545383D01*
X74766114Y-78562848D01*
X74745226Y-78578339D01*
X74722920Y-78591709D01*
X74699411Y-78602828D01*
X74674925Y-78611589D01*
X74649699Y-78617908D01*
X74623975Y-78621724D01*
X74598000Y-78623000D01*
X73326000Y-78623000D01*
X73300025Y-78621724D01*
X73274301Y-78617908D01*
X73249075Y-78611589D01*
X73224589Y-78602828D01*
X73201080Y-78591709D01*
X73178774Y-78578339D01*
X73157886Y-78562848D01*
X73138617Y-78545383D01*
X73121152Y-78526114D01*
X73105661Y-78505226D01*
X73092291Y-78482920D01*
X73081172Y-78459411D01*
X73072411Y-78434925D01*
X73066092Y-78409699D01*
X73062276Y-78383975D01*
X73061000Y-78358000D01*
X73061000Y-76836000D01*
X73062276Y-76810025D01*
X73066092Y-76784301D01*
X73072411Y-76759075D01*
X73081172Y-76734589D01*
X73092291Y-76711080D01*
X73105661Y-76688774D01*
X73121152Y-76667886D01*
X73138617Y-76648617D01*
X73157886Y-76631152D01*
X73178774Y-76615661D01*
X73201080Y-76602291D01*
X73224589Y-76591172D01*
X73249075Y-76582411D01*
X73274301Y-76576092D01*
X73300025Y-76572276D01*
X73326000Y-76571000D01*
X74598000Y-76571000D01*
X74623975Y-76572276D01*
G37*
D13*
X81542000Y-84582000D03*
X79042000Y-84582000D03*
X76542000Y-84582000D03*
D14*
G36*
X74703975Y-83557276D02*
G01*
X74729699Y-83561092D01*
X74754925Y-83567411D01*
X74779411Y-83576172D01*
X74802920Y-83587291D01*
X74825226Y-83600661D01*
X74846114Y-83616152D01*
X74865383Y-83633617D01*
X74882848Y-83652886D01*
X74898339Y-83673774D01*
X74911709Y-83696080D01*
X74922828Y-83719589D01*
X74931589Y-83744075D01*
X74937908Y-83769301D01*
X74941724Y-83795025D01*
X74943000Y-83821000D01*
X74943000Y-85343000D01*
X74941724Y-85368975D01*
X74937908Y-85394699D01*
X74931589Y-85419925D01*
X74922828Y-85444411D01*
X74911709Y-85467920D01*
X74898339Y-85490226D01*
X74882848Y-85511114D01*
X74865383Y-85530383D01*
X74846114Y-85547848D01*
X74825226Y-85563339D01*
X74802920Y-85576709D01*
X74779411Y-85587828D01*
X74754925Y-85596589D01*
X74729699Y-85602908D01*
X74703975Y-85606724D01*
X74678000Y-85608000D01*
X73406000Y-85608000D01*
X73380025Y-85606724D01*
X73354301Y-85602908D01*
X73329075Y-85596589D01*
X73304589Y-85587828D01*
X73281080Y-85576709D01*
X73258774Y-85563339D01*
X73237886Y-85547848D01*
X73218617Y-85530383D01*
X73201152Y-85511114D01*
X73185661Y-85490226D01*
X73172291Y-85467920D01*
X73161172Y-85444411D01*
X73152411Y-85419925D01*
X73146092Y-85394699D01*
X73142276Y-85368975D01*
X73141000Y-85343000D01*
X73141000Y-83821000D01*
X73142276Y-83795025D01*
X73146092Y-83769301D01*
X73152411Y-83744075D01*
X73161172Y-83719589D01*
X73172291Y-83696080D01*
X73185661Y-83673774D01*
X73201152Y-83652886D01*
X73218617Y-83633617D01*
X73237886Y-83616152D01*
X73258774Y-83600661D01*
X73281080Y-83587291D01*
X73304589Y-83576172D01*
X73329075Y-83567411D01*
X73354301Y-83561092D01*
X73380025Y-83557276D01*
X73406000Y-83556000D01*
X74678000Y-83556000D01*
X74703975Y-83557276D01*
G37*
D13*
X81542000Y-98552000D03*
X79042000Y-98552000D03*
X76542000Y-98552000D03*
D14*
G36*
X74703975Y-97527276D02*
G01*
X74729699Y-97531092D01*
X74754925Y-97537411D01*
X74779411Y-97546172D01*
X74802920Y-97557291D01*
X74825226Y-97570661D01*
X74846114Y-97586152D01*
X74865383Y-97603617D01*
X74882848Y-97622886D01*
X74898339Y-97643774D01*
X74911709Y-97666080D01*
X74922828Y-97689589D01*
X74931589Y-97714075D01*
X74937908Y-97739301D01*
X74941724Y-97765025D01*
X74943000Y-97791000D01*
X74943000Y-99313000D01*
X74941724Y-99338975D01*
X74937908Y-99364699D01*
X74931589Y-99389925D01*
X74922828Y-99414411D01*
X74911709Y-99437920D01*
X74898339Y-99460226D01*
X74882848Y-99481114D01*
X74865383Y-99500383D01*
X74846114Y-99517848D01*
X74825226Y-99533339D01*
X74802920Y-99546709D01*
X74779411Y-99557828D01*
X74754925Y-99566589D01*
X74729699Y-99572908D01*
X74703975Y-99576724D01*
X74678000Y-99578000D01*
X73406000Y-99578000D01*
X73380025Y-99576724D01*
X73354301Y-99572908D01*
X73329075Y-99566589D01*
X73304589Y-99557828D01*
X73281080Y-99546709D01*
X73258774Y-99533339D01*
X73237886Y-99517848D01*
X73218617Y-99500383D01*
X73201152Y-99481114D01*
X73185661Y-99460226D01*
X73172291Y-99437920D01*
X73161172Y-99414411D01*
X73152411Y-99389925D01*
X73146092Y-99364699D01*
X73142276Y-99338975D01*
X73141000Y-99313000D01*
X73141000Y-97791000D01*
X73142276Y-97765025D01*
X73146092Y-97739301D01*
X73152411Y-97714075D01*
X73161172Y-97689589D01*
X73172291Y-97666080D01*
X73185661Y-97643774D01*
X73201152Y-97622886D01*
X73218617Y-97603617D01*
X73237886Y-97586152D01*
X73258774Y-97570661D01*
X73281080Y-97557291D01*
X73304589Y-97546172D01*
X73329075Y-97537411D01*
X73354301Y-97531092D01*
X73380025Y-97527276D01*
X73406000Y-97526000D01*
X74678000Y-97526000D01*
X74703975Y-97527276D01*
G37*
D13*
X81502000Y-105537000D03*
X79002000Y-105537000D03*
X76502000Y-105537000D03*
D14*
G36*
X74663975Y-104512276D02*
G01*
X74689699Y-104516092D01*
X74714925Y-104522411D01*
X74739411Y-104531172D01*
X74762920Y-104542291D01*
X74785226Y-104555661D01*
X74806114Y-104571152D01*
X74825383Y-104588617D01*
X74842848Y-104607886D01*
X74858339Y-104628774D01*
X74871709Y-104651080D01*
X74882828Y-104674589D01*
X74891589Y-104699075D01*
X74897908Y-104724301D01*
X74901724Y-104750025D01*
X74903000Y-104776000D01*
X74903000Y-106298000D01*
X74901724Y-106323975D01*
X74897908Y-106349699D01*
X74891589Y-106374925D01*
X74882828Y-106399411D01*
X74871709Y-106422920D01*
X74858339Y-106445226D01*
X74842848Y-106466114D01*
X74825383Y-106485383D01*
X74806114Y-106502848D01*
X74785226Y-106518339D01*
X74762920Y-106531709D01*
X74739411Y-106542828D01*
X74714925Y-106551589D01*
X74689699Y-106557908D01*
X74663975Y-106561724D01*
X74638000Y-106563000D01*
X73366000Y-106563000D01*
X73340025Y-106561724D01*
X73314301Y-106557908D01*
X73289075Y-106551589D01*
X73264589Y-106542828D01*
X73241080Y-106531709D01*
X73218774Y-106518339D01*
X73197886Y-106502848D01*
X73178617Y-106485383D01*
X73161152Y-106466114D01*
X73145661Y-106445226D01*
X73132291Y-106422920D01*
X73121172Y-106399411D01*
X73112411Y-106374925D01*
X73106092Y-106349699D01*
X73102276Y-106323975D01*
X73101000Y-106298000D01*
X73101000Y-104776000D01*
X73102276Y-104750025D01*
X73106092Y-104724301D01*
X73112411Y-104699075D01*
X73121172Y-104674589D01*
X73132291Y-104651080D01*
X73145661Y-104628774D01*
X73161152Y-104607886D01*
X73178617Y-104588617D01*
X73197886Y-104571152D01*
X73218774Y-104555661D01*
X73241080Y-104542291D01*
X73264589Y-104531172D01*
X73289075Y-104522411D01*
X73314301Y-104516092D01*
X73340025Y-104512276D01*
X73366000Y-104511000D01*
X74638000Y-104511000D01*
X74663975Y-104512276D01*
G37*
D13*
X81462000Y-112522000D03*
X78962000Y-112522000D03*
X76462000Y-112522000D03*
D14*
G36*
X74623975Y-111497276D02*
G01*
X74649699Y-111501092D01*
X74674925Y-111507411D01*
X74699411Y-111516172D01*
X74722920Y-111527291D01*
X74745226Y-111540661D01*
X74766114Y-111556152D01*
X74785383Y-111573617D01*
X74802848Y-111592886D01*
X74818339Y-111613774D01*
X74831709Y-111636080D01*
X74842828Y-111659589D01*
X74851589Y-111684075D01*
X74857908Y-111709301D01*
X74861724Y-111735025D01*
X74863000Y-111761000D01*
X74863000Y-113283000D01*
X74861724Y-113308975D01*
X74857908Y-113334699D01*
X74851589Y-113359925D01*
X74842828Y-113384411D01*
X74831709Y-113407920D01*
X74818339Y-113430226D01*
X74802848Y-113451114D01*
X74785383Y-113470383D01*
X74766114Y-113487848D01*
X74745226Y-113503339D01*
X74722920Y-113516709D01*
X74699411Y-113527828D01*
X74674925Y-113536589D01*
X74649699Y-113542908D01*
X74623975Y-113546724D01*
X74598000Y-113548000D01*
X73326000Y-113548000D01*
X73300025Y-113546724D01*
X73274301Y-113542908D01*
X73249075Y-113536589D01*
X73224589Y-113527828D01*
X73201080Y-113516709D01*
X73178774Y-113503339D01*
X73157886Y-113487848D01*
X73138617Y-113470383D01*
X73121152Y-113451114D01*
X73105661Y-113430226D01*
X73092291Y-113407920D01*
X73081172Y-113384411D01*
X73072411Y-113359925D01*
X73066092Y-113334699D01*
X73062276Y-113308975D01*
X73061000Y-113283000D01*
X73061000Y-111761000D01*
X73062276Y-111735025D01*
X73066092Y-111709301D01*
X73072411Y-111684075D01*
X73081172Y-111659589D01*
X73092291Y-111636080D01*
X73105661Y-111613774D01*
X73121152Y-111592886D01*
X73138617Y-111573617D01*
X73157886Y-111556152D01*
X73178774Y-111540661D01*
X73201080Y-111527291D01*
X73224589Y-111516172D01*
X73249075Y-111507411D01*
X73274301Y-111501092D01*
X73300025Y-111497276D01*
X73326000Y-111496000D01*
X74598000Y-111496000D01*
X74623975Y-111497276D01*
G37*
D13*
X81462000Y-119507000D03*
X78962000Y-119507000D03*
X76462000Y-119507000D03*
D14*
G36*
X74623975Y-118482276D02*
G01*
X74649699Y-118486092D01*
X74674925Y-118492411D01*
X74699411Y-118501172D01*
X74722920Y-118512291D01*
X74745226Y-118525661D01*
X74766114Y-118541152D01*
X74785383Y-118558617D01*
X74802848Y-118577886D01*
X74818339Y-118598774D01*
X74831709Y-118621080D01*
X74842828Y-118644589D01*
X74851589Y-118669075D01*
X74857908Y-118694301D01*
X74861724Y-118720025D01*
X74863000Y-118746000D01*
X74863000Y-120268000D01*
X74861724Y-120293975D01*
X74857908Y-120319699D01*
X74851589Y-120344925D01*
X74842828Y-120369411D01*
X74831709Y-120392920D01*
X74818339Y-120415226D01*
X74802848Y-120436114D01*
X74785383Y-120455383D01*
X74766114Y-120472848D01*
X74745226Y-120488339D01*
X74722920Y-120501709D01*
X74699411Y-120512828D01*
X74674925Y-120521589D01*
X74649699Y-120527908D01*
X74623975Y-120531724D01*
X74598000Y-120533000D01*
X73326000Y-120533000D01*
X73300025Y-120531724D01*
X73274301Y-120527908D01*
X73249075Y-120521589D01*
X73224589Y-120512828D01*
X73201080Y-120501709D01*
X73178774Y-120488339D01*
X73157886Y-120472848D01*
X73138617Y-120455383D01*
X73121152Y-120436114D01*
X73105661Y-120415226D01*
X73092291Y-120392920D01*
X73081172Y-120369411D01*
X73072411Y-120344925D01*
X73066092Y-120319699D01*
X73062276Y-120293975D01*
X73061000Y-120268000D01*
X73061000Y-118746000D01*
X73062276Y-118720025D01*
X73066092Y-118694301D01*
X73072411Y-118669075D01*
X73081172Y-118644589D01*
X73092291Y-118621080D01*
X73105661Y-118598774D01*
X73121152Y-118577886D01*
X73138617Y-118558617D01*
X73157886Y-118541152D01*
X73178774Y-118525661D01*
X73201080Y-118512291D01*
X73224589Y-118501172D01*
X73249075Y-118492411D01*
X73274301Y-118486092D01*
X73300025Y-118482276D01*
X73326000Y-118481000D01*
X74598000Y-118481000D01*
X74623975Y-118482276D01*
G37*
D13*
X81502000Y-126492000D03*
X79002000Y-126492000D03*
X76502000Y-126492000D03*
D14*
G36*
X74663975Y-125467276D02*
G01*
X74689699Y-125471092D01*
X74714925Y-125477411D01*
X74739411Y-125486172D01*
X74762920Y-125497291D01*
X74785226Y-125510661D01*
X74806114Y-125526152D01*
X74825383Y-125543617D01*
X74842848Y-125562886D01*
X74858339Y-125583774D01*
X74871709Y-125606080D01*
X74882828Y-125629589D01*
X74891589Y-125654075D01*
X74897908Y-125679301D01*
X74901724Y-125705025D01*
X74903000Y-125731000D01*
X74903000Y-127253000D01*
X74901724Y-127278975D01*
X74897908Y-127304699D01*
X74891589Y-127329925D01*
X74882828Y-127354411D01*
X74871709Y-127377920D01*
X74858339Y-127400226D01*
X74842848Y-127421114D01*
X74825383Y-127440383D01*
X74806114Y-127457848D01*
X74785226Y-127473339D01*
X74762920Y-127486709D01*
X74739411Y-127497828D01*
X74714925Y-127506589D01*
X74689699Y-127512908D01*
X74663975Y-127516724D01*
X74638000Y-127518000D01*
X73366000Y-127518000D01*
X73340025Y-127516724D01*
X73314301Y-127512908D01*
X73289075Y-127506589D01*
X73264589Y-127497828D01*
X73241080Y-127486709D01*
X73218774Y-127473339D01*
X73197886Y-127457848D01*
X73178617Y-127440383D01*
X73161152Y-127421114D01*
X73145661Y-127400226D01*
X73132291Y-127377920D01*
X73121172Y-127354411D01*
X73112411Y-127329925D01*
X73106092Y-127304699D01*
X73102276Y-127278975D01*
X73101000Y-127253000D01*
X73101000Y-125731000D01*
X73102276Y-125705025D01*
X73106092Y-125679301D01*
X73112411Y-125654075D01*
X73121172Y-125629589D01*
X73132291Y-125606080D01*
X73145661Y-125583774D01*
X73161152Y-125562886D01*
X73178617Y-125543617D01*
X73197886Y-125526152D01*
X73218774Y-125510661D01*
X73241080Y-125497291D01*
X73264589Y-125486172D01*
X73289075Y-125477411D01*
X73314301Y-125471092D01*
X73340025Y-125467276D01*
X73366000Y-125466000D01*
X74638000Y-125466000D01*
X74663975Y-125467276D01*
G37*
D13*
X81502000Y-133477000D03*
X79002000Y-133477000D03*
X76502000Y-133477000D03*
D14*
G36*
X74663975Y-132452276D02*
G01*
X74689699Y-132456092D01*
X74714925Y-132462411D01*
X74739411Y-132471172D01*
X74762920Y-132482291D01*
X74785226Y-132495661D01*
X74806114Y-132511152D01*
X74825383Y-132528617D01*
X74842848Y-132547886D01*
X74858339Y-132568774D01*
X74871709Y-132591080D01*
X74882828Y-132614589D01*
X74891589Y-132639075D01*
X74897908Y-132664301D01*
X74901724Y-132690025D01*
X74903000Y-132716000D01*
X74903000Y-134238000D01*
X74901724Y-134263975D01*
X74897908Y-134289699D01*
X74891589Y-134314925D01*
X74882828Y-134339411D01*
X74871709Y-134362920D01*
X74858339Y-134385226D01*
X74842848Y-134406114D01*
X74825383Y-134425383D01*
X74806114Y-134442848D01*
X74785226Y-134458339D01*
X74762920Y-134471709D01*
X74739411Y-134482828D01*
X74714925Y-134491589D01*
X74689699Y-134497908D01*
X74663975Y-134501724D01*
X74638000Y-134503000D01*
X73366000Y-134503000D01*
X73340025Y-134501724D01*
X73314301Y-134497908D01*
X73289075Y-134491589D01*
X73264589Y-134482828D01*
X73241080Y-134471709D01*
X73218774Y-134458339D01*
X73197886Y-134442848D01*
X73178617Y-134425383D01*
X73161152Y-134406114D01*
X73145661Y-134385226D01*
X73132291Y-134362920D01*
X73121172Y-134339411D01*
X73112411Y-134314925D01*
X73106092Y-134289699D01*
X73102276Y-134263975D01*
X73101000Y-134238000D01*
X73101000Y-132716000D01*
X73102276Y-132690025D01*
X73106092Y-132664301D01*
X73112411Y-132639075D01*
X73121172Y-132614589D01*
X73132291Y-132591080D01*
X73145661Y-132568774D01*
X73161152Y-132547886D01*
X73178617Y-132528617D01*
X73197886Y-132511152D01*
X73218774Y-132495661D01*
X73241080Y-132482291D01*
X73264589Y-132471172D01*
X73289075Y-132462411D01*
X73314301Y-132456092D01*
X73340025Y-132452276D01*
X73366000Y-132451000D01*
X74638000Y-132451000D01*
X74663975Y-132452276D01*
G37*
D13*
X133627000Y-78232000D03*
X136127000Y-78232000D03*
X138627000Y-78232000D03*
D14*
G36*
X141788975Y-77207276D02*
G01*
X141814699Y-77211092D01*
X141839925Y-77217411D01*
X141864411Y-77226172D01*
X141887920Y-77237291D01*
X141910226Y-77250661D01*
X141931114Y-77266152D01*
X141950383Y-77283617D01*
X141967848Y-77302886D01*
X141983339Y-77323774D01*
X141996709Y-77346080D01*
X142007828Y-77369589D01*
X142016589Y-77394075D01*
X142022908Y-77419301D01*
X142026724Y-77445025D01*
X142028000Y-77471000D01*
X142028000Y-78993000D01*
X142026724Y-79018975D01*
X142022908Y-79044699D01*
X142016589Y-79069925D01*
X142007828Y-79094411D01*
X141996709Y-79117920D01*
X141983339Y-79140226D01*
X141967848Y-79161114D01*
X141950383Y-79180383D01*
X141931114Y-79197848D01*
X141910226Y-79213339D01*
X141887920Y-79226709D01*
X141864411Y-79237828D01*
X141839925Y-79246589D01*
X141814699Y-79252908D01*
X141788975Y-79256724D01*
X141763000Y-79258000D01*
X140491000Y-79258000D01*
X140465025Y-79256724D01*
X140439301Y-79252908D01*
X140414075Y-79246589D01*
X140389589Y-79237828D01*
X140366080Y-79226709D01*
X140343774Y-79213339D01*
X140322886Y-79197848D01*
X140303617Y-79180383D01*
X140286152Y-79161114D01*
X140270661Y-79140226D01*
X140257291Y-79117920D01*
X140246172Y-79094411D01*
X140237411Y-79069925D01*
X140231092Y-79044699D01*
X140227276Y-79018975D01*
X140226000Y-78993000D01*
X140226000Y-77471000D01*
X140227276Y-77445025D01*
X140231092Y-77419301D01*
X140237411Y-77394075D01*
X140246172Y-77369589D01*
X140257291Y-77346080D01*
X140270661Y-77323774D01*
X140286152Y-77302886D01*
X140303617Y-77283617D01*
X140322886Y-77266152D01*
X140343774Y-77250661D01*
X140366080Y-77237291D01*
X140389589Y-77226172D01*
X140414075Y-77217411D01*
X140439301Y-77211092D01*
X140465025Y-77207276D01*
X140491000Y-77206000D01*
X141763000Y-77206000D01*
X141788975Y-77207276D01*
G37*
D13*
X133627000Y-85217000D03*
X136127000Y-85217000D03*
X138627000Y-85217000D03*
D14*
G36*
X141788975Y-84192276D02*
G01*
X141814699Y-84196092D01*
X141839925Y-84202411D01*
X141864411Y-84211172D01*
X141887920Y-84222291D01*
X141910226Y-84235661D01*
X141931114Y-84251152D01*
X141950383Y-84268617D01*
X141967848Y-84287886D01*
X141983339Y-84308774D01*
X141996709Y-84331080D01*
X142007828Y-84354589D01*
X142016589Y-84379075D01*
X142022908Y-84404301D01*
X142026724Y-84430025D01*
X142028000Y-84456000D01*
X142028000Y-85978000D01*
X142026724Y-86003975D01*
X142022908Y-86029699D01*
X142016589Y-86054925D01*
X142007828Y-86079411D01*
X141996709Y-86102920D01*
X141983339Y-86125226D01*
X141967848Y-86146114D01*
X141950383Y-86165383D01*
X141931114Y-86182848D01*
X141910226Y-86198339D01*
X141887920Y-86211709D01*
X141864411Y-86222828D01*
X141839925Y-86231589D01*
X141814699Y-86237908D01*
X141788975Y-86241724D01*
X141763000Y-86243000D01*
X140491000Y-86243000D01*
X140465025Y-86241724D01*
X140439301Y-86237908D01*
X140414075Y-86231589D01*
X140389589Y-86222828D01*
X140366080Y-86211709D01*
X140343774Y-86198339D01*
X140322886Y-86182848D01*
X140303617Y-86165383D01*
X140286152Y-86146114D01*
X140270661Y-86125226D01*
X140257291Y-86102920D01*
X140246172Y-86079411D01*
X140237411Y-86054925D01*
X140231092Y-86029699D01*
X140227276Y-86003975D01*
X140226000Y-85978000D01*
X140226000Y-84456000D01*
X140227276Y-84430025D01*
X140231092Y-84404301D01*
X140237411Y-84379075D01*
X140246172Y-84354589D01*
X140257291Y-84331080D01*
X140270661Y-84308774D01*
X140286152Y-84287886D01*
X140303617Y-84268617D01*
X140322886Y-84251152D01*
X140343774Y-84235661D01*
X140366080Y-84222291D01*
X140389589Y-84211172D01*
X140414075Y-84202411D01*
X140439301Y-84196092D01*
X140465025Y-84192276D01*
X140491000Y-84191000D01*
X141763000Y-84191000D01*
X141788975Y-84192276D01*
G37*
D13*
X133627000Y-92202000D03*
X136127000Y-92202000D03*
X138627000Y-92202000D03*
D14*
G36*
X141788975Y-91177276D02*
G01*
X141814699Y-91181092D01*
X141839925Y-91187411D01*
X141864411Y-91196172D01*
X141887920Y-91207291D01*
X141910226Y-91220661D01*
X141931114Y-91236152D01*
X141950383Y-91253617D01*
X141967848Y-91272886D01*
X141983339Y-91293774D01*
X141996709Y-91316080D01*
X142007828Y-91339589D01*
X142016589Y-91364075D01*
X142022908Y-91389301D01*
X142026724Y-91415025D01*
X142028000Y-91441000D01*
X142028000Y-92963000D01*
X142026724Y-92988975D01*
X142022908Y-93014699D01*
X142016589Y-93039925D01*
X142007828Y-93064411D01*
X141996709Y-93087920D01*
X141983339Y-93110226D01*
X141967848Y-93131114D01*
X141950383Y-93150383D01*
X141931114Y-93167848D01*
X141910226Y-93183339D01*
X141887920Y-93196709D01*
X141864411Y-93207828D01*
X141839925Y-93216589D01*
X141814699Y-93222908D01*
X141788975Y-93226724D01*
X141763000Y-93228000D01*
X140491000Y-93228000D01*
X140465025Y-93226724D01*
X140439301Y-93222908D01*
X140414075Y-93216589D01*
X140389589Y-93207828D01*
X140366080Y-93196709D01*
X140343774Y-93183339D01*
X140322886Y-93167848D01*
X140303617Y-93150383D01*
X140286152Y-93131114D01*
X140270661Y-93110226D01*
X140257291Y-93087920D01*
X140246172Y-93064411D01*
X140237411Y-93039925D01*
X140231092Y-93014699D01*
X140227276Y-92988975D01*
X140226000Y-92963000D01*
X140226000Y-91441000D01*
X140227276Y-91415025D01*
X140231092Y-91389301D01*
X140237411Y-91364075D01*
X140246172Y-91339589D01*
X140257291Y-91316080D01*
X140270661Y-91293774D01*
X140286152Y-91272886D01*
X140303617Y-91253617D01*
X140322886Y-91236152D01*
X140343774Y-91220661D01*
X140366080Y-91207291D01*
X140389589Y-91196172D01*
X140414075Y-91187411D01*
X140439301Y-91181092D01*
X140465025Y-91177276D01*
X140491000Y-91176000D01*
X141763000Y-91176000D01*
X141788975Y-91177276D01*
G37*
D13*
X133587000Y-99187000D03*
X136087000Y-99187000D03*
X138587000Y-99187000D03*
D14*
G36*
X141748975Y-98162276D02*
G01*
X141774699Y-98166092D01*
X141799925Y-98172411D01*
X141824411Y-98181172D01*
X141847920Y-98192291D01*
X141870226Y-98205661D01*
X141891114Y-98221152D01*
X141910383Y-98238617D01*
X141927848Y-98257886D01*
X141943339Y-98278774D01*
X141956709Y-98301080D01*
X141967828Y-98324589D01*
X141976589Y-98349075D01*
X141982908Y-98374301D01*
X141986724Y-98400025D01*
X141988000Y-98426000D01*
X141988000Y-99948000D01*
X141986724Y-99973975D01*
X141982908Y-99999699D01*
X141976589Y-100024925D01*
X141967828Y-100049411D01*
X141956709Y-100072920D01*
X141943339Y-100095226D01*
X141927848Y-100116114D01*
X141910383Y-100135383D01*
X141891114Y-100152848D01*
X141870226Y-100168339D01*
X141847920Y-100181709D01*
X141824411Y-100192828D01*
X141799925Y-100201589D01*
X141774699Y-100207908D01*
X141748975Y-100211724D01*
X141723000Y-100213000D01*
X140451000Y-100213000D01*
X140425025Y-100211724D01*
X140399301Y-100207908D01*
X140374075Y-100201589D01*
X140349589Y-100192828D01*
X140326080Y-100181709D01*
X140303774Y-100168339D01*
X140282886Y-100152848D01*
X140263617Y-100135383D01*
X140246152Y-100116114D01*
X140230661Y-100095226D01*
X140217291Y-100072920D01*
X140206172Y-100049411D01*
X140197411Y-100024925D01*
X140191092Y-99999699D01*
X140187276Y-99973975D01*
X140186000Y-99948000D01*
X140186000Y-98426000D01*
X140187276Y-98400025D01*
X140191092Y-98374301D01*
X140197411Y-98349075D01*
X140206172Y-98324589D01*
X140217291Y-98301080D01*
X140230661Y-98278774D01*
X140246152Y-98257886D01*
X140263617Y-98238617D01*
X140282886Y-98221152D01*
X140303774Y-98205661D01*
X140326080Y-98192291D01*
X140349589Y-98181172D01*
X140374075Y-98172411D01*
X140399301Y-98166092D01*
X140425025Y-98162276D01*
X140451000Y-98161000D01*
X141723000Y-98161000D01*
X141748975Y-98162276D01*
G37*
D13*
X133587000Y-106172000D03*
X136087000Y-106172000D03*
X138587000Y-106172000D03*
D14*
G36*
X141748975Y-105147276D02*
G01*
X141774699Y-105151092D01*
X141799925Y-105157411D01*
X141824411Y-105166172D01*
X141847920Y-105177291D01*
X141870226Y-105190661D01*
X141891114Y-105206152D01*
X141910383Y-105223617D01*
X141927848Y-105242886D01*
X141943339Y-105263774D01*
X141956709Y-105286080D01*
X141967828Y-105309589D01*
X141976589Y-105334075D01*
X141982908Y-105359301D01*
X141986724Y-105385025D01*
X141988000Y-105411000D01*
X141988000Y-106933000D01*
X141986724Y-106958975D01*
X141982908Y-106984699D01*
X141976589Y-107009925D01*
X141967828Y-107034411D01*
X141956709Y-107057920D01*
X141943339Y-107080226D01*
X141927848Y-107101114D01*
X141910383Y-107120383D01*
X141891114Y-107137848D01*
X141870226Y-107153339D01*
X141847920Y-107166709D01*
X141824411Y-107177828D01*
X141799925Y-107186589D01*
X141774699Y-107192908D01*
X141748975Y-107196724D01*
X141723000Y-107198000D01*
X140451000Y-107198000D01*
X140425025Y-107196724D01*
X140399301Y-107192908D01*
X140374075Y-107186589D01*
X140349589Y-107177828D01*
X140326080Y-107166709D01*
X140303774Y-107153339D01*
X140282886Y-107137848D01*
X140263617Y-107120383D01*
X140246152Y-107101114D01*
X140230661Y-107080226D01*
X140217291Y-107057920D01*
X140206172Y-107034411D01*
X140197411Y-107009925D01*
X140191092Y-106984699D01*
X140187276Y-106958975D01*
X140186000Y-106933000D01*
X140186000Y-105411000D01*
X140187276Y-105385025D01*
X140191092Y-105359301D01*
X140197411Y-105334075D01*
X140206172Y-105309589D01*
X140217291Y-105286080D01*
X140230661Y-105263774D01*
X140246152Y-105242886D01*
X140263617Y-105223617D01*
X140282886Y-105206152D01*
X140303774Y-105190661D01*
X140326080Y-105177291D01*
X140349589Y-105166172D01*
X140374075Y-105157411D01*
X140399301Y-105151092D01*
X140425025Y-105147276D01*
X140451000Y-105146000D01*
X141723000Y-105146000D01*
X141748975Y-105147276D01*
G37*
D13*
X133547000Y-113157000D03*
X136047000Y-113157000D03*
X138547000Y-113157000D03*
D14*
G36*
X141708975Y-112132276D02*
G01*
X141734699Y-112136092D01*
X141759925Y-112142411D01*
X141784411Y-112151172D01*
X141807920Y-112162291D01*
X141830226Y-112175661D01*
X141851114Y-112191152D01*
X141870383Y-112208617D01*
X141887848Y-112227886D01*
X141903339Y-112248774D01*
X141916709Y-112271080D01*
X141927828Y-112294589D01*
X141936589Y-112319075D01*
X141942908Y-112344301D01*
X141946724Y-112370025D01*
X141948000Y-112396000D01*
X141948000Y-113918000D01*
X141946724Y-113943975D01*
X141942908Y-113969699D01*
X141936589Y-113994925D01*
X141927828Y-114019411D01*
X141916709Y-114042920D01*
X141903339Y-114065226D01*
X141887848Y-114086114D01*
X141870383Y-114105383D01*
X141851114Y-114122848D01*
X141830226Y-114138339D01*
X141807920Y-114151709D01*
X141784411Y-114162828D01*
X141759925Y-114171589D01*
X141734699Y-114177908D01*
X141708975Y-114181724D01*
X141683000Y-114183000D01*
X140411000Y-114183000D01*
X140385025Y-114181724D01*
X140359301Y-114177908D01*
X140334075Y-114171589D01*
X140309589Y-114162828D01*
X140286080Y-114151709D01*
X140263774Y-114138339D01*
X140242886Y-114122848D01*
X140223617Y-114105383D01*
X140206152Y-114086114D01*
X140190661Y-114065226D01*
X140177291Y-114042920D01*
X140166172Y-114019411D01*
X140157411Y-113994925D01*
X140151092Y-113969699D01*
X140147276Y-113943975D01*
X140146000Y-113918000D01*
X140146000Y-112396000D01*
X140147276Y-112370025D01*
X140151092Y-112344301D01*
X140157411Y-112319075D01*
X140166172Y-112294589D01*
X140177291Y-112271080D01*
X140190661Y-112248774D01*
X140206152Y-112227886D01*
X140223617Y-112208617D01*
X140242886Y-112191152D01*
X140263774Y-112175661D01*
X140286080Y-112162291D01*
X140309589Y-112151172D01*
X140334075Y-112142411D01*
X140359301Y-112136092D01*
X140385025Y-112132276D01*
X140411000Y-112131000D01*
X141683000Y-112131000D01*
X141708975Y-112132276D01*
G37*
D13*
X133587000Y-120142000D03*
X136087000Y-120142000D03*
X138587000Y-120142000D03*
D14*
G36*
X141748975Y-119117276D02*
G01*
X141774699Y-119121092D01*
X141799925Y-119127411D01*
X141824411Y-119136172D01*
X141847920Y-119147291D01*
X141870226Y-119160661D01*
X141891114Y-119176152D01*
X141910383Y-119193617D01*
X141927848Y-119212886D01*
X141943339Y-119233774D01*
X141956709Y-119256080D01*
X141967828Y-119279589D01*
X141976589Y-119304075D01*
X141982908Y-119329301D01*
X141986724Y-119355025D01*
X141988000Y-119381000D01*
X141988000Y-120903000D01*
X141986724Y-120928975D01*
X141982908Y-120954699D01*
X141976589Y-120979925D01*
X141967828Y-121004411D01*
X141956709Y-121027920D01*
X141943339Y-121050226D01*
X141927848Y-121071114D01*
X141910383Y-121090383D01*
X141891114Y-121107848D01*
X141870226Y-121123339D01*
X141847920Y-121136709D01*
X141824411Y-121147828D01*
X141799925Y-121156589D01*
X141774699Y-121162908D01*
X141748975Y-121166724D01*
X141723000Y-121168000D01*
X140451000Y-121168000D01*
X140425025Y-121166724D01*
X140399301Y-121162908D01*
X140374075Y-121156589D01*
X140349589Y-121147828D01*
X140326080Y-121136709D01*
X140303774Y-121123339D01*
X140282886Y-121107848D01*
X140263617Y-121090383D01*
X140246152Y-121071114D01*
X140230661Y-121050226D01*
X140217291Y-121027920D01*
X140206172Y-121004411D01*
X140197411Y-120979925D01*
X140191092Y-120954699D01*
X140187276Y-120928975D01*
X140186000Y-120903000D01*
X140186000Y-119381000D01*
X140187276Y-119355025D01*
X140191092Y-119329301D01*
X140197411Y-119304075D01*
X140206172Y-119279589D01*
X140217291Y-119256080D01*
X140230661Y-119233774D01*
X140246152Y-119212886D01*
X140263617Y-119193617D01*
X140282886Y-119176152D01*
X140303774Y-119160661D01*
X140326080Y-119147291D01*
X140349589Y-119136172D01*
X140374075Y-119127411D01*
X140399301Y-119121092D01*
X140425025Y-119117276D01*
X140451000Y-119116000D01*
X141723000Y-119116000D01*
X141748975Y-119117276D01*
G37*
D13*
X133547000Y-127127000D03*
X136047000Y-127127000D03*
X138547000Y-127127000D03*
D14*
G36*
X141708975Y-126102276D02*
G01*
X141734699Y-126106092D01*
X141759925Y-126112411D01*
X141784411Y-126121172D01*
X141807920Y-126132291D01*
X141830226Y-126145661D01*
X141851114Y-126161152D01*
X141870383Y-126178617D01*
X141887848Y-126197886D01*
X141903339Y-126218774D01*
X141916709Y-126241080D01*
X141927828Y-126264589D01*
X141936589Y-126289075D01*
X141942908Y-126314301D01*
X141946724Y-126340025D01*
X141948000Y-126366000D01*
X141948000Y-127888000D01*
X141946724Y-127913975D01*
X141942908Y-127939699D01*
X141936589Y-127964925D01*
X141927828Y-127989411D01*
X141916709Y-128012920D01*
X141903339Y-128035226D01*
X141887848Y-128056114D01*
X141870383Y-128075383D01*
X141851114Y-128092848D01*
X141830226Y-128108339D01*
X141807920Y-128121709D01*
X141784411Y-128132828D01*
X141759925Y-128141589D01*
X141734699Y-128147908D01*
X141708975Y-128151724D01*
X141683000Y-128153000D01*
X140411000Y-128153000D01*
X140385025Y-128151724D01*
X140359301Y-128147908D01*
X140334075Y-128141589D01*
X140309589Y-128132828D01*
X140286080Y-128121709D01*
X140263774Y-128108339D01*
X140242886Y-128092848D01*
X140223617Y-128075383D01*
X140206152Y-128056114D01*
X140190661Y-128035226D01*
X140177291Y-128012920D01*
X140166172Y-127989411D01*
X140157411Y-127964925D01*
X140151092Y-127939699D01*
X140147276Y-127913975D01*
X140146000Y-127888000D01*
X140146000Y-126366000D01*
X140147276Y-126340025D01*
X140151092Y-126314301D01*
X140157411Y-126289075D01*
X140166172Y-126264589D01*
X140177291Y-126241080D01*
X140190661Y-126218774D01*
X140206152Y-126197886D01*
X140223617Y-126178617D01*
X140242886Y-126161152D01*
X140263774Y-126145661D01*
X140286080Y-126132291D01*
X140309589Y-126121172D01*
X140334075Y-126112411D01*
X140359301Y-126106092D01*
X140385025Y-126102276D01*
X140411000Y-126101000D01*
X141683000Y-126101000D01*
X141708975Y-126102276D01*
G37*
D13*
X133587000Y-134112000D03*
X136087000Y-134112000D03*
X138587000Y-134112000D03*
D14*
G36*
X141748975Y-133087276D02*
G01*
X141774699Y-133091092D01*
X141799925Y-133097411D01*
X141824411Y-133106172D01*
X141847920Y-133117291D01*
X141870226Y-133130661D01*
X141891114Y-133146152D01*
X141910383Y-133163617D01*
X141927848Y-133182886D01*
X141943339Y-133203774D01*
X141956709Y-133226080D01*
X141967828Y-133249589D01*
X141976589Y-133274075D01*
X141982908Y-133299301D01*
X141986724Y-133325025D01*
X141988000Y-133351000D01*
X141988000Y-134873000D01*
X141986724Y-134898975D01*
X141982908Y-134924699D01*
X141976589Y-134949925D01*
X141967828Y-134974411D01*
X141956709Y-134997920D01*
X141943339Y-135020226D01*
X141927848Y-135041114D01*
X141910383Y-135060383D01*
X141891114Y-135077848D01*
X141870226Y-135093339D01*
X141847920Y-135106709D01*
X141824411Y-135117828D01*
X141799925Y-135126589D01*
X141774699Y-135132908D01*
X141748975Y-135136724D01*
X141723000Y-135138000D01*
X140451000Y-135138000D01*
X140425025Y-135136724D01*
X140399301Y-135132908D01*
X140374075Y-135126589D01*
X140349589Y-135117828D01*
X140326080Y-135106709D01*
X140303774Y-135093339D01*
X140282886Y-135077848D01*
X140263617Y-135060383D01*
X140246152Y-135041114D01*
X140230661Y-135020226D01*
X140217291Y-134997920D01*
X140206172Y-134974411D01*
X140197411Y-134949925D01*
X140191092Y-134924699D01*
X140187276Y-134898975D01*
X140186000Y-134873000D01*
X140186000Y-133351000D01*
X140187276Y-133325025D01*
X140191092Y-133299301D01*
X140197411Y-133274075D01*
X140206172Y-133249589D01*
X140217291Y-133226080D01*
X140230661Y-133203774D01*
X140246152Y-133182886D01*
X140263617Y-133163617D01*
X140282886Y-133146152D01*
X140303774Y-133130661D01*
X140326080Y-133117291D01*
X140349589Y-133106172D01*
X140374075Y-133097411D01*
X140399301Y-133091092D01*
X140425025Y-133087276D01*
X140451000Y-133086000D01*
X141723000Y-133086000D01*
X141748975Y-133087276D01*
G37*
D15*
X69500000Y-140500000D03*
X145500000Y-140500000D03*
X145500000Y-64500000D03*
X69500000Y-64500000D03*
D16*
X109855000Y-133604000D03*
D17*
X104775000Y-133604000D03*
M02*
