M48
; DRILL file {KiCad (5.1.5)-3} date 3/12/2020 5:45:30 PM
; FORMAT={-:-/ absolute / metric / decimal}
; #@! TF.CreationDate,2020-03-12T17:45:30-07:00
; #@! TF.GenerationSoftware,Kicad,Pcbnew,(5.1.5)-3
; #@! TF.FileFunction,Plated,1,2,PTH
FMAT,2
METRIC
T1C0.400
T2C0.900
T3C1.015
T4C1.300
%
G90
G05
T1
X72.9Y-57.6
X72.9Y-61.3
X72.9Y-65.0
X72.9Y-68.7
X72.9Y-72.4
X72.9Y-76.1
X72.9Y-79.8
X72.9Y-83.5
X72.9Y-87.2
X72.9Y-90.9
X73.0Y-104.9
X73.0Y-108.6
X73.0Y-112.3
X73.0Y-116.0
X73.0Y-119.7
X73.0Y-123.4
X73.0Y-127.1
X73.0Y-130.8
X73.0Y-134.5
X73.0Y-138.2
X75.8Y-60.3
X75.8Y-64.0
X75.8Y-67.8
X75.8Y-71.5
X75.8Y-75.2
X75.8Y-78.9
X75.8Y-82.6
X75.8Y-86.3
X75.8Y-90.0
X75.8Y-93.7
X75.9Y-107.7
X75.9Y-111.4
X75.9Y-115.2
X75.9Y-118.9
X75.9Y-122.6
X75.9Y-126.3
X75.9Y-130.0
X75.9Y-133.7
X75.9Y-137.4
X75.9Y-141.1
X80.6Y-59.8
X80.6Y-63.5
X80.6Y-67.3
X80.6Y-71.0
X80.6Y-74.7
X80.6Y-78.4
X80.6Y-82.1
X80.6Y-85.8
X80.6Y-89.5
X80.6Y-93.2
X80.6Y-95.4
X80.6Y-103.8
X80.8Y-107.3
X80.8Y-111.0
X80.8Y-114.8
X80.8Y-118.5
X80.8Y-122.2
X80.8Y-125.9
X80.8Y-129.6
X80.8Y-133.3
X80.8Y-137.0
X80.8Y-140.7
X84.1Y-59.9
X84.2Y-63.6
X84.2Y-67.4
X84.2Y-71.2
X84.2Y-75.0
X84.2Y-78.7
X84.2Y-82.5
X84.2Y-86.2
X84.2Y-89.9
X84.2Y-93.6
X84.2Y-107.5
X84.2Y-111.2
X84.2Y-115.0
X84.2Y-118.7
X84.2Y-122.4
X84.2Y-126.1
X84.2Y-129.8
X84.2Y-133.5
X84.2Y-137.2
X84.2Y-140.9
X108.3Y-85.2
T2
X95.33Y-55.786
X95.33Y-58.326
X95.33Y-60.866
X95.33Y-63.406
X95.33Y-65.946
X95.33Y-68.486
X95.33Y-71.026
X95.33Y-73.566
X95.33Y-76.106
X95.33Y-78.646
X95.33Y-81.186
X95.33Y-83.726
X95.33Y-86.266
X95.33Y-88.806
X95.33Y-91.346
X110.57Y-55.786
X110.57Y-58.326
X110.57Y-60.866
X110.57Y-63.406
X110.57Y-65.946
X110.57Y-68.486
X110.57Y-71.026
X110.57Y-73.566
X110.57Y-76.106
X110.57Y-78.646
X110.57Y-81.186
X110.57Y-83.726
X110.57Y-86.266
X110.57Y-88.806
X110.57Y-91.346
X116.92Y-91.346
T3
X54.92Y-60.0
X54.92Y-62.54
X54.92Y-65.08
X54.92Y-67.62
X54.92Y-70.16
X54.92Y-72.7
X54.92Y-75.24
X54.92Y-77.78
X54.92Y-80.32
X54.92Y-82.86
X54.92Y-85.4
X54.92Y-87.94
X54.92Y-90.48
X54.92Y-93.02
X54.92Y-95.56
X54.92Y-98.1
X54.92Y-100.64
X54.92Y-103.18
X54.92Y-105.72
X54.92Y-108.26
X54.92Y-110.8
X54.92Y-113.34
X54.92Y-115.88
X54.92Y-118.42
X54.92Y-120.96
X54.92Y-123.5
X54.92Y-126.04
X54.92Y-128.58
X54.92Y-131.12
X54.92Y-133.66
X54.92Y-136.2
X54.92Y-138.74
X57.46Y-60.0
X57.46Y-62.54
X57.46Y-65.08
X57.46Y-67.62
X57.46Y-70.16
X57.46Y-72.7
X57.46Y-75.24
X57.46Y-77.78
X57.46Y-80.32
X57.46Y-82.86
X57.46Y-85.4
X57.46Y-87.94
X57.46Y-90.48
X57.46Y-93.02
X57.46Y-95.56
X57.46Y-98.1
X57.46Y-100.64
X57.46Y-103.18
X57.46Y-105.72
X57.46Y-108.26
X57.46Y-110.8
X57.46Y-113.34
X57.46Y-115.88
X57.46Y-118.42
X57.46Y-120.96
X57.46Y-123.5
X57.46Y-126.04
X57.46Y-128.58
X57.46Y-131.12
X57.46Y-133.66
X57.46Y-136.2
X57.46Y-138.74
X60.0Y-60.0
X60.0Y-62.54
X60.0Y-65.08
X60.0Y-67.62
X60.0Y-70.16
X60.0Y-72.7
X60.0Y-75.24
X60.0Y-77.78
X60.0Y-80.32
X60.0Y-82.86
X60.0Y-85.4
X60.0Y-87.94
X60.0Y-90.48
X60.0Y-93.02
X60.0Y-95.56
X60.0Y-98.1
X60.0Y-100.64
X60.0Y-103.18
X60.0Y-105.72
X60.0Y-108.26
X60.0Y-110.8
X60.0Y-113.34
X60.0Y-115.88
X60.0Y-118.42
X60.0Y-120.96
X60.0Y-123.5
X60.0Y-126.04
X60.0Y-128.58
X60.0Y-131.12
X60.0Y-133.66
X60.0Y-136.2
X60.0Y-138.74
T4
X100.0Y-140.0
X105.08Y-140.0
T0
M30
