G04 #@! TF.GenerationSoftware,KiCad,Pcbnew,(5.1.5)-3*
G04 #@! TF.CreationDate,2020-02-11T12:56:00-08:00*
G04 #@! TF.ProjectId,siplace_feeder_controller_adapter,7369706c-6163-4655-9f66-65656465725f,rev?*
G04 #@! TF.SameCoordinates,Original*
G04 #@! TF.FileFunction,Soldermask,Top*
G04 #@! TF.FilePolarity,Negative*
%FSLAX46Y46*%
G04 Gerber Fmt 4.6, Leading zero omitted, Abs format (unit mm)*
G04 Created by KiCad (PCBNEW (5.1.5)-3) date 2020-02-11 12:56:00*
%MOMM*%
%LPD*%
G04 APERTURE LIST*
%ADD10C,0.100000*%
G04 APERTURE END LIST*
D10*
G36*
X120375256Y-143391298D02*
G01*
X120481579Y-143412447D01*
X120782042Y-143536903D01*
X121052451Y-143717585D01*
X121282415Y-143947549D01*
X121282416Y-143947551D01*
X121463098Y-144217960D01*
X121587553Y-144518422D01*
X121651000Y-144837389D01*
X121651000Y-145162611D01*
X121623319Y-145301772D01*
X121587553Y-145481579D01*
X121513057Y-145661429D01*
X121467907Y-145770431D01*
X121463097Y-145782042D01*
X121282415Y-146052451D01*
X121052451Y-146282415D01*
X120782042Y-146463097D01*
X120481579Y-146587553D01*
X120375256Y-146608702D01*
X120162611Y-146651000D01*
X119837389Y-146651000D01*
X119624744Y-146608702D01*
X119518421Y-146587553D01*
X119217958Y-146463097D01*
X118947549Y-146282415D01*
X118717585Y-146052451D01*
X118536903Y-145782042D01*
X118532094Y-145770431D01*
X118486943Y-145661429D01*
X118412447Y-145481579D01*
X118376681Y-145301772D01*
X118349000Y-145162611D01*
X118349000Y-144837389D01*
X118412447Y-144518422D01*
X118536902Y-144217960D01*
X118717584Y-143947551D01*
X118717585Y-143947549D01*
X118947549Y-143717585D01*
X119217958Y-143536903D01*
X119518421Y-143412447D01*
X119624744Y-143391298D01*
X119837389Y-143349000D01*
X120162611Y-143349000D01*
X120375256Y-143391298D01*
G37*
G36*
X57995540Y-142952523D02*
G01*
X58181783Y-142989569D01*
X58444938Y-143098571D01*
X58681772Y-143256818D01*
X58883182Y-143458228D01*
X59041429Y-143695062D01*
X59150431Y-143958217D01*
X59206000Y-144237581D01*
X59206000Y-144522419D01*
X59150431Y-144801783D01*
X59041429Y-145064938D01*
X58883182Y-145301772D01*
X58681772Y-145503182D01*
X58444938Y-145661429D01*
X58181783Y-145770431D01*
X57995540Y-145807477D01*
X57902420Y-145826000D01*
X57617580Y-145826000D01*
X57524460Y-145807477D01*
X57338217Y-145770431D01*
X57075062Y-145661429D01*
X56838228Y-145503182D01*
X56636818Y-145301772D01*
X56478571Y-145064938D01*
X56369569Y-144801783D01*
X56314000Y-144522419D01*
X56314000Y-144237581D01*
X56369569Y-143958217D01*
X56478571Y-143695062D01*
X56636818Y-143458228D01*
X56838228Y-143256818D01*
X57075062Y-143098571D01*
X57338217Y-142989569D01*
X57524460Y-142952523D01*
X57617580Y-142934000D01*
X57902420Y-142934000D01*
X57995540Y-142952523D01*
G37*
G36*
X105474072Y-138700918D02*
G01*
X105719939Y-138802759D01*
X105831328Y-138877187D01*
X105941211Y-138950609D01*
X106129391Y-139138789D01*
X106277242Y-139360063D01*
X106312553Y-139445312D01*
X106379082Y-139605928D01*
X106431000Y-139866938D01*
X106431000Y-140133062D01*
X106379082Y-140394072D01*
X106277241Y-140639939D01*
X106129390Y-140861212D01*
X105941212Y-141049390D01*
X105719939Y-141197241D01*
X105719938Y-141197242D01*
X105719937Y-141197242D01*
X105474072Y-141299082D01*
X105213063Y-141351000D01*
X104946937Y-141351000D01*
X104685928Y-141299082D01*
X104440063Y-141197242D01*
X104440062Y-141197242D01*
X104440061Y-141197241D01*
X104218788Y-141049390D01*
X104030610Y-140861212D01*
X103882759Y-140639939D01*
X103780918Y-140394072D01*
X103729000Y-140133062D01*
X103729000Y-139866938D01*
X103780918Y-139605928D01*
X103847447Y-139445312D01*
X103882758Y-139360063D01*
X104030609Y-139138789D01*
X104218789Y-138950609D01*
X104328672Y-138877187D01*
X104440061Y-138802759D01*
X104685928Y-138700918D01*
X104946937Y-138649000D01*
X105213063Y-138649000D01*
X105474072Y-138700918D01*
G37*
G36*
X101351000Y-141351000D02*
G01*
X98649000Y-141351000D01*
X98649000Y-138649000D01*
X101351000Y-138649000D01*
X101351000Y-141351000D01*
G37*
G36*
X55086717Y-138025292D02*
G01*
X55133954Y-138034688D01*
X55173051Y-138050883D01*
X55267442Y-138089980D01*
X55339459Y-138138100D01*
X55387579Y-138170253D01*
X55489747Y-138272421D01*
X55521900Y-138320541D01*
X55570020Y-138392558D01*
X55625312Y-138526047D01*
X55653500Y-138667755D01*
X55653500Y-138812245D01*
X55625312Y-138953953D01*
X55570020Y-139087442D01*
X55521900Y-139159459D01*
X55489747Y-139207579D01*
X55387579Y-139309747D01*
X55339459Y-139341900D01*
X55267442Y-139390020D01*
X55173051Y-139429117D01*
X55133954Y-139445312D01*
X55086717Y-139454708D01*
X54992245Y-139473500D01*
X54847755Y-139473500D01*
X54753283Y-139454708D01*
X54706046Y-139445312D01*
X54666949Y-139429117D01*
X54572558Y-139390020D01*
X54500541Y-139341900D01*
X54452421Y-139309747D01*
X54350253Y-139207579D01*
X54318100Y-139159459D01*
X54269980Y-139087442D01*
X54214688Y-138953953D01*
X54186500Y-138812245D01*
X54186500Y-138667755D01*
X54214688Y-138526047D01*
X54269980Y-138392558D01*
X54318100Y-138320541D01*
X54350253Y-138272421D01*
X54452421Y-138170253D01*
X54500541Y-138138100D01*
X54572558Y-138089980D01*
X54666949Y-138050883D01*
X54706046Y-138034688D01*
X54753283Y-138025292D01*
X54847755Y-138006500D01*
X54992245Y-138006500D01*
X55086717Y-138025292D01*
G37*
G36*
X60166717Y-138025292D02*
G01*
X60213954Y-138034688D01*
X60253051Y-138050883D01*
X60347442Y-138089980D01*
X60419459Y-138138100D01*
X60467579Y-138170253D01*
X60569747Y-138272421D01*
X60601900Y-138320541D01*
X60650020Y-138392558D01*
X60705312Y-138526047D01*
X60733500Y-138667755D01*
X60733500Y-138812245D01*
X60705312Y-138953953D01*
X60650020Y-139087442D01*
X60601900Y-139159459D01*
X60569747Y-139207579D01*
X60467579Y-139309747D01*
X60419459Y-139341900D01*
X60347442Y-139390020D01*
X60253051Y-139429117D01*
X60213954Y-139445312D01*
X60166717Y-139454708D01*
X60072245Y-139473500D01*
X59927755Y-139473500D01*
X59833283Y-139454708D01*
X59786046Y-139445312D01*
X59746949Y-139429117D01*
X59652558Y-139390020D01*
X59580541Y-139341900D01*
X59532421Y-139309747D01*
X59430253Y-139207579D01*
X59398100Y-139159459D01*
X59349980Y-139087442D01*
X59294688Y-138953953D01*
X59266500Y-138812245D01*
X59266500Y-138667755D01*
X59294688Y-138526047D01*
X59349980Y-138392558D01*
X59398100Y-138320541D01*
X59430253Y-138272421D01*
X59532421Y-138170253D01*
X59580541Y-138138100D01*
X59652558Y-138089980D01*
X59746949Y-138050883D01*
X59786046Y-138034688D01*
X59833283Y-138025292D01*
X59927755Y-138006500D01*
X60072245Y-138006500D01*
X60166717Y-138025292D01*
G37*
G36*
X57626717Y-138025292D02*
G01*
X57673954Y-138034688D01*
X57713051Y-138050883D01*
X57807442Y-138089980D01*
X57879459Y-138138100D01*
X57927579Y-138170253D01*
X58029747Y-138272421D01*
X58061900Y-138320541D01*
X58110020Y-138392558D01*
X58165312Y-138526047D01*
X58193500Y-138667755D01*
X58193500Y-138812245D01*
X58165312Y-138953953D01*
X58110020Y-139087442D01*
X58061900Y-139159459D01*
X58029747Y-139207579D01*
X57927579Y-139309747D01*
X57879459Y-139341900D01*
X57807442Y-139390020D01*
X57713051Y-139429117D01*
X57673954Y-139445312D01*
X57626717Y-139454708D01*
X57532245Y-139473500D01*
X57387755Y-139473500D01*
X57293283Y-139454708D01*
X57246046Y-139445312D01*
X57206949Y-139429117D01*
X57112558Y-139390020D01*
X57040541Y-139341900D01*
X56992421Y-139309747D01*
X56890253Y-139207579D01*
X56858100Y-139159459D01*
X56809980Y-139087442D01*
X56754688Y-138953953D01*
X56726500Y-138812245D01*
X56726500Y-138667755D01*
X56754688Y-138526047D01*
X56809980Y-138392558D01*
X56858100Y-138320541D01*
X56890253Y-138272421D01*
X56992421Y-138170253D01*
X57040541Y-138138100D01*
X57112558Y-138089980D01*
X57206949Y-138050883D01*
X57246046Y-138034688D01*
X57293283Y-138025292D01*
X57387755Y-138006500D01*
X57532245Y-138006500D01*
X57626717Y-138025292D01*
G37*
G36*
X60166717Y-135485292D02*
G01*
X60213954Y-135494688D01*
X60253051Y-135510883D01*
X60347442Y-135549980D01*
X60419459Y-135598100D01*
X60467579Y-135630253D01*
X60569747Y-135732421D01*
X60601900Y-135780541D01*
X60650020Y-135852558D01*
X60705312Y-135986047D01*
X60733500Y-136127755D01*
X60733500Y-136272245D01*
X60705312Y-136413953D01*
X60650020Y-136547442D01*
X60601900Y-136619459D01*
X60569747Y-136667579D01*
X60467579Y-136769747D01*
X60419459Y-136801900D01*
X60347442Y-136850020D01*
X60253051Y-136889117D01*
X60213954Y-136905312D01*
X60166717Y-136914708D01*
X60072245Y-136933500D01*
X59927755Y-136933500D01*
X59833283Y-136914708D01*
X59786046Y-136905312D01*
X59746949Y-136889117D01*
X59652558Y-136850020D01*
X59580541Y-136801900D01*
X59532421Y-136769747D01*
X59430253Y-136667579D01*
X59398100Y-136619459D01*
X59349980Y-136547442D01*
X59294688Y-136413953D01*
X59266500Y-136272245D01*
X59266500Y-136127755D01*
X59294688Y-135986047D01*
X59349980Y-135852558D01*
X59398100Y-135780541D01*
X59430253Y-135732421D01*
X59532421Y-135630253D01*
X59580541Y-135598100D01*
X59652558Y-135549980D01*
X59746949Y-135510883D01*
X59786046Y-135494688D01*
X59833283Y-135485292D01*
X59927755Y-135466500D01*
X60072245Y-135466500D01*
X60166717Y-135485292D01*
G37*
G36*
X57626717Y-135485292D02*
G01*
X57673954Y-135494688D01*
X57713051Y-135510883D01*
X57807442Y-135549980D01*
X57879459Y-135598100D01*
X57927579Y-135630253D01*
X58029747Y-135732421D01*
X58061900Y-135780541D01*
X58110020Y-135852558D01*
X58165312Y-135986047D01*
X58193500Y-136127755D01*
X58193500Y-136272245D01*
X58165312Y-136413953D01*
X58110020Y-136547442D01*
X58061900Y-136619459D01*
X58029747Y-136667579D01*
X57927579Y-136769747D01*
X57879459Y-136801900D01*
X57807442Y-136850020D01*
X57713051Y-136889117D01*
X57673954Y-136905312D01*
X57626717Y-136914708D01*
X57532245Y-136933500D01*
X57387755Y-136933500D01*
X57293283Y-136914708D01*
X57246046Y-136905312D01*
X57206949Y-136889117D01*
X57112558Y-136850020D01*
X57040541Y-136801900D01*
X56992421Y-136769747D01*
X56890253Y-136667579D01*
X56858100Y-136619459D01*
X56809980Y-136547442D01*
X56754688Y-136413953D01*
X56726500Y-136272245D01*
X56726500Y-136127755D01*
X56754688Y-135986047D01*
X56809980Y-135852558D01*
X56858100Y-135780541D01*
X56890253Y-135732421D01*
X56992421Y-135630253D01*
X57040541Y-135598100D01*
X57112558Y-135549980D01*
X57206949Y-135510883D01*
X57246046Y-135494688D01*
X57293283Y-135485292D01*
X57387755Y-135466500D01*
X57532245Y-135466500D01*
X57626717Y-135485292D01*
G37*
G36*
X55086717Y-135485292D02*
G01*
X55133954Y-135494688D01*
X55173051Y-135510883D01*
X55267442Y-135549980D01*
X55339459Y-135598100D01*
X55387579Y-135630253D01*
X55489747Y-135732421D01*
X55521900Y-135780541D01*
X55570020Y-135852558D01*
X55625312Y-135986047D01*
X55653500Y-136127755D01*
X55653500Y-136272245D01*
X55625312Y-136413953D01*
X55570020Y-136547442D01*
X55521900Y-136619459D01*
X55489747Y-136667579D01*
X55387579Y-136769747D01*
X55339459Y-136801900D01*
X55267442Y-136850020D01*
X55173051Y-136889117D01*
X55133954Y-136905312D01*
X55086717Y-136914708D01*
X54992245Y-136933500D01*
X54847755Y-136933500D01*
X54753283Y-136914708D01*
X54706046Y-136905312D01*
X54666949Y-136889117D01*
X54572558Y-136850020D01*
X54500541Y-136801900D01*
X54452421Y-136769747D01*
X54350253Y-136667579D01*
X54318100Y-136619459D01*
X54269980Y-136547442D01*
X54214688Y-136413953D01*
X54186500Y-136272245D01*
X54186500Y-136127755D01*
X54214688Y-135986047D01*
X54269980Y-135852558D01*
X54318100Y-135780541D01*
X54350253Y-135732421D01*
X54452421Y-135630253D01*
X54500541Y-135598100D01*
X54572558Y-135549980D01*
X54666949Y-135510883D01*
X54706046Y-135494688D01*
X54753283Y-135485292D01*
X54847755Y-135466500D01*
X54992245Y-135466500D01*
X55086717Y-135485292D01*
G37*
G36*
X57626717Y-132945292D02*
G01*
X57673954Y-132954688D01*
X57713051Y-132970883D01*
X57807442Y-133009980D01*
X57879459Y-133058100D01*
X57927579Y-133090253D01*
X58029747Y-133192421D01*
X58061900Y-133240541D01*
X58110020Y-133312558D01*
X58165312Y-133446047D01*
X58193500Y-133587755D01*
X58193500Y-133732245D01*
X58165312Y-133873953D01*
X58110020Y-134007442D01*
X58061900Y-134079459D01*
X58029747Y-134127579D01*
X57927579Y-134229747D01*
X57879459Y-134261900D01*
X57807442Y-134310020D01*
X57713051Y-134349117D01*
X57673954Y-134365312D01*
X57626717Y-134374708D01*
X57532245Y-134393500D01*
X57387755Y-134393500D01*
X57293283Y-134374708D01*
X57246046Y-134365312D01*
X57206949Y-134349117D01*
X57112558Y-134310020D01*
X57040541Y-134261900D01*
X56992421Y-134229747D01*
X56890253Y-134127579D01*
X56858100Y-134079459D01*
X56809980Y-134007442D01*
X56754688Y-133873953D01*
X56726500Y-133732245D01*
X56726500Y-133587755D01*
X56754688Y-133446047D01*
X56809980Y-133312558D01*
X56858100Y-133240541D01*
X56890253Y-133192421D01*
X56992421Y-133090253D01*
X57040541Y-133058100D01*
X57112558Y-133009980D01*
X57206949Y-132970883D01*
X57246046Y-132954688D01*
X57293283Y-132945292D01*
X57387755Y-132926500D01*
X57532245Y-132926500D01*
X57626717Y-132945292D01*
G37*
G36*
X55086717Y-132945292D02*
G01*
X55133954Y-132954688D01*
X55173051Y-132970883D01*
X55267442Y-133009980D01*
X55339459Y-133058100D01*
X55387579Y-133090253D01*
X55489747Y-133192421D01*
X55521900Y-133240541D01*
X55570020Y-133312558D01*
X55625312Y-133446047D01*
X55653500Y-133587755D01*
X55653500Y-133732245D01*
X55625312Y-133873953D01*
X55570020Y-134007442D01*
X55521900Y-134079459D01*
X55489747Y-134127579D01*
X55387579Y-134229747D01*
X55339459Y-134261900D01*
X55267442Y-134310020D01*
X55173051Y-134349117D01*
X55133954Y-134365312D01*
X55086717Y-134374708D01*
X54992245Y-134393500D01*
X54847755Y-134393500D01*
X54753283Y-134374708D01*
X54706046Y-134365312D01*
X54666949Y-134349117D01*
X54572558Y-134310020D01*
X54500541Y-134261900D01*
X54452421Y-134229747D01*
X54350253Y-134127579D01*
X54318100Y-134079459D01*
X54269980Y-134007442D01*
X54214688Y-133873953D01*
X54186500Y-133732245D01*
X54186500Y-133587755D01*
X54214688Y-133446047D01*
X54269980Y-133312558D01*
X54318100Y-133240541D01*
X54350253Y-133192421D01*
X54452421Y-133090253D01*
X54500541Y-133058100D01*
X54572558Y-133009980D01*
X54666949Y-132970883D01*
X54706046Y-132954688D01*
X54753283Y-132945292D01*
X54847755Y-132926500D01*
X54992245Y-132926500D01*
X55086717Y-132945292D01*
G37*
G36*
X60166717Y-132945292D02*
G01*
X60213954Y-132954688D01*
X60253051Y-132970883D01*
X60347442Y-133009980D01*
X60419459Y-133058100D01*
X60467579Y-133090253D01*
X60569747Y-133192421D01*
X60601900Y-133240541D01*
X60650020Y-133312558D01*
X60705312Y-133446047D01*
X60733500Y-133587755D01*
X60733500Y-133732245D01*
X60705312Y-133873953D01*
X60650020Y-134007442D01*
X60601900Y-134079459D01*
X60569747Y-134127579D01*
X60467579Y-134229747D01*
X60419459Y-134261900D01*
X60347442Y-134310020D01*
X60253051Y-134349117D01*
X60213954Y-134365312D01*
X60166717Y-134374708D01*
X60072245Y-134393500D01*
X59927755Y-134393500D01*
X59833283Y-134374708D01*
X59786046Y-134365312D01*
X59746949Y-134349117D01*
X59652558Y-134310020D01*
X59580541Y-134261900D01*
X59532421Y-134229747D01*
X59430253Y-134127579D01*
X59398100Y-134079459D01*
X59349980Y-134007442D01*
X59294688Y-133873953D01*
X59266500Y-133732245D01*
X59266500Y-133587755D01*
X59294688Y-133446047D01*
X59349980Y-133312558D01*
X59398100Y-133240541D01*
X59430253Y-133192421D01*
X59532421Y-133090253D01*
X59580541Y-133058100D01*
X59652558Y-133009980D01*
X59746949Y-132970883D01*
X59786046Y-132954688D01*
X59833283Y-132945292D01*
X59927755Y-132926500D01*
X60072245Y-132926500D01*
X60166717Y-132945292D01*
G37*
G36*
X55086717Y-130405292D02*
G01*
X55133954Y-130414688D01*
X55173051Y-130430883D01*
X55267442Y-130469980D01*
X55339459Y-130518100D01*
X55387579Y-130550253D01*
X55489747Y-130652421D01*
X55521900Y-130700541D01*
X55570020Y-130772558D01*
X55625312Y-130906047D01*
X55653500Y-131047755D01*
X55653500Y-131192245D01*
X55625312Y-131333953D01*
X55570020Y-131467442D01*
X55521900Y-131539459D01*
X55489747Y-131587579D01*
X55387579Y-131689747D01*
X55339459Y-131721900D01*
X55267442Y-131770020D01*
X55173051Y-131809117D01*
X55133954Y-131825312D01*
X55086717Y-131834708D01*
X54992245Y-131853500D01*
X54847755Y-131853500D01*
X54753283Y-131834708D01*
X54706046Y-131825312D01*
X54666949Y-131809117D01*
X54572558Y-131770020D01*
X54500541Y-131721900D01*
X54452421Y-131689747D01*
X54350253Y-131587579D01*
X54318100Y-131539459D01*
X54269980Y-131467442D01*
X54214688Y-131333953D01*
X54186500Y-131192245D01*
X54186500Y-131047755D01*
X54214688Y-130906047D01*
X54269980Y-130772558D01*
X54318100Y-130700541D01*
X54350253Y-130652421D01*
X54452421Y-130550253D01*
X54500541Y-130518100D01*
X54572558Y-130469980D01*
X54666949Y-130430883D01*
X54706046Y-130414688D01*
X54753283Y-130405292D01*
X54847755Y-130386500D01*
X54992245Y-130386500D01*
X55086717Y-130405292D01*
G37*
G36*
X57626717Y-130405292D02*
G01*
X57673954Y-130414688D01*
X57713051Y-130430883D01*
X57807442Y-130469980D01*
X57879459Y-130518100D01*
X57927579Y-130550253D01*
X58029747Y-130652421D01*
X58061900Y-130700541D01*
X58110020Y-130772558D01*
X58165312Y-130906047D01*
X58193500Y-131047755D01*
X58193500Y-131192245D01*
X58165312Y-131333953D01*
X58110020Y-131467442D01*
X58061900Y-131539459D01*
X58029747Y-131587579D01*
X57927579Y-131689747D01*
X57879459Y-131721900D01*
X57807442Y-131770020D01*
X57713051Y-131809117D01*
X57673954Y-131825312D01*
X57626717Y-131834708D01*
X57532245Y-131853500D01*
X57387755Y-131853500D01*
X57293283Y-131834708D01*
X57246046Y-131825312D01*
X57206949Y-131809117D01*
X57112558Y-131770020D01*
X57040541Y-131721900D01*
X56992421Y-131689747D01*
X56890253Y-131587579D01*
X56858100Y-131539459D01*
X56809980Y-131467442D01*
X56754688Y-131333953D01*
X56726500Y-131192245D01*
X56726500Y-131047755D01*
X56754688Y-130906047D01*
X56809980Y-130772558D01*
X56858100Y-130700541D01*
X56890253Y-130652421D01*
X56992421Y-130550253D01*
X57040541Y-130518100D01*
X57112558Y-130469980D01*
X57206949Y-130430883D01*
X57246046Y-130414688D01*
X57293283Y-130405292D01*
X57387755Y-130386500D01*
X57532245Y-130386500D01*
X57626717Y-130405292D01*
G37*
G36*
X60166717Y-130405292D02*
G01*
X60213954Y-130414688D01*
X60253051Y-130430883D01*
X60347442Y-130469980D01*
X60419459Y-130518100D01*
X60467579Y-130550253D01*
X60569747Y-130652421D01*
X60601900Y-130700541D01*
X60650020Y-130772558D01*
X60705312Y-130906047D01*
X60733500Y-131047755D01*
X60733500Y-131192245D01*
X60705312Y-131333953D01*
X60650020Y-131467442D01*
X60601900Y-131539459D01*
X60569747Y-131587579D01*
X60467579Y-131689747D01*
X60419459Y-131721900D01*
X60347442Y-131770020D01*
X60253051Y-131809117D01*
X60213954Y-131825312D01*
X60166717Y-131834708D01*
X60072245Y-131853500D01*
X59927755Y-131853500D01*
X59833283Y-131834708D01*
X59786046Y-131825312D01*
X59746949Y-131809117D01*
X59652558Y-131770020D01*
X59580541Y-131721900D01*
X59532421Y-131689747D01*
X59430253Y-131587579D01*
X59398100Y-131539459D01*
X59349980Y-131467442D01*
X59294688Y-131333953D01*
X59266500Y-131192245D01*
X59266500Y-131047755D01*
X59294688Y-130906047D01*
X59349980Y-130772558D01*
X59398100Y-130700541D01*
X59430253Y-130652421D01*
X59532421Y-130550253D01*
X59580541Y-130518100D01*
X59652558Y-130469980D01*
X59746949Y-130430883D01*
X59786046Y-130414688D01*
X59833283Y-130405292D01*
X59927755Y-130386500D01*
X60072245Y-130386500D01*
X60166717Y-130405292D01*
G37*
G36*
X55086717Y-127865292D02*
G01*
X55133954Y-127874688D01*
X55173051Y-127890883D01*
X55267442Y-127929980D01*
X55339459Y-127978100D01*
X55387579Y-128010253D01*
X55489747Y-128112421D01*
X55521900Y-128160541D01*
X55570020Y-128232558D01*
X55625312Y-128366047D01*
X55653500Y-128507755D01*
X55653500Y-128652245D01*
X55625312Y-128793953D01*
X55570020Y-128927442D01*
X55521900Y-128999459D01*
X55489747Y-129047579D01*
X55387579Y-129149747D01*
X55339459Y-129181900D01*
X55267442Y-129230020D01*
X55173051Y-129269117D01*
X55133954Y-129285312D01*
X55086717Y-129294708D01*
X54992245Y-129313500D01*
X54847755Y-129313500D01*
X54753283Y-129294708D01*
X54706046Y-129285312D01*
X54666949Y-129269117D01*
X54572558Y-129230020D01*
X54500541Y-129181900D01*
X54452421Y-129149747D01*
X54350253Y-129047579D01*
X54318100Y-128999459D01*
X54269980Y-128927442D01*
X54214688Y-128793953D01*
X54186500Y-128652245D01*
X54186500Y-128507755D01*
X54214688Y-128366047D01*
X54269980Y-128232558D01*
X54318100Y-128160541D01*
X54350253Y-128112421D01*
X54452421Y-128010253D01*
X54500541Y-127978100D01*
X54572558Y-127929980D01*
X54666949Y-127890883D01*
X54706046Y-127874688D01*
X54753283Y-127865292D01*
X54847755Y-127846500D01*
X54992245Y-127846500D01*
X55086717Y-127865292D01*
G37*
G36*
X60166717Y-127865292D02*
G01*
X60213954Y-127874688D01*
X60253051Y-127890883D01*
X60347442Y-127929980D01*
X60419459Y-127978100D01*
X60467579Y-128010253D01*
X60569747Y-128112421D01*
X60601900Y-128160541D01*
X60650020Y-128232558D01*
X60705312Y-128366047D01*
X60733500Y-128507755D01*
X60733500Y-128652245D01*
X60705312Y-128793953D01*
X60650020Y-128927442D01*
X60601900Y-128999459D01*
X60569747Y-129047579D01*
X60467579Y-129149747D01*
X60419459Y-129181900D01*
X60347442Y-129230020D01*
X60253051Y-129269117D01*
X60213954Y-129285312D01*
X60166717Y-129294708D01*
X60072245Y-129313500D01*
X59927755Y-129313500D01*
X59833283Y-129294708D01*
X59786046Y-129285312D01*
X59746949Y-129269117D01*
X59652558Y-129230020D01*
X59580541Y-129181900D01*
X59532421Y-129149747D01*
X59430253Y-129047579D01*
X59398100Y-128999459D01*
X59349980Y-128927442D01*
X59294688Y-128793953D01*
X59266500Y-128652245D01*
X59266500Y-128507755D01*
X59294688Y-128366047D01*
X59349980Y-128232558D01*
X59398100Y-128160541D01*
X59430253Y-128112421D01*
X59532421Y-128010253D01*
X59580541Y-127978100D01*
X59652558Y-127929980D01*
X59746949Y-127890883D01*
X59786046Y-127874688D01*
X59833283Y-127865292D01*
X59927755Y-127846500D01*
X60072245Y-127846500D01*
X60166717Y-127865292D01*
G37*
G36*
X57626717Y-127865292D02*
G01*
X57673954Y-127874688D01*
X57713051Y-127890883D01*
X57807442Y-127929980D01*
X57879459Y-127978100D01*
X57927579Y-128010253D01*
X58029747Y-128112421D01*
X58061900Y-128160541D01*
X58110020Y-128232558D01*
X58165312Y-128366047D01*
X58193500Y-128507755D01*
X58193500Y-128652245D01*
X58165312Y-128793953D01*
X58110020Y-128927442D01*
X58061900Y-128999459D01*
X58029747Y-129047579D01*
X57927579Y-129149747D01*
X57879459Y-129181900D01*
X57807442Y-129230020D01*
X57713051Y-129269117D01*
X57673954Y-129285312D01*
X57626717Y-129294708D01*
X57532245Y-129313500D01*
X57387755Y-129313500D01*
X57293283Y-129294708D01*
X57246046Y-129285312D01*
X57206949Y-129269117D01*
X57112558Y-129230020D01*
X57040541Y-129181900D01*
X56992421Y-129149747D01*
X56890253Y-129047579D01*
X56858100Y-128999459D01*
X56809980Y-128927442D01*
X56754688Y-128793953D01*
X56726500Y-128652245D01*
X56726500Y-128507755D01*
X56754688Y-128366047D01*
X56809980Y-128232558D01*
X56858100Y-128160541D01*
X56890253Y-128112421D01*
X56992421Y-128010253D01*
X57040541Y-127978100D01*
X57112558Y-127929980D01*
X57206949Y-127890883D01*
X57246046Y-127874688D01*
X57293283Y-127865292D01*
X57387755Y-127846500D01*
X57532245Y-127846500D01*
X57626717Y-127865292D01*
G37*
G36*
X55086717Y-125325292D02*
G01*
X55133954Y-125334688D01*
X55173051Y-125350883D01*
X55267442Y-125389980D01*
X55339459Y-125438100D01*
X55387579Y-125470253D01*
X55489747Y-125572421D01*
X55521900Y-125620541D01*
X55570020Y-125692558D01*
X55625312Y-125826047D01*
X55653500Y-125967755D01*
X55653500Y-126112245D01*
X55625312Y-126253953D01*
X55570020Y-126387442D01*
X55521900Y-126459459D01*
X55489747Y-126507579D01*
X55387579Y-126609747D01*
X55339459Y-126641900D01*
X55267442Y-126690020D01*
X55173051Y-126729117D01*
X55133954Y-126745312D01*
X55086717Y-126754708D01*
X54992245Y-126773500D01*
X54847755Y-126773500D01*
X54753283Y-126754708D01*
X54706046Y-126745312D01*
X54666949Y-126729117D01*
X54572558Y-126690020D01*
X54500541Y-126641900D01*
X54452421Y-126609747D01*
X54350253Y-126507579D01*
X54318100Y-126459459D01*
X54269980Y-126387442D01*
X54214688Y-126253953D01*
X54186500Y-126112245D01*
X54186500Y-125967755D01*
X54214688Y-125826047D01*
X54269980Y-125692558D01*
X54318100Y-125620541D01*
X54350253Y-125572421D01*
X54452421Y-125470253D01*
X54500541Y-125438100D01*
X54572558Y-125389980D01*
X54666949Y-125350883D01*
X54706046Y-125334688D01*
X54753283Y-125325292D01*
X54847755Y-125306500D01*
X54992245Y-125306500D01*
X55086717Y-125325292D01*
G37*
G36*
X60166717Y-125325292D02*
G01*
X60213954Y-125334688D01*
X60253051Y-125350883D01*
X60347442Y-125389980D01*
X60419459Y-125438100D01*
X60467579Y-125470253D01*
X60569747Y-125572421D01*
X60601900Y-125620541D01*
X60650020Y-125692558D01*
X60705312Y-125826047D01*
X60733500Y-125967755D01*
X60733500Y-126112245D01*
X60705312Y-126253953D01*
X60650020Y-126387442D01*
X60601900Y-126459459D01*
X60569747Y-126507579D01*
X60467579Y-126609747D01*
X60419459Y-126641900D01*
X60347442Y-126690020D01*
X60253051Y-126729117D01*
X60213954Y-126745312D01*
X60166717Y-126754708D01*
X60072245Y-126773500D01*
X59927755Y-126773500D01*
X59833283Y-126754708D01*
X59786046Y-126745312D01*
X59746949Y-126729117D01*
X59652558Y-126690020D01*
X59580541Y-126641900D01*
X59532421Y-126609747D01*
X59430253Y-126507579D01*
X59398100Y-126459459D01*
X59349980Y-126387442D01*
X59294688Y-126253953D01*
X59266500Y-126112245D01*
X59266500Y-125967755D01*
X59294688Y-125826047D01*
X59349980Y-125692558D01*
X59398100Y-125620541D01*
X59430253Y-125572421D01*
X59532421Y-125470253D01*
X59580541Y-125438100D01*
X59652558Y-125389980D01*
X59746949Y-125350883D01*
X59786046Y-125334688D01*
X59833283Y-125325292D01*
X59927755Y-125306500D01*
X60072245Y-125306500D01*
X60166717Y-125325292D01*
G37*
G36*
X57626717Y-125325292D02*
G01*
X57673954Y-125334688D01*
X57713051Y-125350883D01*
X57807442Y-125389980D01*
X57879459Y-125438100D01*
X57927579Y-125470253D01*
X58029747Y-125572421D01*
X58061900Y-125620541D01*
X58110020Y-125692558D01*
X58165312Y-125826047D01*
X58193500Y-125967755D01*
X58193500Y-126112245D01*
X58165312Y-126253953D01*
X58110020Y-126387442D01*
X58061900Y-126459459D01*
X58029747Y-126507579D01*
X57927579Y-126609747D01*
X57879459Y-126641900D01*
X57807442Y-126690020D01*
X57713051Y-126729117D01*
X57673954Y-126745312D01*
X57626717Y-126754708D01*
X57532245Y-126773500D01*
X57387755Y-126773500D01*
X57293283Y-126754708D01*
X57246046Y-126745312D01*
X57206949Y-126729117D01*
X57112558Y-126690020D01*
X57040541Y-126641900D01*
X56992421Y-126609747D01*
X56890253Y-126507579D01*
X56858100Y-126459459D01*
X56809980Y-126387442D01*
X56754688Y-126253953D01*
X56726500Y-126112245D01*
X56726500Y-125967755D01*
X56754688Y-125826047D01*
X56809980Y-125692558D01*
X56858100Y-125620541D01*
X56890253Y-125572421D01*
X56992421Y-125470253D01*
X57040541Y-125438100D01*
X57112558Y-125389980D01*
X57206949Y-125350883D01*
X57246046Y-125334688D01*
X57293283Y-125325292D01*
X57387755Y-125306500D01*
X57532245Y-125306500D01*
X57626717Y-125325292D01*
G37*
G36*
X60166717Y-122785292D02*
G01*
X60213954Y-122794688D01*
X60253051Y-122810883D01*
X60347442Y-122849980D01*
X60419459Y-122898100D01*
X60467579Y-122930253D01*
X60569747Y-123032421D01*
X60601900Y-123080541D01*
X60650020Y-123152558D01*
X60705312Y-123286047D01*
X60733500Y-123427755D01*
X60733500Y-123572245D01*
X60705312Y-123713953D01*
X60650020Y-123847442D01*
X60601900Y-123919459D01*
X60569747Y-123967579D01*
X60467579Y-124069747D01*
X60419459Y-124101900D01*
X60347442Y-124150020D01*
X60253051Y-124189117D01*
X60213954Y-124205312D01*
X60166717Y-124214708D01*
X60072245Y-124233500D01*
X59927755Y-124233500D01*
X59833283Y-124214708D01*
X59786046Y-124205312D01*
X59746949Y-124189117D01*
X59652558Y-124150020D01*
X59580541Y-124101900D01*
X59532421Y-124069747D01*
X59430253Y-123967579D01*
X59398100Y-123919459D01*
X59349980Y-123847442D01*
X59294688Y-123713953D01*
X59266500Y-123572245D01*
X59266500Y-123427755D01*
X59294688Y-123286047D01*
X59349980Y-123152558D01*
X59398100Y-123080541D01*
X59430253Y-123032421D01*
X59532421Y-122930253D01*
X59580541Y-122898100D01*
X59652558Y-122849980D01*
X59746949Y-122810883D01*
X59786046Y-122794688D01*
X59833283Y-122785292D01*
X59927755Y-122766500D01*
X60072245Y-122766500D01*
X60166717Y-122785292D01*
G37*
G36*
X57626717Y-122785292D02*
G01*
X57673954Y-122794688D01*
X57713051Y-122810883D01*
X57807442Y-122849980D01*
X57879459Y-122898100D01*
X57927579Y-122930253D01*
X58029747Y-123032421D01*
X58061900Y-123080541D01*
X58110020Y-123152558D01*
X58165312Y-123286047D01*
X58193500Y-123427755D01*
X58193500Y-123572245D01*
X58165312Y-123713953D01*
X58110020Y-123847442D01*
X58061900Y-123919459D01*
X58029747Y-123967579D01*
X57927579Y-124069747D01*
X57879459Y-124101900D01*
X57807442Y-124150020D01*
X57713051Y-124189117D01*
X57673954Y-124205312D01*
X57626717Y-124214708D01*
X57532245Y-124233500D01*
X57387755Y-124233500D01*
X57293283Y-124214708D01*
X57246046Y-124205312D01*
X57206949Y-124189117D01*
X57112558Y-124150020D01*
X57040541Y-124101900D01*
X56992421Y-124069747D01*
X56890253Y-123967579D01*
X56858100Y-123919459D01*
X56809980Y-123847442D01*
X56754688Y-123713953D01*
X56726500Y-123572245D01*
X56726500Y-123427755D01*
X56754688Y-123286047D01*
X56809980Y-123152558D01*
X56858100Y-123080541D01*
X56890253Y-123032421D01*
X56992421Y-122930253D01*
X57040541Y-122898100D01*
X57112558Y-122849980D01*
X57206949Y-122810883D01*
X57246046Y-122794688D01*
X57293283Y-122785292D01*
X57387755Y-122766500D01*
X57532245Y-122766500D01*
X57626717Y-122785292D01*
G37*
G36*
X55086717Y-122785292D02*
G01*
X55133954Y-122794688D01*
X55173051Y-122810883D01*
X55267442Y-122849980D01*
X55339459Y-122898100D01*
X55387579Y-122930253D01*
X55489747Y-123032421D01*
X55521900Y-123080541D01*
X55570020Y-123152558D01*
X55625312Y-123286047D01*
X55653500Y-123427755D01*
X55653500Y-123572245D01*
X55625312Y-123713953D01*
X55570020Y-123847442D01*
X55521900Y-123919459D01*
X55489747Y-123967579D01*
X55387579Y-124069747D01*
X55339459Y-124101900D01*
X55267442Y-124150020D01*
X55173051Y-124189117D01*
X55133954Y-124205312D01*
X55086717Y-124214708D01*
X54992245Y-124233500D01*
X54847755Y-124233500D01*
X54753283Y-124214708D01*
X54706046Y-124205312D01*
X54666949Y-124189117D01*
X54572558Y-124150020D01*
X54500541Y-124101900D01*
X54452421Y-124069747D01*
X54350253Y-123967579D01*
X54318100Y-123919459D01*
X54269980Y-123847442D01*
X54214688Y-123713953D01*
X54186500Y-123572245D01*
X54186500Y-123427755D01*
X54214688Y-123286047D01*
X54269980Y-123152558D01*
X54318100Y-123080541D01*
X54350253Y-123032421D01*
X54452421Y-122930253D01*
X54500541Y-122898100D01*
X54572558Y-122849980D01*
X54666949Y-122810883D01*
X54706046Y-122794688D01*
X54753283Y-122785292D01*
X54847755Y-122766500D01*
X54992245Y-122766500D01*
X55086717Y-122785292D01*
G37*
G36*
X55086717Y-120245292D02*
G01*
X55133954Y-120254688D01*
X55173051Y-120270883D01*
X55267442Y-120309980D01*
X55339459Y-120358100D01*
X55387579Y-120390253D01*
X55489747Y-120492421D01*
X55521900Y-120540541D01*
X55570020Y-120612558D01*
X55625312Y-120746047D01*
X55653500Y-120887755D01*
X55653500Y-121032245D01*
X55625312Y-121173953D01*
X55570020Y-121307442D01*
X55521900Y-121379459D01*
X55489747Y-121427579D01*
X55387579Y-121529747D01*
X55339459Y-121561900D01*
X55267442Y-121610020D01*
X55173051Y-121649117D01*
X55133954Y-121665312D01*
X55086717Y-121674708D01*
X54992245Y-121693500D01*
X54847755Y-121693500D01*
X54753283Y-121674708D01*
X54706046Y-121665312D01*
X54666949Y-121649117D01*
X54572558Y-121610020D01*
X54500541Y-121561900D01*
X54452421Y-121529747D01*
X54350253Y-121427579D01*
X54318100Y-121379459D01*
X54269980Y-121307442D01*
X54214688Y-121173953D01*
X54186500Y-121032245D01*
X54186500Y-120887755D01*
X54214688Y-120746047D01*
X54269980Y-120612558D01*
X54318100Y-120540541D01*
X54350253Y-120492421D01*
X54452421Y-120390253D01*
X54500541Y-120358100D01*
X54572558Y-120309980D01*
X54666949Y-120270883D01*
X54706046Y-120254688D01*
X54753283Y-120245292D01*
X54847755Y-120226500D01*
X54992245Y-120226500D01*
X55086717Y-120245292D01*
G37*
G36*
X57626717Y-120245292D02*
G01*
X57673954Y-120254688D01*
X57713051Y-120270883D01*
X57807442Y-120309980D01*
X57879459Y-120358100D01*
X57927579Y-120390253D01*
X58029747Y-120492421D01*
X58061900Y-120540541D01*
X58110020Y-120612558D01*
X58165312Y-120746047D01*
X58193500Y-120887755D01*
X58193500Y-121032245D01*
X58165312Y-121173953D01*
X58110020Y-121307442D01*
X58061900Y-121379459D01*
X58029747Y-121427579D01*
X57927579Y-121529747D01*
X57879459Y-121561900D01*
X57807442Y-121610020D01*
X57713051Y-121649117D01*
X57673954Y-121665312D01*
X57626717Y-121674708D01*
X57532245Y-121693500D01*
X57387755Y-121693500D01*
X57293283Y-121674708D01*
X57246046Y-121665312D01*
X57206949Y-121649117D01*
X57112558Y-121610020D01*
X57040541Y-121561900D01*
X56992421Y-121529747D01*
X56890253Y-121427579D01*
X56858100Y-121379459D01*
X56809980Y-121307442D01*
X56754688Y-121173953D01*
X56726500Y-121032245D01*
X56726500Y-120887755D01*
X56754688Y-120746047D01*
X56809980Y-120612558D01*
X56858100Y-120540541D01*
X56890253Y-120492421D01*
X56992421Y-120390253D01*
X57040541Y-120358100D01*
X57112558Y-120309980D01*
X57206949Y-120270883D01*
X57246046Y-120254688D01*
X57293283Y-120245292D01*
X57387755Y-120226500D01*
X57532245Y-120226500D01*
X57626717Y-120245292D01*
G37*
G36*
X60166717Y-120245292D02*
G01*
X60213954Y-120254688D01*
X60253051Y-120270883D01*
X60347442Y-120309980D01*
X60419459Y-120358100D01*
X60467579Y-120390253D01*
X60569747Y-120492421D01*
X60601900Y-120540541D01*
X60650020Y-120612558D01*
X60705312Y-120746047D01*
X60733500Y-120887755D01*
X60733500Y-121032245D01*
X60705312Y-121173953D01*
X60650020Y-121307442D01*
X60601900Y-121379459D01*
X60569747Y-121427579D01*
X60467579Y-121529747D01*
X60419459Y-121561900D01*
X60347442Y-121610020D01*
X60253051Y-121649117D01*
X60213954Y-121665312D01*
X60166717Y-121674708D01*
X60072245Y-121693500D01*
X59927755Y-121693500D01*
X59833283Y-121674708D01*
X59786046Y-121665312D01*
X59746949Y-121649117D01*
X59652558Y-121610020D01*
X59580541Y-121561900D01*
X59532421Y-121529747D01*
X59430253Y-121427579D01*
X59398100Y-121379459D01*
X59349980Y-121307442D01*
X59294688Y-121173953D01*
X59266500Y-121032245D01*
X59266500Y-120887755D01*
X59294688Y-120746047D01*
X59349980Y-120612558D01*
X59398100Y-120540541D01*
X59430253Y-120492421D01*
X59532421Y-120390253D01*
X59580541Y-120358100D01*
X59652558Y-120309980D01*
X59746949Y-120270883D01*
X59786046Y-120254688D01*
X59833283Y-120245292D01*
X59927755Y-120226500D01*
X60072245Y-120226500D01*
X60166717Y-120245292D01*
G37*
G36*
X57626717Y-117705292D02*
G01*
X57673954Y-117714688D01*
X57713051Y-117730883D01*
X57807442Y-117769980D01*
X57879459Y-117818100D01*
X57927579Y-117850253D01*
X58029747Y-117952421D01*
X58061900Y-118000541D01*
X58110020Y-118072558D01*
X58165312Y-118206047D01*
X58193500Y-118347755D01*
X58193500Y-118492245D01*
X58165312Y-118633953D01*
X58110020Y-118767442D01*
X58061900Y-118839459D01*
X58029747Y-118887579D01*
X57927579Y-118989747D01*
X57879459Y-119021900D01*
X57807442Y-119070020D01*
X57713051Y-119109117D01*
X57673954Y-119125312D01*
X57626717Y-119134708D01*
X57532245Y-119153500D01*
X57387755Y-119153500D01*
X57293283Y-119134708D01*
X57246046Y-119125312D01*
X57206949Y-119109117D01*
X57112558Y-119070020D01*
X57040541Y-119021900D01*
X56992421Y-118989747D01*
X56890253Y-118887579D01*
X56858100Y-118839459D01*
X56809980Y-118767442D01*
X56754688Y-118633953D01*
X56726500Y-118492245D01*
X56726500Y-118347755D01*
X56754688Y-118206047D01*
X56809980Y-118072558D01*
X56858100Y-118000541D01*
X56890253Y-117952421D01*
X56992421Y-117850253D01*
X57040541Y-117818100D01*
X57112558Y-117769980D01*
X57206949Y-117730883D01*
X57246046Y-117714688D01*
X57293283Y-117705292D01*
X57387755Y-117686500D01*
X57532245Y-117686500D01*
X57626717Y-117705292D01*
G37*
G36*
X55086717Y-117705292D02*
G01*
X55133954Y-117714688D01*
X55173051Y-117730883D01*
X55267442Y-117769980D01*
X55339459Y-117818100D01*
X55387579Y-117850253D01*
X55489747Y-117952421D01*
X55521900Y-118000541D01*
X55570020Y-118072558D01*
X55625312Y-118206047D01*
X55653500Y-118347755D01*
X55653500Y-118492245D01*
X55625312Y-118633953D01*
X55570020Y-118767442D01*
X55521900Y-118839459D01*
X55489747Y-118887579D01*
X55387579Y-118989747D01*
X55339459Y-119021900D01*
X55267442Y-119070020D01*
X55173051Y-119109117D01*
X55133954Y-119125312D01*
X55086717Y-119134708D01*
X54992245Y-119153500D01*
X54847755Y-119153500D01*
X54753283Y-119134708D01*
X54706046Y-119125312D01*
X54666949Y-119109117D01*
X54572558Y-119070020D01*
X54500541Y-119021900D01*
X54452421Y-118989747D01*
X54350253Y-118887579D01*
X54318100Y-118839459D01*
X54269980Y-118767442D01*
X54214688Y-118633953D01*
X54186500Y-118492245D01*
X54186500Y-118347755D01*
X54214688Y-118206047D01*
X54269980Y-118072558D01*
X54318100Y-118000541D01*
X54350253Y-117952421D01*
X54452421Y-117850253D01*
X54500541Y-117818100D01*
X54572558Y-117769980D01*
X54666949Y-117730883D01*
X54706046Y-117714688D01*
X54753283Y-117705292D01*
X54847755Y-117686500D01*
X54992245Y-117686500D01*
X55086717Y-117705292D01*
G37*
G36*
X60166717Y-117705292D02*
G01*
X60213954Y-117714688D01*
X60253051Y-117730883D01*
X60347442Y-117769980D01*
X60419459Y-117818100D01*
X60467579Y-117850253D01*
X60569747Y-117952421D01*
X60601900Y-118000541D01*
X60650020Y-118072558D01*
X60705312Y-118206047D01*
X60733500Y-118347755D01*
X60733500Y-118492245D01*
X60705312Y-118633953D01*
X60650020Y-118767442D01*
X60601900Y-118839459D01*
X60569747Y-118887579D01*
X60467579Y-118989747D01*
X60419459Y-119021900D01*
X60347442Y-119070020D01*
X60253051Y-119109117D01*
X60213954Y-119125312D01*
X60166717Y-119134708D01*
X60072245Y-119153500D01*
X59927755Y-119153500D01*
X59833283Y-119134708D01*
X59786046Y-119125312D01*
X59746949Y-119109117D01*
X59652558Y-119070020D01*
X59580541Y-119021900D01*
X59532421Y-118989747D01*
X59430253Y-118887579D01*
X59398100Y-118839459D01*
X59349980Y-118767442D01*
X59294688Y-118633953D01*
X59266500Y-118492245D01*
X59266500Y-118347755D01*
X59294688Y-118206047D01*
X59349980Y-118072558D01*
X59398100Y-118000541D01*
X59430253Y-117952421D01*
X59532421Y-117850253D01*
X59580541Y-117818100D01*
X59652558Y-117769980D01*
X59746949Y-117730883D01*
X59786046Y-117714688D01*
X59833283Y-117705292D01*
X59927755Y-117686500D01*
X60072245Y-117686500D01*
X60166717Y-117705292D01*
G37*
G36*
X60166717Y-115165292D02*
G01*
X60213954Y-115174688D01*
X60253051Y-115190883D01*
X60347442Y-115229980D01*
X60419459Y-115278100D01*
X60467579Y-115310253D01*
X60569747Y-115412421D01*
X60601900Y-115460541D01*
X60650020Y-115532558D01*
X60705312Y-115666047D01*
X60733500Y-115807755D01*
X60733500Y-115952245D01*
X60705312Y-116093953D01*
X60650020Y-116227442D01*
X60601900Y-116299459D01*
X60569747Y-116347579D01*
X60467579Y-116449747D01*
X60419459Y-116481900D01*
X60347442Y-116530020D01*
X60253051Y-116569117D01*
X60213954Y-116585312D01*
X60166717Y-116594708D01*
X60072245Y-116613500D01*
X59927755Y-116613500D01*
X59833283Y-116594708D01*
X59786046Y-116585312D01*
X59746949Y-116569117D01*
X59652558Y-116530020D01*
X59580541Y-116481900D01*
X59532421Y-116449747D01*
X59430253Y-116347579D01*
X59398100Y-116299459D01*
X59349980Y-116227442D01*
X59294688Y-116093953D01*
X59266500Y-115952245D01*
X59266500Y-115807755D01*
X59294688Y-115666047D01*
X59349980Y-115532558D01*
X59398100Y-115460541D01*
X59430253Y-115412421D01*
X59532421Y-115310253D01*
X59580541Y-115278100D01*
X59652558Y-115229980D01*
X59746949Y-115190883D01*
X59786046Y-115174688D01*
X59833283Y-115165292D01*
X59927755Y-115146500D01*
X60072245Y-115146500D01*
X60166717Y-115165292D01*
G37*
G36*
X57626717Y-115165292D02*
G01*
X57673954Y-115174688D01*
X57713051Y-115190883D01*
X57807442Y-115229980D01*
X57879459Y-115278100D01*
X57927579Y-115310253D01*
X58029747Y-115412421D01*
X58061900Y-115460541D01*
X58110020Y-115532558D01*
X58165312Y-115666047D01*
X58193500Y-115807755D01*
X58193500Y-115952245D01*
X58165312Y-116093953D01*
X58110020Y-116227442D01*
X58061900Y-116299459D01*
X58029747Y-116347579D01*
X57927579Y-116449747D01*
X57879459Y-116481900D01*
X57807442Y-116530020D01*
X57713051Y-116569117D01*
X57673954Y-116585312D01*
X57626717Y-116594708D01*
X57532245Y-116613500D01*
X57387755Y-116613500D01*
X57293283Y-116594708D01*
X57246046Y-116585312D01*
X57206949Y-116569117D01*
X57112558Y-116530020D01*
X57040541Y-116481900D01*
X56992421Y-116449747D01*
X56890253Y-116347579D01*
X56858100Y-116299459D01*
X56809980Y-116227442D01*
X56754688Y-116093953D01*
X56726500Y-115952245D01*
X56726500Y-115807755D01*
X56754688Y-115666047D01*
X56809980Y-115532558D01*
X56858100Y-115460541D01*
X56890253Y-115412421D01*
X56992421Y-115310253D01*
X57040541Y-115278100D01*
X57112558Y-115229980D01*
X57206949Y-115190883D01*
X57246046Y-115174688D01*
X57293283Y-115165292D01*
X57387755Y-115146500D01*
X57532245Y-115146500D01*
X57626717Y-115165292D01*
G37*
G36*
X55086717Y-115165292D02*
G01*
X55133954Y-115174688D01*
X55173051Y-115190883D01*
X55267442Y-115229980D01*
X55339459Y-115278100D01*
X55387579Y-115310253D01*
X55489747Y-115412421D01*
X55521900Y-115460541D01*
X55570020Y-115532558D01*
X55625312Y-115666047D01*
X55653500Y-115807755D01*
X55653500Y-115952245D01*
X55625312Y-116093953D01*
X55570020Y-116227442D01*
X55521900Y-116299459D01*
X55489747Y-116347579D01*
X55387579Y-116449747D01*
X55339459Y-116481900D01*
X55267442Y-116530020D01*
X55173051Y-116569117D01*
X55133954Y-116585312D01*
X55086717Y-116594708D01*
X54992245Y-116613500D01*
X54847755Y-116613500D01*
X54753283Y-116594708D01*
X54706046Y-116585312D01*
X54666949Y-116569117D01*
X54572558Y-116530020D01*
X54500541Y-116481900D01*
X54452421Y-116449747D01*
X54350253Y-116347579D01*
X54318100Y-116299459D01*
X54269980Y-116227442D01*
X54214688Y-116093953D01*
X54186500Y-115952245D01*
X54186500Y-115807755D01*
X54214688Y-115666047D01*
X54269980Y-115532558D01*
X54318100Y-115460541D01*
X54350253Y-115412421D01*
X54452421Y-115310253D01*
X54500541Y-115278100D01*
X54572558Y-115229980D01*
X54666949Y-115190883D01*
X54706046Y-115174688D01*
X54753283Y-115165292D01*
X54847755Y-115146500D01*
X54992245Y-115146500D01*
X55086717Y-115165292D01*
G37*
G36*
X55086717Y-112625292D02*
G01*
X55133954Y-112634688D01*
X55173051Y-112650883D01*
X55267442Y-112689980D01*
X55339459Y-112738100D01*
X55387579Y-112770253D01*
X55489747Y-112872421D01*
X55521900Y-112920541D01*
X55570020Y-112992558D01*
X55625312Y-113126047D01*
X55653500Y-113267755D01*
X55653500Y-113412245D01*
X55625312Y-113553953D01*
X55570020Y-113687442D01*
X55521900Y-113759459D01*
X55489747Y-113807579D01*
X55387579Y-113909747D01*
X55339459Y-113941900D01*
X55267442Y-113990020D01*
X55173051Y-114029117D01*
X55133954Y-114045312D01*
X55086717Y-114054708D01*
X54992245Y-114073500D01*
X54847755Y-114073500D01*
X54753283Y-114054708D01*
X54706046Y-114045312D01*
X54666949Y-114029117D01*
X54572558Y-113990020D01*
X54500541Y-113941900D01*
X54452421Y-113909747D01*
X54350253Y-113807579D01*
X54318100Y-113759459D01*
X54269980Y-113687442D01*
X54214688Y-113553953D01*
X54186500Y-113412245D01*
X54186500Y-113267755D01*
X54214688Y-113126047D01*
X54269980Y-112992558D01*
X54318100Y-112920541D01*
X54350253Y-112872421D01*
X54452421Y-112770253D01*
X54500541Y-112738100D01*
X54572558Y-112689980D01*
X54666949Y-112650883D01*
X54706046Y-112634688D01*
X54753283Y-112625292D01*
X54847755Y-112606500D01*
X54992245Y-112606500D01*
X55086717Y-112625292D01*
G37*
G36*
X57626717Y-112625292D02*
G01*
X57673954Y-112634688D01*
X57713051Y-112650883D01*
X57807442Y-112689980D01*
X57879459Y-112738100D01*
X57927579Y-112770253D01*
X58029747Y-112872421D01*
X58061900Y-112920541D01*
X58110020Y-112992558D01*
X58165312Y-113126047D01*
X58193500Y-113267755D01*
X58193500Y-113412245D01*
X58165312Y-113553953D01*
X58110020Y-113687442D01*
X58061900Y-113759459D01*
X58029747Y-113807579D01*
X57927579Y-113909747D01*
X57879459Y-113941900D01*
X57807442Y-113990020D01*
X57713051Y-114029117D01*
X57673954Y-114045312D01*
X57626717Y-114054708D01*
X57532245Y-114073500D01*
X57387755Y-114073500D01*
X57293283Y-114054708D01*
X57246046Y-114045312D01*
X57206949Y-114029117D01*
X57112558Y-113990020D01*
X57040541Y-113941900D01*
X56992421Y-113909747D01*
X56890253Y-113807579D01*
X56858100Y-113759459D01*
X56809980Y-113687442D01*
X56754688Y-113553953D01*
X56726500Y-113412245D01*
X56726500Y-113267755D01*
X56754688Y-113126047D01*
X56809980Y-112992558D01*
X56858100Y-112920541D01*
X56890253Y-112872421D01*
X56992421Y-112770253D01*
X57040541Y-112738100D01*
X57112558Y-112689980D01*
X57206949Y-112650883D01*
X57246046Y-112634688D01*
X57293283Y-112625292D01*
X57387755Y-112606500D01*
X57532245Y-112606500D01*
X57626717Y-112625292D01*
G37*
G36*
X60166717Y-112625292D02*
G01*
X60213954Y-112634688D01*
X60253051Y-112650883D01*
X60347442Y-112689980D01*
X60419459Y-112738100D01*
X60467579Y-112770253D01*
X60569747Y-112872421D01*
X60601900Y-112920541D01*
X60650020Y-112992558D01*
X60705312Y-113126047D01*
X60733500Y-113267755D01*
X60733500Y-113412245D01*
X60705312Y-113553953D01*
X60650020Y-113687442D01*
X60601900Y-113759459D01*
X60569747Y-113807579D01*
X60467579Y-113909747D01*
X60419459Y-113941900D01*
X60347442Y-113990020D01*
X60253051Y-114029117D01*
X60213954Y-114045312D01*
X60166717Y-114054708D01*
X60072245Y-114073500D01*
X59927755Y-114073500D01*
X59833283Y-114054708D01*
X59786046Y-114045312D01*
X59746949Y-114029117D01*
X59652558Y-113990020D01*
X59580541Y-113941900D01*
X59532421Y-113909747D01*
X59430253Y-113807579D01*
X59398100Y-113759459D01*
X59349980Y-113687442D01*
X59294688Y-113553953D01*
X59266500Y-113412245D01*
X59266500Y-113267755D01*
X59294688Y-113126047D01*
X59349980Y-112992558D01*
X59398100Y-112920541D01*
X59430253Y-112872421D01*
X59532421Y-112770253D01*
X59580541Y-112738100D01*
X59652558Y-112689980D01*
X59746949Y-112650883D01*
X59786046Y-112634688D01*
X59833283Y-112625292D01*
X59927755Y-112606500D01*
X60072245Y-112606500D01*
X60166717Y-112625292D01*
G37*
G36*
X55086717Y-110085292D02*
G01*
X55133954Y-110094688D01*
X55173051Y-110110883D01*
X55267442Y-110149980D01*
X55339459Y-110198100D01*
X55387579Y-110230253D01*
X55489747Y-110332421D01*
X55521900Y-110380541D01*
X55570020Y-110452558D01*
X55625312Y-110586047D01*
X55653500Y-110727755D01*
X55653500Y-110872245D01*
X55625312Y-111013953D01*
X55570020Y-111147442D01*
X55521900Y-111219459D01*
X55489747Y-111267579D01*
X55387579Y-111369747D01*
X55339459Y-111401900D01*
X55267442Y-111450020D01*
X55173051Y-111489117D01*
X55133954Y-111505312D01*
X55086717Y-111514708D01*
X54992245Y-111533500D01*
X54847755Y-111533500D01*
X54753283Y-111514708D01*
X54706046Y-111505312D01*
X54666949Y-111489117D01*
X54572558Y-111450020D01*
X54500541Y-111401900D01*
X54452421Y-111369747D01*
X54350253Y-111267579D01*
X54318100Y-111219459D01*
X54269980Y-111147442D01*
X54214688Y-111013953D01*
X54186500Y-110872245D01*
X54186500Y-110727755D01*
X54214688Y-110586047D01*
X54269980Y-110452558D01*
X54318100Y-110380541D01*
X54350253Y-110332421D01*
X54452421Y-110230253D01*
X54500541Y-110198100D01*
X54572558Y-110149980D01*
X54666949Y-110110883D01*
X54706046Y-110094688D01*
X54753283Y-110085292D01*
X54847755Y-110066500D01*
X54992245Y-110066500D01*
X55086717Y-110085292D01*
G37*
G36*
X60166717Y-110085292D02*
G01*
X60213954Y-110094688D01*
X60253051Y-110110883D01*
X60347442Y-110149980D01*
X60419459Y-110198100D01*
X60467579Y-110230253D01*
X60569747Y-110332421D01*
X60601900Y-110380541D01*
X60650020Y-110452558D01*
X60705312Y-110586047D01*
X60733500Y-110727755D01*
X60733500Y-110872245D01*
X60705312Y-111013953D01*
X60650020Y-111147442D01*
X60601900Y-111219459D01*
X60569747Y-111267579D01*
X60467579Y-111369747D01*
X60419459Y-111401900D01*
X60347442Y-111450020D01*
X60253051Y-111489117D01*
X60213954Y-111505312D01*
X60166717Y-111514708D01*
X60072245Y-111533500D01*
X59927755Y-111533500D01*
X59833283Y-111514708D01*
X59786046Y-111505312D01*
X59746949Y-111489117D01*
X59652558Y-111450020D01*
X59580541Y-111401900D01*
X59532421Y-111369747D01*
X59430253Y-111267579D01*
X59398100Y-111219459D01*
X59349980Y-111147442D01*
X59294688Y-111013953D01*
X59266500Y-110872245D01*
X59266500Y-110727755D01*
X59294688Y-110586047D01*
X59349980Y-110452558D01*
X59398100Y-110380541D01*
X59430253Y-110332421D01*
X59532421Y-110230253D01*
X59580541Y-110198100D01*
X59652558Y-110149980D01*
X59746949Y-110110883D01*
X59786046Y-110094688D01*
X59833283Y-110085292D01*
X59927755Y-110066500D01*
X60072245Y-110066500D01*
X60166717Y-110085292D01*
G37*
G36*
X57626717Y-110085292D02*
G01*
X57673954Y-110094688D01*
X57713051Y-110110883D01*
X57807442Y-110149980D01*
X57879459Y-110198100D01*
X57927579Y-110230253D01*
X58029747Y-110332421D01*
X58061900Y-110380541D01*
X58110020Y-110452558D01*
X58165312Y-110586047D01*
X58193500Y-110727755D01*
X58193500Y-110872245D01*
X58165312Y-111013953D01*
X58110020Y-111147442D01*
X58061900Y-111219459D01*
X58029747Y-111267579D01*
X57927579Y-111369747D01*
X57879459Y-111401900D01*
X57807442Y-111450020D01*
X57713051Y-111489117D01*
X57673954Y-111505312D01*
X57626717Y-111514708D01*
X57532245Y-111533500D01*
X57387755Y-111533500D01*
X57293283Y-111514708D01*
X57246046Y-111505312D01*
X57206949Y-111489117D01*
X57112558Y-111450020D01*
X57040541Y-111401900D01*
X56992421Y-111369747D01*
X56890253Y-111267579D01*
X56858100Y-111219459D01*
X56809980Y-111147442D01*
X56754688Y-111013953D01*
X56726500Y-110872245D01*
X56726500Y-110727755D01*
X56754688Y-110586047D01*
X56809980Y-110452558D01*
X56858100Y-110380541D01*
X56890253Y-110332421D01*
X56992421Y-110230253D01*
X57040541Y-110198100D01*
X57112558Y-110149980D01*
X57206949Y-110110883D01*
X57246046Y-110094688D01*
X57293283Y-110085292D01*
X57387755Y-110066500D01*
X57532245Y-110066500D01*
X57626717Y-110085292D01*
G37*
G36*
X57626717Y-107545292D02*
G01*
X57673954Y-107554688D01*
X57713051Y-107570883D01*
X57807442Y-107609980D01*
X57879459Y-107658100D01*
X57927579Y-107690253D01*
X58029747Y-107792421D01*
X58061900Y-107840541D01*
X58110020Y-107912558D01*
X58165312Y-108046047D01*
X58193500Y-108187755D01*
X58193500Y-108332245D01*
X58165312Y-108473953D01*
X58110020Y-108607442D01*
X58061900Y-108679459D01*
X58029747Y-108727579D01*
X57927579Y-108829747D01*
X57879459Y-108861900D01*
X57807442Y-108910020D01*
X57713051Y-108949117D01*
X57673954Y-108965312D01*
X57626717Y-108974708D01*
X57532245Y-108993500D01*
X57387755Y-108993500D01*
X57293283Y-108974708D01*
X57246046Y-108965312D01*
X57206949Y-108949117D01*
X57112558Y-108910020D01*
X57040541Y-108861900D01*
X56992421Y-108829747D01*
X56890253Y-108727579D01*
X56858100Y-108679459D01*
X56809980Y-108607442D01*
X56754688Y-108473953D01*
X56726500Y-108332245D01*
X56726500Y-108187755D01*
X56754688Y-108046047D01*
X56809980Y-107912558D01*
X56858100Y-107840541D01*
X56890253Y-107792421D01*
X56992421Y-107690253D01*
X57040541Y-107658100D01*
X57112558Y-107609980D01*
X57206949Y-107570883D01*
X57246046Y-107554688D01*
X57293283Y-107545292D01*
X57387755Y-107526500D01*
X57532245Y-107526500D01*
X57626717Y-107545292D01*
G37*
G36*
X60166717Y-107545292D02*
G01*
X60213954Y-107554688D01*
X60253051Y-107570883D01*
X60347442Y-107609980D01*
X60419459Y-107658100D01*
X60467579Y-107690253D01*
X60569747Y-107792421D01*
X60601900Y-107840541D01*
X60650020Y-107912558D01*
X60705312Y-108046047D01*
X60733500Y-108187755D01*
X60733500Y-108332245D01*
X60705312Y-108473953D01*
X60650020Y-108607442D01*
X60601900Y-108679459D01*
X60569747Y-108727579D01*
X60467579Y-108829747D01*
X60419459Y-108861900D01*
X60347442Y-108910020D01*
X60253051Y-108949117D01*
X60213954Y-108965312D01*
X60166717Y-108974708D01*
X60072245Y-108993500D01*
X59927755Y-108993500D01*
X59833283Y-108974708D01*
X59786046Y-108965312D01*
X59746949Y-108949117D01*
X59652558Y-108910020D01*
X59580541Y-108861900D01*
X59532421Y-108829747D01*
X59430253Y-108727579D01*
X59398100Y-108679459D01*
X59349980Y-108607442D01*
X59294688Y-108473953D01*
X59266500Y-108332245D01*
X59266500Y-108187755D01*
X59294688Y-108046047D01*
X59349980Y-107912558D01*
X59398100Y-107840541D01*
X59430253Y-107792421D01*
X59532421Y-107690253D01*
X59580541Y-107658100D01*
X59652558Y-107609980D01*
X59746949Y-107570883D01*
X59786046Y-107554688D01*
X59833283Y-107545292D01*
X59927755Y-107526500D01*
X60072245Y-107526500D01*
X60166717Y-107545292D01*
G37*
G36*
X55086717Y-107545292D02*
G01*
X55133954Y-107554688D01*
X55173051Y-107570883D01*
X55267442Y-107609980D01*
X55339459Y-107658100D01*
X55387579Y-107690253D01*
X55489747Y-107792421D01*
X55521900Y-107840541D01*
X55570020Y-107912558D01*
X55625312Y-108046047D01*
X55653500Y-108187755D01*
X55653500Y-108332245D01*
X55625312Y-108473953D01*
X55570020Y-108607442D01*
X55521900Y-108679459D01*
X55489747Y-108727579D01*
X55387579Y-108829747D01*
X55339459Y-108861900D01*
X55267442Y-108910020D01*
X55173051Y-108949117D01*
X55133954Y-108965312D01*
X55086717Y-108974708D01*
X54992245Y-108993500D01*
X54847755Y-108993500D01*
X54753283Y-108974708D01*
X54706046Y-108965312D01*
X54666949Y-108949117D01*
X54572558Y-108910020D01*
X54500541Y-108861900D01*
X54452421Y-108829747D01*
X54350253Y-108727579D01*
X54318100Y-108679459D01*
X54269980Y-108607442D01*
X54214688Y-108473953D01*
X54186500Y-108332245D01*
X54186500Y-108187755D01*
X54214688Y-108046047D01*
X54269980Y-107912558D01*
X54318100Y-107840541D01*
X54350253Y-107792421D01*
X54452421Y-107690253D01*
X54500541Y-107658100D01*
X54572558Y-107609980D01*
X54666949Y-107570883D01*
X54706046Y-107554688D01*
X54753283Y-107545292D01*
X54847755Y-107526500D01*
X54992245Y-107526500D01*
X55086717Y-107545292D01*
G37*
G36*
X55086717Y-105005292D02*
G01*
X55133954Y-105014688D01*
X55173051Y-105030883D01*
X55267442Y-105069980D01*
X55339459Y-105118100D01*
X55387579Y-105150253D01*
X55489747Y-105252421D01*
X55521900Y-105300541D01*
X55570020Y-105372558D01*
X55625312Y-105506047D01*
X55653500Y-105647755D01*
X55653500Y-105792245D01*
X55625312Y-105933953D01*
X55570020Y-106067442D01*
X55521900Y-106139459D01*
X55489747Y-106187579D01*
X55387579Y-106289747D01*
X55339459Y-106321900D01*
X55267442Y-106370020D01*
X55173051Y-106409117D01*
X55133954Y-106425312D01*
X55086717Y-106434708D01*
X54992245Y-106453500D01*
X54847755Y-106453500D01*
X54753283Y-106434708D01*
X54706046Y-106425312D01*
X54666949Y-106409117D01*
X54572558Y-106370020D01*
X54500541Y-106321900D01*
X54452421Y-106289747D01*
X54350253Y-106187579D01*
X54318100Y-106139459D01*
X54269980Y-106067442D01*
X54214688Y-105933953D01*
X54186500Y-105792245D01*
X54186500Y-105647755D01*
X54214688Y-105506047D01*
X54269980Y-105372558D01*
X54318100Y-105300541D01*
X54350253Y-105252421D01*
X54452421Y-105150253D01*
X54500541Y-105118100D01*
X54572558Y-105069980D01*
X54666949Y-105030883D01*
X54706046Y-105014688D01*
X54753283Y-105005292D01*
X54847755Y-104986500D01*
X54992245Y-104986500D01*
X55086717Y-105005292D01*
G37*
G36*
X57626717Y-105005292D02*
G01*
X57673954Y-105014688D01*
X57713051Y-105030883D01*
X57807442Y-105069980D01*
X57879459Y-105118100D01*
X57927579Y-105150253D01*
X58029747Y-105252421D01*
X58061900Y-105300541D01*
X58110020Y-105372558D01*
X58165312Y-105506047D01*
X58193500Y-105647755D01*
X58193500Y-105792245D01*
X58165312Y-105933953D01*
X58110020Y-106067442D01*
X58061900Y-106139459D01*
X58029747Y-106187579D01*
X57927579Y-106289747D01*
X57879459Y-106321900D01*
X57807442Y-106370020D01*
X57713051Y-106409117D01*
X57673954Y-106425312D01*
X57626717Y-106434708D01*
X57532245Y-106453500D01*
X57387755Y-106453500D01*
X57293283Y-106434708D01*
X57246046Y-106425312D01*
X57206949Y-106409117D01*
X57112558Y-106370020D01*
X57040541Y-106321900D01*
X56992421Y-106289747D01*
X56890253Y-106187579D01*
X56858100Y-106139459D01*
X56809980Y-106067442D01*
X56754688Y-105933953D01*
X56726500Y-105792245D01*
X56726500Y-105647755D01*
X56754688Y-105506047D01*
X56809980Y-105372558D01*
X56858100Y-105300541D01*
X56890253Y-105252421D01*
X56992421Y-105150253D01*
X57040541Y-105118100D01*
X57112558Y-105069980D01*
X57206949Y-105030883D01*
X57246046Y-105014688D01*
X57293283Y-105005292D01*
X57387755Y-104986500D01*
X57532245Y-104986500D01*
X57626717Y-105005292D01*
G37*
G36*
X60166717Y-105005292D02*
G01*
X60213954Y-105014688D01*
X60253051Y-105030883D01*
X60347442Y-105069980D01*
X60419459Y-105118100D01*
X60467579Y-105150253D01*
X60569747Y-105252421D01*
X60601900Y-105300541D01*
X60650020Y-105372558D01*
X60705312Y-105506047D01*
X60733500Y-105647755D01*
X60733500Y-105792245D01*
X60705312Y-105933953D01*
X60650020Y-106067442D01*
X60601900Y-106139459D01*
X60569747Y-106187579D01*
X60467579Y-106289747D01*
X60419459Y-106321900D01*
X60347442Y-106370020D01*
X60253051Y-106409117D01*
X60213954Y-106425312D01*
X60166717Y-106434708D01*
X60072245Y-106453500D01*
X59927755Y-106453500D01*
X59833283Y-106434708D01*
X59786046Y-106425312D01*
X59746949Y-106409117D01*
X59652558Y-106370020D01*
X59580541Y-106321900D01*
X59532421Y-106289747D01*
X59430253Y-106187579D01*
X59398100Y-106139459D01*
X59349980Y-106067442D01*
X59294688Y-105933953D01*
X59266500Y-105792245D01*
X59266500Y-105647755D01*
X59294688Y-105506047D01*
X59349980Y-105372558D01*
X59398100Y-105300541D01*
X59430253Y-105252421D01*
X59532421Y-105150253D01*
X59580541Y-105118100D01*
X59652558Y-105069980D01*
X59746949Y-105030883D01*
X59786046Y-105014688D01*
X59833283Y-105005292D01*
X59927755Y-104986500D01*
X60072245Y-104986500D01*
X60166717Y-105005292D01*
G37*
G36*
X60166717Y-102465292D02*
G01*
X60213954Y-102474688D01*
X60253051Y-102490883D01*
X60347442Y-102529980D01*
X60419459Y-102578100D01*
X60467579Y-102610253D01*
X60569747Y-102712421D01*
X60601900Y-102760541D01*
X60650020Y-102832558D01*
X60705312Y-102966047D01*
X60733500Y-103107755D01*
X60733500Y-103252245D01*
X60705312Y-103393953D01*
X60650020Y-103527442D01*
X60601900Y-103599459D01*
X60569747Y-103647579D01*
X60467579Y-103749747D01*
X60419459Y-103781900D01*
X60347442Y-103830020D01*
X60253051Y-103869117D01*
X60213954Y-103885312D01*
X60166717Y-103894708D01*
X60072245Y-103913500D01*
X59927755Y-103913500D01*
X59833283Y-103894708D01*
X59786046Y-103885312D01*
X59746949Y-103869117D01*
X59652558Y-103830020D01*
X59580541Y-103781900D01*
X59532421Y-103749747D01*
X59430253Y-103647579D01*
X59398100Y-103599459D01*
X59349980Y-103527442D01*
X59294688Y-103393953D01*
X59266500Y-103252245D01*
X59266500Y-103107755D01*
X59294688Y-102966047D01*
X59349980Y-102832558D01*
X59398100Y-102760541D01*
X59430253Y-102712421D01*
X59532421Y-102610253D01*
X59580541Y-102578100D01*
X59652558Y-102529980D01*
X59746949Y-102490883D01*
X59786046Y-102474688D01*
X59833283Y-102465292D01*
X59927755Y-102446500D01*
X60072245Y-102446500D01*
X60166717Y-102465292D01*
G37*
G36*
X57626717Y-102465292D02*
G01*
X57673954Y-102474688D01*
X57713051Y-102490883D01*
X57807442Y-102529980D01*
X57879459Y-102578100D01*
X57927579Y-102610253D01*
X58029747Y-102712421D01*
X58061900Y-102760541D01*
X58110020Y-102832558D01*
X58165312Y-102966047D01*
X58193500Y-103107755D01*
X58193500Y-103252245D01*
X58165312Y-103393953D01*
X58110020Y-103527442D01*
X58061900Y-103599459D01*
X58029747Y-103647579D01*
X57927579Y-103749747D01*
X57879459Y-103781900D01*
X57807442Y-103830020D01*
X57713051Y-103869117D01*
X57673954Y-103885312D01*
X57626717Y-103894708D01*
X57532245Y-103913500D01*
X57387755Y-103913500D01*
X57293283Y-103894708D01*
X57246046Y-103885312D01*
X57206949Y-103869117D01*
X57112558Y-103830020D01*
X57040541Y-103781900D01*
X56992421Y-103749747D01*
X56890253Y-103647579D01*
X56858100Y-103599459D01*
X56809980Y-103527442D01*
X56754688Y-103393953D01*
X56726500Y-103252245D01*
X56726500Y-103107755D01*
X56754688Y-102966047D01*
X56809980Y-102832558D01*
X56858100Y-102760541D01*
X56890253Y-102712421D01*
X56992421Y-102610253D01*
X57040541Y-102578100D01*
X57112558Y-102529980D01*
X57206949Y-102490883D01*
X57246046Y-102474688D01*
X57293283Y-102465292D01*
X57387755Y-102446500D01*
X57532245Y-102446500D01*
X57626717Y-102465292D01*
G37*
G36*
X55086717Y-102465292D02*
G01*
X55133954Y-102474688D01*
X55173051Y-102490883D01*
X55267442Y-102529980D01*
X55339459Y-102578100D01*
X55387579Y-102610253D01*
X55489747Y-102712421D01*
X55521900Y-102760541D01*
X55570020Y-102832558D01*
X55625312Y-102966047D01*
X55653500Y-103107755D01*
X55653500Y-103252245D01*
X55625312Y-103393953D01*
X55570020Y-103527442D01*
X55521900Y-103599459D01*
X55489747Y-103647579D01*
X55387579Y-103749747D01*
X55339459Y-103781900D01*
X55267442Y-103830020D01*
X55173051Y-103869117D01*
X55133954Y-103885312D01*
X55086717Y-103894708D01*
X54992245Y-103913500D01*
X54847755Y-103913500D01*
X54753283Y-103894708D01*
X54706046Y-103885312D01*
X54666949Y-103869117D01*
X54572558Y-103830020D01*
X54500541Y-103781900D01*
X54452421Y-103749747D01*
X54350253Y-103647579D01*
X54318100Y-103599459D01*
X54269980Y-103527442D01*
X54214688Y-103393953D01*
X54186500Y-103252245D01*
X54186500Y-103107755D01*
X54214688Y-102966047D01*
X54269980Y-102832558D01*
X54318100Y-102760541D01*
X54350253Y-102712421D01*
X54452421Y-102610253D01*
X54500541Y-102578100D01*
X54572558Y-102529980D01*
X54666949Y-102490883D01*
X54706046Y-102474688D01*
X54753283Y-102465292D01*
X54847755Y-102446500D01*
X54992245Y-102446500D01*
X55086717Y-102465292D01*
G37*
G36*
X57626717Y-99925292D02*
G01*
X57673954Y-99934688D01*
X57713051Y-99950883D01*
X57807442Y-99989980D01*
X57879459Y-100038100D01*
X57927579Y-100070253D01*
X58029747Y-100172421D01*
X58061900Y-100220541D01*
X58110020Y-100292558D01*
X58165312Y-100426047D01*
X58193500Y-100567755D01*
X58193500Y-100712245D01*
X58165312Y-100853953D01*
X58110020Y-100987442D01*
X58061900Y-101059459D01*
X58029747Y-101107579D01*
X57927579Y-101209747D01*
X57879459Y-101241900D01*
X57807442Y-101290020D01*
X57713051Y-101329117D01*
X57673954Y-101345312D01*
X57626717Y-101354708D01*
X57532245Y-101373500D01*
X57387755Y-101373500D01*
X57293283Y-101354708D01*
X57246046Y-101345312D01*
X57206949Y-101329117D01*
X57112558Y-101290020D01*
X57040541Y-101241900D01*
X56992421Y-101209747D01*
X56890253Y-101107579D01*
X56858100Y-101059459D01*
X56809980Y-100987442D01*
X56754688Y-100853953D01*
X56726500Y-100712245D01*
X56726500Y-100567755D01*
X56754688Y-100426047D01*
X56809980Y-100292558D01*
X56858100Y-100220541D01*
X56890253Y-100172421D01*
X56992421Y-100070253D01*
X57040541Y-100038100D01*
X57112558Y-99989980D01*
X57206949Y-99950883D01*
X57246046Y-99934688D01*
X57293283Y-99925292D01*
X57387755Y-99906500D01*
X57532245Y-99906500D01*
X57626717Y-99925292D01*
G37*
G36*
X55086717Y-99925292D02*
G01*
X55133954Y-99934688D01*
X55173051Y-99950883D01*
X55267442Y-99989980D01*
X55339459Y-100038100D01*
X55387579Y-100070253D01*
X55489747Y-100172421D01*
X55521900Y-100220541D01*
X55570020Y-100292558D01*
X55625312Y-100426047D01*
X55653500Y-100567755D01*
X55653500Y-100712245D01*
X55625312Y-100853953D01*
X55570020Y-100987442D01*
X55521900Y-101059459D01*
X55489747Y-101107579D01*
X55387579Y-101209747D01*
X55339459Y-101241900D01*
X55267442Y-101290020D01*
X55173051Y-101329117D01*
X55133954Y-101345312D01*
X55086717Y-101354708D01*
X54992245Y-101373500D01*
X54847755Y-101373500D01*
X54753283Y-101354708D01*
X54706046Y-101345312D01*
X54666949Y-101329117D01*
X54572558Y-101290020D01*
X54500541Y-101241900D01*
X54452421Y-101209747D01*
X54350253Y-101107579D01*
X54318100Y-101059459D01*
X54269980Y-100987442D01*
X54214688Y-100853953D01*
X54186500Y-100712245D01*
X54186500Y-100567755D01*
X54214688Y-100426047D01*
X54269980Y-100292558D01*
X54318100Y-100220541D01*
X54350253Y-100172421D01*
X54452421Y-100070253D01*
X54500541Y-100038100D01*
X54572558Y-99989980D01*
X54666949Y-99950883D01*
X54706046Y-99934688D01*
X54753283Y-99925292D01*
X54847755Y-99906500D01*
X54992245Y-99906500D01*
X55086717Y-99925292D01*
G37*
G36*
X60166717Y-99925292D02*
G01*
X60213954Y-99934688D01*
X60253051Y-99950883D01*
X60347442Y-99989980D01*
X60419459Y-100038100D01*
X60467579Y-100070253D01*
X60569747Y-100172421D01*
X60601900Y-100220541D01*
X60650020Y-100292558D01*
X60705312Y-100426047D01*
X60733500Y-100567755D01*
X60733500Y-100712245D01*
X60705312Y-100853953D01*
X60650020Y-100987442D01*
X60601900Y-101059459D01*
X60569747Y-101107579D01*
X60467579Y-101209747D01*
X60419459Y-101241900D01*
X60347442Y-101290020D01*
X60253051Y-101329117D01*
X60213954Y-101345312D01*
X60166717Y-101354708D01*
X60072245Y-101373500D01*
X59927755Y-101373500D01*
X59833283Y-101354708D01*
X59786046Y-101345312D01*
X59746949Y-101329117D01*
X59652558Y-101290020D01*
X59580541Y-101241900D01*
X59532421Y-101209747D01*
X59430253Y-101107579D01*
X59398100Y-101059459D01*
X59349980Y-100987442D01*
X59294688Y-100853953D01*
X59266500Y-100712245D01*
X59266500Y-100567755D01*
X59294688Y-100426047D01*
X59349980Y-100292558D01*
X59398100Y-100220541D01*
X59430253Y-100172421D01*
X59532421Y-100070253D01*
X59580541Y-100038100D01*
X59652558Y-99989980D01*
X59746949Y-99950883D01*
X59786046Y-99934688D01*
X59833283Y-99925292D01*
X59927755Y-99906500D01*
X60072245Y-99906500D01*
X60166717Y-99925292D01*
G37*
G36*
X57626717Y-97385292D02*
G01*
X57673954Y-97394688D01*
X57713051Y-97410883D01*
X57807442Y-97449980D01*
X57879459Y-97498100D01*
X57927579Y-97530253D01*
X58029747Y-97632421D01*
X58061900Y-97680541D01*
X58110020Y-97752558D01*
X58165312Y-97886047D01*
X58193500Y-98027755D01*
X58193500Y-98172245D01*
X58165312Y-98313953D01*
X58110020Y-98447442D01*
X58061900Y-98519459D01*
X58029747Y-98567579D01*
X57927579Y-98669747D01*
X57879459Y-98701900D01*
X57807442Y-98750020D01*
X57713051Y-98789117D01*
X57673954Y-98805312D01*
X57626717Y-98814708D01*
X57532245Y-98833500D01*
X57387755Y-98833500D01*
X57293283Y-98814708D01*
X57246046Y-98805312D01*
X57206949Y-98789117D01*
X57112558Y-98750020D01*
X57040541Y-98701900D01*
X56992421Y-98669747D01*
X56890253Y-98567579D01*
X56858100Y-98519459D01*
X56809980Y-98447442D01*
X56754688Y-98313953D01*
X56726500Y-98172245D01*
X56726500Y-98027755D01*
X56754688Y-97886047D01*
X56809980Y-97752558D01*
X56858100Y-97680541D01*
X56890253Y-97632421D01*
X56992421Y-97530253D01*
X57040541Y-97498100D01*
X57112558Y-97449980D01*
X57206949Y-97410883D01*
X57246046Y-97394688D01*
X57293283Y-97385292D01*
X57387755Y-97366500D01*
X57532245Y-97366500D01*
X57626717Y-97385292D01*
G37*
G36*
X55086717Y-97385292D02*
G01*
X55133954Y-97394688D01*
X55173051Y-97410883D01*
X55267442Y-97449980D01*
X55339459Y-97498100D01*
X55387579Y-97530253D01*
X55489747Y-97632421D01*
X55521900Y-97680541D01*
X55570020Y-97752558D01*
X55625312Y-97886047D01*
X55653500Y-98027755D01*
X55653500Y-98172245D01*
X55625312Y-98313953D01*
X55570020Y-98447442D01*
X55521900Y-98519459D01*
X55489747Y-98567579D01*
X55387579Y-98669747D01*
X55339459Y-98701900D01*
X55267442Y-98750020D01*
X55173051Y-98789117D01*
X55133954Y-98805312D01*
X55086717Y-98814708D01*
X54992245Y-98833500D01*
X54847755Y-98833500D01*
X54753283Y-98814708D01*
X54706046Y-98805312D01*
X54666949Y-98789117D01*
X54572558Y-98750020D01*
X54500541Y-98701900D01*
X54452421Y-98669747D01*
X54350253Y-98567579D01*
X54318100Y-98519459D01*
X54269980Y-98447442D01*
X54214688Y-98313953D01*
X54186500Y-98172245D01*
X54186500Y-98027755D01*
X54214688Y-97886047D01*
X54269980Y-97752558D01*
X54318100Y-97680541D01*
X54350253Y-97632421D01*
X54452421Y-97530253D01*
X54500541Y-97498100D01*
X54572558Y-97449980D01*
X54666949Y-97410883D01*
X54706046Y-97394688D01*
X54753283Y-97385292D01*
X54847755Y-97366500D01*
X54992245Y-97366500D01*
X55086717Y-97385292D01*
G37*
G36*
X60166717Y-97385292D02*
G01*
X60213954Y-97394688D01*
X60253051Y-97410883D01*
X60347442Y-97449980D01*
X60419459Y-97498100D01*
X60467579Y-97530253D01*
X60569747Y-97632421D01*
X60601900Y-97680541D01*
X60650020Y-97752558D01*
X60705312Y-97886047D01*
X60733500Y-98027755D01*
X60733500Y-98172245D01*
X60705312Y-98313953D01*
X60650020Y-98447442D01*
X60601900Y-98519459D01*
X60569747Y-98567579D01*
X60467579Y-98669747D01*
X60419459Y-98701900D01*
X60347442Y-98750020D01*
X60253051Y-98789117D01*
X60213954Y-98805312D01*
X60166717Y-98814708D01*
X60072245Y-98833500D01*
X59927755Y-98833500D01*
X59833283Y-98814708D01*
X59786046Y-98805312D01*
X59746949Y-98789117D01*
X59652558Y-98750020D01*
X59580541Y-98701900D01*
X59532421Y-98669747D01*
X59430253Y-98567579D01*
X59398100Y-98519459D01*
X59349980Y-98447442D01*
X59294688Y-98313953D01*
X59266500Y-98172245D01*
X59266500Y-98027755D01*
X59294688Y-97886047D01*
X59349980Y-97752558D01*
X59398100Y-97680541D01*
X59430253Y-97632421D01*
X59532421Y-97530253D01*
X59580541Y-97498100D01*
X59652558Y-97449980D01*
X59746949Y-97410883D01*
X59786046Y-97394688D01*
X59833283Y-97385292D01*
X59927755Y-97366500D01*
X60072245Y-97366500D01*
X60166717Y-97385292D01*
G37*
G36*
X60166717Y-94845292D02*
G01*
X60213954Y-94854688D01*
X60253051Y-94870883D01*
X60347442Y-94909980D01*
X60419459Y-94958100D01*
X60467579Y-94990253D01*
X60569747Y-95092421D01*
X60601900Y-95140541D01*
X60650020Y-95212558D01*
X60705312Y-95346047D01*
X60733500Y-95487755D01*
X60733500Y-95632245D01*
X60705312Y-95773953D01*
X60650020Y-95907442D01*
X60601900Y-95979459D01*
X60569747Y-96027579D01*
X60467579Y-96129747D01*
X60419459Y-96161900D01*
X60347442Y-96210020D01*
X60253051Y-96249117D01*
X60213954Y-96265312D01*
X60166717Y-96274708D01*
X60072245Y-96293500D01*
X59927755Y-96293500D01*
X59833283Y-96274708D01*
X59786046Y-96265312D01*
X59746949Y-96249117D01*
X59652558Y-96210020D01*
X59580541Y-96161900D01*
X59532421Y-96129747D01*
X59430253Y-96027579D01*
X59398100Y-95979459D01*
X59349980Y-95907442D01*
X59294688Y-95773953D01*
X59266500Y-95632245D01*
X59266500Y-95487755D01*
X59294688Y-95346047D01*
X59349980Y-95212558D01*
X59398100Y-95140541D01*
X59430253Y-95092421D01*
X59532421Y-94990253D01*
X59580541Y-94958100D01*
X59652558Y-94909980D01*
X59746949Y-94870883D01*
X59786046Y-94854688D01*
X59833283Y-94845292D01*
X59927755Y-94826500D01*
X60072245Y-94826500D01*
X60166717Y-94845292D01*
G37*
G36*
X57626717Y-94845292D02*
G01*
X57673954Y-94854688D01*
X57713051Y-94870883D01*
X57807442Y-94909980D01*
X57879459Y-94958100D01*
X57927579Y-94990253D01*
X58029747Y-95092421D01*
X58061900Y-95140541D01*
X58110020Y-95212558D01*
X58165312Y-95346047D01*
X58193500Y-95487755D01*
X58193500Y-95632245D01*
X58165312Y-95773953D01*
X58110020Y-95907442D01*
X58061900Y-95979459D01*
X58029747Y-96027579D01*
X57927579Y-96129747D01*
X57879459Y-96161900D01*
X57807442Y-96210020D01*
X57713051Y-96249117D01*
X57673954Y-96265312D01*
X57626717Y-96274708D01*
X57532245Y-96293500D01*
X57387755Y-96293500D01*
X57293283Y-96274708D01*
X57246046Y-96265312D01*
X57206949Y-96249117D01*
X57112558Y-96210020D01*
X57040541Y-96161900D01*
X56992421Y-96129747D01*
X56890253Y-96027579D01*
X56858100Y-95979459D01*
X56809980Y-95907442D01*
X56754688Y-95773953D01*
X56726500Y-95632245D01*
X56726500Y-95487755D01*
X56754688Y-95346047D01*
X56809980Y-95212558D01*
X56858100Y-95140541D01*
X56890253Y-95092421D01*
X56992421Y-94990253D01*
X57040541Y-94958100D01*
X57112558Y-94909980D01*
X57206949Y-94870883D01*
X57246046Y-94854688D01*
X57293283Y-94845292D01*
X57387755Y-94826500D01*
X57532245Y-94826500D01*
X57626717Y-94845292D01*
G37*
G36*
X55086717Y-94845292D02*
G01*
X55133954Y-94854688D01*
X55173051Y-94870883D01*
X55267442Y-94909980D01*
X55339459Y-94958100D01*
X55387579Y-94990253D01*
X55489747Y-95092421D01*
X55521900Y-95140541D01*
X55570020Y-95212558D01*
X55625312Y-95346047D01*
X55653500Y-95487755D01*
X55653500Y-95632245D01*
X55625312Y-95773953D01*
X55570020Y-95907442D01*
X55521900Y-95979459D01*
X55489747Y-96027579D01*
X55387579Y-96129747D01*
X55339459Y-96161900D01*
X55267442Y-96210020D01*
X55173051Y-96249117D01*
X55133954Y-96265312D01*
X55086717Y-96274708D01*
X54992245Y-96293500D01*
X54847755Y-96293500D01*
X54753283Y-96274708D01*
X54706046Y-96265312D01*
X54666949Y-96249117D01*
X54572558Y-96210020D01*
X54500541Y-96161900D01*
X54452421Y-96129747D01*
X54350253Y-96027579D01*
X54318100Y-95979459D01*
X54269980Y-95907442D01*
X54214688Y-95773953D01*
X54186500Y-95632245D01*
X54186500Y-95487755D01*
X54214688Y-95346047D01*
X54269980Y-95212558D01*
X54318100Y-95140541D01*
X54350253Y-95092421D01*
X54452421Y-94990253D01*
X54500541Y-94958100D01*
X54572558Y-94909980D01*
X54666949Y-94870883D01*
X54706046Y-94854688D01*
X54753283Y-94845292D01*
X54847755Y-94826500D01*
X54992245Y-94826500D01*
X55086717Y-94845292D01*
G37*
G36*
X60166717Y-92305292D02*
G01*
X60213954Y-92314688D01*
X60253051Y-92330883D01*
X60347442Y-92369980D01*
X60419459Y-92418100D01*
X60467579Y-92450253D01*
X60569747Y-92552421D01*
X60601900Y-92600541D01*
X60650020Y-92672558D01*
X60705312Y-92806047D01*
X60733500Y-92947755D01*
X60733500Y-93092245D01*
X60705312Y-93233953D01*
X60650020Y-93367442D01*
X60601900Y-93439459D01*
X60569747Y-93487579D01*
X60467579Y-93589747D01*
X60419459Y-93621900D01*
X60347442Y-93670020D01*
X60253051Y-93709117D01*
X60213954Y-93725312D01*
X60166717Y-93734708D01*
X60072245Y-93753500D01*
X59927755Y-93753500D01*
X59833283Y-93734708D01*
X59786046Y-93725312D01*
X59746949Y-93709117D01*
X59652558Y-93670020D01*
X59580541Y-93621900D01*
X59532421Y-93589747D01*
X59430253Y-93487579D01*
X59398100Y-93439459D01*
X59349980Y-93367442D01*
X59294688Y-93233953D01*
X59266500Y-93092245D01*
X59266500Y-92947755D01*
X59294688Y-92806047D01*
X59349980Y-92672558D01*
X59398100Y-92600541D01*
X59430253Y-92552421D01*
X59532421Y-92450253D01*
X59580541Y-92418100D01*
X59652558Y-92369980D01*
X59746949Y-92330883D01*
X59786046Y-92314688D01*
X59833283Y-92305292D01*
X59927755Y-92286500D01*
X60072245Y-92286500D01*
X60166717Y-92305292D01*
G37*
G36*
X55086717Y-92305292D02*
G01*
X55133954Y-92314688D01*
X55173051Y-92330883D01*
X55267442Y-92369980D01*
X55339459Y-92418100D01*
X55387579Y-92450253D01*
X55489747Y-92552421D01*
X55521900Y-92600541D01*
X55570020Y-92672558D01*
X55625312Y-92806047D01*
X55653500Y-92947755D01*
X55653500Y-93092245D01*
X55625312Y-93233953D01*
X55570020Y-93367442D01*
X55521900Y-93439459D01*
X55489747Y-93487579D01*
X55387579Y-93589747D01*
X55339459Y-93621900D01*
X55267442Y-93670020D01*
X55173051Y-93709117D01*
X55133954Y-93725312D01*
X55086717Y-93734708D01*
X54992245Y-93753500D01*
X54847755Y-93753500D01*
X54753283Y-93734708D01*
X54706046Y-93725312D01*
X54666949Y-93709117D01*
X54572558Y-93670020D01*
X54500541Y-93621900D01*
X54452421Y-93589747D01*
X54350253Y-93487579D01*
X54318100Y-93439459D01*
X54269980Y-93367442D01*
X54214688Y-93233953D01*
X54186500Y-93092245D01*
X54186500Y-92947755D01*
X54214688Y-92806047D01*
X54269980Y-92672558D01*
X54318100Y-92600541D01*
X54350253Y-92552421D01*
X54452421Y-92450253D01*
X54500541Y-92418100D01*
X54572558Y-92369980D01*
X54666949Y-92330883D01*
X54706046Y-92314688D01*
X54753283Y-92305292D01*
X54847755Y-92286500D01*
X54992245Y-92286500D01*
X55086717Y-92305292D01*
G37*
G36*
X57626717Y-92305292D02*
G01*
X57673954Y-92314688D01*
X57713051Y-92330883D01*
X57807442Y-92369980D01*
X57879459Y-92418100D01*
X57927579Y-92450253D01*
X58029747Y-92552421D01*
X58061900Y-92600541D01*
X58110020Y-92672558D01*
X58165312Y-92806047D01*
X58193500Y-92947755D01*
X58193500Y-93092245D01*
X58165312Y-93233953D01*
X58110020Y-93367442D01*
X58061900Y-93439459D01*
X58029747Y-93487579D01*
X57927579Y-93589747D01*
X57879459Y-93621900D01*
X57807442Y-93670020D01*
X57713051Y-93709117D01*
X57673954Y-93725312D01*
X57626717Y-93734708D01*
X57532245Y-93753500D01*
X57387755Y-93753500D01*
X57293283Y-93734708D01*
X57246046Y-93725312D01*
X57206949Y-93709117D01*
X57112558Y-93670020D01*
X57040541Y-93621900D01*
X56992421Y-93589747D01*
X56890253Y-93487579D01*
X56858100Y-93439459D01*
X56809980Y-93367442D01*
X56754688Y-93233953D01*
X56726500Y-93092245D01*
X56726500Y-92947755D01*
X56754688Y-92806047D01*
X56809980Y-92672558D01*
X56858100Y-92600541D01*
X56890253Y-92552421D01*
X56992421Y-92450253D01*
X57040541Y-92418100D01*
X57112558Y-92369980D01*
X57206949Y-92330883D01*
X57246046Y-92314688D01*
X57293283Y-92305292D01*
X57387755Y-92286500D01*
X57532245Y-92286500D01*
X57626717Y-92305292D01*
G37*
G36*
X112010443Y-90455519D02*
G01*
X112076627Y-90462037D01*
X112246466Y-90513557D01*
X112402991Y-90597222D01*
X112438729Y-90626552D01*
X112540186Y-90709814D01*
X112623448Y-90811271D01*
X112652778Y-90847009D01*
X112736443Y-91003534D01*
X112787963Y-91173373D01*
X112805359Y-91350000D01*
X112787963Y-91526627D01*
X112736443Y-91696466D01*
X112652778Y-91852991D01*
X112623448Y-91888729D01*
X112540186Y-91990186D01*
X112438729Y-92073448D01*
X112402991Y-92102778D01*
X112246466Y-92186443D01*
X112076627Y-92237963D01*
X112010443Y-92244481D01*
X111944260Y-92251000D01*
X110555740Y-92251000D01*
X110489557Y-92244481D01*
X110423373Y-92237963D01*
X110253534Y-92186443D01*
X110097009Y-92102778D01*
X110061271Y-92073448D01*
X109959814Y-91990186D01*
X109876552Y-91888729D01*
X109847222Y-91852991D01*
X109763557Y-91696466D01*
X109712037Y-91526627D01*
X109694641Y-91350000D01*
X109712037Y-91173373D01*
X109763557Y-91003534D01*
X109847222Y-90847009D01*
X109876552Y-90811271D01*
X109959814Y-90709814D01*
X110061271Y-90626552D01*
X110097009Y-90597222D01*
X110253534Y-90513557D01*
X110423373Y-90462037D01*
X110489557Y-90455519D01*
X110555740Y-90449000D01*
X111944260Y-90449000D01*
X112010443Y-90455519D01*
G37*
G36*
X95500443Y-90455519D02*
G01*
X95566627Y-90462037D01*
X95736466Y-90513557D01*
X95892991Y-90597222D01*
X95928729Y-90626552D01*
X96030186Y-90709814D01*
X96113448Y-90811271D01*
X96142778Y-90847009D01*
X96226443Y-91003534D01*
X96277963Y-91173373D01*
X96295359Y-91350000D01*
X96277963Y-91526627D01*
X96226443Y-91696466D01*
X96142778Y-91852991D01*
X96113448Y-91888729D01*
X96030186Y-91990186D01*
X95928729Y-92073448D01*
X95892991Y-92102778D01*
X95736466Y-92186443D01*
X95566627Y-92237963D01*
X95500443Y-92244481D01*
X95434260Y-92251000D01*
X94045740Y-92251000D01*
X93979557Y-92244481D01*
X93913373Y-92237963D01*
X93743534Y-92186443D01*
X93587009Y-92102778D01*
X93551271Y-92073448D01*
X93449814Y-91990186D01*
X93366552Y-91888729D01*
X93337222Y-91852991D01*
X93253557Y-91696466D01*
X93202037Y-91526627D01*
X93184641Y-91350000D01*
X93202037Y-91173373D01*
X93253557Y-91003534D01*
X93337222Y-90847009D01*
X93366552Y-90811271D01*
X93449814Y-90709814D01*
X93551271Y-90626552D01*
X93587009Y-90597222D01*
X93743534Y-90513557D01*
X93913373Y-90462037D01*
X93979557Y-90455519D01*
X94045740Y-90449000D01*
X95434260Y-90449000D01*
X95500443Y-90455519D01*
G37*
G36*
X57626717Y-89765292D02*
G01*
X57673954Y-89774688D01*
X57713051Y-89790883D01*
X57807442Y-89829980D01*
X57879459Y-89878100D01*
X57927579Y-89910253D01*
X58029747Y-90012421D01*
X58061900Y-90060541D01*
X58110020Y-90132558D01*
X58165312Y-90266047D01*
X58193500Y-90407755D01*
X58193500Y-90552245D01*
X58184553Y-90597222D01*
X58165312Y-90693954D01*
X58158742Y-90709815D01*
X58110020Y-90827442D01*
X58096944Y-90847011D01*
X58029747Y-90947579D01*
X57927579Y-91049747D01*
X57879459Y-91081900D01*
X57807442Y-91130020D01*
X57713051Y-91169117D01*
X57673954Y-91185312D01*
X57626717Y-91194708D01*
X57532245Y-91213500D01*
X57387755Y-91213500D01*
X57293283Y-91194708D01*
X57246046Y-91185312D01*
X57206949Y-91169117D01*
X57112558Y-91130020D01*
X57040541Y-91081900D01*
X56992421Y-91049747D01*
X56890253Y-90947579D01*
X56823056Y-90847011D01*
X56809980Y-90827442D01*
X56761258Y-90709815D01*
X56754688Y-90693954D01*
X56735447Y-90597222D01*
X56726500Y-90552245D01*
X56726500Y-90407755D01*
X56754688Y-90266047D01*
X56809980Y-90132558D01*
X56858100Y-90060541D01*
X56890253Y-90012421D01*
X56992421Y-89910253D01*
X57040541Y-89878100D01*
X57112558Y-89829980D01*
X57206949Y-89790883D01*
X57246046Y-89774688D01*
X57293283Y-89765292D01*
X57387755Y-89746500D01*
X57532245Y-89746500D01*
X57626717Y-89765292D01*
G37*
G36*
X60166717Y-89765292D02*
G01*
X60213954Y-89774688D01*
X60253051Y-89790883D01*
X60347442Y-89829980D01*
X60419459Y-89878100D01*
X60467579Y-89910253D01*
X60569747Y-90012421D01*
X60601900Y-90060541D01*
X60650020Y-90132558D01*
X60705312Y-90266047D01*
X60733500Y-90407755D01*
X60733500Y-90552245D01*
X60724553Y-90597222D01*
X60705312Y-90693954D01*
X60698742Y-90709815D01*
X60650020Y-90827442D01*
X60636944Y-90847011D01*
X60569747Y-90947579D01*
X60467579Y-91049747D01*
X60419459Y-91081900D01*
X60347442Y-91130020D01*
X60253051Y-91169117D01*
X60213954Y-91185312D01*
X60166717Y-91194708D01*
X60072245Y-91213500D01*
X59927755Y-91213500D01*
X59833283Y-91194708D01*
X59786046Y-91185312D01*
X59746949Y-91169117D01*
X59652558Y-91130020D01*
X59580541Y-91081900D01*
X59532421Y-91049747D01*
X59430253Y-90947579D01*
X59363056Y-90847011D01*
X59349980Y-90827442D01*
X59301258Y-90709815D01*
X59294688Y-90693954D01*
X59275447Y-90597222D01*
X59266500Y-90552245D01*
X59266500Y-90407755D01*
X59294688Y-90266047D01*
X59349980Y-90132558D01*
X59398100Y-90060541D01*
X59430253Y-90012421D01*
X59532421Y-89910253D01*
X59580541Y-89878100D01*
X59652558Y-89829980D01*
X59746949Y-89790883D01*
X59786046Y-89774688D01*
X59833283Y-89765292D01*
X59927755Y-89746500D01*
X60072245Y-89746500D01*
X60166717Y-89765292D01*
G37*
G36*
X55086717Y-89765292D02*
G01*
X55133954Y-89774688D01*
X55173051Y-89790883D01*
X55267442Y-89829980D01*
X55339459Y-89878100D01*
X55387579Y-89910253D01*
X55489747Y-90012421D01*
X55521900Y-90060541D01*
X55570020Y-90132558D01*
X55625312Y-90266047D01*
X55653500Y-90407755D01*
X55653500Y-90552245D01*
X55644553Y-90597222D01*
X55625312Y-90693954D01*
X55618742Y-90709815D01*
X55570020Y-90827442D01*
X55556944Y-90847011D01*
X55489747Y-90947579D01*
X55387579Y-91049747D01*
X55339459Y-91081900D01*
X55267442Y-91130020D01*
X55173051Y-91169117D01*
X55133954Y-91185312D01*
X55086717Y-91194708D01*
X54992245Y-91213500D01*
X54847755Y-91213500D01*
X54753283Y-91194708D01*
X54706046Y-91185312D01*
X54666949Y-91169117D01*
X54572558Y-91130020D01*
X54500541Y-91081900D01*
X54452421Y-91049747D01*
X54350253Y-90947579D01*
X54283056Y-90847011D01*
X54269980Y-90827442D01*
X54221258Y-90709815D01*
X54214688Y-90693954D01*
X54195447Y-90597222D01*
X54186500Y-90552245D01*
X54186500Y-90407755D01*
X54214688Y-90266047D01*
X54269980Y-90132558D01*
X54318100Y-90060541D01*
X54350253Y-90012421D01*
X54452421Y-89910253D01*
X54500541Y-89878100D01*
X54572558Y-89829980D01*
X54666949Y-89790883D01*
X54706046Y-89774688D01*
X54753283Y-89765292D01*
X54847755Y-89746500D01*
X54992245Y-89746500D01*
X55086717Y-89765292D01*
G37*
G36*
X112010442Y-87915518D02*
G01*
X112076627Y-87922037D01*
X112246466Y-87973557D01*
X112402991Y-88057222D01*
X112438729Y-88086552D01*
X112540186Y-88169814D01*
X112623448Y-88271271D01*
X112652778Y-88307009D01*
X112736443Y-88463534D01*
X112787963Y-88633373D01*
X112805359Y-88810000D01*
X112787963Y-88986627D01*
X112736443Y-89156466D01*
X112652778Y-89312991D01*
X112623448Y-89348729D01*
X112540186Y-89450186D01*
X112438729Y-89533448D01*
X112402991Y-89562778D01*
X112246466Y-89646443D01*
X112076627Y-89697963D01*
X112010443Y-89704481D01*
X111944260Y-89711000D01*
X110555740Y-89711000D01*
X110489557Y-89704481D01*
X110423373Y-89697963D01*
X110253534Y-89646443D01*
X110097009Y-89562778D01*
X110061271Y-89533448D01*
X109959814Y-89450186D01*
X109876552Y-89348729D01*
X109847222Y-89312991D01*
X109763557Y-89156466D01*
X109712037Y-88986627D01*
X109694641Y-88810000D01*
X109712037Y-88633373D01*
X109763557Y-88463534D01*
X109847222Y-88307009D01*
X109876552Y-88271271D01*
X109959814Y-88169814D01*
X110061271Y-88086552D01*
X110097009Y-88057222D01*
X110253534Y-87973557D01*
X110423373Y-87922037D01*
X110489558Y-87915518D01*
X110555740Y-87909000D01*
X111944260Y-87909000D01*
X112010442Y-87915518D01*
G37*
G36*
X95500442Y-87915518D02*
G01*
X95566627Y-87922037D01*
X95736466Y-87973557D01*
X95892991Y-88057222D01*
X95928729Y-88086552D01*
X96030186Y-88169814D01*
X96113448Y-88271271D01*
X96142778Y-88307009D01*
X96226443Y-88463534D01*
X96277963Y-88633373D01*
X96295359Y-88810000D01*
X96277963Y-88986627D01*
X96226443Y-89156466D01*
X96142778Y-89312991D01*
X96113448Y-89348729D01*
X96030186Y-89450186D01*
X95928729Y-89533448D01*
X95892991Y-89562778D01*
X95736466Y-89646443D01*
X95566627Y-89697963D01*
X95500443Y-89704481D01*
X95434260Y-89711000D01*
X94045740Y-89711000D01*
X93979557Y-89704481D01*
X93913373Y-89697963D01*
X93743534Y-89646443D01*
X93587009Y-89562778D01*
X93551271Y-89533448D01*
X93449814Y-89450186D01*
X93366552Y-89348729D01*
X93337222Y-89312991D01*
X93253557Y-89156466D01*
X93202037Y-88986627D01*
X93184641Y-88810000D01*
X93202037Y-88633373D01*
X93253557Y-88463534D01*
X93337222Y-88307009D01*
X93366552Y-88271271D01*
X93449814Y-88169814D01*
X93551271Y-88086552D01*
X93587009Y-88057222D01*
X93743534Y-87973557D01*
X93913373Y-87922037D01*
X93979558Y-87915518D01*
X94045740Y-87909000D01*
X95434260Y-87909000D01*
X95500442Y-87915518D01*
G37*
G36*
X60166717Y-87225292D02*
G01*
X60213954Y-87234688D01*
X60253051Y-87250883D01*
X60347442Y-87289980D01*
X60419459Y-87338100D01*
X60467579Y-87370253D01*
X60569747Y-87472421D01*
X60601900Y-87520541D01*
X60650020Y-87592558D01*
X60705312Y-87726047D01*
X60733500Y-87867755D01*
X60733500Y-88012245D01*
X60724553Y-88057222D01*
X60705312Y-88153954D01*
X60698742Y-88169815D01*
X60650020Y-88287442D01*
X60636944Y-88307011D01*
X60569747Y-88407579D01*
X60467579Y-88509747D01*
X60419459Y-88541900D01*
X60347442Y-88590020D01*
X60253051Y-88629117D01*
X60213954Y-88645312D01*
X60166717Y-88654708D01*
X60072245Y-88673500D01*
X59927755Y-88673500D01*
X59833283Y-88654708D01*
X59786046Y-88645312D01*
X59746949Y-88629117D01*
X59652558Y-88590020D01*
X59580541Y-88541900D01*
X59532421Y-88509747D01*
X59430253Y-88407579D01*
X59363056Y-88307011D01*
X59349980Y-88287442D01*
X59301258Y-88169815D01*
X59294688Y-88153954D01*
X59275447Y-88057222D01*
X59266500Y-88012245D01*
X59266500Y-87867755D01*
X59294688Y-87726047D01*
X59349980Y-87592558D01*
X59398100Y-87520541D01*
X59430253Y-87472421D01*
X59532421Y-87370253D01*
X59580541Y-87338100D01*
X59652558Y-87289980D01*
X59746949Y-87250883D01*
X59786046Y-87234688D01*
X59833283Y-87225292D01*
X59927755Y-87206500D01*
X60072245Y-87206500D01*
X60166717Y-87225292D01*
G37*
G36*
X55086717Y-87225292D02*
G01*
X55133954Y-87234688D01*
X55173051Y-87250883D01*
X55267442Y-87289980D01*
X55339459Y-87338100D01*
X55387579Y-87370253D01*
X55489747Y-87472421D01*
X55521900Y-87520541D01*
X55570020Y-87592558D01*
X55625312Y-87726047D01*
X55653500Y-87867755D01*
X55653500Y-88012245D01*
X55644553Y-88057222D01*
X55625312Y-88153954D01*
X55618742Y-88169815D01*
X55570020Y-88287442D01*
X55556944Y-88307011D01*
X55489747Y-88407579D01*
X55387579Y-88509747D01*
X55339459Y-88541900D01*
X55267442Y-88590020D01*
X55173051Y-88629117D01*
X55133954Y-88645312D01*
X55086717Y-88654708D01*
X54992245Y-88673500D01*
X54847755Y-88673500D01*
X54753283Y-88654708D01*
X54706046Y-88645312D01*
X54666949Y-88629117D01*
X54572558Y-88590020D01*
X54500541Y-88541900D01*
X54452421Y-88509747D01*
X54350253Y-88407579D01*
X54283056Y-88307011D01*
X54269980Y-88287442D01*
X54221258Y-88169815D01*
X54214688Y-88153954D01*
X54195447Y-88057222D01*
X54186500Y-88012245D01*
X54186500Y-87867755D01*
X54214688Y-87726047D01*
X54269980Y-87592558D01*
X54318100Y-87520541D01*
X54350253Y-87472421D01*
X54452421Y-87370253D01*
X54500541Y-87338100D01*
X54572558Y-87289980D01*
X54666949Y-87250883D01*
X54706046Y-87234688D01*
X54753283Y-87225292D01*
X54847755Y-87206500D01*
X54992245Y-87206500D01*
X55086717Y-87225292D01*
G37*
G36*
X57626717Y-87225292D02*
G01*
X57673954Y-87234688D01*
X57713051Y-87250883D01*
X57807442Y-87289980D01*
X57879459Y-87338100D01*
X57927579Y-87370253D01*
X58029747Y-87472421D01*
X58061900Y-87520541D01*
X58110020Y-87592558D01*
X58165312Y-87726047D01*
X58193500Y-87867755D01*
X58193500Y-88012245D01*
X58184553Y-88057222D01*
X58165312Y-88153954D01*
X58158742Y-88169815D01*
X58110020Y-88287442D01*
X58096944Y-88307011D01*
X58029747Y-88407579D01*
X57927579Y-88509747D01*
X57879459Y-88541900D01*
X57807442Y-88590020D01*
X57713051Y-88629117D01*
X57673954Y-88645312D01*
X57626717Y-88654708D01*
X57532245Y-88673500D01*
X57387755Y-88673500D01*
X57293283Y-88654708D01*
X57246046Y-88645312D01*
X57206949Y-88629117D01*
X57112558Y-88590020D01*
X57040541Y-88541900D01*
X56992421Y-88509747D01*
X56890253Y-88407579D01*
X56823056Y-88307011D01*
X56809980Y-88287442D01*
X56761258Y-88169815D01*
X56754688Y-88153954D01*
X56735447Y-88057222D01*
X56726500Y-88012245D01*
X56726500Y-87867755D01*
X56754688Y-87726047D01*
X56809980Y-87592558D01*
X56858100Y-87520541D01*
X56890253Y-87472421D01*
X56992421Y-87370253D01*
X57040541Y-87338100D01*
X57112558Y-87289980D01*
X57206949Y-87250883D01*
X57246046Y-87234688D01*
X57293283Y-87225292D01*
X57387755Y-87206500D01*
X57532245Y-87206500D01*
X57626717Y-87225292D01*
G37*
G36*
X95500443Y-85375519D02*
G01*
X95566627Y-85382037D01*
X95736466Y-85433557D01*
X95892991Y-85517222D01*
X95928729Y-85546552D01*
X96030186Y-85629814D01*
X96113448Y-85731271D01*
X96142778Y-85767009D01*
X96226443Y-85923534D01*
X96277963Y-86093373D01*
X96295359Y-86270000D01*
X96277963Y-86446627D01*
X96226443Y-86616466D01*
X96142778Y-86772991D01*
X96113448Y-86808729D01*
X96030186Y-86910186D01*
X95928729Y-86993448D01*
X95892991Y-87022778D01*
X95736466Y-87106443D01*
X95566627Y-87157963D01*
X95500442Y-87164482D01*
X95434260Y-87171000D01*
X94045740Y-87171000D01*
X93979558Y-87164482D01*
X93913373Y-87157963D01*
X93743534Y-87106443D01*
X93587009Y-87022778D01*
X93551271Y-86993448D01*
X93449814Y-86910186D01*
X93366552Y-86808729D01*
X93337222Y-86772991D01*
X93253557Y-86616466D01*
X93202037Y-86446627D01*
X93184641Y-86270000D01*
X93202037Y-86093373D01*
X93253557Y-85923534D01*
X93337222Y-85767009D01*
X93366552Y-85731271D01*
X93449814Y-85629814D01*
X93551271Y-85546552D01*
X93587009Y-85517222D01*
X93743534Y-85433557D01*
X93913373Y-85382037D01*
X93979557Y-85375519D01*
X94045740Y-85369000D01*
X95434260Y-85369000D01*
X95500443Y-85375519D01*
G37*
G36*
X112010443Y-85375519D02*
G01*
X112076627Y-85382037D01*
X112246466Y-85433557D01*
X112402991Y-85517222D01*
X112438729Y-85546552D01*
X112540186Y-85629814D01*
X112623448Y-85731271D01*
X112652778Y-85767009D01*
X112736443Y-85923534D01*
X112787963Y-86093373D01*
X112805359Y-86270000D01*
X112787963Y-86446627D01*
X112736443Y-86616466D01*
X112652778Y-86772991D01*
X112623448Y-86808729D01*
X112540186Y-86910186D01*
X112438729Y-86993448D01*
X112402991Y-87022778D01*
X112246466Y-87106443D01*
X112076627Y-87157963D01*
X112010442Y-87164482D01*
X111944260Y-87171000D01*
X110555740Y-87171000D01*
X110489558Y-87164482D01*
X110423373Y-87157963D01*
X110253534Y-87106443D01*
X110097009Y-87022778D01*
X110061271Y-86993448D01*
X109959814Y-86910186D01*
X109876552Y-86808729D01*
X109847222Y-86772991D01*
X109763557Y-86616466D01*
X109712037Y-86446627D01*
X109694641Y-86270000D01*
X109712037Y-86093373D01*
X109763557Y-85923534D01*
X109847222Y-85767009D01*
X109876552Y-85731271D01*
X109959814Y-85629814D01*
X110061271Y-85546552D01*
X110097009Y-85517222D01*
X110253534Y-85433557D01*
X110423373Y-85382037D01*
X110489557Y-85375519D01*
X110555740Y-85369000D01*
X111944260Y-85369000D01*
X112010443Y-85375519D01*
G37*
G36*
X57626717Y-84685292D02*
G01*
X57673954Y-84694688D01*
X57713051Y-84710883D01*
X57807442Y-84749980D01*
X57879459Y-84798100D01*
X57927579Y-84830253D01*
X58029747Y-84932421D01*
X58061900Y-84980541D01*
X58110020Y-85052558D01*
X58165312Y-85186047D01*
X58193500Y-85327755D01*
X58193500Y-85472245D01*
X58184553Y-85517222D01*
X58165312Y-85613954D01*
X58158742Y-85629815D01*
X58110020Y-85747442D01*
X58096944Y-85767011D01*
X58029747Y-85867579D01*
X57927579Y-85969747D01*
X57879459Y-86001900D01*
X57807442Y-86050020D01*
X57713051Y-86089117D01*
X57673954Y-86105312D01*
X57626717Y-86114708D01*
X57532245Y-86133500D01*
X57387755Y-86133500D01*
X57293283Y-86114708D01*
X57246046Y-86105312D01*
X57206949Y-86089117D01*
X57112558Y-86050020D01*
X57040541Y-86001900D01*
X56992421Y-85969747D01*
X56890253Y-85867579D01*
X56823056Y-85767011D01*
X56809980Y-85747442D01*
X56761258Y-85629815D01*
X56754688Y-85613954D01*
X56735447Y-85517222D01*
X56726500Y-85472245D01*
X56726500Y-85327755D01*
X56754688Y-85186047D01*
X56809980Y-85052558D01*
X56858100Y-84980541D01*
X56890253Y-84932421D01*
X56992421Y-84830253D01*
X57040541Y-84798100D01*
X57112558Y-84749980D01*
X57206949Y-84710883D01*
X57246046Y-84694688D01*
X57293283Y-84685292D01*
X57387755Y-84666500D01*
X57532245Y-84666500D01*
X57626717Y-84685292D01*
G37*
G36*
X60166717Y-84685292D02*
G01*
X60213954Y-84694688D01*
X60253051Y-84710883D01*
X60347442Y-84749980D01*
X60419459Y-84798100D01*
X60467579Y-84830253D01*
X60569747Y-84932421D01*
X60601900Y-84980541D01*
X60650020Y-85052558D01*
X60705312Y-85186047D01*
X60733500Y-85327755D01*
X60733500Y-85472245D01*
X60724553Y-85517222D01*
X60705312Y-85613954D01*
X60698742Y-85629815D01*
X60650020Y-85747442D01*
X60636944Y-85767011D01*
X60569747Y-85867579D01*
X60467579Y-85969747D01*
X60419459Y-86001900D01*
X60347442Y-86050020D01*
X60253051Y-86089117D01*
X60213954Y-86105312D01*
X60166717Y-86114708D01*
X60072245Y-86133500D01*
X59927755Y-86133500D01*
X59833283Y-86114708D01*
X59786046Y-86105312D01*
X59746949Y-86089117D01*
X59652558Y-86050020D01*
X59580541Y-86001900D01*
X59532421Y-85969747D01*
X59430253Y-85867579D01*
X59363056Y-85767011D01*
X59349980Y-85747442D01*
X59301258Y-85629815D01*
X59294688Y-85613954D01*
X59275447Y-85517222D01*
X59266500Y-85472245D01*
X59266500Y-85327755D01*
X59294688Y-85186047D01*
X59349980Y-85052558D01*
X59398100Y-84980541D01*
X59430253Y-84932421D01*
X59532421Y-84830253D01*
X59580541Y-84798100D01*
X59652558Y-84749980D01*
X59746949Y-84710883D01*
X59786046Y-84694688D01*
X59833283Y-84685292D01*
X59927755Y-84666500D01*
X60072245Y-84666500D01*
X60166717Y-84685292D01*
G37*
G36*
X55086717Y-84685292D02*
G01*
X55133954Y-84694688D01*
X55173051Y-84710883D01*
X55267442Y-84749980D01*
X55339459Y-84798100D01*
X55387579Y-84830253D01*
X55489747Y-84932421D01*
X55521900Y-84980541D01*
X55570020Y-85052558D01*
X55625312Y-85186047D01*
X55653500Y-85327755D01*
X55653500Y-85472245D01*
X55644553Y-85517222D01*
X55625312Y-85613954D01*
X55618742Y-85629815D01*
X55570020Y-85747442D01*
X55556944Y-85767011D01*
X55489747Y-85867579D01*
X55387579Y-85969747D01*
X55339459Y-86001900D01*
X55267442Y-86050020D01*
X55173051Y-86089117D01*
X55133954Y-86105312D01*
X55086717Y-86114708D01*
X54992245Y-86133500D01*
X54847755Y-86133500D01*
X54753283Y-86114708D01*
X54706046Y-86105312D01*
X54666949Y-86089117D01*
X54572558Y-86050020D01*
X54500541Y-86001900D01*
X54452421Y-85969747D01*
X54350253Y-85867579D01*
X54283056Y-85767011D01*
X54269980Y-85747442D01*
X54221258Y-85629815D01*
X54214688Y-85613954D01*
X54195447Y-85517222D01*
X54186500Y-85472245D01*
X54186500Y-85327755D01*
X54214688Y-85186047D01*
X54269980Y-85052558D01*
X54318100Y-84980541D01*
X54350253Y-84932421D01*
X54452421Y-84830253D01*
X54500541Y-84798100D01*
X54572558Y-84749980D01*
X54666949Y-84710883D01*
X54706046Y-84694688D01*
X54753283Y-84685292D01*
X54847755Y-84666500D01*
X54992245Y-84666500D01*
X55086717Y-84685292D01*
G37*
G36*
X95500442Y-82835518D02*
G01*
X95566627Y-82842037D01*
X95736466Y-82893557D01*
X95892991Y-82977222D01*
X95928729Y-83006552D01*
X96030186Y-83089814D01*
X96113448Y-83191271D01*
X96142778Y-83227009D01*
X96226443Y-83383534D01*
X96277963Y-83553373D01*
X96295359Y-83730000D01*
X96277963Y-83906627D01*
X96226443Y-84076466D01*
X96142778Y-84232991D01*
X96113448Y-84268729D01*
X96030186Y-84370186D01*
X95928729Y-84453448D01*
X95892991Y-84482778D01*
X95736466Y-84566443D01*
X95566627Y-84617963D01*
X95500442Y-84624482D01*
X95434260Y-84631000D01*
X94045740Y-84631000D01*
X93979558Y-84624482D01*
X93913373Y-84617963D01*
X93743534Y-84566443D01*
X93587009Y-84482778D01*
X93551271Y-84453448D01*
X93449814Y-84370186D01*
X93366552Y-84268729D01*
X93337222Y-84232991D01*
X93253557Y-84076466D01*
X93202037Y-83906627D01*
X93184641Y-83730000D01*
X93202037Y-83553373D01*
X93253557Y-83383534D01*
X93337222Y-83227009D01*
X93366552Y-83191271D01*
X93449814Y-83089814D01*
X93551271Y-83006552D01*
X93587009Y-82977222D01*
X93743534Y-82893557D01*
X93913373Y-82842037D01*
X93979558Y-82835518D01*
X94045740Y-82829000D01*
X95434260Y-82829000D01*
X95500442Y-82835518D01*
G37*
G36*
X112010442Y-82835518D02*
G01*
X112076627Y-82842037D01*
X112246466Y-82893557D01*
X112402991Y-82977222D01*
X112438729Y-83006552D01*
X112540186Y-83089814D01*
X112623448Y-83191271D01*
X112652778Y-83227009D01*
X112736443Y-83383534D01*
X112787963Y-83553373D01*
X112805359Y-83730000D01*
X112787963Y-83906627D01*
X112736443Y-84076466D01*
X112652778Y-84232991D01*
X112623448Y-84268729D01*
X112540186Y-84370186D01*
X112438729Y-84453448D01*
X112402991Y-84482778D01*
X112246466Y-84566443D01*
X112076627Y-84617963D01*
X112010442Y-84624482D01*
X111944260Y-84631000D01*
X110555740Y-84631000D01*
X110489558Y-84624482D01*
X110423373Y-84617963D01*
X110253534Y-84566443D01*
X110097009Y-84482778D01*
X110061271Y-84453448D01*
X109959814Y-84370186D01*
X109876552Y-84268729D01*
X109847222Y-84232991D01*
X109763557Y-84076466D01*
X109712037Y-83906627D01*
X109694641Y-83730000D01*
X109712037Y-83553373D01*
X109763557Y-83383534D01*
X109847222Y-83227009D01*
X109876552Y-83191271D01*
X109959814Y-83089814D01*
X110061271Y-83006552D01*
X110097009Y-82977222D01*
X110253534Y-82893557D01*
X110423373Y-82842037D01*
X110489558Y-82835518D01*
X110555740Y-82829000D01*
X111944260Y-82829000D01*
X112010442Y-82835518D01*
G37*
G36*
X55086717Y-82145292D02*
G01*
X55133954Y-82154688D01*
X55173051Y-82170883D01*
X55267442Y-82209980D01*
X55339459Y-82258100D01*
X55387579Y-82290253D01*
X55489747Y-82392421D01*
X55521900Y-82440541D01*
X55570020Y-82512558D01*
X55625312Y-82646047D01*
X55653500Y-82787755D01*
X55653500Y-82932245D01*
X55644553Y-82977222D01*
X55625312Y-83073954D01*
X55618742Y-83089815D01*
X55570020Y-83207442D01*
X55556944Y-83227011D01*
X55489747Y-83327579D01*
X55387579Y-83429747D01*
X55339459Y-83461900D01*
X55267442Y-83510020D01*
X55173051Y-83549117D01*
X55133954Y-83565312D01*
X55086717Y-83574708D01*
X54992245Y-83593500D01*
X54847755Y-83593500D01*
X54753283Y-83574708D01*
X54706046Y-83565312D01*
X54666949Y-83549117D01*
X54572558Y-83510020D01*
X54500541Y-83461900D01*
X54452421Y-83429747D01*
X54350253Y-83327579D01*
X54283056Y-83227011D01*
X54269980Y-83207442D01*
X54221258Y-83089815D01*
X54214688Y-83073954D01*
X54195447Y-82977222D01*
X54186500Y-82932245D01*
X54186500Y-82787755D01*
X54214688Y-82646047D01*
X54269980Y-82512558D01*
X54318100Y-82440541D01*
X54350253Y-82392421D01*
X54452421Y-82290253D01*
X54500541Y-82258100D01*
X54572558Y-82209980D01*
X54666949Y-82170883D01*
X54706046Y-82154688D01*
X54753283Y-82145292D01*
X54847755Y-82126500D01*
X54992245Y-82126500D01*
X55086717Y-82145292D01*
G37*
G36*
X57626717Y-82145292D02*
G01*
X57673954Y-82154688D01*
X57713051Y-82170883D01*
X57807442Y-82209980D01*
X57879459Y-82258100D01*
X57927579Y-82290253D01*
X58029747Y-82392421D01*
X58061900Y-82440541D01*
X58110020Y-82512558D01*
X58165312Y-82646047D01*
X58193500Y-82787755D01*
X58193500Y-82932245D01*
X58184553Y-82977222D01*
X58165312Y-83073954D01*
X58158742Y-83089815D01*
X58110020Y-83207442D01*
X58096944Y-83227011D01*
X58029747Y-83327579D01*
X57927579Y-83429747D01*
X57879459Y-83461900D01*
X57807442Y-83510020D01*
X57713051Y-83549117D01*
X57673954Y-83565312D01*
X57626717Y-83574708D01*
X57532245Y-83593500D01*
X57387755Y-83593500D01*
X57293283Y-83574708D01*
X57246046Y-83565312D01*
X57206949Y-83549117D01*
X57112558Y-83510020D01*
X57040541Y-83461900D01*
X56992421Y-83429747D01*
X56890253Y-83327579D01*
X56823056Y-83227011D01*
X56809980Y-83207442D01*
X56761258Y-83089815D01*
X56754688Y-83073954D01*
X56735447Y-82977222D01*
X56726500Y-82932245D01*
X56726500Y-82787755D01*
X56754688Y-82646047D01*
X56809980Y-82512558D01*
X56858100Y-82440541D01*
X56890253Y-82392421D01*
X56992421Y-82290253D01*
X57040541Y-82258100D01*
X57112558Y-82209980D01*
X57206949Y-82170883D01*
X57246046Y-82154688D01*
X57293283Y-82145292D01*
X57387755Y-82126500D01*
X57532245Y-82126500D01*
X57626717Y-82145292D01*
G37*
G36*
X60166717Y-82145292D02*
G01*
X60213954Y-82154688D01*
X60253051Y-82170883D01*
X60347442Y-82209980D01*
X60419459Y-82258100D01*
X60467579Y-82290253D01*
X60569747Y-82392421D01*
X60601900Y-82440541D01*
X60650020Y-82512558D01*
X60705312Y-82646047D01*
X60733500Y-82787755D01*
X60733500Y-82932245D01*
X60724553Y-82977222D01*
X60705312Y-83073954D01*
X60698742Y-83089815D01*
X60650020Y-83207442D01*
X60636944Y-83227011D01*
X60569747Y-83327579D01*
X60467579Y-83429747D01*
X60419459Y-83461900D01*
X60347442Y-83510020D01*
X60253051Y-83549117D01*
X60213954Y-83565312D01*
X60166717Y-83574708D01*
X60072245Y-83593500D01*
X59927755Y-83593500D01*
X59833283Y-83574708D01*
X59786046Y-83565312D01*
X59746949Y-83549117D01*
X59652558Y-83510020D01*
X59580541Y-83461900D01*
X59532421Y-83429747D01*
X59430253Y-83327579D01*
X59363056Y-83227011D01*
X59349980Y-83207442D01*
X59301258Y-83089815D01*
X59294688Y-83073954D01*
X59275447Y-82977222D01*
X59266500Y-82932245D01*
X59266500Y-82787755D01*
X59294688Y-82646047D01*
X59349980Y-82512558D01*
X59398100Y-82440541D01*
X59430253Y-82392421D01*
X59532421Y-82290253D01*
X59580541Y-82258100D01*
X59652558Y-82209980D01*
X59746949Y-82170883D01*
X59786046Y-82154688D01*
X59833283Y-82145292D01*
X59927755Y-82126500D01*
X60072245Y-82126500D01*
X60166717Y-82145292D01*
G37*
G36*
X95500442Y-80295518D02*
G01*
X95566627Y-80302037D01*
X95736466Y-80353557D01*
X95892991Y-80437222D01*
X95928729Y-80466552D01*
X96030186Y-80549814D01*
X96113448Y-80651271D01*
X96142778Y-80687009D01*
X96226443Y-80843534D01*
X96277963Y-81013373D01*
X96295359Y-81190000D01*
X96277963Y-81366627D01*
X96226443Y-81536466D01*
X96142778Y-81692991D01*
X96113448Y-81728729D01*
X96030186Y-81830186D01*
X95928729Y-81913448D01*
X95892991Y-81942778D01*
X95736466Y-82026443D01*
X95566627Y-82077963D01*
X95500442Y-82084482D01*
X95434260Y-82091000D01*
X94045740Y-82091000D01*
X93979558Y-82084482D01*
X93913373Y-82077963D01*
X93743534Y-82026443D01*
X93587009Y-81942778D01*
X93551271Y-81913448D01*
X93449814Y-81830186D01*
X93366552Y-81728729D01*
X93337222Y-81692991D01*
X93253557Y-81536466D01*
X93202037Y-81366627D01*
X93184641Y-81190000D01*
X93202037Y-81013373D01*
X93253557Y-80843534D01*
X93337222Y-80687009D01*
X93366552Y-80651271D01*
X93449814Y-80549814D01*
X93551271Y-80466552D01*
X93587009Y-80437222D01*
X93743534Y-80353557D01*
X93913373Y-80302037D01*
X93979558Y-80295518D01*
X94045740Y-80289000D01*
X95434260Y-80289000D01*
X95500442Y-80295518D01*
G37*
G36*
X112010442Y-80295518D02*
G01*
X112076627Y-80302037D01*
X112246466Y-80353557D01*
X112402991Y-80437222D01*
X112438729Y-80466552D01*
X112540186Y-80549814D01*
X112623448Y-80651271D01*
X112652778Y-80687009D01*
X112736443Y-80843534D01*
X112787963Y-81013373D01*
X112805359Y-81190000D01*
X112787963Y-81366627D01*
X112736443Y-81536466D01*
X112652778Y-81692991D01*
X112623448Y-81728729D01*
X112540186Y-81830186D01*
X112438729Y-81913448D01*
X112402991Y-81942778D01*
X112246466Y-82026443D01*
X112076627Y-82077963D01*
X112010442Y-82084482D01*
X111944260Y-82091000D01*
X110555740Y-82091000D01*
X110489558Y-82084482D01*
X110423373Y-82077963D01*
X110253534Y-82026443D01*
X110097009Y-81942778D01*
X110061271Y-81913448D01*
X109959814Y-81830186D01*
X109876552Y-81728729D01*
X109847222Y-81692991D01*
X109763557Y-81536466D01*
X109712037Y-81366627D01*
X109694641Y-81190000D01*
X109712037Y-81013373D01*
X109763557Y-80843534D01*
X109847222Y-80687009D01*
X109876552Y-80651271D01*
X109959814Y-80549814D01*
X110061271Y-80466552D01*
X110097009Y-80437222D01*
X110253534Y-80353557D01*
X110423373Y-80302037D01*
X110489558Y-80295518D01*
X110555740Y-80289000D01*
X111944260Y-80289000D01*
X112010442Y-80295518D01*
G37*
G36*
X55086717Y-79605292D02*
G01*
X55133954Y-79614688D01*
X55173051Y-79630883D01*
X55267442Y-79669980D01*
X55339459Y-79718100D01*
X55387579Y-79750253D01*
X55489747Y-79852421D01*
X55521900Y-79900541D01*
X55570020Y-79972558D01*
X55625312Y-80106047D01*
X55653500Y-80247755D01*
X55653500Y-80392245D01*
X55644553Y-80437222D01*
X55625312Y-80533954D01*
X55618742Y-80549815D01*
X55570020Y-80667442D01*
X55556944Y-80687011D01*
X55489747Y-80787579D01*
X55387579Y-80889747D01*
X55339459Y-80921900D01*
X55267442Y-80970020D01*
X55173051Y-81009117D01*
X55133954Y-81025312D01*
X55086717Y-81034708D01*
X54992245Y-81053500D01*
X54847755Y-81053500D01*
X54753283Y-81034708D01*
X54706046Y-81025312D01*
X54666949Y-81009117D01*
X54572558Y-80970020D01*
X54500541Y-80921900D01*
X54452421Y-80889747D01*
X54350253Y-80787579D01*
X54283056Y-80687011D01*
X54269980Y-80667442D01*
X54221258Y-80549815D01*
X54214688Y-80533954D01*
X54195447Y-80437222D01*
X54186500Y-80392245D01*
X54186500Y-80247755D01*
X54214688Y-80106047D01*
X54269980Y-79972558D01*
X54318100Y-79900541D01*
X54350253Y-79852421D01*
X54452421Y-79750253D01*
X54500541Y-79718100D01*
X54572558Y-79669980D01*
X54666949Y-79630883D01*
X54706046Y-79614688D01*
X54753283Y-79605292D01*
X54847755Y-79586500D01*
X54992245Y-79586500D01*
X55086717Y-79605292D01*
G37*
G36*
X57626717Y-79605292D02*
G01*
X57673954Y-79614688D01*
X57713051Y-79630883D01*
X57807442Y-79669980D01*
X57879459Y-79718100D01*
X57927579Y-79750253D01*
X58029747Y-79852421D01*
X58061900Y-79900541D01*
X58110020Y-79972558D01*
X58165312Y-80106047D01*
X58193500Y-80247755D01*
X58193500Y-80392245D01*
X58184553Y-80437222D01*
X58165312Y-80533954D01*
X58158742Y-80549815D01*
X58110020Y-80667442D01*
X58096944Y-80687011D01*
X58029747Y-80787579D01*
X57927579Y-80889747D01*
X57879459Y-80921900D01*
X57807442Y-80970020D01*
X57713051Y-81009117D01*
X57673954Y-81025312D01*
X57626717Y-81034708D01*
X57532245Y-81053500D01*
X57387755Y-81053500D01*
X57293283Y-81034708D01*
X57246046Y-81025312D01*
X57206949Y-81009117D01*
X57112558Y-80970020D01*
X57040541Y-80921900D01*
X56992421Y-80889747D01*
X56890253Y-80787579D01*
X56823056Y-80687011D01*
X56809980Y-80667442D01*
X56761258Y-80549815D01*
X56754688Y-80533954D01*
X56735447Y-80437222D01*
X56726500Y-80392245D01*
X56726500Y-80247755D01*
X56754688Y-80106047D01*
X56809980Y-79972558D01*
X56858100Y-79900541D01*
X56890253Y-79852421D01*
X56992421Y-79750253D01*
X57040541Y-79718100D01*
X57112558Y-79669980D01*
X57206949Y-79630883D01*
X57246046Y-79614688D01*
X57293283Y-79605292D01*
X57387755Y-79586500D01*
X57532245Y-79586500D01*
X57626717Y-79605292D01*
G37*
G36*
X60166717Y-79605292D02*
G01*
X60213954Y-79614688D01*
X60253051Y-79630883D01*
X60347442Y-79669980D01*
X60419459Y-79718100D01*
X60467579Y-79750253D01*
X60569747Y-79852421D01*
X60601900Y-79900541D01*
X60650020Y-79972558D01*
X60705312Y-80106047D01*
X60733500Y-80247755D01*
X60733500Y-80392245D01*
X60724553Y-80437222D01*
X60705312Y-80533954D01*
X60698742Y-80549815D01*
X60650020Y-80667442D01*
X60636944Y-80687011D01*
X60569747Y-80787579D01*
X60467579Y-80889747D01*
X60419459Y-80921900D01*
X60347442Y-80970020D01*
X60253051Y-81009117D01*
X60213954Y-81025312D01*
X60166717Y-81034708D01*
X60072245Y-81053500D01*
X59927755Y-81053500D01*
X59833283Y-81034708D01*
X59786046Y-81025312D01*
X59746949Y-81009117D01*
X59652558Y-80970020D01*
X59580541Y-80921900D01*
X59532421Y-80889747D01*
X59430253Y-80787579D01*
X59363056Y-80687011D01*
X59349980Y-80667442D01*
X59301258Y-80549815D01*
X59294688Y-80533954D01*
X59275447Y-80437222D01*
X59266500Y-80392245D01*
X59266500Y-80247755D01*
X59294688Y-80106047D01*
X59349980Y-79972558D01*
X59398100Y-79900541D01*
X59430253Y-79852421D01*
X59532421Y-79750253D01*
X59580541Y-79718100D01*
X59652558Y-79669980D01*
X59746949Y-79630883D01*
X59786046Y-79614688D01*
X59833283Y-79605292D01*
X59927755Y-79586500D01*
X60072245Y-79586500D01*
X60166717Y-79605292D01*
G37*
G36*
X112010443Y-77755519D02*
G01*
X112076627Y-77762037D01*
X112246466Y-77813557D01*
X112402991Y-77897222D01*
X112438729Y-77926552D01*
X112540186Y-78009814D01*
X112623448Y-78111271D01*
X112652778Y-78147009D01*
X112736443Y-78303534D01*
X112787963Y-78473373D01*
X112805359Y-78650000D01*
X112787963Y-78826627D01*
X112736443Y-78996466D01*
X112652778Y-79152991D01*
X112623448Y-79188729D01*
X112540186Y-79290186D01*
X112438729Y-79373448D01*
X112402991Y-79402778D01*
X112246466Y-79486443D01*
X112076627Y-79537963D01*
X112010443Y-79544481D01*
X111944260Y-79551000D01*
X110555740Y-79551000D01*
X110489557Y-79544481D01*
X110423373Y-79537963D01*
X110253534Y-79486443D01*
X110097009Y-79402778D01*
X110061271Y-79373448D01*
X109959814Y-79290186D01*
X109876552Y-79188729D01*
X109847222Y-79152991D01*
X109763557Y-78996466D01*
X109712037Y-78826627D01*
X109694641Y-78650000D01*
X109712037Y-78473373D01*
X109763557Y-78303534D01*
X109847222Y-78147009D01*
X109876552Y-78111271D01*
X109959814Y-78009814D01*
X110061271Y-77926552D01*
X110097009Y-77897222D01*
X110253534Y-77813557D01*
X110423373Y-77762037D01*
X110489557Y-77755519D01*
X110555740Y-77749000D01*
X111944260Y-77749000D01*
X112010443Y-77755519D01*
G37*
G36*
X95500443Y-77755519D02*
G01*
X95566627Y-77762037D01*
X95736466Y-77813557D01*
X95892991Y-77897222D01*
X95928729Y-77926552D01*
X96030186Y-78009814D01*
X96113448Y-78111271D01*
X96142778Y-78147009D01*
X96226443Y-78303534D01*
X96277963Y-78473373D01*
X96295359Y-78650000D01*
X96277963Y-78826627D01*
X96226443Y-78996466D01*
X96142778Y-79152991D01*
X96113448Y-79188729D01*
X96030186Y-79290186D01*
X95928729Y-79373448D01*
X95892991Y-79402778D01*
X95736466Y-79486443D01*
X95566627Y-79537963D01*
X95500443Y-79544481D01*
X95434260Y-79551000D01*
X94045740Y-79551000D01*
X93979557Y-79544481D01*
X93913373Y-79537963D01*
X93743534Y-79486443D01*
X93587009Y-79402778D01*
X93551271Y-79373448D01*
X93449814Y-79290186D01*
X93366552Y-79188729D01*
X93337222Y-79152991D01*
X93253557Y-78996466D01*
X93202037Y-78826627D01*
X93184641Y-78650000D01*
X93202037Y-78473373D01*
X93253557Y-78303534D01*
X93337222Y-78147009D01*
X93366552Y-78111271D01*
X93449814Y-78009814D01*
X93551271Y-77926552D01*
X93587009Y-77897222D01*
X93743534Y-77813557D01*
X93913373Y-77762037D01*
X93979557Y-77755519D01*
X94045740Y-77749000D01*
X95434260Y-77749000D01*
X95500443Y-77755519D01*
G37*
G36*
X60166717Y-77065292D02*
G01*
X60213954Y-77074688D01*
X60253051Y-77090883D01*
X60347442Y-77129980D01*
X60419459Y-77178100D01*
X60467579Y-77210253D01*
X60569747Y-77312421D01*
X60601900Y-77360541D01*
X60650020Y-77432558D01*
X60705312Y-77566047D01*
X60733500Y-77707755D01*
X60733500Y-77852245D01*
X60724553Y-77897222D01*
X60705312Y-77993954D01*
X60698742Y-78009815D01*
X60650020Y-78127442D01*
X60636944Y-78147011D01*
X60569747Y-78247579D01*
X60467579Y-78349747D01*
X60419459Y-78381900D01*
X60347442Y-78430020D01*
X60253051Y-78469117D01*
X60213954Y-78485312D01*
X60166717Y-78494708D01*
X60072245Y-78513500D01*
X59927755Y-78513500D01*
X59833283Y-78494708D01*
X59786046Y-78485312D01*
X59746949Y-78469117D01*
X59652558Y-78430020D01*
X59580541Y-78381900D01*
X59532421Y-78349747D01*
X59430253Y-78247579D01*
X59363056Y-78147011D01*
X59349980Y-78127442D01*
X59301258Y-78009815D01*
X59294688Y-77993954D01*
X59275447Y-77897222D01*
X59266500Y-77852245D01*
X59266500Y-77707755D01*
X59294688Y-77566047D01*
X59349980Y-77432558D01*
X59398100Y-77360541D01*
X59430253Y-77312421D01*
X59532421Y-77210253D01*
X59580541Y-77178100D01*
X59652558Y-77129980D01*
X59746949Y-77090883D01*
X59786046Y-77074688D01*
X59833283Y-77065292D01*
X59927755Y-77046500D01*
X60072245Y-77046500D01*
X60166717Y-77065292D01*
G37*
G36*
X57626717Y-77065292D02*
G01*
X57673954Y-77074688D01*
X57713051Y-77090883D01*
X57807442Y-77129980D01*
X57879459Y-77178100D01*
X57927579Y-77210253D01*
X58029747Y-77312421D01*
X58061900Y-77360541D01*
X58110020Y-77432558D01*
X58165312Y-77566047D01*
X58193500Y-77707755D01*
X58193500Y-77852245D01*
X58184553Y-77897222D01*
X58165312Y-77993954D01*
X58158742Y-78009815D01*
X58110020Y-78127442D01*
X58096944Y-78147011D01*
X58029747Y-78247579D01*
X57927579Y-78349747D01*
X57879459Y-78381900D01*
X57807442Y-78430020D01*
X57713051Y-78469117D01*
X57673954Y-78485312D01*
X57626717Y-78494708D01*
X57532245Y-78513500D01*
X57387755Y-78513500D01*
X57293283Y-78494708D01*
X57246046Y-78485312D01*
X57206949Y-78469117D01*
X57112558Y-78430020D01*
X57040541Y-78381900D01*
X56992421Y-78349747D01*
X56890253Y-78247579D01*
X56823056Y-78147011D01*
X56809980Y-78127442D01*
X56761258Y-78009815D01*
X56754688Y-77993954D01*
X56735447Y-77897222D01*
X56726500Y-77852245D01*
X56726500Y-77707755D01*
X56754688Y-77566047D01*
X56809980Y-77432558D01*
X56858100Y-77360541D01*
X56890253Y-77312421D01*
X56992421Y-77210253D01*
X57040541Y-77178100D01*
X57112558Y-77129980D01*
X57206949Y-77090883D01*
X57246046Y-77074688D01*
X57293283Y-77065292D01*
X57387755Y-77046500D01*
X57532245Y-77046500D01*
X57626717Y-77065292D01*
G37*
G36*
X55086717Y-77065292D02*
G01*
X55133954Y-77074688D01*
X55173051Y-77090883D01*
X55267442Y-77129980D01*
X55339459Y-77178100D01*
X55387579Y-77210253D01*
X55489747Y-77312421D01*
X55521900Y-77360541D01*
X55570020Y-77432558D01*
X55625312Y-77566047D01*
X55653500Y-77707755D01*
X55653500Y-77852245D01*
X55644553Y-77897222D01*
X55625312Y-77993954D01*
X55618742Y-78009815D01*
X55570020Y-78127442D01*
X55556944Y-78147011D01*
X55489747Y-78247579D01*
X55387579Y-78349747D01*
X55339459Y-78381900D01*
X55267442Y-78430020D01*
X55173051Y-78469117D01*
X55133954Y-78485312D01*
X55086717Y-78494708D01*
X54992245Y-78513500D01*
X54847755Y-78513500D01*
X54753283Y-78494708D01*
X54706046Y-78485312D01*
X54666949Y-78469117D01*
X54572558Y-78430020D01*
X54500541Y-78381900D01*
X54452421Y-78349747D01*
X54350253Y-78247579D01*
X54283056Y-78147011D01*
X54269980Y-78127442D01*
X54221258Y-78009815D01*
X54214688Y-77993954D01*
X54195447Y-77897222D01*
X54186500Y-77852245D01*
X54186500Y-77707755D01*
X54214688Y-77566047D01*
X54269980Y-77432558D01*
X54318100Y-77360541D01*
X54350253Y-77312421D01*
X54452421Y-77210253D01*
X54500541Y-77178100D01*
X54572558Y-77129980D01*
X54666949Y-77090883D01*
X54706046Y-77074688D01*
X54753283Y-77065292D01*
X54847755Y-77046500D01*
X54992245Y-77046500D01*
X55086717Y-77065292D01*
G37*
G36*
X95500443Y-75215519D02*
G01*
X95566627Y-75222037D01*
X95736466Y-75273557D01*
X95892991Y-75357222D01*
X95928729Y-75386552D01*
X96030186Y-75469814D01*
X96113448Y-75571271D01*
X96142778Y-75607009D01*
X96226443Y-75763534D01*
X96277963Y-75933373D01*
X96295359Y-76110000D01*
X96277963Y-76286627D01*
X96226443Y-76456466D01*
X96142778Y-76612991D01*
X96113448Y-76648729D01*
X96030186Y-76750186D01*
X95928729Y-76833448D01*
X95892991Y-76862778D01*
X95736466Y-76946443D01*
X95566627Y-76997963D01*
X95500442Y-77004482D01*
X95434260Y-77011000D01*
X94045740Y-77011000D01*
X93979558Y-77004482D01*
X93913373Y-76997963D01*
X93743534Y-76946443D01*
X93587009Y-76862778D01*
X93551271Y-76833448D01*
X93449814Y-76750186D01*
X93366552Y-76648729D01*
X93337222Y-76612991D01*
X93253557Y-76456466D01*
X93202037Y-76286627D01*
X93184641Y-76110000D01*
X93202037Y-75933373D01*
X93253557Y-75763534D01*
X93337222Y-75607009D01*
X93366552Y-75571271D01*
X93449814Y-75469814D01*
X93551271Y-75386552D01*
X93587009Y-75357222D01*
X93743534Y-75273557D01*
X93913373Y-75222037D01*
X93979557Y-75215519D01*
X94045740Y-75209000D01*
X95434260Y-75209000D01*
X95500443Y-75215519D01*
G37*
G36*
X112010443Y-75215519D02*
G01*
X112076627Y-75222037D01*
X112246466Y-75273557D01*
X112402991Y-75357222D01*
X112438729Y-75386552D01*
X112540186Y-75469814D01*
X112623448Y-75571271D01*
X112652778Y-75607009D01*
X112736443Y-75763534D01*
X112787963Y-75933373D01*
X112805359Y-76110000D01*
X112787963Y-76286627D01*
X112736443Y-76456466D01*
X112652778Y-76612991D01*
X112623448Y-76648729D01*
X112540186Y-76750186D01*
X112438729Y-76833448D01*
X112402991Y-76862778D01*
X112246466Y-76946443D01*
X112076627Y-76997963D01*
X112010442Y-77004482D01*
X111944260Y-77011000D01*
X110555740Y-77011000D01*
X110489558Y-77004482D01*
X110423373Y-76997963D01*
X110253534Y-76946443D01*
X110097009Y-76862778D01*
X110061271Y-76833448D01*
X109959814Y-76750186D01*
X109876552Y-76648729D01*
X109847222Y-76612991D01*
X109763557Y-76456466D01*
X109712037Y-76286627D01*
X109694641Y-76110000D01*
X109712037Y-75933373D01*
X109763557Y-75763534D01*
X109847222Y-75607009D01*
X109876552Y-75571271D01*
X109959814Y-75469814D01*
X110061271Y-75386552D01*
X110097009Y-75357222D01*
X110253534Y-75273557D01*
X110423373Y-75222037D01*
X110489557Y-75215519D01*
X110555740Y-75209000D01*
X111944260Y-75209000D01*
X112010443Y-75215519D01*
G37*
G36*
X60166717Y-74525292D02*
G01*
X60213954Y-74534688D01*
X60253051Y-74550883D01*
X60347442Y-74589980D01*
X60419459Y-74638100D01*
X60467579Y-74670253D01*
X60569747Y-74772421D01*
X60601900Y-74820541D01*
X60650020Y-74892558D01*
X60705312Y-75026047D01*
X60733500Y-75167755D01*
X60733500Y-75312245D01*
X60724553Y-75357222D01*
X60705312Y-75453954D01*
X60698742Y-75469815D01*
X60650020Y-75587442D01*
X60636944Y-75607011D01*
X60569747Y-75707579D01*
X60467579Y-75809747D01*
X60419459Y-75841900D01*
X60347442Y-75890020D01*
X60253051Y-75929117D01*
X60213954Y-75945312D01*
X60166717Y-75954708D01*
X60072245Y-75973500D01*
X59927755Y-75973500D01*
X59833283Y-75954708D01*
X59786046Y-75945312D01*
X59746949Y-75929117D01*
X59652558Y-75890020D01*
X59580541Y-75841900D01*
X59532421Y-75809747D01*
X59430253Y-75707579D01*
X59363056Y-75607011D01*
X59349980Y-75587442D01*
X59301258Y-75469815D01*
X59294688Y-75453954D01*
X59275447Y-75357222D01*
X59266500Y-75312245D01*
X59266500Y-75167755D01*
X59294688Y-75026047D01*
X59349980Y-74892558D01*
X59398100Y-74820541D01*
X59430253Y-74772421D01*
X59532421Y-74670253D01*
X59580541Y-74638100D01*
X59652558Y-74589980D01*
X59746949Y-74550883D01*
X59786046Y-74534688D01*
X59833283Y-74525292D01*
X59927755Y-74506500D01*
X60072245Y-74506500D01*
X60166717Y-74525292D01*
G37*
G36*
X55086717Y-74525292D02*
G01*
X55133954Y-74534688D01*
X55173051Y-74550883D01*
X55267442Y-74589980D01*
X55339459Y-74638100D01*
X55387579Y-74670253D01*
X55489747Y-74772421D01*
X55521900Y-74820541D01*
X55570020Y-74892558D01*
X55625312Y-75026047D01*
X55653500Y-75167755D01*
X55653500Y-75312245D01*
X55644553Y-75357222D01*
X55625312Y-75453954D01*
X55618742Y-75469815D01*
X55570020Y-75587442D01*
X55556944Y-75607011D01*
X55489747Y-75707579D01*
X55387579Y-75809747D01*
X55339459Y-75841900D01*
X55267442Y-75890020D01*
X55173051Y-75929117D01*
X55133954Y-75945312D01*
X55086717Y-75954708D01*
X54992245Y-75973500D01*
X54847755Y-75973500D01*
X54753283Y-75954708D01*
X54706046Y-75945312D01*
X54666949Y-75929117D01*
X54572558Y-75890020D01*
X54500541Y-75841900D01*
X54452421Y-75809747D01*
X54350253Y-75707579D01*
X54283056Y-75607011D01*
X54269980Y-75587442D01*
X54221258Y-75469815D01*
X54214688Y-75453954D01*
X54195447Y-75357222D01*
X54186500Y-75312245D01*
X54186500Y-75167755D01*
X54214688Y-75026047D01*
X54269980Y-74892558D01*
X54318100Y-74820541D01*
X54350253Y-74772421D01*
X54452421Y-74670253D01*
X54500541Y-74638100D01*
X54572558Y-74589980D01*
X54666949Y-74550883D01*
X54706046Y-74534688D01*
X54753283Y-74525292D01*
X54847755Y-74506500D01*
X54992245Y-74506500D01*
X55086717Y-74525292D01*
G37*
G36*
X57626717Y-74525292D02*
G01*
X57673954Y-74534688D01*
X57713051Y-74550883D01*
X57807442Y-74589980D01*
X57879459Y-74638100D01*
X57927579Y-74670253D01*
X58029747Y-74772421D01*
X58061900Y-74820541D01*
X58110020Y-74892558D01*
X58165312Y-75026047D01*
X58193500Y-75167755D01*
X58193500Y-75312245D01*
X58184553Y-75357222D01*
X58165312Y-75453954D01*
X58158742Y-75469815D01*
X58110020Y-75587442D01*
X58096944Y-75607011D01*
X58029747Y-75707579D01*
X57927579Y-75809747D01*
X57879459Y-75841900D01*
X57807442Y-75890020D01*
X57713051Y-75929117D01*
X57673954Y-75945312D01*
X57626717Y-75954708D01*
X57532245Y-75973500D01*
X57387755Y-75973500D01*
X57293283Y-75954708D01*
X57246046Y-75945312D01*
X57206949Y-75929117D01*
X57112558Y-75890020D01*
X57040541Y-75841900D01*
X56992421Y-75809747D01*
X56890253Y-75707579D01*
X56823056Y-75607011D01*
X56809980Y-75587442D01*
X56761258Y-75469815D01*
X56754688Y-75453954D01*
X56735447Y-75357222D01*
X56726500Y-75312245D01*
X56726500Y-75167755D01*
X56754688Y-75026047D01*
X56809980Y-74892558D01*
X56858100Y-74820541D01*
X56890253Y-74772421D01*
X56992421Y-74670253D01*
X57040541Y-74638100D01*
X57112558Y-74589980D01*
X57206949Y-74550883D01*
X57246046Y-74534688D01*
X57293283Y-74525292D01*
X57387755Y-74506500D01*
X57532245Y-74506500D01*
X57626717Y-74525292D01*
G37*
G36*
X95500442Y-72675518D02*
G01*
X95566627Y-72682037D01*
X95736466Y-72733557D01*
X95892991Y-72817222D01*
X95928729Y-72846552D01*
X96030186Y-72929814D01*
X96113448Y-73031271D01*
X96142778Y-73067009D01*
X96226443Y-73223534D01*
X96277963Y-73393373D01*
X96295359Y-73570000D01*
X96277963Y-73746627D01*
X96226443Y-73916466D01*
X96142778Y-74072991D01*
X96113448Y-74108729D01*
X96030186Y-74210186D01*
X95928729Y-74293448D01*
X95892991Y-74322778D01*
X95736466Y-74406443D01*
X95566627Y-74457963D01*
X95500443Y-74464481D01*
X95434260Y-74471000D01*
X94045740Y-74471000D01*
X93979557Y-74464481D01*
X93913373Y-74457963D01*
X93743534Y-74406443D01*
X93587009Y-74322778D01*
X93551271Y-74293448D01*
X93449814Y-74210186D01*
X93366552Y-74108729D01*
X93337222Y-74072991D01*
X93253557Y-73916466D01*
X93202037Y-73746627D01*
X93184641Y-73570000D01*
X93202037Y-73393373D01*
X93253557Y-73223534D01*
X93337222Y-73067009D01*
X93366552Y-73031271D01*
X93449814Y-72929814D01*
X93551271Y-72846552D01*
X93587009Y-72817222D01*
X93743534Y-72733557D01*
X93913373Y-72682037D01*
X93979558Y-72675518D01*
X94045740Y-72669000D01*
X95434260Y-72669000D01*
X95500442Y-72675518D01*
G37*
G36*
X112010442Y-72675518D02*
G01*
X112076627Y-72682037D01*
X112246466Y-72733557D01*
X112402991Y-72817222D01*
X112438729Y-72846552D01*
X112540186Y-72929814D01*
X112623448Y-73031271D01*
X112652778Y-73067009D01*
X112736443Y-73223534D01*
X112787963Y-73393373D01*
X112805359Y-73570000D01*
X112787963Y-73746627D01*
X112736443Y-73916466D01*
X112652778Y-74072991D01*
X112623448Y-74108729D01*
X112540186Y-74210186D01*
X112438729Y-74293448D01*
X112402991Y-74322778D01*
X112246466Y-74406443D01*
X112076627Y-74457963D01*
X112010443Y-74464481D01*
X111944260Y-74471000D01*
X110555740Y-74471000D01*
X110489557Y-74464481D01*
X110423373Y-74457963D01*
X110253534Y-74406443D01*
X110097009Y-74322778D01*
X110061271Y-74293448D01*
X109959814Y-74210186D01*
X109876552Y-74108729D01*
X109847222Y-74072991D01*
X109763557Y-73916466D01*
X109712037Y-73746627D01*
X109694641Y-73570000D01*
X109712037Y-73393373D01*
X109763557Y-73223534D01*
X109847222Y-73067009D01*
X109876552Y-73031271D01*
X109959814Y-72929814D01*
X110061271Y-72846552D01*
X110097009Y-72817222D01*
X110253534Y-72733557D01*
X110423373Y-72682037D01*
X110489558Y-72675518D01*
X110555740Y-72669000D01*
X111944260Y-72669000D01*
X112010442Y-72675518D01*
G37*
G36*
X57626717Y-71985292D02*
G01*
X57673954Y-71994688D01*
X57713051Y-72010883D01*
X57807442Y-72049980D01*
X57879459Y-72098100D01*
X57927579Y-72130253D01*
X58029747Y-72232421D01*
X58061900Y-72280541D01*
X58110020Y-72352558D01*
X58165312Y-72486047D01*
X58193500Y-72627755D01*
X58193500Y-72772245D01*
X58184553Y-72817222D01*
X58165312Y-72913954D01*
X58158742Y-72929815D01*
X58110020Y-73047442D01*
X58096944Y-73067011D01*
X58029747Y-73167579D01*
X57927579Y-73269747D01*
X57879459Y-73301900D01*
X57807442Y-73350020D01*
X57713051Y-73389117D01*
X57673954Y-73405312D01*
X57626717Y-73414708D01*
X57532245Y-73433500D01*
X57387755Y-73433500D01*
X57293283Y-73414708D01*
X57246046Y-73405312D01*
X57206949Y-73389117D01*
X57112558Y-73350020D01*
X57040541Y-73301900D01*
X56992421Y-73269747D01*
X56890253Y-73167579D01*
X56823056Y-73067011D01*
X56809980Y-73047442D01*
X56761258Y-72929815D01*
X56754688Y-72913954D01*
X56735447Y-72817222D01*
X56726500Y-72772245D01*
X56726500Y-72627755D01*
X56754688Y-72486047D01*
X56809980Y-72352558D01*
X56858100Y-72280541D01*
X56890253Y-72232421D01*
X56992421Y-72130253D01*
X57040541Y-72098100D01*
X57112558Y-72049980D01*
X57206949Y-72010883D01*
X57246046Y-71994688D01*
X57293283Y-71985292D01*
X57387755Y-71966500D01*
X57532245Y-71966500D01*
X57626717Y-71985292D01*
G37*
G36*
X60166717Y-71985292D02*
G01*
X60213954Y-71994688D01*
X60253051Y-72010883D01*
X60347442Y-72049980D01*
X60419459Y-72098100D01*
X60467579Y-72130253D01*
X60569747Y-72232421D01*
X60601900Y-72280541D01*
X60650020Y-72352558D01*
X60705312Y-72486047D01*
X60733500Y-72627755D01*
X60733500Y-72772245D01*
X60724553Y-72817222D01*
X60705312Y-72913954D01*
X60698742Y-72929815D01*
X60650020Y-73047442D01*
X60636944Y-73067011D01*
X60569747Y-73167579D01*
X60467579Y-73269747D01*
X60419459Y-73301900D01*
X60347442Y-73350020D01*
X60253051Y-73389117D01*
X60213954Y-73405312D01*
X60166717Y-73414708D01*
X60072245Y-73433500D01*
X59927755Y-73433500D01*
X59833283Y-73414708D01*
X59786046Y-73405312D01*
X59746949Y-73389117D01*
X59652558Y-73350020D01*
X59580541Y-73301900D01*
X59532421Y-73269747D01*
X59430253Y-73167579D01*
X59363056Y-73067011D01*
X59349980Y-73047442D01*
X59301258Y-72929815D01*
X59294688Y-72913954D01*
X59275447Y-72817222D01*
X59266500Y-72772245D01*
X59266500Y-72627755D01*
X59294688Y-72486047D01*
X59349980Y-72352558D01*
X59398100Y-72280541D01*
X59430253Y-72232421D01*
X59532421Y-72130253D01*
X59580541Y-72098100D01*
X59652558Y-72049980D01*
X59746949Y-72010883D01*
X59786046Y-71994688D01*
X59833283Y-71985292D01*
X59927755Y-71966500D01*
X60072245Y-71966500D01*
X60166717Y-71985292D01*
G37*
G36*
X55086717Y-71985292D02*
G01*
X55133954Y-71994688D01*
X55173051Y-72010883D01*
X55267442Y-72049980D01*
X55339459Y-72098100D01*
X55387579Y-72130253D01*
X55489747Y-72232421D01*
X55521900Y-72280541D01*
X55570020Y-72352558D01*
X55625312Y-72486047D01*
X55653500Y-72627755D01*
X55653500Y-72772245D01*
X55644553Y-72817222D01*
X55625312Y-72913954D01*
X55618742Y-72929815D01*
X55570020Y-73047442D01*
X55556944Y-73067011D01*
X55489747Y-73167579D01*
X55387579Y-73269747D01*
X55339459Y-73301900D01*
X55267442Y-73350020D01*
X55173051Y-73389117D01*
X55133954Y-73405312D01*
X55086717Y-73414708D01*
X54992245Y-73433500D01*
X54847755Y-73433500D01*
X54753283Y-73414708D01*
X54706046Y-73405312D01*
X54666949Y-73389117D01*
X54572558Y-73350020D01*
X54500541Y-73301900D01*
X54452421Y-73269747D01*
X54350253Y-73167579D01*
X54283056Y-73067011D01*
X54269980Y-73047442D01*
X54221258Y-72929815D01*
X54214688Y-72913954D01*
X54195447Y-72817222D01*
X54186500Y-72772245D01*
X54186500Y-72627755D01*
X54214688Y-72486047D01*
X54269980Y-72352558D01*
X54318100Y-72280541D01*
X54350253Y-72232421D01*
X54452421Y-72130253D01*
X54500541Y-72098100D01*
X54572558Y-72049980D01*
X54666949Y-72010883D01*
X54706046Y-71994688D01*
X54753283Y-71985292D01*
X54847755Y-71966500D01*
X54992245Y-71966500D01*
X55086717Y-71985292D01*
G37*
G36*
X112010442Y-70135518D02*
G01*
X112076627Y-70142037D01*
X112246466Y-70193557D01*
X112402991Y-70277222D01*
X112438729Y-70306552D01*
X112540186Y-70389814D01*
X112623448Y-70491271D01*
X112652778Y-70527009D01*
X112736443Y-70683534D01*
X112787963Y-70853373D01*
X112805359Y-71030000D01*
X112787963Y-71206627D01*
X112736443Y-71376466D01*
X112652778Y-71532991D01*
X112623448Y-71568729D01*
X112540186Y-71670186D01*
X112438729Y-71753448D01*
X112402991Y-71782778D01*
X112246466Y-71866443D01*
X112076627Y-71917963D01*
X112010442Y-71924482D01*
X111944260Y-71931000D01*
X110555740Y-71931000D01*
X110489558Y-71924482D01*
X110423373Y-71917963D01*
X110253534Y-71866443D01*
X110097009Y-71782778D01*
X110061271Y-71753448D01*
X109959814Y-71670186D01*
X109876552Y-71568729D01*
X109847222Y-71532991D01*
X109763557Y-71376466D01*
X109712037Y-71206627D01*
X109694641Y-71030000D01*
X109712037Y-70853373D01*
X109763557Y-70683534D01*
X109847222Y-70527009D01*
X109876552Y-70491271D01*
X109959814Y-70389814D01*
X110061271Y-70306552D01*
X110097009Y-70277222D01*
X110253534Y-70193557D01*
X110423373Y-70142037D01*
X110489558Y-70135518D01*
X110555740Y-70129000D01*
X111944260Y-70129000D01*
X112010442Y-70135518D01*
G37*
G36*
X95500442Y-70135518D02*
G01*
X95566627Y-70142037D01*
X95736466Y-70193557D01*
X95892991Y-70277222D01*
X95928729Y-70306552D01*
X96030186Y-70389814D01*
X96113448Y-70491271D01*
X96142778Y-70527009D01*
X96226443Y-70683534D01*
X96277963Y-70853373D01*
X96295359Y-71030000D01*
X96277963Y-71206627D01*
X96226443Y-71376466D01*
X96142778Y-71532991D01*
X96113448Y-71568729D01*
X96030186Y-71670186D01*
X95928729Y-71753448D01*
X95892991Y-71782778D01*
X95736466Y-71866443D01*
X95566627Y-71917963D01*
X95500442Y-71924482D01*
X95434260Y-71931000D01*
X94045740Y-71931000D01*
X93979558Y-71924482D01*
X93913373Y-71917963D01*
X93743534Y-71866443D01*
X93587009Y-71782778D01*
X93551271Y-71753448D01*
X93449814Y-71670186D01*
X93366552Y-71568729D01*
X93337222Y-71532991D01*
X93253557Y-71376466D01*
X93202037Y-71206627D01*
X93184641Y-71030000D01*
X93202037Y-70853373D01*
X93253557Y-70683534D01*
X93337222Y-70527009D01*
X93366552Y-70491271D01*
X93449814Y-70389814D01*
X93551271Y-70306552D01*
X93587009Y-70277222D01*
X93743534Y-70193557D01*
X93913373Y-70142037D01*
X93979558Y-70135518D01*
X94045740Y-70129000D01*
X95434260Y-70129000D01*
X95500442Y-70135518D01*
G37*
G36*
X57626717Y-69445292D02*
G01*
X57673954Y-69454688D01*
X57713051Y-69470883D01*
X57807442Y-69509980D01*
X57879459Y-69558100D01*
X57927579Y-69590253D01*
X58029747Y-69692421D01*
X58061900Y-69740541D01*
X58110020Y-69812558D01*
X58165312Y-69946047D01*
X58193500Y-70087755D01*
X58193500Y-70232245D01*
X58184553Y-70277222D01*
X58165312Y-70373954D01*
X58158742Y-70389815D01*
X58110020Y-70507442D01*
X58096944Y-70527011D01*
X58029747Y-70627579D01*
X57927579Y-70729747D01*
X57879459Y-70761900D01*
X57807442Y-70810020D01*
X57713051Y-70849117D01*
X57673954Y-70865312D01*
X57626717Y-70874708D01*
X57532245Y-70893500D01*
X57387755Y-70893500D01*
X57293283Y-70874708D01*
X57246046Y-70865312D01*
X57206949Y-70849117D01*
X57112558Y-70810020D01*
X57040541Y-70761900D01*
X56992421Y-70729747D01*
X56890253Y-70627579D01*
X56823056Y-70527011D01*
X56809980Y-70507442D01*
X56761258Y-70389815D01*
X56754688Y-70373954D01*
X56735447Y-70277222D01*
X56726500Y-70232245D01*
X56726500Y-70087755D01*
X56754688Y-69946047D01*
X56809980Y-69812558D01*
X56858100Y-69740541D01*
X56890253Y-69692421D01*
X56992421Y-69590253D01*
X57040541Y-69558100D01*
X57112558Y-69509980D01*
X57206949Y-69470883D01*
X57246046Y-69454688D01*
X57293283Y-69445292D01*
X57387755Y-69426500D01*
X57532245Y-69426500D01*
X57626717Y-69445292D01*
G37*
G36*
X60166717Y-69445292D02*
G01*
X60213954Y-69454688D01*
X60253051Y-69470883D01*
X60347442Y-69509980D01*
X60419459Y-69558100D01*
X60467579Y-69590253D01*
X60569747Y-69692421D01*
X60601900Y-69740541D01*
X60650020Y-69812558D01*
X60705312Y-69946047D01*
X60733500Y-70087755D01*
X60733500Y-70232245D01*
X60724553Y-70277222D01*
X60705312Y-70373954D01*
X60698742Y-70389815D01*
X60650020Y-70507442D01*
X60636944Y-70527011D01*
X60569747Y-70627579D01*
X60467579Y-70729747D01*
X60419459Y-70761900D01*
X60347442Y-70810020D01*
X60253051Y-70849117D01*
X60213954Y-70865312D01*
X60166717Y-70874708D01*
X60072245Y-70893500D01*
X59927755Y-70893500D01*
X59833283Y-70874708D01*
X59786046Y-70865312D01*
X59746949Y-70849117D01*
X59652558Y-70810020D01*
X59580541Y-70761900D01*
X59532421Y-70729747D01*
X59430253Y-70627579D01*
X59363056Y-70527011D01*
X59349980Y-70507442D01*
X59301258Y-70389815D01*
X59294688Y-70373954D01*
X59275447Y-70277222D01*
X59266500Y-70232245D01*
X59266500Y-70087755D01*
X59294688Y-69946047D01*
X59349980Y-69812558D01*
X59398100Y-69740541D01*
X59430253Y-69692421D01*
X59532421Y-69590253D01*
X59580541Y-69558100D01*
X59652558Y-69509980D01*
X59746949Y-69470883D01*
X59786046Y-69454688D01*
X59833283Y-69445292D01*
X59927755Y-69426500D01*
X60072245Y-69426500D01*
X60166717Y-69445292D01*
G37*
G36*
X55086717Y-69445292D02*
G01*
X55133954Y-69454688D01*
X55173051Y-69470883D01*
X55267442Y-69509980D01*
X55339459Y-69558100D01*
X55387579Y-69590253D01*
X55489747Y-69692421D01*
X55521900Y-69740541D01*
X55570020Y-69812558D01*
X55625312Y-69946047D01*
X55653500Y-70087755D01*
X55653500Y-70232245D01*
X55644553Y-70277222D01*
X55625312Y-70373954D01*
X55618742Y-70389815D01*
X55570020Y-70507442D01*
X55556944Y-70527011D01*
X55489747Y-70627579D01*
X55387579Y-70729747D01*
X55339459Y-70761900D01*
X55267442Y-70810020D01*
X55173051Y-70849117D01*
X55133954Y-70865312D01*
X55086717Y-70874708D01*
X54992245Y-70893500D01*
X54847755Y-70893500D01*
X54753283Y-70874708D01*
X54706046Y-70865312D01*
X54666949Y-70849117D01*
X54572558Y-70810020D01*
X54500541Y-70761900D01*
X54452421Y-70729747D01*
X54350253Y-70627579D01*
X54283056Y-70527011D01*
X54269980Y-70507442D01*
X54221258Y-70389815D01*
X54214688Y-70373954D01*
X54195447Y-70277222D01*
X54186500Y-70232245D01*
X54186500Y-70087755D01*
X54214688Y-69946047D01*
X54269980Y-69812558D01*
X54318100Y-69740541D01*
X54350253Y-69692421D01*
X54452421Y-69590253D01*
X54500541Y-69558100D01*
X54572558Y-69509980D01*
X54666949Y-69470883D01*
X54706046Y-69454688D01*
X54753283Y-69445292D01*
X54847755Y-69426500D01*
X54992245Y-69426500D01*
X55086717Y-69445292D01*
G37*
G36*
X112010443Y-67595519D02*
G01*
X112076627Y-67602037D01*
X112246466Y-67653557D01*
X112402991Y-67737222D01*
X112438729Y-67766552D01*
X112540186Y-67849814D01*
X112623448Y-67951271D01*
X112652778Y-67987009D01*
X112736443Y-68143534D01*
X112787963Y-68313373D01*
X112805359Y-68490000D01*
X112787963Y-68666627D01*
X112736443Y-68836466D01*
X112652778Y-68992991D01*
X112623448Y-69028729D01*
X112540186Y-69130186D01*
X112438729Y-69213448D01*
X112402991Y-69242778D01*
X112246466Y-69326443D01*
X112076627Y-69377963D01*
X112010443Y-69384481D01*
X111944260Y-69391000D01*
X110555740Y-69391000D01*
X110489557Y-69384481D01*
X110423373Y-69377963D01*
X110253534Y-69326443D01*
X110097009Y-69242778D01*
X110061271Y-69213448D01*
X109959814Y-69130186D01*
X109876552Y-69028729D01*
X109847222Y-68992991D01*
X109763557Y-68836466D01*
X109712037Y-68666627D01*
X109694641Y-68490000D01*
X109712037Y-68313373D01*
X109763557Y-68143534D01*
X109847222Y-67987009D01*
X109876552Y-67951271D01*
X109959814Y-67849814D01*
X110061271Y-67766552D01*
X110097009Y-67737222D01*
X110253534Y-67653557D01*
X110423373Y-67602037D01*
X110489557Y-67595519D01*
X110555740Y-67589000D01*
X111944260Y-67589000D01*
X112010443Y-67595519D01*
G37*
G36*
X95500443Y-67595519D02*
G01*
X95566627Y-67602037D01*
X95736466Y-67653557D01*
X95892991Y-67737222D01*
X95928729Y-67766552D01*
X96030186Y-67849814D01*
X96113448Y-67951271D01*
X96142778Y-67987009D01*
X96226443Y-68143534D01*
X96277963Y-68313373D01*
X96295359Y-68490000D01*
X96277963Y-68666627D01*
X96226443Y-68836466D01*
X96142778Y-68992991D01*
X96113448Y-69028729D01*
X96030186Y-69130186D01*
X95928729Y-69213448D01*
X95892991Y-69242778D01*
X95736466Y-69326443D01*
X95566627Y-69377963D01*
X95500443Y-69384481D01*
X95434260Y-69391000D01*
X94045740Y-69391000D01*
X93979557Y-69384481D01*
X93913373Y-69377963D01*
X93743534Y-69326443D01*
X93587009Y-69242778D01*
X93551271Y-69213448D01*
X93449814Y-69130186D01*
X93366552Y-69028729D01*
X93337222Y-68992991D01*
X93253557Y-68836466D01*
X93202037Y-68666627D01*
X93184641Y-68490000D01*
X93202037Y-68313373D01*
X93253557Y-68143534D01*
X93337222Y-67987009D01*
X93366552Y-67951271D01*
X93449814Y-67849814D01*
X93551271Y-67766552D01*
X93587009Y-67737222D01*
X93743534Y-67653557D01*
X93913373Y-67602037D01*
X93979557Y-67595519D01*
X94045740Y-67589000D01*
X95434260Y-67589000D01*
X95500443Y-67595519D01*
G37*
G36*
X55086717Y-66905292D02*
G01*
X55133954Y-66914688D01*
X55173051Y-66930883D01*
X55267442Y-66969980D01*
X55339459Y-67018100D01*
X55387579Y-67050253D01*
X55489747Y-67152421D01*
X55521900Y-67200541D01*
X55570020Y-67272558D01*
X55625312Y-67406047D01*
X55653500Y-67547755D01*
X55653500Y-67692245D01*
X55644553Y-67737222D01*
X55625312Y-67833954D01*
X55618742Y-67849815D01*
X55570020Y-67967442D01*
X55556944Y-67987011D01*
X55489747Y-68087579D01*
X55387579Y-68189747D01*
X55339459Y-68221900D01*
X55267442Y-68270020D01*
X55173051Y-68309117D01*
X55133954Y-68325312D01*
X55086717Y-68334708D01*
X54992245Y-68353500D01*
X54847755Y-68353500D01*
X54753283Y-68334708D01*
X54706046Y-68325312D01*
X54666949Y-68309117D01*
X54572558Y-68270020D01*
X54500541Y-68221900D01*
X54452421Y-68189747D01*
X54350253Y-68087579D01*
X54283056Y-67987011D01*
X54269980Y-67967442D01*
X54221258Y-67849815D01*
X54214688Y-67833954D01*
X54195447Y-67737222D01*
X54186500Y-67692245D01*
X54186500Y-67547755D01*
X54214688Y-67406047D01*
X54269980Y-67272558D01*
X54318100Y-67200541D01*
X54350253Y-67152421D01*
X54452421Y-67050253D01*
X54500541Y-67018100D01*
X54572558Y-66969980D01*
X54666949Y-66930883D01*
X54706046Y-66914688D01*
X54753283Y-66905292D01*
X54847755Y-66886500D01*
X54992245Y-66886500D01*
X55086717Y-66905292D01*
G37*
G36*
X60166717Y-66905292D02*
G01*
X60213954Y-66914688D01*
X60253051Y-66930883D01*
X60347442Y-66969980D01*
X60419459Y-67018100D01*
X60467579Y-67050253D01*
X60569747Y-67152421D01*
X60601900Y-67200541D01*
X60650020Y-67272558D01*
X60705312Y-67406047D01*
X60733500Y-67547755D01*
X60733500Y-67692245D01*
X60724553Y-67737222D01*
X60705312Y-67833954D01*
X60698742Y-67849815D01*
X60650020Y-67967442D01*
X60636944Y-67987011D01*
X60569747Y-68087579D01*
X60467579Y-68189747D01*
X60419459Y-68221900D01*
X60347442Y-68270020D01*
X60253051Y-68309117D01*
X60213954Y-68325312D01*
X60166717Y-68334708D01*
X60072245Y-68353500D01*
X59927755Y-68353500D01*
X59833283Y-68334708D01*
X59786046Y-68325312D01*
X59746949Y-68309117D01*
X59652558Y-68270020D01*
X59580541Y-68221900D01*
X59532421Y-68189747D01*
X59430253Y-68087579D01*
X59363056Y-67987011D01*
X59349980Y-67967442D01*
X59301258Y-67849815D01*
X59294688Y-67833954D01*
X59275447Y-67737222D01*
X59266500Y-67692245D01*
X59266500Y-67547755D01*
X59294688Y-67406047D01*
X59349980Y-67272558D01*
X59398100Y-67200541D01*
X59430253Y-67152421D01*
X59532421Y-67050253D01*
X59580541Y-67018100D01*
X59652558Y-66969980D01*
X59746949Y-66930883D01*
X59786046Y-66914688D01*
X59833283Y-66905292D01*
X59927755Y-66886500D01*
X60072245Y-66886500D01*
X60166717Y-66905292D01*
G37*
G36*
X57626717Y-66905292D02*
G01*
X57673954Y-66914688D01*
X57713051Y-66930883D01*
X57807442Y-66969980D01*
X57879459Y-67018100D01*
X57927579Y-67050253D01*
X58029747Y-67152421D01*
X58061900Y-67200541D01*
X58110020Y-67272558D01*
X58165312Y-67406047D01*
X58193500Y-67547755D01*
X58193500Y-67692245D01*
X58184553Y-67737222D01*
X58165312Y-67833954D01*
X58158742Y-67849815D01*
X58110020Y-67967442D01*
X58096944Y-67987011D01*
X58029747Y-68087579D01*
X57927579Y-68189747D01*
X57879459Y-68221900D01*
X57807442Y-68270020D01*
X57713051Y-68309117D01*
X57673954Y-68325312D01*
X57626717Y-68334708D01*
X57532245Y-68353500D01*
X57387755Y-68353500D01*
X57293283Y-68334708D01*
X57246046Y-68325312D01*
X57206949Y-68309117D01*
X57112558Y-68270020D01*
X57040541Y-68221900D01*
X56992421Y-68189747D01*
X56890253Y-68087579D01*
X56823056Y-67987011D01*
X56809980Y-67967442D01*
X56761258Y-67849815D01*
X56754688Y-67833954D01*
X56735447Y-67737222D01*
X56726500Y-67692245D01*
X56726500Y-67547755D01*
X56754688Y-67406047D01*
X56809980Y-67272558D01*
X56858100Y-67200541D01*
X56890253Y-67152421D01*
X56992421Y-67050253D01*
X57040541Y-67018100D01*
X57112558Y-66969980D01*
X57206949Y-66930883D01*
X57246046Y-66914688D01*
X57293283Y-66905292D01*
X57387755Y-66886500D01*
X57532245Y-66886500D01*
X57626717Y-66905292D01*
G37*
G36*
X95500443Y-65055519D02*
G01*
X95566627Y-65062037D01*
X95736466Y-65113557D01*
X95892991Y-65197222D01*
X95928729Y-65226552D01*
X96030186Y-65309814D01*
X96113448Y-65411271D01*
X96142778Y-65447009D01*
X96226443Y-65603534D01*
X96277963Y-65773373D01*
X96295359Y-65950000D01*
X96277963Y-66126627D01*
X96226443Y-66296466D01*
X96142778Y-66452991D01*
X96113448Y-66488729D01*
X96030186Y-66590186D01*
X95928729Y-66673448D01*
X95892991Y-66702778D01*
X95736466Y-66786443D01*
X95566627Y-66837963D01*
X95500442Y-66844482D01*
X95434260Y-66851000D01*
X94045740Y-66851000D01*
X93979558Y-66844482D01*
X93913373Y-66837963D01*
X93743534Y-66786443D01*
X93587009Y-66702778D01*
X93551271Y-66673448D01*
X93449814Y-66590186D01*
X93366552Y-66488729D01*
X93337222Y-66452991D01*
X93253557Y-66296466D01*
X93202037Y-66126627D01*
X93184641Y-65950000D01*
X93202037Y-65773373D01*
X93253557Y-65603534D01*
X93337222Y-65447009D01*
X93366552Y-65411271D01*
X93449814Y-65309814D01*
X93551271Y-65226552D01*
X93587009Y-65197222D01*
X93743534Y-65113557D01*
X93913373Y-65062037D01*
X93979557Y-65055519D01*
X94045740Y-65049000D01*
X95434260Y-65049000D01*
X95500443Y-65055519D01*
G37*
G36*
X112010443Y-65055519D02*
G01*
X112076627Y-65062037D01*
X112246466Y-65113557D01*
X112402991Y-65197222D01*
X112438729Y-65226552D01*
X112540186Y-65309814D01*
X112623448Y-65411271D01*
X112652778Y-65447009D01*
X112736443Y-65603534D01*
X112787963Y-65773373D01*
X112805359Y-65950000D01*
X112787963Y-66126627D01*
X112736443Y-66296466D01*
X112652778Y-66452991D01*
X112623448Y-66488729D01*
X112540186Y-66590186D01*
X112438729Y-66673448D01*
X112402991Y-66702778D01*
X112246466Y-66786443D01*
X112076627Y-66837963D01*
X112010442Y-66844482D01*
X111944260Y-66851000D01*
X110555740Y-66851000D01*
X110489558Y-66844482D01*
X110423373Y-66837963D01*
X110253534Y-66786443D01*
X110097009Y-66702778D01*
X110061271Y-66673448D01*
X109959814Y-66590186D01*
X109876552Y-66488729D01*
X109847222Y-66452991D01*
X109763557Y-66296466D01*
X109712037Y-66126627D01*
X109694641Y-65950000D01*
X109712037Y-65773373D01*
X109763557Y-65603534D01*
X109847222Y-65447009D01*
X109876552Y-65411271D01*
X109959814Y-65309814D01*
X110061271Y-65226552D01*
X110097009Y-65197222D01*
X110253534Y-65113557D01*
X110423373Y-65062037D01*
X110489557Y-65055519D01*
X110555740Y-65049000D01*
X111944260Y-65049000D01*
X112010443Y-65055519D01*
G37*
G36*
X57626717Y-64365292D02*
G01*
X57673954Y-64374688D01*
X57713051Y-64390883D01*
X57807442Y-64429980D01*
X57879459Y-64478100D01*
X57927579Y-64510253D01*
X58029747Y-64612421D01*
X58061900Y-64660541D01*
X58110020Y-64732558D01*
X58165312Y-64866047D01*
X58193500Y-65007755D01*
X58193500Y-65152245D01*
X58184553Y-65197222D01*
X58165312Y-65293954D01*
X58158742Y-65309815D01*
X58110020Y-65427442D01*
X58096944Y-65447011D01*
X58029747Y-65547579D01*
X57927579Y-65649747D01*
X57879459Y-65681900D01*
X57807442Y-65730020D01*
X57713051Y-65769117D01*
X57673954Y-65785312D01*
X57626717Y-65794708D01*
X57532245Y-65813500D01*
X57387755Y-65813500D01*
X57293283Y-65794708D01*
X57246046Y-65785312D01*
X57206949Y-65769117D01*
X57112558Y-65730020D01*
X57040541Y-65681900D01*
X56992421Y-65649747D01*
X56890253Y-65547579D01*
X56823056Y-65447011D01*
X56809980Y-65427442D01*
X56761258Y-65309815D01*
X56754688Y-65293954D01*
X56735447Y-65197222D01*
X56726500Y-65152245D01*
X56726500Y-65007755D01*
X56754688Y-64866047D01*
X56809980Y-64732558D01*
X56858100Y-64660541D01*
X56890253Y-64612421D01*
X56992421Y-64510253D01*
X57040541Y-64478100D01*
X57112558Y-64429980D01*
X57206949Y-64390883D01*
X57246046Y-64374688D01*
X57293283Y-64365292D01*
X57387755Y-64346500D01*
X57532245Y-64346500D01*
X57626717Y-64365292D01*
G37*
G36*
X55086717Y-64365292D02*
G01*
X55133954Y-64374688D01*
X55173051Y-64390883D01*
X55267442Y-64429980D01*
X55339459Y-64478100D01*
X55387579Y-64510253D01*
X55489747Y-64612421D01*
X55521900Y-64660541D01*
X55570020Y-64732558D01*
X55625312Y-64866047D01*
X55653500Y-65007755D01*
X55653500Y-65152245D01*
X55644553Y-65197222D01*
X55625312Y-65293954D01*
X55618742Y-65309815D01*
X55570020Y-65427442D01*
X55556944Y-65447011D01*
X55489747Y-65547579D01*
X55387579Y-65649747D01*
X55339459Y-65681900D01*
X55267442Y-65730020D01*
X55173051Y-65769117D01*
X55133954Y-65785312D01*
X55086717Y-65794708D01*
X54992245Y-65813500D01*
X54847755Y-65813500D01*
X54753283Y-65794708D01*
X54706046Y-65785312D01*
X54666949Y-65769117D01*
X54572558Y-65730020D01*
X54500541Y-65681900D01*
X54452421Y-65649747D01*
X54350253Y-65547579D01*
X54283056Y-65447011D01*
X54269980Y-65427442D01*
X54221258Y-65309815D01*
X54214688Y-65293954D01*
X54195447Y-65197222D01*
X54186500Y-65152245D01*
X54186500Y-65007755D01*
X54214688Y-64866047D01*
X54269980Y-64732558D01*
X54318100Y-64660541D01*
X54350253Y-64612421D01*
X54452421Y-64510253D01*
X54500541Y-64478100D01*
X54572558Y-64429980D01*
X54666949Y-64390883D01*
X54706046Y-64374688D01*
X54753283Y-64365292D01*
X54847755Y-64346500D01*
X54992245Y-64346500D01*
X55086717Y-64365292D01*
G37*
G36*
X60166717Y-64365292D02*
G01*
X60213954Y-64374688D01*
X60253051Y-64390883D01*
X60347442Y-64429980D01*
X60419459Y-64478100D01*
X60467579Y-64510253D01*
X60569747Y-64612421D01*
X60601900Y-64660541D01*
X60650020Y-64732558D01*
X60705312Y-64866047D01*
X60733500Y-65007755D01*
X60733500Y-65152245D01*
X60724553Y-65197222D01*
X60705312Y-65293954D01*
X60698742Y-65309815D01*
X60650020Y-65427442D01*
X60636944Y-65447011D01*
X60569747Y-65547579D01*
X60467579Y-65649747D01*
X60419459Y-65681900D01*
X60347442Y-65730020D01*
X60253051Y-65769117D01*
X60213954Y-65785312D01*
X60166717Y-65794708D01*
X60072245Y-65813500D01*
X59927755Y-65813500D01*
X59833283Y-65794708D01*
X59786046Y-65785312D01*
X59746949Y-65769117D01*
X59652558Y-65730020D01*
X59580541Y-65681900D01*
X59532421Y-65649747D01*
X59430253Y-65547579D01*
X59363056Y-65447011D01*
X59349980Y-65427442D01*
X59301258Y-65309815D01*
X59294688Y-65293954D01*
X59275447Y-65197222D01*
X59266500Y-65152245D01*
X59266500Y-65007755D01*
X59294688Y-64866047D01*
X59349980Y-64732558D01*
X59398100Y-64660541D01*
X59430253Y-64612421D01*
X59532421Y-64510253D01*
X59580541Y-64478100D01*
X59652558Y-64429980D01*
X59746949Y-64390883D01*
X59786046Y-64374688D01*
X59833283Y-64365292D01*
X59927755Y-64346500D01*
X60072245Y-64346500D01*
X60166717Y-64365292D01*
G37*
G36*
X112010443Y-62515519D02*
G01*
X112076627Y-62522037D01*
X112246466Y-62573557D01*
X112402991Y-62657222D01*
X112438729Y-62686552D01*
X112540186Y-62769814D01*
X112623448Y-62871271D01*
X112652778Y-62907009D01*
X112736443Y-63063534D01*
X112787963Y-63233373D01*
X112805359Y-63410000D01*
X112787963Y-63586627D01*
X112736443Y-63756466D01*
X112652778Y-63912991D01*
X112623448Y-63948729D01*
X112540186Y-64050186D01*
X112438729Y-64133448D01*
X112402991Y-64162778D01*
X112246466Y-64246443D01*
X112076627Y-64297963D01*
X112010443Y-64304481D01*
X111944260Y-64311000D01*
X110555740Y-64311000D01*
X110489557Y-64304481D01*
X110423373Y-64297963D01*
X110253534Y-64246443D01*
X110097009Y-64162778D01*
X110061271Y-64133448D01*
X109959814Y-64050186D01*
X109876552Y-63948729D01*
X109847222Y-63912991D01*
X109763557Y-63756466D01*
X109712037Y-63586627D01*
X109694641Y-63410000D01*
X109712037Y-63233373D01*
X109763557Y-63063534D01*
X109847222Y-62907009D01*
X109876552Y-62871271D01*
X109959814Y-62769814D01*
X110061271Y-62686552D01*
X110097009Y-62657222D01*
X110253534Y-62573557D01*
X110423373Y-62522037D01*
X110489557Y-62515519D01*
X110555740Y-62509000D01*
X111944260Y-62509000D01*
X112010443Y-62515519D01*
G37*
G36*
X95500443Y-62515519D02*
G01*
X95566627Y-62522037D01*
X95736466Y-62573557D01*
X95892991Y-62657222D01*
X95928729Y-62686552D01*
X96030186Y-62769814D01*
X96113448Y-62871271D01*
X96142778Y-62907009D01*
X96226443Y-63063534D01*
X96277963Y-63233373D01*
X96295359Y-63410000D01*
X96277963Y-63586627D01*
X96226443Y-63756466D01*
X96142778Y-63912991D01*
X96113448Y-63948729D01*
X96030186Y-64050186D01*
X95928729Y-64133448D01*
X95892991Y-64162778D01*
X95736466Y-64246443D01*
X95566627Y-64297963D01*
X95500443Y-64304481D01*
X95434260Y-64311000D01*
X94045740Y-64311000D01*
X93979557Y-64304481D01*
X93913373Y-64297963D01*
X93743534Y-64246443D01*
X93587009Y-64162778D01*
X93551271Y-64133448D01*
X93449814Y-64050186D01*
X93366552Y-63948729D01*
X93337222Y-63912991D01*
X93253557Y-63756466D01*
X93202037Y-63586627D01*
X93184641Y-63410000D01*
X93202037Y-63233373D01*
X93253557Y-63063534D01*
X93337222Y-62907009D01*
X93366552Y-62871271D01*
X93449814Y-62769814D01*
X93551271Y-62686552D01*
X93587009Y-62657222D01*
X93743534Y-62573557D01*
X93913373Y-62522037D01*
X93979557Y-62515519D01*
X94045740Y-62509000D01*
X95434260Y-62509000D01*
X95500443Y-62515519D01*
G37*
G36*
X60166717Y-61825292D02*
G01*
X60213954Y-61834688D01*
X60253051Y-61850883D01*
X60347442Y-61889980D01*
X60419459Y-61938100D01*
X60467579Y-61970253D01*
X60569747Y-62072421D01*
X60601900Y-62120541D01*
X60650020Y-62192558D01*
X60705312Y-62326047D01*
X60733500Y-62467755D01*
X60733500Y-62612245D01*
X60724553Y-62657222D01*
X60705312Y-62753954D01*
X60698742Y-62769815D01*
X60650020Y-62887442D01*
X60636944Y-62907011D01*
X60569747Y-63007579D01*
X60467579Y-63109747D01*
X60419459Y-63141900D01*
X60347442Y-63190020D01*
X60253051Y-63229117D01*
X60213954Y-63245312D01*
X60166717Y-63254708D01*
X60072245Y-63273500D01*
X59927755Y-63273500D01*
X59833283Y-63254708D01*
X59786046Y-63245312D01*
X59746949Y-63229117D01*
X59652558Y-63190020D01*
X59580541Y-63141900D01*
X59532421Y-63109747D01*
X59430253Y-63007579D01*
X59363056Y-62907011D01*
X59349980Y-62887442D01*
X59301258Y-62769815D01*
X59294688Y-62753954D01*
X59275447Y-62657222D01*
X59266500Y-62612245D01*
X59266500Y-62467755D01*
X59294688Y-62326047D01*
X59349980Y-62192558D01*
X59398100Y-62120541D01*
X59430253Y-62072421D01*
X59532421Y-61970253D01*
X59580541Y-61938100D01*
X59652558Y-61889980D01*
X59746949Y-61850883D01*
X59786046Y-61834688D01*
X59833283Y-61825292D01*
X59927755Y-61806500D01*
X60072245Y-61806500D01*
X60166717Y-61825292D01*
G37*
G36*
X57626717Y-61825292D02*
G01*
X57673954Y-61834688D01*
X57713051Y-61850883D01*
X57807442Y-61889980D01*
X57879459Y-61938100D01*
X57927579Y-61970253D01*
X58029747Y-62072421D01*
X58061900Y-62120541D01*
X58110020Y-62192558D01*
X58165312Y-62326047D01*
X58193500Y-62467755D01*
X58193500Y-62612245D01*
X58184553Y-62657222D01*
X58165312Y-62753954D01*
X58158742Y-62769815D01*
X58110020Y-62887442D01*
X58096944Y-62907011D01*
X58029747Y-63007579D01*
X57927579Y-63109747D01*
X57879459Y-63141900D01*
X57807442Y-63190020D01*
X57713051Y-63229117D01*
X57673954Y-63245312D01*
X57626717Y-63254708D01*
X57532245Y-63273500D01*
X57387755Y-63273500D01*
X57293283Y-63254708D01*
X57246046Y-63245312D01*
X57206949Y-63229117D01*
X57112558Y-63190020D01*
X57040541Y-63141900D01*
X56992421Y-63109747D01*
X56890253Y-63007579D01*
X56823056Y-62907011D01*
X56809980Y-62887442D01*
X56761258Y-62769815D01*
X56754688Y-62753954D01*
X56735447Y-62657222D01*
X56726500Y-62612245D01*
X56726500Y-62467755D01*
X56754688Y-62326047D01*
X56809980Y-62192558D01*
X56858100Y-62120541D01*
X56890253Y-62072421D01*
X56992421Y-61970253D01*
X57040541Y-61938100D01*
X57112558Y-61889980D01*
X57206949Y-61850883D01*
X57246046Y-61834688D01*
X57293283Y-61825292D01*
X57387755Y-61806500D01*
X57532245Y-61806500D01*
X57626717Y-61825292D01*
G37*
G36*
X55086717Y-61825292D02*
G01*
X55133954Y-61834688D01*
X55173051Y-61850883D01*
X55267442Y-61889980D01*
X55339459Y-61938100D01*
X55387579Y-61970253D01*
X55489747Y-62072421D01*
X55521900Y-62120541D01*
X55570020Y-62192558D01*
X55625312Y-62326047D01*
X55653500Y-62467755D01*
X55653500Y-62612245D01*
X55644553Y-62657222D01*
X55625312Y-62753954D01*
X55618742Y-62769815D01*
X55570020Y-62887442D01*
X55556944Y-62907011D01*
X55489747Y-63007579D01*
X55387579Y-63109747D01*
X55339459Y-63141900D01*
X55267442Y-63190020D01*
X55173051Y-63229117D01*
X55133954Y-63245312D01*
X55086717Y-63254708D01*
X54992245Y-63273500D01*
X54847755Y-63273500D01*
X54753283Y-63254708D01*
X54706046Y-63245312D01*
X54666949Y-63229117D01*
X54572558Y-63190020D01*
X54500541Y-63141900D01*
X54452421Y-63109747D01*
X54350253Y-63007579D01*
X54283056Y-62907011D01*
X54269980Y-62887442D01*
X54221258Y-62769815D01*
X54214688Y-62753954D01*
X54195447Y-62657222D01*
X54186500Y-62612245D01*
X54186500Y-62467755D01*
X54214688Y-62326047D01*
X54269980Y-62192558D01*
X54318100Y-62120541D01*
X54350253Y-62072421D01*
X54452421Y-61970253D01*
X54500541Y-61938100D01*
X54572558Y-61889980D01*
X54666949Y-61850883D01*
X54706046Y-61834688D01*
X54753283Y-61825292D01*
X54847755Y-61806500D01*
X54992245Y-61806500D01*
X55086717Y-61825292D01*
G37*
G36*
X95500442Y-59975518D02*
G01*
X95566627Y-59982037D01*
X95736466Y-60033557D01*
X95892991Y-60117222D01*
X95928729Y-60146552D01*
X96030186Y-60229814D01*
X96113448Y-60331271D01*
X96142778Y-60367009D01*
X96226443Y-60523534D01*
X96277963Y-60693373D01*
X96295359Y-60870000D01*
X96277963Y-61046627D01*
X96226443Y-61216466D01*
X96142778Y-61372991D01*
X96113448Y-61408729D01*
X96030186Y-61510186D01*
X95928729Y-61593448D01*
X95892991Y-61622778D01*
X95736466Y-61706443D01*
X95566627Y-61757963D01*
X95500442Y-61764482D01*
X95434260Y-61771000D01*
X94045740Y-61771000D01*
X93979558Y-61764482D01*
X93913373Y-61757963D01*
X93743534Y-61706443D01*
X93587009Y-61622778D01*
X93551271Y-61593448D01*
X93449814Y-61510186D01*
X93366552Y-61408729D01*
X93337222Y-61372991D01*
X93253557Y-61216466D01*
X93202037Y-61046627D01*
X93184641Y-60870000D01*
X93202037Y-60693373D01*
X93253557Y-60523534D01*
X93337222Y-60367009D01*
X93366552Y-60331271D01*
X93449814Y-60229814D01*
X93551271Y-60146552D01*
X93587009Y-60117222D01*
X93743534Y-60033557D01*
X93913373Y-59982037D01*
X93979558Y-59975518D01*
X94045740Y-59969000D01*
X95434260Y-59969000D01*
X95500442Y-59975518D01*
G37*
G36*
X112010442Y-59975518D02*
G01*
X112076627Y-59982037D01*
X112246466Y-60033557D01*
X112402991Y-60117222D01*
X112438729Y-60146552D01*
X112540186Y-60229814D01*
X112623448Y-60331271D01*
X112652778Y-60367009D01*
X112736443Y-60523534D01*
X112787963Y-60693373D01*
X112805359Y-60870000D01*
X112787963Y-61046627D01*
X112736443Y-61216466D01*
X112652778Y-61372991D01*
X112623448Y-61408729D01*
X112540186Y-61510186D01*
X112438729Y-61593448D01*
X112402991Y-61622778D01*
X112246466Y-61706443D01*
X112076627Y-61757963D01*
X112010442Y-61764482D01*
X111944260Y-61771000D01*
X110555740Y-61771000D01*
X110489558Y-61764482D01*
X110423373Y-61757963D01*
X110253534Y-61706443D01*
X110097009Y-61622778D01*
X110061271Y-61593448D01*
X109959814Y-61510186D01*
X109876552Y-61408729D01*
X109847222Y-61372991D01*
X109763557Y-61216466D01*
X109712037Y-61046627D01*
X109694641Y-60870000D01*
X109712037Y-60693373D01*
X109763557Y-60523534D01*
X109847222Y-60367009D01*
X109876552Y-60331271D01*
X109959814Y-60229814D01*
X110061271Y-60146552D01*
X110097009Y-60117222D01*
X110253534Y-60033557D01*
X110423373Y-59982037D01*
X110489558Y-59975518D01*
X110555740Y-59969000D01*
X111944260Y-59969000D01*
X112010442Y-59975518D01*
G37*
G36*
X60733500Y-60733500D02*
G01*
X59266500Y-60733500D01*
X59266500Y-59266500D01*
X60733500Y-59266500D01*
X60733500Y-60733500D01*
G37*
G36*
X55086717Y-59285292D02*
G01*
X55133954Y-59294688D01*
X55173051Y-59310883D01*
X55267442Y-59349980D01*
X55339459Y-59398100D01*
X55387579Y-59430253D01*
X55489747Y-59532421D01*
X55521900Y-59580541D01*
X55570020Y-59652558D01*
X55625312Y-59786047D01*
X55653500Y-59927755D01*
X55653500Y-60072245D01*
X55644553Y-60117222D01*
X55625312Y-60213954D01*
X55618742Y-60229815D01*
X55570020Y-60347442D01*
X55556944Y-60367011D01*
X55489747Y-60467579D01*
X55387579Y-60569747D01*
X55339459Y-60601900D01*
X55267442Y-60650020D01*
X55173051Y-60689117D01*
X55133954Y-60705312D01*
X55086717Y-60714708D01*
X54992245Y-60733500D01*
X54847755Y-60733500D01*
X54753283Y-60714708D01*
X54706046Y-60705312D01*
X54666949Y-60689117D01*
X54572558Y-60650020D01*
X54500541Y-60601900D01*
X54452421Y-60569747D01*
X54350253Y-60467579D01*
X54283056Y-60367011D01*
X54269980Y-60347442D01*
X54221258Y-60229815D01*
X54214688Y-60213954D01*
X54195447Y-60117222D01*
X54186500Y-60072245D01*
X54186500Y-59927755D01*
X54214688Y-59786047D01*
X54269980Y-59652558D01*
X54318100Y-59580541D01*
X54350253Y-59532421D01*
X54452421Y-59430253D01*
X54500541Y-59398100D01*
X54572558Y-59349980D01*
X54666949Y-59310883D01*
X54706046Y-59294688D01*
X54753283Y-59285292D01*
X54847755Y-59266500D01*
X54992245Y-59266500D01*
X55086717Y-59285292D01*
G37*
G36*
X57626717Y-59285292D02*
G01*
X57673954Y-59294688D01*
X57713051Y-59310883D01*
X57807442Y-59349980D01*
X57879459Y-59398100D01*
X57927579Y-59430253D01*
X58029747Y-59532421D01*
X58061900Y-59580541D01*
X58110020Y-59652558D01*
X58165312Y-59786047D01*
X58193500Y-59927755D01*
X58193500Y-60072245D01*
X58184553Y-60117222D01*
X58165312Y-60213954D01*
X58158742Y-60229815D01*
X58110020Y-60347442D01*
X58096944Y-60367011D01*
X58029747Y-60467579D01*
X57927579Y-60569747D01*
X57879459Y-60601900D01*
X57807442Y-60650020D01*
X57713051Y-60689117D01*
X57673954Y-60705312D01*
X57626717Y-60714708D01*
X57532245Y-60733500D01*
X57387755Y-60733500D01*
X57293283Y-60714708D01*
X57246046Y-60705312D01*
X57206949Y-60689117D01*
X57112558Y-60650020D01*
X57040541Y-60601900D01*
X56992421Y-60569747D01*
X56890253Y-60467579D01*
X56823056Y-60367011D01*
X56809980Y-60347442D01*
X56761258Y-60229815D01*
X56754688Y-60213954D01*
X56735447Y-60117222D01*
X56726500Y-60072245D01*
X56726500Y-59927755D01*
X56754688Y-59786047D01*
X56809980Y-59652558D01*
X56858100Y-59580541D01*
X56890253Y-59532421D01*
X56992421Y-59430253D01*
X57040541Y-59398100D01*
X57112558Y-59349980D01*
X57206949Y-59310883D01*
X57246046Y-59294688D01*
X57293283Y-59285292D01*
X57387755Y-59266500D01*
X57532245Y-59266500D01*
X57626717Y-59285292D01*
G37*
G36*
X95500443Y-57435519D02*
G01*
X95566627Y-57442037D01*
X95736466Y-57493557D01*
X95892991Y-57577222D01*
X95928729Y-57606552D01*
X96030186Y-57689814D01*
X96113448Y-57791271D01*
X96142778Y-57827009D01*
X96226443Y-57983534D01*
X96277963Y-58153373D01*
X96295359Y-58330000D01*
X96277963Y-58506627D01*
X96226443Y-58676466D01*
X96142778Y-58832991D01*
X96113448Y-58868729D01*
X96030186Y-58970186D01*
X95928729Y-59053448D01*
X95892991Y-59082778D01*
X95736466Y-59166443D01*
X95566627Y-59217963D01*
X95500443Y-59224481D01*
X95434260Y-59231000D01*
X94045740Y-59231000D01*
X93979557Y-59224481D01*
X93913373Y-59217963D01*
X93743534Y-59166443D01*
X93587009Y-59082778D01*
X93551271Y-59053448D01*
X93449814Y-58970186D01*
X93366552Y-58868729D01*
X93337222Y-58832991D01*
X93253557Y-58676466D01*
X93202037Y-58506627D01*
X93184641Y-58330000D01*
X93202037Y-58153373D01*
X93253557Y-57983534D01*
X93337222Y-57827009D01*
X93366552Y-57791271D01*
X93449814Y-57689814D01*
X93551271Y-57606552D01*
X93587009Y-57577222D01*
X93743534Y-57493557D01*
X93913373Y-57442037D01*
X93979557Y-57435519D01*
X94045740Y-57429000D01*
X95434260Y-57429000D01*
X95500443Y-57435519D01*
G37*
G36*
X112010443Y-57435519D02*
G01*
X112076627Y-57442037D01*
X112246466Y-57493557D01*
X112402991Y-57577222D01*
X112438729Y-57606552D01*
X112540186Y-57689814D01*
X112623448Y-57791271D01*
X112652778Y-57827009D01*
X112736443Y-57983534D01*
X112787963Y-58153373D01*
X112805359Y-58330000D01*
X112787963Y-58506627D01*
X112736443Y-58676466D01*
X112652778Y-58832991D01*
X112623448Y-58868729D01*
X112540186Y-58970186D01*
X112438729Y-59053448D01*
X112402991Y-59082778D01*
X112246466Y-59166443D01*
X112076627Y-59217963D01*
X112010443Y-59224481D01*
X111944260Y-59231000D01*
X110555740Y-59231000D01*
X110489557Y-59224481D01*
X110423373Y-59217963D01*
X110253534Y-59166443D01*
X110097009Y-59082778D01*
X110061271Y-59053448D01*
X109959814Y-58970186D01*
X109876552Y-58868729D01*
X109847222Y-58832991D01*
X109763557Y-58676466D01*
X109712037Y-58506627D01*
X109694641Y-58330000D01*
X109712037Y-58153373D01*
X109763557Y-57983534D01*
X109847222Y-57827009D01*
X109876552Y-57791271D01*
X109959814Y-57689814D01*
X110061271Y-57606552D01*
X110097009Y-57577222D01*
X110253534Y-57493557D01*
X110423373Y-57442037D01*
X110489557Y-57435519D01*
X110555740Y-57429000D01*
X111944260Y-57429000D01*
X112010443Y-57435519D01*
G37*
G36*
X95500442Y-54895518D02*
G01*
X95566627Y-54902037D01*
X95736466Y-54953557D01*
X95892991Y-55037222D01*
X95928729Y-55066552D01*
X96030186Y-55149814D01*
X96113448Y-55251271D01*
X96142778Y-55287009D01*
X96226443Y-55443534D01*
X96277963Y-55613373D01*
X96295359Y-55790000D01*
X96277963Y-55966627D01*
X96226443Y-56136466D01*
X96142778Y-56292991D01*
X96113448Y-56328729D01*
X96030186Y-56430186D01*
X95928729Y-56513448D01*
X95892991Y-56542778D01*
X95736466Y-56626443D01*
X95566627Y-56677963D01*
X95500443Y-56684481D01*
X95434260Y-56691000D01*
X94045740Y-56691000D01*
X93979557Y-56684481D01*
X93913373Y-56677963D01*
X93743534Y-56626443D01*
X93587009Y-56542778D01*
X93551271Y-56513448D01*
X93449814Y-56430186D01*
X93366552Y-56328729D01*
X93337222Y-56292991D01*
X93253557Y-56136466D01*
X93202037Y-55966627D01*
X93184641Y-55790000D01*
X93202037Y-55613373D01*
X93253557Y-55443534D01*
X93337222Y-55287009D01*
X93366552Y-55251271D01*
X93449814Y-55149814D01*
X93551271Y-55066552D01*
X93587009Y-55037222D01*
X93743534Y-54953557D01*
X93913373Y-54902037D01*
X93979558Y-54895518D01*
X94045740Y-54889000D01*
X95434260Y-54889000D01*
X95500442Y-54895518D01*
G37*
G36*
X112010442Y-54895518D02*
G01*
X112076627Y-54902037D01*
X112246466Y-54953557D01*
X112402991Y-55037222D01*
X112438729Y-55066552D01*
X112540186Y-55149814D01*
X112623448Y-55251271D01*
X112652778Y-55287009D01*
X112736443Y-55443534D01*
X112787963Y-55613373D01*
X112805359Y-55790000D01*
X112787963Y-55966627D01*
X112736443Y-56136466D01*
X112652778Y-56292991D01*
X112623448Y-56328729D01*
X112540186Y-56430186D01*
X112438729Y-56513448D01*
X112402991Y-56542778D01*
X112246466Y-56626443D01*
X112076627Y-56677963D01*
X112010443Y-56684481D01*
X111944260Y-56691000D01*
X110555740Y-56691000D01*
X110489557Y-56684481D01*
X110423373Y-56677963D01*
X110253534Y-56626443D01*
X110097009Y-56542778D01*
X110061271Y-56513448D01*
X109959814Y-56430186D01*
X109876552Y-56328729D01*
X109847222Y-56292991D01*
X109763557Y-56136466D01*
X109712037Y-55966627D01*
X109694641Y-55790000D01*
X109712037Y-55613373D01*
X109763557Y-55443534D01*
X109847222Y-55287009D01*
X109876552Y-55251271D01*
X109959814Y-55149814D01*
X110061271Y-55066552D01*
X110097009Y-55037222D01*
X110253534Y-54953557D01*
X110423373Y-54902037D01*
X110489558Y-54895518D01*
X110555740Y-54889000D01*
X111944260Y-54889000D01*
X112010442Y-54895518D01*
G37*
G36*
X120375256Y-53391298D02*
G01*
X120481579Y-53412447D01*
X120782042Y-53536903D01*
X121052451Y-53717585D01*
X121282415Y-53947549D01*
X121463097Y-54217958D01*
X121580925Y-54502419D01*
X121587553Y-54518422D01*
X121639939Y-54781781D01*
X121651000Y-54837391D01*
X121651000Y-55162609D01*
X121587553Y-55481579D01*
X121463097Y-55782042D01*
X121282415Y-56052451D01*
X121052451Y-56282415D01*
X120782042Y-56463097D01*
X120481579Y-56587553D01*
X120375256Y-56608702D01*
X120162611Y-56651000D01*
X119837389Y-56651000D01*
X119624744Y-56608702D01*
X119518421Y-56587553D01*
X119217958Y-56463097D01*
X118947549Y-56282415D01*
X118717585Y-56052451D01*
X118536903Y-55782042D01*
X118412447Y-55481579D01*
X118349000Y-55162609D01*
X118349000Y-54837391D01*
X118360062Y-54781781D01*
X118412447Y-54518422D01*
X118419076Y-54502419D01*
X118536903Y-54217958D01*
X118717585Y-53947549D01*
X118947549Y-53717585D01*
X119217958Y-53536903D01*
X119518421Y-53412447D01*
X119624744Y-53391298D01*
X119837389Y-53349000D01*
X120162611Y-53349000D01*
X120375256Y-53391298D01*
G37*
G36*
X57995540Y-52932523D02*
G01*
X58181783Y-52969569D01*
X58444938Y-53078571D01*
X58681772Y-53236818D01*
X58883182Y-53438228D01*
X59041429Y-53675062D01*
X59150431Y-53938217D01*
X59206000Y-54217581D01*
X59206000Y-54502419D01*
X59150431Y-54781783D01*
X59041429Y-55044938D01*
X58883182Y-55281772D01*
X58681772Y-55483182D01*
X58444938Y-55641429D01*
X58181783Y-55750431D01*
X58022874Y-55782040D01*
X57902420Y-55806000D01*
X57617580Y-55806000D01*
X57497126Y-55782040D01*
X57338217Y-55750431D01*
X57075062Y-55641429D01*
X56838228Y-55483182D01*
X56636818Y-55281772D01*
X56478571Y-55044938D01*
X56369569Y-54781783D01*
X56314000Y-54502419D01*
X56314000Y-54217581D01*
X56369569Y-53938217D01*
X56478571Y-53675062D01*
X56636818Y-53438228D01*
X56838228Y-53236818D01*
X57075062Y-53078571D01*
X57338217Y-52969569D01*
X57524460Y-52932523D01*
X57617580Y-52914000D01*
X57902420Y-52914000D01*
X57995540Y-52932523D01*
G37*
M02*
